<svg xmlns="http://www.w3.org/2000/svg" width="112" height="112" viewBox="0 0 112 112">
  <g id="Grupo_166933" data-name="Grupo 166933" transform="translate(6352.141 9068.179)">
    <circle id="Elipse_5466" data-name="Elipse 5466" cx="56" cy="56" r="56" transform="translate(-6352.141 -9068.179)" fill="#12263f"/>
    <g id="UB245X" transform="translate(-5833.32 -5397.341)">
      <g id="Grupo_166645" data-name="Grupo 166645" transform="translate(-497.842 -3642.029)">
        <path id="Trazado_210940" data-name="Trazado 210940" d="M-462.713-3589.313q-15.959,0-31.918,0a3.266,3.266,0,0,1-3.21-3.223q0-17.4,0-34.8,0-5.646,0-11.292a3.277,3.277,0,0,1,3.386-3.4q5.32,0,10.639,0h41.148q5.9,0,11.8,0a3.272,3.272,0,0,1,3.315,3.3q.006,9.026,0,18.052,0,14.019,0,28.038a3.27,3.27,0,0,1-2.466,3.229,3.6,3.6,0,0,1-.914.1q-15.891.007-31.781,0Zm19.925-18.161c.051-.094.1-.183.146-.269q.824-1.4,1.649-2.8a6.265,6.265,0,0,1,1.446-1.933,6.212,6.212,0,0,0,.655-.6,1.273,1.273,0,0,1,.983-.39c2.414.01,4.828.007,7.242.009h.922v-.332q0-12.39,0-24.78a1.131,1.131,0,0,0-1.279-1.256h-39.844c0,.806-.007,1.57.009,2.334a.442.442,0,0,0,.2.274q1.727,1.179,3.465,2.341a1.223,1.223,0,0,1,.582,1.094c0,.561-.015,1.122.009,1.681a.647.647,0,0,0,.208.418q.745.632,1.527,1.22a1.259,1.259,0,0,1,.526,1.091c-.008,1.487,0,2.974-.008,4.461a.529.529,0,0,0,.243.48q2.093,1.581,4.172,3.181a1.108,1.108,0,0,1,.133,1.816c-1.527,1.61-3.057,3.216-4.568,4.841a4.071,4.071,0,0,1-1.716,1.254,3.2,3.2,0,0,0-.552.271c-.381.209-.757.427-1.135.64,2.546.064,5.063.065,7.579.057a.49.49,0,0,0,.316-.145q2.426-2.546,4.842-5.1c.1-.1.217-.191.344-.3l1.3,2.215-.016.089c-.4-.191-.575.08-.779.3-1.463,1.545-2.931,3.084-4.384,4.638a1.518,1.518,0,0,1-1.2.517c-2.963-.016-5.927.021-8.889-.024a7.054,7.054,0,0,0-3.832.774c-.118.069-.247.119-.37.179l-.6.295c.722.472,1.385.918,2.062,1.339a1.151,1.151,0,0,0,.567.171c1.43.014,2.86,0,4.29.01a4.571,4.571,0,0,1,.919.06c1.582.334,3.161.688,4.74,1.037a1.092,1.092,0,0,1,.937,1.169q0,1.424,0,2.849v.374h4.857a1.11,1.11,0,0,1,1.255,1.265c0,.3,0,.608,0,.932h.387c1.441,0,2.885.045,4.324-.017a1.152,1.152,0,0,1,1.079,1.76c-.455.8-.815,1.663-1.3,2.45a4.531,4.531,0,0,0-.726,2.95,9.9,9.9,0,0,1,.006,1.083h5.956c.142-.288.251-.548.395-.788.236-.391.495-.768.744-1.151l1.945-2.981c-.058-.071-.1-.125-.144-.175q-2.565-2.833-5.134-5.663a1.533,1.533,0,0,1-.487-1.057c0-.3-.065-.589-.093-.885-.056-.608-.106-1.215-.163-1.87a3.377,3.377,0,0,0,2.221.2c.041.441.062.837.119,1.229a2.419,2.419,0,0,0,.244,1.1c.741.926,1.565,1.787,2.364,2.667,1.069,1.177,2.145,2.345,3.215,3.521a1.1,1.1,0,0,1,.128,1.5c-.362.568-.736,1.129-1.1,1.694l-1.749,2.682h10.587a1.136,1.136,0,0,0,1.279-1.288q0-9.044,0-18.088c0-.122,0-.245,0-.365a.788.788,0,0,0-.131-.03q-3.775,0-7.551.005a.532.532,0,0,0-.324.144c-1.081,1-2.177,1.992-3.221,3.033A1.819,1.819,0,0,1-442.788-3607.474Zm-43.478-7.129a.246.246,0,0,0,.071.026c.48,0,.961.005,1.441.007a1.089,1.089,0,0,1,1.187,1.2c0,1.579-.02,3.158.01,4.736a2.186,2.186,0,0,1-.516,1.676c-.009.01,0,.04.007.079,1.656,0,3.313,0,4.969-.009a.515.515,0,0,0,.323-.194c.745-.882,1.477-1.775,2.222-2.657a1.308,1.308,0,0,1,.422-.34c1.342-.629,2.69-1.244,4.035-1.867a2.568,2.568,0,0,0,.834-.433,12.168,12.168,0,0,1,3.9-2.792,5.12,5.12,0,0,0,1.676-1.254c.45-.5.925-.983,1.388-1.474l2.142-2.273c-.314-.252-.6-.5-.9-.722q-1.489-1.128-2.986-2.244a1.21,1.21,0,0,1-.507-1.06c.01-1.487,0-2.974.009-4.462a.575.575,0,0,0-.246-.518c-.527-.4-1.041-.822-1.56-1.234a1.136,1.136,0,0,1-.477-.973c.016-.549-.005-1.1.008-1.647a.458.458,0,0,0-.24-.443c-1.141-.76-2.269-1.54-3.412-2.3a1.215,1.215,0,0,1-.6-1.146c.014-.319,0-.64-.007-.96-.018-.646-.042-1.292-.063-1.927h-4.39v.439c0,4.531-.007,9.061.008,13.591a1.331,1.331,0,0,1-.787,1.313c-1.5.784-2.975,1.6-4.473,2.38a.587.587,0,0,0-.379.658c.032.352,0,.709.014,1.063a1.077,1.077,0,0,1-.481.964c-.812.591-1.622,1.184-2.422,1.792a.572.572,0,0,0-.21.384C-486.274-3616.358-486.265-3615.492-486.265-3614.6Zm30.228,14.859h-4.873a1.1,1.1,0,0,1-1.235-1.25c0-1.108,0-2.217,0-3.352-.678-.153-1.345-.292-2.006-.456a12.739,12.739,0,0,0-3.685-.443c-1.061.05-2.127-.014-3.19.02a2.364,2.364,0,0,1-1.5-.46c-.955-.662-1.94-1.28-2.934-1.93-.233.279-.454.538-.669.8a19.039,19.039,0,0,0-2.857,3.916,1.289,1.289,0,0,0-.135.482c-.027.96-.03,1.92-.055,2.881a.466.466,0,0,0,.243.469c.809.516,1.6,1.058,2.406,1.581a1.2,1.2,0,0,1,.6,1.078c0,1.509.027,3.019.043,4.528,0,.12,0,.24,0,.351h23.618c0-.69.038-1.355-.01-2.014a3.623,3.623,0,0,1,.552-2.209c.339-.561.61-1.162.937-1.8h-.426c-1.235,0-2.47,0-3.705,0a1.075,1.075,0,0,1-1.123-1.121C-456.04-3599.011-456.037-3599.353-456.037-3599.744Zm-22.075,8.24a.691.691,0,0,0,.032-.131c-.013-1.349-.021-2.7-.051-4.047a.547.547,0,0,0-.23-.365c-.8-.548-1.613-1.081-2.424-1.614a1.187,1.187,0,0,1-.585-1.087c.027-1.394.028-2.789.064-4.183a1.843,1.843,0,0,1,.214-.705c.164-.345.367-.672.577-1.05h-.39c-1.761,0-3.523-.005-5.284,0a1.11,1.11,0,0,1-1.1-.615,1.11,1.11,0,0,1,.171-1.245c.409-.549.816-1.1,1.208-1.662a.818.818,0,0,0,.141-.433c.011-1.132.006-2.265.006-3.4v-.323h-9.887v.353q0,9.608,0,19.216a1.137,1.137,0,0,0,1.283,1.286h16.252Zm-1.627-35.964v-12.354c-.092,0-.159-.01-.227-.01q-7.256,0-14.511,0a1.1,1.1,0,0,0-1.168,1.158c0,2.927,0,5.855-.007,8.783a.316.316,0,0,0,.258.357q2.986,1.032,5.962,2.089a.407.407,0,0,0,.48-.081c.778-.689,1.573-1.36,2.354-2.047a1.124,1.124,0,0,1,1.269-.2l1.2.5Zm-15.885.183v12.692h7.184c0-1.119.01-2.214,0-3.309a1.253,1.253,0,0,1,.566-1.1q1.178-.855,2.338-1.735a.531.531,0,0,0,.184-.354c.021-.456.016-.915,0-1.372a1.109,1.109,0,0,1,.643-1.078q.74-.394,1.479-.79l2.295-1.236c-.154-.066-.253-.111-.354-.152-1.347-.557-2.7-1.109-4.04-1.677a.44.44,0,0,0-.54.1c-.751.669-1.52,1.317-2.275,1.981a1.159,1.159,0,0,1-1.242.219q-1.867-.66-3.734-1.319C-493.946-3626.7-494.772-3626.989-495.624-3627.286Z" transform="translate(497.842 3642.028)" fill="#fff"/>
        <path id="Trazado_210941" data-name="Trazado 210941" d="M110.122-3567.83a10.3,10.3,0,0,1,8.372-10.044,10.287,10.287,0,0,1,8.684,2.126,10,10,0,0,1,3.749,6.847,10.217,10.217,0,0,1-1.531,6.538q-3.924,6.61-7.8,13.249a1.149,1.149,0,0,1-1.053.691,1.2,1.2,0,0,1-1.041-.713c-1.3-2.228-2.616-4.446-3.925-6.669-1.372-2.33-2.754-4.655-4.109-7A9.838,9.838,0,0,1,110.122-3567.83Zm10.429,16.125c.056-.085.082-.121.1-.159q3.541-6.019,7.08-12.041a7.474,7.474,0,0,0,1.052-3.642,7.784,7.784,0,0,0-2.378-5.925,8.007,8.007,0,0,0-7.248-2.274,7.789,7.789,0,0,0-6.016,4.459,7.558,7.558,0,0,0,.3,7.5c1.527,2.636,3.084,5.256,4.629,7.882Z" transform="translate(-68.387 3582.468)" fill="#fff"/>
        <path id="Trazado_210942" data-name="Trazado 210942" d="M199.952-3493.055a4.931,4.931,0,0,1-5,4.921,4.962,4.962,0,0,1-4.893-5.031,4.963,4.963,0,0,1,5-4.851A4.935,4.935,0,0,1,199.952-3493.055Zm-2.2.009a2.757,2.757,0,0,0-2.717-2.773,2.761,2.761,0,0,0-2.775,2.718,2.764,2.764,0,0,0,2.718,2.774A2.761,2.761,0,0,0,197.755-3493.046Z" transform="translate(-142.841 3507.902)" fill="#fff"/>
      </g>
    </g>
  </g>
</svg>
