<svg xmlns="http://www.w3.org/2000/svg" width="112" height="112" viewBox="0 0 112 112">
  <g id="Grupo_166934" data-name="Grupo 166934" transform="translate(6352.141 8752.179)">
    <circle id="Elipse_5466" data-name="Elipse 5466" cx="56" cy="56" r="56" transform="translate(-6352.141 -8752.179)" fill="#12263f"/>
    <path id="Trazado_210939" data-name="Trazado 210939" d="M-419.779-1723.253c-.786.691-1.542,1.372-2.319,2.03a.458.458,0,0,0-.146.577,4.287,4.287,0,0,1-3.136,5.493,4.281,4.281,0,0,1-5.178-3.522,4.078,4.078,0,0,1,1.587-4.034,4.062,4.062,0,0,1,4.283-.589.7.7,0,0,0,.874-.154c.709-.657,1.443-1.287,2.139-1.9-7.538-10.576-8.443-21.649-2.773-33.356l-1.963-.9a5.459,5.459,0,0,1-7.492.7,5.387,5.387,0,0,1-1.407-6.729,5.41,5.41,0,0,1,6.308-2.644,5.442,5.442,0,0,1,3.78,6.1l2.315,1.057c5.2-7.262,12.116-11.783,20.993-12.989,8.851-1.2,16.736,1.208,23.775,6.926a2.215,2.215,0,0,1,.206-.355q1.837-2.191,3.689-4.37a.423.423,0,0,0,.05-.585,5.576,5.576,0,0,1,4.064-8.45,5.6,5.6,0,0,1,6.263,5.229,5.534,5.534,0,0,1-5.916,5.878,12.573,12.573,0,0,1-1.786-.386c-.143-.028-.372-.023-.447.066-1.378,1.6-2.738,3.223-4.122,4.863a30.429,30.429,0,0,1,8.616,20.059l2.947-1.351a8.105,8.105,0,0,1,1.216-6.444,7.946,7.946,0,0,1,4.706-3.27,8.082,8.082,0,0,1,9.383,4.71,8.074,8.074,0,0,1-3.292,10.045,8.119,8.119,0,0,1-10.881-2.429c-.135.053-.284.1-.425.167-1.068.493-2.124,1.016-3.208,1.471a.838.838,0,0,0-.569.83,28.451,28.451,0,0,1-1.422,6.947,29.621,29.621,0,0,1-3.712,7.472c-.1.144-.188.295-.3.472l5.65,2.691a6.6,6.6,0,0,1,3.6-2,6.283,6.283,0,0,1,7.343,5.517,6.255,6.255,0,0,1-6.355,6.938,6.277,6.277,0,0,1-6.031-7.511c.073-.35.024-.5-.311-.66-1.9-.882-3.783-1.792-5.665-2.689-5.969,6.586-13.316,10.246-22.224,10.458S-413.5-1716.948-419.779-1723.253Zm20.536-6.859v-12.556h-12.5a1.286,1.286,0,0,0-.026.185,48.492,48.492,0,0,0,1.475,10.465.686.686,0,0,0,.449.4c2.054.4,4.1.829,6.173,1.135C-402.224-1730.269-400.751-1730.232-399.243-1730.112Zm2.889-.073a1.426,1.426,0,0,0,.192.026,48.2,48.2,0,0,0,10.474-1.476.718.718,0,0,0,.387-.459,45.691,45.691,0,0,0,1.336-8.055c.07-.833.091-1.671.136-2.536h-12.524Zm-15.455-15.394h12.575v-12.49c-.289,0-.546-.012-.8,0a49.688,49.688,0,0,0-9.752,1.41.619.619,0,0,0-.548.554c-.371,2.077-.81,4.144-1.12,6.23C-411.663-1748.473-411.695-1747.047-411.809-1745.579Zm15.46-12.557v12.567h12.483c.007-.1.018-.181.016-.259a47.04,47.04,0,0,0-1.472-10.422.638.638,0,0,0-.42-.368c-2.023-.4-4.042-.827-6.08-1.13C-393.3-1757.967-394.806-1758.01-396.349-1758.135Zm-27.514,5.116.139.055c.424-.348.838-.707,1.273-1.041a29.663,29.663,0,0,1,9.337-4.675,1.009,1.009,0,0,0,.754-.748,29.722,29.722,0,0,1,4.67-9.342c.335-.437.7-.854,1.046-1.281a27.1,27.1,0,0,0-13.616,10.129c.34.156.618.277.891.41a1.4,1.4,0,0,1,.736,1.933,1.426,1.426,0,0,1-1.946.619c-.393-.174-.784-.354-1.269-.574Zm43.822-12.031a27.48,27.48,0,0,0-9.022-5.107c.343.408.607.711.859,1.024a29.849,29.849,0,0,1,5,9.808.8.8,0,0,0,.588.6,30.424,30.424,0,0,1,9.39,4.666c.231.176.455.361.679.546s.442.372.663.558a26.323,26.323,0,0,0-6.094-10.149c-.344.405-.65.779-.97,1.141a1.392,1.392,0,0,1-2.052.228,1.406,1.406,0,0,1-.088-2.068C-380.747-1764.213-380.405-1764.616-380.041-1765.05Zm19.235,19.837a5.221,5.221,0,0,0,6.811,1.239,5.245,5.245,0,0,0,2.048-6.679,5.248,5.248,0,0,0-6.311-2.823,5.173,5.173,0,0,0-3.622,5.623c.152-.062.3-.115.441-.181,1.054-.485,2.1-.986,3.162-1.455a1.4,1.4,0,0,1,2.024,1.109,1.411,1.411,0,0,1-.886,1.462C-358.347-1746.35-359.557-1745.793-360.807-1745.213Zm-56.805,20.042c2.048,2.583,8.4,6.62,11.007,7-.224-.262-.436-.5-.64-.75a29.051,29.051,0,0,1-5.107-9.857,1.085,1.085,0,0,0-.819-.8,30.262,30.262,0,0,1-8.3-3.948c-.784-.546-1.524-1.157-2.342-1.784a27.243,27.243,0,0,0,4.329,8.018l.915-.8c.292-.255.579-.516.875-.766a1.341,1.341,0,0,1,1.4-.246,1.4,1.4,0,0,1,.411,2.4C-416.45-1726.181-417.036-1725.68-417.612-1725.171Zm4.21-7.474a54.786,54.786,0,0,1-1.2-10.031h-10.485c.03.166.044.292.077.412a8.939,8.939,0,0,0,1.794,3.341,19.009,19.009,0,0,0,6.649,4.9C-415.572-1733.546-414.541-1733.139-413.4-1732.645Zm4.237,4.15a1.029,1.029,0,0,0,.017.207,26.133,26.133,0,0,0,4.044,7.447,11.205,11.205,0,0,0,5.119,3.832c.235.079.484.119.757.185v-10.5A54.865,54.865,0,0,1-409.165-1728.5Zm9.925-32.416v-10.515c-.2.049-.354.081-.5.124a9.448,9.448,0,0,0-4.01,2.435,23.184,23.184,0,0,0-5.331,8.772,3.224,3.224,0,0,0-.084.345A53.922,53.922,0,0,1-399.24-1760.912Zm2.878,44.092c.209-.05.364-.082.516-.126a9.778,9.778,0,0,0,4.319-2.75,23.883,23.883,0,0,0,5.065-8.613.863.863,0,0,0,.019-.19,54.667,54.667,0,0,1-9.919,1.177Zm.027-54.6v10.506a54.2,54.2,0,0,1,9.917,1.163c-.053-.178-.078-.3-.126-.413-.429-1.008-.82-2.035-1.3-3.016a18.394,18.394,0,0,0-4.938-6.5A8.4,8.4,0,0,0-396.335-1771.417Zm-17.092,15.926a1.5,1.5,0,0,0-.242.038,25.919,25.919,0,0,0-7.4,4.022,11.181,11.181,0,0,0-3.839,5.117c-.078.234-.124.478-.192.741h10.5A54.788,54.788,0,0,1-413.427-1755.491Zm42.926,9.92c-.051-.2-.088-.375-.137-.543a9.956,9.956,0,0,0-2.87-4.41,24.176,24.176,0,0,0-8.465-4.936c-.051-.019-.114,0-.038,0,.383,3.295.763,6.572,1.149,9.892Zm-18.374,27.389c2.913-.552,10.232-5.366,11.247-7.441-.011-.012-.02-.028-.034-.035-.639-.307-1.28-.609-1.917-.919a1.414,1.414,0,0,1-.816-1.943,1.421,1.421,0,0,1,2.015-.612c.774.361,1.549.722,2.31,1.109a.412.412,0,0,0,.631-.158,28.111,28.111,0,0,0,2.843-5.054c.281-.662.535-1.335.8-2a16.138,16.138,0,0,0-1.423,1.048,30.406,30.406,0,0,1-9.44,4.688.711.711,0,0,0-.528.535,30.922,30.922,0,0,1-3.28,7.36C-387.223-1720.411-388.093-1719.286-388.875-1718.182Zm17.373-21.944-.084-.105c-1.562.722-3.119,1.453-4.688,2.159a2.078,2.078,0,0,1-.923.213,1.336,1.336,0,0,1-1.25-1.153,1.353,1.353,0,0,1,.782-1.513c1.4-.661,2.805-1.3,4.208-1.951.1-.048.2-.111.354-.2h-7.915a54.654,54.654,0,0,1-1.16,9.99C-377.936-1734.34-374.066-1736.3-371.5-1740.126Zm5.385,19.969a3.385,3.385,0,0,0,2.142,3.64,3.458,3.458,0,0,0,4.259-1.521,3.475,3.475,0,0,0-.889-4.437,3.3,3.3,0,0,0-3.972-.094c.235.116.466.225.693.341a1.4,1.4,0,0,1,.7,1.908,1.417,1.417,0,0,1-1.936.629C-365.451-1719.84-365.779-1720-366.117-1720.157Zm-.56-55.243a2.755,2.755,0,0,0-2.776-2.755,2.8,2.8,0,0,0-2.752,2.748,2.8,2.8,0,0,0,2.768,2.78A2.758,2.758,0,0,0-366.677-1775.4Zm-62.646,14.476c-.4-.186-.772-.358-1.144-.533a1.414,1.414,0,0,1-.853-1.924,1.428,1.428,0,0,1,2.009-.643l1.24.549a2.458,2.458,0,0,0-1.916-2.153,2.575,2.575,0,0,0-2.845,1.359,2.535,2.535,0,0,0,.569,3.05A2.447,2.447,0,0,0-429.323-1760.924Zm2.572,40.2a1.418,1.418,0,0,0-1.032,1.54,1.488,1.488,0,0,0,1.3,1.3,1.349,1.349,0,0,0,1.464-.9C-426.39-1718.853-426.734-1719.237-426.751-1720.721Z" transform="translate(-5901.101 -6950.426)" fill="#fff"/>
  </g>
</svg>
