<svg xmlns="http://www.w3.org/2000/svg" xmlns:xlink="http://www.w3.org/1999/xlink" width="140.308" height="140.308" viewBox="0 0 140.308 140.308">
  <defs>
    <filter id="Elipse_5996" x="0" y="0" width="140.308" height="140.308" filterUnits="userSpaceOnUse">
      <feOffset dy="3" input="SourceAlpha"/>
      <feGaussianBlur stdDeviation="3" result="blur"/>
      <feFlood flood-opacity="0.161"/>
      <feComposite operator="in" in2="blur"/>
      <feComposite in="SourceGraphic"/>
    </filter>
  </defs>
  <g id="Grupo_155316" data-name="Grupo 155316" transform="translate(-207.812 -1145.922)">
    <g transform="matrix(1, 0, 0, 1, 207.81, 1145.92)" filter="url(#Elipse_5996)">
      <circle id="Elipse_5996-2" data-name="Elipse 5996" cx="53.235" cy="53.235" r="53.235" transform="matrix(0.16, -0.99, 0.99, 0.16, 9, 111.06)" fill="#fff"/>
    </g>
    <g id="j0mGF0.tif" transform="translate(450.458 4350.257)">
      <g id="Grupo_155314" data-name="Grupo 155314" transform="translate(-201.751 -3171.399)">
        <path id="Trazado_195725" data-name="Trazado 195725" d="M-199.522-3104.2a7.823,7.823,0,0,1-1.629-1.229,2.9,2.9,0,0,1-.575-1.683q-.044-24.674-.021-49.348a2.8,2.8,0,0,1,2.609-2.858c1.964-.086,3.934-.056,5.9-.045a.949.949,0,0,1,1.068.986c.007.6-.407,1-1.122,1.007-1.64.016-3.28,0-4.92.006-1.274,0-1.544.269-1.544,1.527q0,24.05,0,48.1c0,1.265.271,1.538,1.533,1.538h32.343c1.19,0,1.488-.26,1.489-1.449q.013-11.023,0-22.048a3.143,3.143,0,0,0-.042-.33h-.774q-10.792,0-21.584,0a2.952,2.952,0,0,1-3.182-3.186q0-12.271,0-24.542c0-3.521.019-7.043.031-10.564a2.917,2.917,0,0,1,3.088-3.076q14.63,0,29.26,0a2.915,2.915,0,0,1,3.072,3.092c.006,3.172.023,6.343-.013,9.515a1.5,1.5,0,0,1-.521,1.019.964.964,0,0,1-.941-.033,1.6,1.6,0,0,1-.47-1.054c-.036-3.04-.02-6.08-.021-9.121,0-1.173-.283-1.451-1.476-1.451H-186.5c-1.194,0-1.473.276-1.473,1.454q0,17.258,0,34.517c0,1.14.292,1.431,1.432,1.431h28.6c1.173,0,1.452-.284,1.453-1.476q0-10.368,0-20.737c0-1.139.279-1.415,1.44-1.415q2.591,0,5.183.006c.8,0,1.266.38,1.249,1.009-.016.6-.464.957-1.234.958-1.527,0-3.053,0-4.621,0v3.936h1.138c1.2,0,2.406-.007,3.608,0a1,1,0,0,1,1.108.95,1,1,0,0,1-1.112,1.013c-1.57.009-3.139,0-4.746,0v3.937h2.726c.678,0,1.356-.009,2.034,0a1,1,0,0,1,1.1.96,1,1,0,0,1-1.122,1c-1.421.01-2.843.006-4.264.01-.148,0-.3.012-.476.021v3.908h3.4c.415,0,.831,0,1.247,0,.764.007,1.214.367,1.22.972s-.447.993-1.2,1c-1.53,0-3.06,0-4.7,0v3.937h2.168c.9,0,1.793-.012,2.69,0a.979.979,0,0,1,1.036.955.979.979,0,0,1-1.053,1c-1.487.015-2.974.01-4.461.01q-3.74,0-7.479,0h-.74v3.925h.7l11.481.006c.153,0,.306,0,.459,0a1,1,0,0,1,1.092.968.993.993,0,0,1-1.063,1c-.437.013-.875,0-1.312,0l-10.628.006h-.734v6.161h1.7q7.348,0,14.7,0c.928,0,1.279-.342,1.279-1.253q0-21.393,0-42.786c0-.931-.325-1.256-1.261-1.259-1.749-.006-3.5,0-5.248-.006a2.311,2.311,0,0,1-.707-.092.806.806,0,0,1-.617-1.008,1.621,1.621,0,0,1,.771-.828,2.445,2.445,0,0,1,1.033-.068c1.422,0,2.846.057,4.264-.017a3.366,3.366,0,0,1,3.735,2.3v44.754c-.7,1.739-2,2.284-3.828,2.258-5.048-.074-10.1-.013-15.148,0-.211,0-.423.021-.64.031v5.841c3.625,0,7.206.009,10.787-.009a.953.953,0,0,0,.945-1.049c.018-.612,0-1.224,0-1.837a.964.964,0,0,1,.931-1.042.988.988,0,0,1,1.039,1.021c.017.59.006,1.181,0,1.771a2.926,2.926,0,0,1-3.108,3.122q-4.951.005-9.9,0h-.766a3.641,3.641,0,0,1-.008.765,5.425,5.425,0,0,1-.56,1.892,7.085,7.085,0,0,1-1.659,1.283Z" transform="translate(201.751 3171.399)" fill="#12263f"/>
        <path id="Trazado_195726" data-name="Trazado 195726" d="M-68.286-3106.561h-12.4c-1.026,0-1.349-.307-1.334-1.317.022-1.507-.018-3.022.127-4.517a5.568,5.568,0,0,1,3.346-4.679c1.058-.506,2.186-.865,3.275-1.309a3.773,3.773,0,0,0,2.11-1.459.835.835,0,0,0-.217-1.264,8.008,8.008,0,0,1-3.11-6.5,50.206,50.206,0,0,1,.12-5.109,8.241,8.241,0,0,1,7.607-7.077,8.308,8.308,0,0,1,8.77,8.462c-.018,1.573.024,3.152-.1,4.719a7.7,7.7,0,0,1-3.08,5.567c-.425.336-.514.679-.218,1.031a4.977,4.977,0,0,0,1.361,1.246,24.9,24.9,0,0,0,2.605,1.042c.446.176.894.349,1.326.556a6.131,6.131,0,0,1,3.619,5.7c.046,1.2.012,2.406.01,3.609,0,.977-.32,1.3-1.288,1.3Q-62.021-3106.559-68.286-3106.561Zm-2.7-13.1a5.576,5.576,0,0,1-3.649,3.182c-.979.365-1.966.716-2.921,1.137a3.573,3.573,0,0,0-2.269,2.769c-.194,1.3-.2,2.634-.287,3.97H-56.47c0-.971.03-1.89-.006-2.805a4.291,4.291,0,0,0-2.988-4.185c-.735-.272-1.474-.534-2.207-.811a6.56,6.56,0,0,1-3.144-2.032c-.281-.374-.5-.8-.743-1.2A8.909,8.909,0,0,1-70.986-3119.662Zm-3.593-9.926.157.008c0,.9-.059,1.8.011,2.686a6.2,6.2,0,0,0,5.717,5.606,6.022,6.022,0,0,0,6.4-4.607,28.354,28.354,0,0,0,.2-6.261,6.088,6.088,0,0,0-5.537-5.621,6.142,6.142,0,0,0-6.613,4.68A26.829,26.829,0,0,0-74.579-3129.588Z" transform="translate(97.764 3143.965)" fill="#12263f"/>
      </g>
    </g>
  </g>
</svg>
