<svg xmlns="http://www.w3.org/2000/svg" width="112" height="112" viewBox="0 0 112 112">
  <g id="Grupo_166931" data-name="Grupo 166931" transform="translate(-1015.859 -2333.9)">
    <circle id="Elipse_5466" data-name="Elipse 5466" cx="56" cy="56" r="56" transform="translate(1015.859 2333.9)" fill="#12263f"/>
    <g id="H6KTQT.tif" transform="translate(1533.627 2467.295)">
      <g id="Grupo_166643" data-name="Grupo 166643" transform="translate(-504.268 -113.923)">
        <path id="Trazado_210923" data-name="Trazado 210923" d="M-503.411-54.246c-.937-.781-1.132-1.59-.451-2.174a2.292,2.292,0,0,1,1.072-.381,8.089,8.089,0,0,1,1.252-.013v-1q0-9.42,0-18.84c0-1.614.357-1.967,2.011-1.968q5.224,0,10.448,0h1.145v-.945q0-3.946,0-7.892c0-1.675.38-2.062,2.031-2.063q3.907,0,7.814,0h1.041v-.958q0-3.9,0-7.808c0-1.74.358-2.105,2.068-2.116.252,0,.5,0,.784,0a6.852,6.852,0,0,1,3.2-4.456,4.163,4.163,0,0,1,1.3-.6c.739-.127.844-.519.83-1.172-.041-1.838-.021-3.677-.008-5.516,0-.334-.033-.771.153-.979.325-.363.821-.82,1.221-.8s.845.53,1.117.929a2.108,2.108,0,0,1,.114,1.076c.009,1.839.021,3.678-.006,5.516a.772.772,0,0,0,.647.892,6.462,6.462,0,0,1,4.484,4.472.763.763,0,0,0,.886.642c1.855,0,2.18.344,2.18,2.169,0,3.76,0,7.521,0,11.386.336.016.634.042.931.042q5.351,0,10.7,0c1.559,0,1.977.417,1.983,1.947q.006,1.612.017,3.224a1.385,1.385,0,0,0,.1.275h1.7c1.472,0,2.945,0,4.417,0,1.516.006,1.929.413,1.931,1.9q0,5.346,0,10.693v1.041h1.053q6.668,0,13.336,0c1.608,0,1.935.333,1.935,1.939,0,2.941,0,5.881,0,8.915.959.111,2.031-.18,2.722.744v1.867Zm34.434-2.61a1.112,1.112,0,0,0,.08-.237c.008-.679.01-1.357.017-2.036q.019-1.725,1.281-1.751c.885-.018,1.318.554,1.331,1.777.008.728,0,1.457,0,2.229h2.834c0-.846-.016-1.635,0-2.422.026-1.013.485-1.565,1.277-1.582.837-.018,1.309.534,1.335,1.6.019.785,0,1.571,0,2.4h2.76c.254-1.02-.339-2.578,1.349-2.6,1.748-.026,1.189,1.559,1.419,2.606h8.163v-5.5c-.2-.017-.344-.038-.484-.039-1.189,0-2.379.023-3.567-.019a1.259,1.259,0,0,1-1.3-1.284,1.229,1.229,0,0,1,1.308-1.259c.338-.026.679-.014,1.019-.015,1.006,0,2.012,0,3.028,0v-2.863c-1.308,0-2.552.013-3.795,0-.989-.014-1.558-.506-1.558-1.3,0-.812.521-1.259,1.556-1.28,1.076-.021,2.153.014,3.227-.024.212-.007.587-.221.6-.36.058-.8.028-1.612.028-2.473-.865,0-1.6.011-2.332,0a15.656,15.656,0,0,1-2.111-.1,1.11,1.11,0,0,1-.955-1.3,1.115,1.115,0,0,1,1.05-1.136,12.032,12.032,0,0,1,1.353-.066c.977-.009,1.953,0,2.954,0v-2.835c-.807,0-1.565,0-2.322,0a16.466,16.466,0,0,1-1.865-.044,1.194,1.194,0,0,1-1.173-1.305A1.184,1.184,0,0,1-451.3-81.3a8.241,8.241,0,0,1,1.016-.044c1.042-.005,2.084,0,3.166,0v-2.778h-10.969c0,.36.007.665,0,.971-.03,1.053-.508,1.661-1.3,1.666s-1.284-.614-1.318-1.653c-.006-.2,0-.4,0-.594V-97.776c-.373-.017-.65-.035-.927-.041-1.327-.03-1.7-.376-1.825-1.691a4.115,4.115,0,0,0-6.06-3.234,3.94,3.94,0,0,0-2.143,3.161c-.162,1.427-.494,1.734-1.848,1.765-.3.007-.595.034-.9.052v8.239c1.142,0,2.238,0,3.334,0,1.713,0,2.08.37,2.08,2.1q0,6.577,0,13.155v1.048h8.294c0-.558-.01-1.063,0-1.568.021-.931.012-1.865.1-2.79a1.08,1.08,0,0,1,1.184-.988,1.132,1.132,0,0,1,1.231.942,4.884,4.884,0,0,1,.1,1.005c.012,1.122,0,2.245,0,3.388.27.029.435.057.6.062,1.851.062,2.123.346,2.124,2.224,0,2.207.006,4.413-.006,6.62a1.874,1.874,0,0,1-.164,1.063c-.289.359-.789.8-1.161.771-.417-.036-.86-.509-1.159-.894-.176-.226-.121-.652-.123-.988-.01-1.754,0-3.508-.007-5.262,0-.3-.028-.593-.042-.868h-13.652v13.648Zm-21.731,0c.182-1.064-.362-2.545,1.258-2.613,1.838-.076,1.185,1.585,1.415,2.61h2.833c0-.517-.038-.994.009-1.462a1.242,1.242,0,0,1,1.293-1.194,1.209,1.209,0,0,1,1.238,1.229c.04.468.045.939.066,1.414h2.758v-19.1h-19.1v19.089h2.789c.195-1.029-.383-2.52,1.246-2.59,1.843-.08,1.193,1.576,1.418,2.612Zm51.732-8.233v8.2h4.2c0-1.4-.028-2.726.009-4.052a1.244,1.244,0,0,1,1.673-1.243,1.337,1.337,0,0,1,.876,1.407c-.006,1.292,0,2.584,0,3.887h2.885c0-1.287-.008-2.5.005-3.716a2.309,2.309,0,0,1,.125-.909,1.171,1.171,0,0,1,1.4-.7,1.2,1.2,0,0,1,1.021,1.271c.02,1.348.006,2.7.006,4.062h4.21v-8.212Zm.032-2.67V-78.67h-5.446v21.81h2.791v-.948q0-3.988,0-7.976c0-1.569.328-1.9,1.864-1.93C-439.486-67.72-439.237-67.744-438.944-67.763Zm-46.379-16.372h13.652v-2.709h-13.652Zm0,5.444h13.644v-2.7H-485.32Zm8.176,5.425h5.479v-2.689h-5.479Zm-.04,2.726c0,.855-.021,1.614.017,2.37.008.155.231.421.365.427.805.041,1.614.02,2.411.02v-2.817Zm2.8,5.463h-2.754v2.76h2.754Zm.011,5.452h-2.757v2.753h2.757Z" transform="translate(504.268 113.923)" fill="#fff"/>
        <path id="Trazado_210924" data-name="Trazado 210924" d="M-261.839,159.4c0,.32,0,.434,0,.547-.042.994-.51,1.589-1.269,1.616-.777.028-1.318-.615-1.347-1.626a5.982,5.982,0,0,1,.041-1.1,1.205,1.205,0,0,1,1.315-1.161,1.2,1.2,0,0,1,1.22,1.17A4.679,4.679,0,0,1-261.839,159.4Z" transform="translate(305.294 -111.434)" fill="#fff"/>
        <path id="Trazado_210925" data-name="Trazado 210925" d="M-296.7,159.584a7.738,7.738,0,0,1,.178-1.077,1.126,1.126,0,0,1,1.229-.831,1.081,1.081,0,0,1,1.145.928,8.194,8.194,0,0,1,.07,1.683,1.245,1.245,0,0,1-1.235,1.266,1.341,1.341,0,0,1-1.325-1.284,5.251,5.251,0,0,1,0-.677Z" transform="translate(332.04 -111.429)" fill="#fff"/>
        <path id="Trazado_210926" data-name="Trazado 210926" d="M-278.858,64.163a1.309,1.309,0,0,1-1.29-1.3,1.273,1.273,0,0,1,1.257-1.238,1.293,1.293,0,0,1,1.294,1.208A1.315,1.315,0,0,1-278.858,64.163Z" transform="translate(318.309 -31.731)" fill="#fff"/>
        <path id="Trazado_210927" data-name="Trazado 210927" d="M-277.6-1.148A1.265,1.265,0,0,1-278.944.086a1.262,1.262,0,0,1-1.214-1.274,1.332,1.332,0,0,1,1.251-1.263A1.342,1.342,0,0,1-277.6-1.148Z" transform="translate(318.317 21.432)" fill="#fff"/>
        <path id="Trazado_210928" data-name="Trazado 210928" d="M-278.9,32.087a1.269,1.269,0,0,1-1.242-1.332,1.31,1.31,0,0,1,1.3-1.206A1.328,1.328,0,0,1-277.6,30.9,1.276,1.276,0,0,1-278.9,32.087Z" transform="translate(318.309 -5.119)" fill="#fff"/>
        <path id="Trazado_210929" data-name="Trazado 210929" d="M-278.86,96.194a1.327,1.327,0,0,1-1.281-1.318,1.249,1.249,0,0,1,1.264-1.22,1.272,1.272,0,0,1,1.285,1.206A1.328,1.328,0,0,1-278.86,96.194Z" transform="translate(318.303 -58.311)" fill="#fff"/>
        <path id="Trazado_210930" data-name="Trazado 210930" d="M-310.943.09a1.275,1.275,0,0,1-1.251-1.242,1.335,1.335,0,0,1,1.309-1.294,1.317,1.317,0,0,1,1.237,1.354A1.232,1.232,0,0,1-310.943.09Z" transform="translate(344.899 21.428)" fill="#fff"/>
        <path id="Trazado_210931" data-name="Trazado 210931" d="M-389.825,167.61c.018,1.286-.4,1.925-1.243,1.934s-1.308-.654-1.308-1.909a5.668,5.668,0,0,1,.025-.846,1.241,1.241,0,0,1,1.342-1.134,1.17,1.17,0,0,1,1.181,1.193C-389.807,167.1-389.825,167.356-389.825,167.61Z" transform="translate(411.431 -118.048)" fill="#fff"/>
        <path id="Trazado_210932" data-name="Trazado 210932" d="M-453.744,127.608c0,1.318-.38,1.925-1.229,1.955-.878.032-1.321-.627-1.321-1.964,0-.2-.008-.4,0-.593a1.27,1.27,0,0,1,1.326-1.334,1.242,1.242,0,0,1,1.219,1.342C-453.735,127.212-453.744,127.411-453.744,127.608Z" transform="translate(464.465 -84.876)" fill="#fff"/>
        <path id="Trazado_210933" data-name="Trazado 210933" d="M-421.791,127.628c.009,1.305-.389,1.925-1.239,1.942q-1.314.028-1.313-1.98a6.758,6.758,0,0,1,.01-.678,1.262,1.262,0,0,1,1.342-1.233,1.216,1.216,0,0,1,1.2,1.271C-421.777,127.175-421.791,127.4-421.791,127.628Z" transform="translate(437.955 -84.882)" fill="#fff"/>
        <path id="Trazado_210934" data-name="Trazado 210934" d="M-421.765,167.6c0,1.281-.43,1.924-1.278,1.917s-1.283-.655-1.285-1.928q0-.085,0-.17c0-1.21.432-1.8,1.3-1.8s1.261.565,1.266,1.813C-421.765,167.49-421.765,167.547-421.765,167.6Z" transform="translate(437.939 -118.023)" fill="#fff"/>
        <path id="Trazado_210935" data-name="Trazado 210935" d="M-389.821,127.646c.019,1.3-.389,1.924-1.239,1.936-.874.012-1.315-.654-1.312-1.986a5.149,5.149,0,0,1,.023-.761,1.242,1.242,0,0,1,1.339-1.138,1.168,1.168,0,0,1,1.186,1.188C-389.8,127.137-389.821,127.392-389.821,127.646Z" transform="translate(411.427 -84.893)" fill="#fff"/>
        <path id="Trazado_210936" data-name="Trazado 210936" d="M-453.731,167.541c0,1.349-.427,2-1.3,1.982-.848-.021-1.257-.655-1.257-1.947,0-.113,0-.226,0-.339.013-1.058.475-1.626,1.308-1.612.8.014,1.229.552,1.245,1.577C-453.73,167.315-453.731,167.428-453.731,167.541Z" transform="translate(464.455 -118.026)" fill="#fff"/>
      </g>
    </g>
  </g>
</svg>
