<svg xmlns="http://www.w3.org/2000/svg" width="466" height="321.947" viewBox="0 0 466 321.947">
  <g id="Grupo_152735" data-name="Grupo 152735" transform="translate(-553.436 -7248.03)">
    <g id="Grupo_152733" data-name="Grupo 152733" transform="translate(554.436 7422.544)">
      <g id="Grupo_152693" data-name="Grupo 152693" transform="translate(0)">
        <text id="SECTOR_ECONÓMICO" data-name="SECTOR ECONÓMICO" transform="translate(232 77.088)" fill="#12263f" font-size="45" font-family="OpenSans-Bold, Open Sans" font-weight="700"><tspan x="-232.921" y="0">SECTOR ECONÓMICO</tspan></text>
        <text id="CLASIFICACIÓN" transform="translate(230.585 27)" fill="#12263f" font-size="25" font-family="OpenSans-Semibold, Open Sans" font-weight="600"><tspan x="-91.669" y="0">CLASIFICACIÓN</tspan></text>
      </g>
      <g id="Grupo_152694" data-name="Grupo 152694" transform="translate(154.214 124.519)">
        <path id="Trazado_194078" data-name="Trazado 194078" d="M247.882,273.936a11.457,11.457,0,1,1-11.457-11.457A11.458,11.458,0,0,1,247.882,273.936Z" transform="translate(-224.968 -262.479)" fill="#e7f65a"/>
        <path id="Trazado_194079" data-name="Trazado 194079" d="M259.041,273.936a11.457,11.457,0,1,1-11.457-11.457A11.458,11.458,0,0,1,259.041,273.936Z" transform="translate(-193.497 -262.479)" fill="#cbb6ee"/>
        <path id="Trazado_194080" data-name="Trazado 194080" d="M270.2,273.936a11.457,11.457,0,1,1-11.457-11.457A11.458,11.458,0,0,1,270.2,273.936Z" transform="translate(-162.025 -262.479)" fill="#2194e5"/>
        <path id="Trazado_194081" data-name="Trazado 194081" d="M281.359,273.936A11.457,11.457,0,1,1,269.9,262.479,11.458,11.458,0,0,1,281.359,273.936Z" transform="translate(-130.554 -262.479)" fill="#afafaf"/>
        <path id="Trazado_194082" data-name="Trazado 194082" d="M292.518,273.936a11.457,11.457,0,1,1-11.457-11.457A11.458,11.458,0,0,1,292.518,273.936Z" transform="translate(-99.083 -262.479)" fill="#b0c0d2"/>
        <path id="Trazado_194083" data-name="Trazado 194083" d="M303.677,273.936a11.457,11.457,0,1,1-11.457-11.457A11.458,11.458,0,0,1,303.677,273.936Z" transform="translate(-67.611 -262.479)" fill="#c9e8fd"/>
      </g>
    </g>
    <g id="aRzfxz.tif" transform="translate(987.562 12157.256)">
      <g id="Grupo_166658" data-name="Grupo 166658" transform="translate(-273.858 -4909.226)">
        <path id="Trazado_210943" data-name="Trazado 210943" d="M-273.858-4788.951v-1.984c.091-.409.2-.814.268-1.227a13.973,13.973,0,0,1,10.936-11.771,48.262,48.262,0,0,1,7.066-.4l3.812-6.832c-19.256-13.429-18.287-43.375,1.741-55.543-2.091-4.412-4.164-8.843-6.326-13.231-.172-.348-.979-.581-1.468-.546a14.324,14.324,0,0,1-13.036-5.657,16.437,16.437,0,0,1-2.993-7.665v-1.983c.1-.5.22-1,.3-1.508a14.388,14.388,0,0,1,16.849-11.644,13.808,13.808,0,0,1,11.048,9.849c1.726,5.519.351,10.448-3.715,14.561a1.221,1.221,0,0,0-.265,1.681c1.729,3.563,3.419,7.145,5.124,10.719.377.791.76,1.579,1.129,2.345a33.614,33.614,0,0,1,39.913,15.045,2.009,2.009,0,0,0,.382-.084q13.289-5.616,26.581-11.226c.855-.359.707-.846.6-1.562a75.091,75.091,0,0,1-1-8.542,72.022,72.022,0,0,1,.617-7.888c-1.713-.642-3.62-1.306-5.482-2.077a1.562,1.562,0,0,0-2.136.531,13.83,13.83,0,0,1-13.146,5,14.289,14.289,0,0,1-12.174-15.021c.251-6.878,6.049-13,12.784-13.493,7.82-.575,14.292,4.261,15.765,11.64.282,1.413-.612,3.21.735,4.177,1.182.848,2.781,1.115,4.2,1.639a2.356,2.356,0,0,1,.4.149c1.315.792,2,.431,2.789-.951a33.1,33.1,0,0,1,35.04-16.147,33.15,33.15,0,0,1,26.639,36.719,33.13,33.13,0,0,1-36.686,28.836c-1.341-.169-2.674-.4-4.05-.606q-6.118,16.957-12.186,33.729c-.287.791.021,1.078.648,1.406a32.849,32.849,0,0,1,8.713,6.7c.47.5.944,1,1.418,1.494l14.331-9.323c-.1-.424-.172-.74-.247-1.056a14.287,14.287,0,0,1,16.378-17.626,13.492,13.492,0,0,1,11.469,10.588,13.536,13.536,0,0,1-5.105,14.884c-4.811,3.729-10.32,4.377-15.491,1.236-2.779-1.688-4.388-1.244-6.657.4-3.427,2.487-7.073,4.672-10.694,7.03,4.039,8.58,4.731,17.319,1.515,26.187a32.63,32.63,0,0,1-17.834,19.146c-15.7,7.168-37.782.5-44.786-19.159-2.875.674-5.747,1.416-8.652,2a2.316,2.316,0,0,0-2.211,2.39,14.206,14.206,0,0,1-13.723,12.193,14.4,14.4,0,0,1-14.426-10.877,14.423,14.423,0,0,1,7.839-16.53,14.123,14.123,0,0,1,17.651,4.574,2.548,2.548,0,0,0,3.31,1.212c2.84-.794,5.728-1.415,8.653-2.121a33.337,33.337,0,0,1,8.043-26.046l-9.328-10.254c-10.143,6.9-20.882,8.108-32.352,3.779-1.156,2.07-2.254,4.148-3.468,6.157a1.519,1.519,0,0,0,.258,2.162,14.287,14.287,0,0,1-1.325,20.2,14.442,14.442,0,0,1-20.434-1.456A16.744,16.744,0,0,1-273.858-4788.951Zm102.9-22.58,12.377-34.31A93.168,93.168,0,0,1-166.6-4852a91.458,91.458,0,0,1-6.514-7.591l-27.518,11.666c3.081,11.749.776,22.227-6.939,31.539l9.339,10.255A33.237,33.237,0,0,1-170.961-4811.531ZM-123.3-4860.4a25.522,25.522,0,0,0-3.085-34.741,25.787,25.787,0,0,0-36.983,2.167c-9.539,11.042-7.036,25.713-.887,32.49a20.476,20.476,0,0,1,9.111-9.128c-4.481-7.868-3.819-14.834,1.8-19.86a14.381,14.381,0,0,1,18.153-.734,13.971,13.971,0,0,1,5.321,7.951,14.612,14.612,0,0,1-2.664,12.621A20.562,20.562,0,0,1-123.3-4860.4Zm-88.718,37.657c7.352-8.882,8.04-24.545-3.015-34.767a25.819,25.819,0,0,0-36.623,1.729c-9.538,10.433-8,25.226-1.336,32.889a20.4,20.4,0,0,1,9.159-9.118c-5.132-7.132-3.316-14.946,1.235-19.372a14.4,14.4,0,0,1,18.228-1.529,13.842,13.842,0,0,1,5.656,7.892,14.464,14.464,0,0,1-2.58,13A20.683,20.683,0,0,1-212.021-4822.739Zm53.771,59.149a25.656,25.656,0,0,0-3.236-34.967,25.91,25.91,0,0,0-35.746,1.154c-10.18,10.556-8.911,25.449-2.034,33.674a20.412,20.412,0,0,1,9.166-9.132c-5.389-7.468-3.034-15.854,2.046-20.114a14.527,14.527,0,0,1,18.515.01c4.773,3.938,7.633,12.253,2.047,20.107A20.744,20.744,0,0,1-158.25-4763.59Zm-20.366-4.243-.039.259c-.755,0-1.51-.014-2.265,0-5.894.13-10.417,3.229-12.262,8.333a1.292,1.292,0,0,0,.562,1.854,25.853,25.853,0,0,0,27.714.023,1.212,1.212,0,0,0,.53-1.739,11.847,11.847,0,0,0-7.73-7.693A42.894,42.894,0,0,0-178.616-4767.833Zm34.868-96.675-.023.2c-.944,0-1.889-.011-2.833,0a12.657,12.657,0,0,0-11.644,8.422,1.258,1.258,0,0,0,.652,1.8q13.75,8.075,27.5.048a1.313,1.313,0,0,0,.707-1.913,12.142,12.142,0,0,0-8.352-7.81A41.638,41.638,0,0,0-143.747-4864.507Zm-103.457,47.33a5.04,5.04,0,0,0,.4.344c8,5.688,20.008,5.81,28.19.341a1.24,1.24,0,0,0,.494-1.77c-1.7-4.366-4.743-7.334-9.4-8.09a42.363,42.363,0,0,0-8.6-.256A12.207,12.207,0,0,0-247.2-4817.178Zm12.117,44.313a7.038,7.038,0,0,0-7.189,7,7.22,7.22,0,0,0,7.068,7.205,7.237,7.237,0,0,0,7.132-7.152A7.062,7.062,0,0,0-235.087-4772.864Zm33.145-121.965a7.085,7.085,0,0,0,7.087,7.127,7.227,7.227,0,0,0,7.121-7.154,7.19,7.19,0,0,0-7.08-7.045A7.043,7.043,0,0,0-201.942-4894.829Zm23.127,105.812a7.065,7.065,0,0,0-7.066,7.139,7.136,7.136,0,0,0,7.027,7.07,7.215,7.215,0,0,0,7.168-7.1A7.138,7.138,0,0,0-178.815-4789.017Zm-73.457-105.735a7.128,7.128,0,0,0-7.082-7.15,7.2,7.2,0,0,0-7.153,7.112,7.212,7.212,0,0,0,7.044,7.088A7.148,7.148,0,0,0-252.272-4894.752Zm101.387,16.055a7.11,7.11,0,0,0,7.068,7.12,7.2,7.2,0,0,0,7.141-7.093,7.277,7.277,0,0,0-7.117-7.153A7.153,7.153,0,0,0-150.885-4878.7Zm-81.618,44.745a7.193,7.193,0,0,0,7.079-7.153,7.241,7.241,0,0,0-7.171-7.077,7.133,7.133,0,0,0-7.037,7.169A7.108,7.108,0,0,0-232.5-4833.952Zm114.58,19.75a7.059,7.059,0,0,0-7.091-7.078,7.2,7.2,0,0,0-7.117,7.114,7.251,7.251,0,0,0,7.153,7.1A7.1,7.1,0,0,0-117.923-4814.2Zm-141.521,31.269a7.073,7.073,0,0,0,7.175-7,7.226,7.226,0,0,0-7.033-7.21,7.284,7.284,0,0,0-7.2,7.071A7.132,7.132,0,0,0-259.444-4782.934Z" transform="translate(273.858 4909.226)" fill="#12263f"/>
      </g>
    </g>
  </g>
</svg>
