<svg xmlns="http://www.w3.org/2000/svg" xmlns:xlink="http://www.w3.org/1999/xlink" width="1218" height="869" viewBox="0 0 1218 869">
  <defs>
    <linearGradient id="linear-gradient" x1="0.5" x2="0.5" y2="1" gradientUnits="objectBoundingBox">
      <stop offset="0" stop-color="#7e53c5"/>
      <stop offset="1" stop-color="#080383"/>
    </linearGradient>
    <linearGradient id="linear-gradient-2" x1="0.5" x2="0.5" y2="1" gradientUnits="objectBoundingBox">
      <stop offset="0" stop-color="#116eb9"/>
      <stop offset="1" stop-color="#1894f6"/>
    </linearGradient>
    <clipPath id="clip-path">
      <rect id="Rectángulo_50286" data-name="Rectángulo 50286" width="289.119" height="289.146" fill="#12263f"/>
    </clipPath>
  </defs>
  <g id="Grupo_166930" data-name="Grupo 166930" transform="translate(-213 -8081)">
    <g id="Trazado_211163" data-name="Trazado 211163" transform="translate(325 8104)" fill="none">
      <path d="M493,0C765.276,0,986,179.31,986,400.5S765.276,801,493,801,0,621.69,0,400.5,220.724,0,493,0Z" stroke="none"/>
      <path d="M 493 4 C 476.2927551269531 4 459.4442749023438 4.69110107421875 442.9224853515625 6.05426025390625 C 426.6414794921875 7.39739990234375 410.2822265625 9.42559814453125 394.2992553710938 12.0826416015625 C 378.52490234375 14.70489501953125 362.7378540039062 18.00250244140625 347.3767700195312 21.88372802734375 C 332.1897583007812 25.72113037109375 317.0579833984375 30.22027587890625 302.4019775390625 35.2562255859375 C 273.4048461914062 45.2197265625 245.4397583007812 57.55047607421875 219.2835083007812 71.90576171875 C 193.3886108398438 86.11761474609375 169.04150390625 102.436279296875 146.9185180664062 120.4083862304688 C 124.8104858398438 138.3682250976562 104.7426147460938 158.1265258789062 87.2720947265625 179.13427734375 C 78.5106201171875 189.6697387695312 70.2862548828125 200.667236328125 62.8275146484375 211.8213500976562 C 55.3184814453125 223.0505981445312 48.40887451171875 234.702880859375 42.29022216796875 246.4546508789062 C 36.11712646484375 258.3110961914062 30.60260009765625 270.5509033203125 25.89990234375 282.833740234375 C 21.1453857421875 295.2517395019531 17.10638427734375 308.0127563476562 13.8948974609375 320.7623901367188 C 10.641845703125 333.676513671875 8.15875244140625 346.8940124511719 6.514404296875 360.04736328125 C 4.84600830078125 373.3937377929688 4 387.0039978027344 4 400.5 C 4 413.9960021972656 4.84600830078125 427.6062622070312 6.514404296875 440.95263671875 C 8.15875244140625 454.1059875488281 10.641845703125 467.323486328125 13.8948974609375 480.2376098632812 C 17.10638427734375 492.9872436523438 21.1453857421875 505.7482604980469 25.89990234375 518.166259765625 C 30.60260009765625 530.4490966796875 36.11712646484375 542.6888427734375 42.29022216796875 554.54541015625 C 48.40887451171875 566.297119140625 55.3184814453125 577.9493408203125 62.8275146484375 589.1785888671875 C 70.2862548828125 600.332763671875 78.5106201171875 611.3302612304688 87.2720947265625 621.86572265625 C 104.7426147460938 642.87353515625 124.8104858398438 662.6317138671875 146.9185180664062 680.5916137695312 C 169.04150390625 698.563720703125 193.3886108398438 714.8823852539062 219.2835083007812 729.09423828125 C 245.4397583007812 743.4495239257812 273.4048461914062 755.7802734375 302.4019775390625 765.7437744140625 C 317.0579833984375 770.7797241210938 332.1897583007812 775.2788696289062 347.3767700195312 779.1162719726562 C 362.7378540039062 782.9974975585938 378.52490234375 786.2951049804688 394.2992553710938 788.9173583984375 C 410.2822265625 791.5744018554688 426.6414794921875 793.6026000976562 442.9224853515625 794.9457397460938 C 459.4442749023438 796.3088989257812 476.2927551269531 797 493 797 C 509.7072448730469 797 526.5557861328125 796.3088989257812 543.0775146484375 794.9457397460938 C 559.3585205078125 793.6026000976562 575.7177734375 791.5744018554688 591.7007446289062 788.9173583984375 C 607.47509765625 786.2951049804688 623.2620849609375 782.9974975585938 638.623291015625 779.1162719726562 C 653.8102416992188 775.2788696289062 668.9420166015625 770.7797241210938 683.5980224609375 765.7437744140625 C 712.5950927734375 755.7802734375 740.5602416992188 743.4495239257812 766.7164916992188 729.09423828125 C 792.6113891601562 714.8823852539062 816.95849609375 698.563720703125 839.0814819335938 680.5916137695312 C 861.1895141601562 662.6317138671875 881.2573852539062 642.87353515625 898.7279052734375 621.86572265625 C 907.4893798828125 611.3302612304688 915.7137451171875 600.332763671875 923.1724853515625 589.1785888671875 C 930.6815185546875 577.9493408203125 937.5911254882812 566.297119140625 943.7097778320312 554.54541015625 C 949.8828735351562 542.6888427734375 955.3973999023438 530.4490966796875 960.10009765625 518.166259765625 C 964.8546142578125 505.7482604980469 968.8936157226562 492.9872436523438 972.1051025390625 480.2376098632812 C 975.358154296875 467.323486328125 977.8412475585938 454.1059875488281 979.485595703125 440.95263671875 C 981.1539916992188 427.6062622070312 982 413.9960021972656 982 400.5 C 982 387.0039978027344 981.1539916992188 373.3937377929688 979.485595703125 360.04736328125 C 977.8412475585938 346.8940124511719 975.358154296875 333.676513671875 972.1051025390625 320.7623901367188 C 968.8936157226562 308.0127563476562 964.8546142578125 295.2517395019531 960.10009765625 282.833740234375 C 955.3973999023438 270.5509033203125 949.8828735351562 258.3110961914062 943.7097778320312 246.4546508789062 C 937.5911254882812 234.702880859375 930.6815185546875 223.0505981445312 923.1724853515625 211.8213500976562 C 915.7137451171875 200.667236328125 907.4893798828125 189.6697387695312 898.7279052734375 179.13427734375 C 881.2573852539062 158.1265258789062 861.1895141601562 138.3682250976562 839.0814819335938 120.4083862304688 C 816.95849609375 102.436279296875 792.6113891601562 86.11761474609375 766.7164916992188 71.90576171875 C 740.5602416992188 57.55047607421875 712.5950927734375 45.2197265625 683.5980224609375 35.2562255859375 C 668.9420166015625 30.22027587890625 653.8102416992188 25.72113037109375 638.623291015625 21.88372802734375 C 623.2620849609375 18.00250244140625 607.47509765625 14.70489501953125 591.7007446289062 12.0826416015625 C 575.7177734375 9.42559814453125 559.3585205078125 7.39739990234375 543.0775146484375 6.05426025390625 C 526.5557861328125 4.69110107421875 509.7072448730469 4 493 4 M 493 0 C 765.2763671875 0 986 179.3099975585938 986 400.5 C 986 621.6900024414062 765.2763671875 801 493 801 C 220.7236328125 801 0 621.6900024414062 0 400.5 C 0 179.3099975585938 220.7236328125 0 493 0 Z" stroke="none" fill="#afafaf"/>
    </g>
    <g id="Trazado_211172" data-name="Trazado 211172" transform="translate(691 8081)" fill="url(#linear-gradient)">
      <path d="M 230 74.5 L 10 74.5 C 4.76167631149292 74.5 0.5 70.23832702636719 0.5 65 L 0.5 10 C 0.5 4.76167631149292 4.76167631149292 0.5 10 0.5 L 230 0.5 C 235.2383270263672 0.5 239.5 4.76167631149292 239.5 10 L 239.5 65 C 239.5 70.23832702636719 235.2383270263672 74.5 230 74.5 Z" stroke="none"/>
      <path d="M 10 1 C 5.037368774414062 1 1 5.037376403808594 1 10 L 1 65 C 1 69.96262359619141 5.037368774414062 74 10 74 L 230 74 C 234.9626312255859 74 239 69.96262359619141 239 65 L 239 10 C 239 5.037376403808594 234.9626312255859 1 230 1 L 10 1 M 10 0 L 230 0 C 235.5228424072266 0 240 4.477157592773438 240 10 L 240 65 C 240 70.52284240722656 235.5228424072266 75 230 75 L 10 75 C 4.477157592773438 75 0 70.52284240722656 0 65 L 0 10 C 0 4.477157592773438 4.477157592773438 0 10 0 Z" stroke="none" fill="#707070"/>
    </g>
    <g id="Trazado_211164" data-name="Trazado 211164" transform="translate(691 8875)" fill="#12263f">
      <path d="M 230 74.5 L 10 74.5 C 4.76167631149292 74.5 0.5 70.23832702636719 0.5 65 L 0.5 10 C 0.5 4.76167631149292 4.76167631149292 0.5 10 0.5 L 230 0.5 C 235.2383270263672 0.5 239.5 4.76167631149292 239.5 10 L 239.5 65 C 239.5 70.23832702636719 235.2383270263672 74.5 230 74.5 Z" stroke="none"/>
      <path d="M 10 1 C 5.037368774414062 1 1 5.037376403808594 1 10 L 1 65 C 1 69.96262359619141 5.037368774414062 74 10 74 L 230 74 C 234.9626312255859 74 239 69.96262359619141 239 65 L 239 10 C 239 5.037376403808594 234.9626312255859 1 230 1 L 10 1 M 10 0 L 230 0 C 235.5228424072266 0 240 4.477157592773438 240 10 L 240 65 C 240 70.52284240722656 235.5228424072266 75 230 75 L 10 75 C 4.477157592773438 75 0 70.52284240722656 0 65 L 0 10 C 0 4.477157592773438 4.477157592773438 0 10 0 Z" stroke="none" fill="#707070"/>
    </g>
    <g id="Trazado_211169" data-name="Trazado 211169" transform="translate(1191 8468)" fill="url(#linear-gradient-2)">
      <path d="M 230 74.5 L 10 74.5 C 4.76167631149292 74.5 0.5 70.23832702636719 0.5 65 L 0.5 10 C 0.5 4.76167631149292 4.76167631149292 0.5 10 0.5 L 230 0.5 C 235.2383270263672 0.5 239.5 4.76167631149292 239.5 10 L 239.5 65 C 239.5 70.23832702636719 235.2383270263672 74.5 230 74.5 Z" stroke="none"/>
      <path d="M 10 1 C 5.037368774414062 1 1 5.037376403808594 1 10 L 1 65 C 1 69.96262359619141 5.037368774414062 74 10 74 L 230 74 C 234.9626312255859 74 239 69.96262359619141 239 65 L 239 10 C 239 5.037376403808594 234.9626312255859 1 230 1 L 10 1 M 10 0 L 230 0 C 235.5228424072266 0 240 4.477157592773438 240 10 L 240 65 C 240 70.52284240722656 235.5228424072266 75 230 75 L 10 75 C 4.477157592773438 75 0 70.52284240722656 0 65 L 0 10 C 0 4.477157592773438 4.477157592773438 0 10 0 Z" stroke="none" fill="#707070"/>
    </g>
    <g id="Trazado_211168" data-name="Trazado 211168" transform="translate(213 8471)" fill="#e7f65a">
      <path d="M 230 74.5 L 10 74.5 C 4.76167631149292 74.5 0.5 70.23832702636719 0.5 65 L 0.5 10 C 0.5 4.76167631149292 4.76167631149292 0.5 10 0.5 L 230 0.5 C 235.2383270263672 0.5 239.5 4.76167631149292 239.5 10 L 239.5 65 C 239.5 70.23832702636719 235.2383270263672 74.5 230 74.5 Z" stroke="none"/>
      <path d="M 10 1 C 5.037368774414062 1 1 5.037376403808594 1 10 L 1 65 C 1 69.96262359619141 5.037368774414062 74 10 74 L 230 74 C 234.9626312255859 74 239 69.96262359619141 239 65 L 239 10 C 239 5.037376403808594 234.9626312255859 1 230 1 L 10 1 M 10 0 L 230 0 C 235.5228424072266 0 240 4.477157592773438 240 10 L 240 65 C 240 70.52284240722656 235.5228424072266 75 230 75 L 10 75 C 4.477157592773438 75 0 70.52284240722656 0 65 L 0 10 C 0 4.477157592773438 4.477157592773438 0 10 0 Z" stroke="none" fill="#707070"/>
    </g>
    <path id="Trazado_211173" data-name="Trazado 211173" d="M-39.362-6.513V0H-43.17V-18.484h7.211a8.343,8.343,0,0,1,3.663.762,5.613,5.613,0,0,1,2.431,2.165,6.035,6.035,0,0,1,.851,3.193,5.307,5.307,0,0,1-1.86,4.285,7.746,7.746,0,0,1-5.148,1.568Zm0-3.085h3.4a3.345,3.345,0,0,0,2.3-.711,2.586,2.586,0,0,0,.793-2.031,3.049,3.049,0,0,0-.8-2.2,2.988,2.988,0,0,0-2.209-.863h-3.491ZM-22.769,0h-3.682V-19.5h3.682Zm10.981,0a4.074,4.074,0,0,1-.368-1.231A4.439,4.439,0,0,1-15.622.254,4.877,4.877,0,0,1-18.967-.914a3.756,3.756,0,0,1-1.327-2.945,3.882,3.882,0,0,1,1.619-3.352A7.987,7.987,0,0,1-14-8.392h1.688v-.787A2.264,2.264,0,0,0-12.8-10.7a1.923,1.923,0,0,0-1.542-.571,2.186,2.186,0,0,0-1.454.444A1.509,1.509,0,0,0-16.32-9.61h-3.669a3.685,3.685,0,0,1,.736-2.209,4.867,4.867,0,0,1,2.082-1.593,7.588,7.588,0,0,1,3.021-.578,6,6,0,0,1,4.031,1.276A4.463,4.463,0,0,1-8.626-9.128v5.954A6.567,6.567,0,0,0-8.081-.216V0Zm-3.034-2.552a3.16,3.16,0,0,0,1.5-.362,2.376,2.376,0,0,0,1.016-.971V-6.246h-1.371q-2.755,0-2.933,1.9l-.013.216A1.469,1.469,0,0,0-16.142-3,1.874,1.874,0,0,0-14.822-2.552ZM-2.431-13.736l.114,1.587A4.8,4.8,0,0,1,1.631-13.99a3.986,3.986,0,0,1,3.25,1.282A5.983,5.983,0,0,1,5.973-8.874V0H2.3V-8.785A2.38,2.38,0,0,0,1.8-10.48a2.273,2.273,0,0,0-1.688-.527,2.524,2.524,0,0,0-2.323,1.32V0H-5.884V-13.736ZM15.076.254A6.743,6.743,0,0,1,10.156-1.6a6.588,6.588,0,0,1-1.9-4.938v-.355a8.3,8.3,0,0,1,.8-3.7,5.87,5.87,0,0,1,2.266-2.514,6.36,6.36,0,0,1,3.345-.882,5.7,5.7,0,0,1,4.437,1.777,7.222,7.222,0,0,1,1.619,5.04v1.5H11.978a3.408,3.408,0,0,0,1.073,2.158,3.243,3.243,0,0,0,2.266.813A3.96,3.96,0,0,0,18.63-4.24l1.8,2.019A5.508,5.508,0,0,1,18.2-.4,7.331,7.331,0,0,1,15.076.254Zm-.419-11.286a2.293,2.293,0,0,0-1.771.74,3.83,3.83,0,0,0-.87,2.117h5.1v-.293a2.731,2.731,0,0,0-.66-1.894A2.365,2.365,0,0,0,14.657-11.032ZM30.767,0A4.074,4.074,0,0,1,30.4-1.231,4.439,4.439,0,0,1,26.933.254,4.877,4.877,0,0,1,23.588-.914a3.756,3.756,0,0,1-1.327-2.945A3.882,3.882,0,0,1,23.88-7.211a7.987,7.987,0,0,1,4.678-1.181h1.688v-.787a2.264,2.264,0,0,0-.489-1.523,1.923,1.923,0,0,0-1.542-.571,2.186,2.186,0,0,0-1.454.444,1.509,1.509,0,0,0-.527,1.219H22.566a3.685,3.685,0,0,1,.736-2.209,4.867,4.867,0,0,1,2.082-1.593,7.588,7.588,0,0,1,3.021-.578,6,6,0,0,1,4.031,1.276,4.463,4.463,0,0,1,1.492,3.586v5.954a6.567,6.567,0,0,0,.546,2.958V0ZM27.733-2.552a3.16,3.16,0,0,0,1.5-.362,2.376,2.376,0,0,0,1.016-.971V-6.246H28.875q-2.755,0-2.933,1.9l-.013.216A1.469,1.469,0,0,0,26.413-3,1.874,1.874,0,0,0,27.733-2.552ZM44.465-10.3a9.968,9.968,0,0,0-1.32-.1,2.687,2.687,0,0,0-2.729,1.409V0H36.747V-13.736h3.466l.1,1.638a3.4,3.4,0,0,1,3.06-1.892,3.844,3.844,0,0,1,1.143.165Z" transform="translate(811 8128)" fill="#fff"/>
    <path id="Trazado_211165" data-name="Trazado 211165" d="M-34.042,0V-18.484h5.688a8.637,8.637,0,0,1,4.361,1.1,7.658,7.658,0,0,1,3,3.123,9.633,9.633,0,0,1,1.079,4.6v.851a9.66,9.66,0,0,1-1.06,4.583,7.592,7.592,0,0,1-2.99,3.11A8.7,8.7,0,0,1-28.317,0Zm3.809-15.4V-3.06h1.841a4.136,4.136,0,0,0,3.415-1.46A6.6,6.6,0,0,0-23.772-8.7v-.978a6.7,6.7,0,0,0-1.168-4.272A4.122,4.122,0,0,0-28.355-15.4ZM-13.514,0H-17.2V-13.736h3.682Zm-3.9-17.291a1.807,1.807,0,0,1,.552-1.358,2.075,2.075,0,0,1,1.5-.533,2.079,2.079,0,0,1,1.5.533,1.8,1.8,0,0,1,.559,1.358,1.8,1.8,0,0,1-.565,1.371,2.084,2.084,0,0,1-1.492.533,2.084,2.084,0,0,1-1.492-.533A1.8,1.8,0,0,1-17.412-17.291Zm14.638,7a9.968,9.968,0,0,0-1.32-.1A2.687,2.687,0,0,0-6.824-8.988V0h-3.669V-13.736h3.466l.1,1.638a3.4,3.4,0,0,1,3.06-1.892,3.844,3.844,0,0,1,1.143.165ZM2.863,0H-.819V-13.736H2.863Zm-3.9-17.291a1.807,1.807,0,0,1,.552-1.358,2.075,2.075,0,0,1,1.5-.533,2.079,2.079,0,0,1,1.5.533,1.8,1.8,0,0,1,.559,1.358,1.8,1.8,0,0,1-.565,1.371,2.084,2.084,0,0,1-1.492.533A2.084,2.084,0,0,1-.47-15.92,1.8,1.8,0,0,1-1.035-17.291ZM5.351-6.97a8.05,8.05,0,0,1,1.5-5.091,4.875,4.875,0,0,1,4.056-1.93,4.275,4.275,0,0,1,3.517,1.549l.152-1.295h3.326V-.457a5.871,5.871,0,0,1-.819,3.136,5.259,5.259,0,0,1-2.3,2.031,8.1,8.1,0,0,1-3.479.7,7.532,7.532,0,0,1-2.945-.6A5.227,5.227,0,0,1,6.189,3.25L7.814,1.016A4.3,4.3,0,0,0,11.14,2.552a3.146,3.146,0,0,0,2.272-.781,2.928,2.928,0,0,0,.813-2.215v-.736A4.244,4.244,0,0,1,10.886.254,4.862,4.862,0,0,1,6.881-1.682a8.048,8.048,0,0,1-1.53-5.135ZM9.02-6.7a5.013,5.013,0,0,0,.749,2.931A2.383,2.383,0,0,0,11.826-2.7a2.548,2.548,0,0,0,2.4-1.259V-9.748a2.542,2.542,0,0,0-2.374-1.259A2.4,2.4,0,0,0,9.775-9.926,5.65,5.65,0,0,0,9.02-6.7ZM24.6,0H20.916V-13.736H24.6ZM20.7-17.291a1.807,1.807,0,0,1,.552-1.358,2.075,2.075,0,0,1,1.5-.533,2.079,2.079,0,0,1,1.5.533,1.8,1.8,0,0,1,.559,1.358,1.8,1.8,0,0,1-.565,1.371,2.084,2.084,0,0,1-1.492.533,2.084,2.084,0,0,1-1.492-.533A1.8,1.8,0,0,1,20.7-17.291Zm14.638,7a9.968,9.968,0,0,0-1.32-.1,2.687,2.687,0,0,0-2.729,1.409V0H27.619V-13.736h3.466l.1,1.638a3.4,3.4,0,0,1,3.06-1.892,3.844,3.844,0,0,1,1.143.165Z" transform="translate(811 8922)" fill="#fff"/>
    <path id="Trazado_211170" data-name="Trazado 211170" d="M-40.327-8.823a11.159,11.159,0,0,1-.965,4.786A7.266,7.266,0,0,1-44.053-.863,7.638,7.638,0,0,1-48.172.254a7.69,7.69,0,0,1-4.1-1.1,7.338,7.338,0,0,1-2.793-3.155,10.839,10.839,0,0,1-1-4.716v-.914a11.1,11.1,0,0,1,.984-4.805,7.326,7.326,0,0,1,2.78-3.187A7.648,7.648,0,0,1-48.2-18.738a7.648,7.648,0,0,1,4.107,1.111,7.326,7.326,0,0,1,2.78,3.187,11.068,11.068,0,0,1,.984,4.792Zm-3.859-.838a7.779,7.779,0,0,0-1.041-4.418A3.393,3.393,0,0,0-48.2-15.59,3.394,3.394,0,0,0-51.156-14.1a7.69,7.69,0,0,0-1.054,4.374v.9a7.876,7.876,0,0,0,1.041,4.393,3.384,3.384,0,0,0,3,1.562,3.353,3.353,0,0,0,2.945-1.5A7.83,7.83,0,0,0-44.186-8.76Zm14.1-.635a9.968,9.968,0,0,0-1.32-.1,2.687,2.687,0,0,0-2.729,1.409V0H-37.8V-13.736h3.466l.1,1.638a3.4,3.4,0,0,1,3.06-1.892,3.844,3.844,0,0,1,1.143.165ZM-28.85-6.97a8.05,8.05,0,0,1,1.5-5.091,4.875,4.875,0,0,1,4.056-1.93,4.275,4.275,0,0,1,3.517,1.549l.152-1.295h3.326V-.457a5.871,5.871,0,0,1-.819,3.136,5.259,5.259,0,0,1-2.3,2.031,8.1,8.1,0,0,1-3.479.7,7.532,7.532,0,0,1-2.945-.6A5.227,5.227,0,0,1-28.012,3.25l1.625-2.234a4.3,4.3,0,0,0,3.326,1.536,3.146,3.146,0,0,0,2.272-.781,2.928,2.928,0,0,0,.813-2.215v-.736A4.244,4.244,0,0,1-23.315.254,4.862,4.862,0,0,1-27.32-1.682a8.048,8.048,0,0,1-1.53-5.135Zm3.669.273a5.013,5.013,0,0,0,.749,2.931A2.383,2.383,0,0,0-22.375-2.7a2.548,2.548,0,0,0,2.4-1.259V-9.748a2.542,2.542,0,0,0-2.374-1.259,2.4,2.4,0,0,0-2.076,1.081A5.65,5.65,0,0,0-25.181-6.7ZM-5.516,0a4.074,4.074,0,0,1-.368-1.231A4.439,4.439,0,0,1-9.35.254,4.877,4.877,0,0,1-12.7-.914a3.756,3.756,0,0,1-1.327-2.945A3.882,3.882,0,0,1-12.4-7.211,7.987,7.987,0,0,1-7.725-8.392h1.688v-.787A2.264,2.264,0,0,0-6.525-10.7a1.923,1.923,0,0,0-1.542-.571,2.186,2.186,0,0,0-1.454.444,1.509,1.509,0,0,0-.527,1.219h-3.669a3.685,3.685,0,0,1,.736-2.209A4.867,4.867,0,0,1-10.9-13.413a7.588,7.588,0,0,1,3.021-.578,6,6,0,0,1,4.031,1.276A4.463,4.463,0,0,1-2.355-9.128v5.954A6.567,6.567,0,0,0-1.809-.216V0ZM-8.55-2.552a3.16,3.16,0,0,0,1.5-.362,2.376,2.376,0,0,0,1.016-.971V-6.246H-7.408q-2.755,0-2.933,1.9l-.013.216A1.469,1.469,0,0,0-9.871-3,1.874,1.874,0,0,0-8.55-2.552ZM3.84-13.736l.114,1.587A4.8,4.8,0,0,1,7.9-13.99a3.986,3.986,0,0,1,3.25,1.282,5.983,5.983,0,0,1,1.092,3.834V0H8.576V-8.785a2.38,2.38,0,0,0-.508-1.695,2.273,2.273,0,0,0-1.688-.527,2.524,2.524,0,0,0-2.323,1.32V0H.387V-13.736ZM18.9,0H15.215V-13.736H18.9ZM15-17.291a1.807,1.807,0,0,1,.552-1.358,2.075,2.075,0,0,1,1.5-.533,2.079,2.079,0,0,1,1.5.533,1.8,1.8,0,0,1,.559,1.358,1.8,1.8,0,0,1-.565,1.371,2.084,2.084,0,0,1-1.492.533,2.084,2.084,0,0,1-1.492-.533A1.8,1.8,0,0,1,15-17.291ZM26.133-2.958h6.716V0h-11.4V-2.234l6.462-8.544H21.639v-2.958H32.646v2.162ZM43.107,0a4.074,4.074,0,0,1-.368-1.231A4.439,4.439,0,0,1,39.273.254,4.877,4.877,0,0,1,35.928-.914,3.756,3.756,0,0,1,34.6-3.859,3.882,3.882,0,0,1,36.22-7.211,7.987,7.987,0,0,1,40.9-8.392h1.688v-.787A2.264,2.264,0,0,0,42.1-10.7a1.923,1.923,0,0,0-1.542-.571,2.186,2.186,0,0,0-1.454.444,1.509,1.509,0,0,0-.527,1.219H34.906a3.685,3.685,0,0,1,.736-2.209,4.867,4.867,0,0,1,2.082-1.593,7.588,7.588,0,0,1,3.021-.578,6,6,0,0,1,4.031,1.276,4.463,4.463,0,0,1,1.492,3.586v5.954a6.567,6.567,0,0,0,.546,2.958V0ZM40.073-2.552a3.16,3.16,0,0,0,1.5-.362,2.376,2.376,0,0,0,1.016-.971V-6.246H41.215q-2.755,0-2.933,1.9l-.013.216A1.469,1.469,0,0,0,38.752-3,1.874,1.874,0,0,0,40.073-2.552ZM56.805-10.3a9.968,9.968,0,0,0-1.32-.1,2.687,2.687,0,0,0-2.729,1.409V0H49.086V-13.736h3.466l.1,1.638a3.4,3.4,0,0,1,3.06-1.892,3.844,3.844,0,0,1,1.143.165Z" transform="translate(1311 8515)" fill="#12263f"/>
    <path id="Trazado_211171" data-name="Trazado 211171" d="M-38.391-6.157a6.541,6.541,0,0,1-2.2,4.7A7.736,7.736,0,0,1-45.83.254a6.956,6.956,0,0,1-5.592-2.393,9.812,9.812,0,0,1-2.038-6.57v-1.13a11.08,11.08,0,0,1,.939-4.7,7.04,7.04,0,0,1,2.685-3.117,7.522,7.522,0,0,1,4.056-1.085,7.536,7.536,0,0,1,5.154,1.714,7.029,7.029,0,0,1,2.26,4.812h-3.809a3.86,3.86,0,0,0-1-2.6,3.69,3.69,0,0,0-2.609-.806,3.236,3.236,0,0,0-2.85,1.365,7.648,7.648,0,0,0-.971,4.234v1.4a8.186,8.186,0,0,0,.908,4.38A3.176,3.176,0,0,0-45.83-2.856,3.76,3.76,0,0,0-43.2-3.663a3.641,3.641,0,0,0,1-2.495ZM-36.7-7a8.146,8.146,0,0,1,.787-3.644,5.762,5.762,0,0,1,2.266-2.476,6.611,6.611,0,0,1,3.434-.876,6.255,6.255,0,0,1,4.539,1.7,6.827,6.827,0,0,1,1.961,4.621l.025.939a7.18,7.18,0,0,1-1.765,5.072A6.134,6.134,0,0,1-30.189.254a6.164,6.164,0,0,1-4.742-1.9A7.306,7.306,0,0,1-36.7-6.83Zm3.669.26A5.135,5.135,0,0,0-32.3-3.74,2.429,2.429,0,0,0-30.189-2.7a2.435,2.435,0,0,0,2.082-1.024A5.618,5.618,0,0,0-27.358-7a5.083,5.083,0,0,0-.749-2.975,2.435,2.435,0,0,0-2.107-1.055A2.4,2.4,0,0,0-32.3-9.983,5.713,5.713,0,0,0-33.033-6.735Zm14.98-7,.114,1.587A4.8,4.8,0,0,1-13.99-13.99a3.986,3.986,0,0,1,3.25,1.282A5.983,5.983,0,0,1-9.648-8.874V0h-3.669V-8.785a2.38,2.38,0,0,0-.508-1.695,2.273,2.273,0,0,0-1.688-.527,2.524,2.524,0,0,0-2.323,1.32V0h-3.669V-13.736Zm15.577-3.377v3.377H-.127v2.691H-2.476v6.855A1.637,1.637,0,0,0-2.184-3.1a1.467,1.467,0,0,0,1.117.33A5.851,5.851,0,0,0,.013-2.856v2.78a7.553,7.553,0,0,1-2.222.33q-3.859,0-3.936-3.9v-7.4H-8.15v-2.691h2.006v-3.377ZM9.636-10.3a9.968,9.968,0,0,0-1.32-.1A2.687,2.687,0,0,0,5.586-8.988V0H1.917V-13.736H5.383l.1,1.638a3.4,3.4,0,0,1,3.06-1.892,3.844,3.844,0,0,1,1.143.165ZM10.372-7a8.146,8.146,0,0,1,.787-3.644,5.762,5.762,0,0,1,2.266-2.476,6.611,6.611,0,0,1,3.434-.876,6.255,6.255,0,0,1,4.539,1.7,6.827,6.827,0,0,1,1.961,4.621l.025.939A7.18,7.18,0,0,1,21.62-1.657,6.134,6.134,0,0,1,16.885.254a6.164,6.164,0,0,1-4.742-1.9,7.306,7.306,0,0,1-1.771-5.18Zm3.669.26a5.135,5.135,0,0,0,.736,2.994A2.429,2.429,0,0,0,16.885-2.7a2.435,2.435,0,0,0,2.082-1.024A5.618,5.618,0,0,0,19.716-7a5.083,5.083,0,0,0-.749-2.975,2.435,2.435,0,0,0-2.107-1.055,2.4,2.4,0,0,0-2.082,1.049A5.713,5.713,0,0,0,14.041-6.735ZM29.517,0H25.835V-19.5h3.682ZM40.5,0a4.074,4.074,0,0,1-.368-1.231A4.439,4.439,0,0,1,36.664.254,4.877,4.877,0,0,1,33.319-.914a3.756,3.756,0,0,1-1.327-2.945,3.882,3.882,0,0,1,1.619-3.352,7.987,7.987,0,0,1,4.678-1.181h1.688v-.787a2.264,2.264,0,0,0-.489-1.523,1.923,1.923,0,0,0-1.542-.571,2.186,2.186,0,0,0-1.454.444,1.509,1.509,0,0,0-.527,1.219H32.3a3.685,3.685,0,0,1,.736-2.209,4.867,4.867,0,0,1,2.082-1.593,7.588,7.588,0,0,1,3.021-.578,6,6,0,0,1,4.031,1.276,4.463,4.463,0,0,1,1.492,3.586v5.954a6.567,6.567,0,0,0,.546,2.958V0ZM37.464-2.552a3.16,3.16,0,0,0,1.5-.362,2.376,2.376,0,0,0,1.016-.971V-6.246H38.606q-2.755,0-2.933,1.9l-.013.216A1.469,1.469,0,0,0,36.144-3,1.874,1.874,0,0,0,37.464-2.552ZM54.2-10.3a9.968,9.968,0,0,0-1.32-.1,2.687,2.687,0,0,0-2.729,1.409V0H46.478V-13.736h3.466l.1,1.638A3.4,3.4,0,0,1,53.1-13.99a3.844,3.844,0,0,1,1.143.165Z" transform="translate(333 8518)" fill="#12263f"/>
    <path id="Trazado_211166" data-name="Trazado 211166" d="M-52.984-6.513V0h-3.809V-18.484h7.211a8.343,8.343,0,0,1,3.663.762,5.613,5.613,0,0,1,2.431,2.165,6.035,6.035,0,0,1,.851,3.193A5.307,5.307,0,0,1-44.5-8.081a7.746,7.746,0,0,1-5.148,1.568Zm0-3.085h3.4a3.345,3.345,0,0,0,2.3-.711,2.586,2.586,0,0,0,.793-2.031,3.049,3.049,0,0,0-.8-2.2,2.988,2.988,0,0,0-2.209-.863h-3.491Zm19.8,2.831h-3.034V0h-3.809V-18.484h6.868a7.764,7.764,0,0,1,5.053,1.46A5.039,5.039,0,0,1-26.324-12.9a5.687,5.687,0,0,1-.819,3.155,5.585,5.585,0,0,1-2.482,2.012l4,7.554V0h-4.088Zm-3.034-3.085h3.072a3.146,3.146,0,0,0,2.222-.73,2.609,2.609,0,0,0,.787-2.012,2.793,2.793,0,0,0-.743-2.057,3.086,3.086,0,0,0-2.279-.749h-3.06ZM-8.246-8.823A11.159,11.159,0,0,1-9.21-4.037,7.266,7.266,0,0,1-11.972-.863,7.638,7.638,0,0,1-16.091.254a7.69,7.69,0,0,1-4.1-1.1,7.338,7.338,0,0,1-2.793-3.155,10.839,10.839,0,0,1-1-4.716v-.914A11.1,11.1,0,0,1-23-14.441a7.326,7.326,0,0,1,2.78-3.187,7.648,7.648,0,0,1,4.107-1.111,7.648,7.648,0,0,1,4.107,1.111,7.326,7.326,0,0,1,2.78,3.187,11.068,11.068,0,0,1,.984,4.792ZM-12.1-9.661a7.779,7.779,0,0,0-1.041-4.418,3.393,3.393,0,0,0-2.971-1.511A3.394,3.394,0,0,0-19.075-14.1a7.69,7.69,0,0,0-1.054,4.374v.9a7.876,7.876,0,0,0,1.041,4.393,3.384,3.384,0,0,0,3,1.562,3.353,3.353,0,0,0,2.945-1.5A7.83,7.83,0,0,0-12.1-8.76Zm21.138,3.5a6.541,6.541,0,0,1-2.2,4.7A7.736,7.736,0,0,1,1.593.254,6.956,6.956,0,0,1-4-2.139a9.812,9.812,0,0,1-2.038-6.57v-1.13a11.08,11.08,0,0,1,.939-4.7,7.04,7.04,0,0,1,2.685-3.117,7.522,7.522,0,0,1,4.056-1.085A7.536,7.536,0,0,1,6.8-17.024a7.029,7.029,0,0,1,2.26,4.812H5.25a3.86,3.86,0,0,0-1-2.6,3.69,3.69,0,0,0-2.609-.806,3.236,3.236,0,0,0-2.85,1.365,7.648,7.648,0,0,0-.971,4.234v1.4A8.186,8.186,0,0,0-1.27-4.24,3.176,3.176,0,0,0,1.593-2.856a3.76,3.76,0,0,0,2.634-.806,3.641,3.641,0,0,0,1-2.495ZM22.655-8.011H15.342V-3.06h8.582V0H11.534V-18.484H23.9V-15.4H15.342v4.405h7.313ZM35.744-4.85a1.954,1.954,0,0,0-.762-1.657A9.991,9.991,0,0,0,32.24-7.725,19.439,19.439,0,0,1,29.1-8.988q-3.148-1.7-3.148-4.583a4.464,4.464,0,0,1,.844-2.672,5.507,5.507,0,0,1,2.425-1.834,9.127,9.127,0,0,1,3.548-.66,8.307,8.307,0,0,1,3.529.717A5.62,5.62,0,0,1,38.708-16a5.3,5.3,0,0,1,.857,2.971H35.756a2.493,2.493,0,0,0-.8-1.974,3.288,3.288,0,0,0-2.247-.7,3.513,3.513,0,0,0-2.171.59,1.862,1.862,0,0,0-.774,1.555,1.783,1.783,0,0,0,.908,1.511,10.255,10.255,0,0,0,2.672,1.143A11.547,11.547,0,0,1,38.08-8.48a4.829,4.829,0,0,1,1.485,3.605A4.448,4.448,0,0,1,37.75-1.111,7.948,7.948,0,0,1,32.862.254a9.438,9.438,0,0,1-3.885-.781A6.147,6.147,0,0,1,26.3-2.666a5.478,5.478,0,0,1-.92-3.148h3.821q0,3.06,3.656,3.06a3.557,3.557,0,0,0,2.12-.552A1.8,1.8,0,0,0,35.744-4.85ZM57.326-8.823a11.159,11.159,0,0,1-.965,4.786A7.266,7.266,0,0,1,53.6-.863,7.638,7.638,0,0,1,49.48.254a7.69,7.69,0,0,1-4.1-1.1,7.338,7.338,0,0,1-2.793-3.155,10.839,10.839,0,0,1-1-4.716v-.914a11.1,11.1,0,0,1,.984-4.805,7.326,7.326,0,0,1,2.78-3.187,7.648,7.648,0,0,1,4.107-1.111,7.648,7.648,0,0,1,4.107,1.111,7.326,7.326,0,0,1,2.78,3.187,11.068,11.068,0,0,1,.984,4.792Zm-3.859-.838a7.779,7.779,0,0,0-1.041-4.418,3.393,3.393,0,0,0-2.971-1.511A3.394,3.394,0,0,0,46.5-14.1a7.69,7.69,0,0,0-1.054,4.374v.9a7.876,7.876,0,0,0,1.041,4.393,3.384,3.384,0,0,0,3,1.562,3.353,3.353,0,0,0,2.945-1.5A7.83,7.83,0,0,0,53.466-8.76Z" transform="translate(832 8634)" fill="#12263f"/>
    <path id="Trazado_211167" data-name="Trazado 211167" d="M-222.406-8.936h-15.667L-241.051,0h-9.5l16.144-43.367h8.28L-209.9,0h-9.5Zm-13.254-7.238h10.842l-5.451-16.233ZM-205.845,0V-43.367H-192.5a20.264,20.264,0,0,1,10.231,2.576,17.966,17.966,0,0,1,7.044,7.327,22.6,22.6,0,0,1,2.532,10.8v2a22.664,22.664,0,0,1-2.487,10.752,17.812,17.812,0,0,1-7.014,7.3A20.417,20.417,0,0,1-192.412,0Zm8.936-36.129V-7.178h4.319q5.242,0,8.012-3.425t2.83-9.8V-22.7q0-6.612-2.74-10.023t-8.012-3.41Zm42.384-7.238,11.14,31.453,11.08-31.453h11.735V0h-8.965V-11.854l.894-20.462L-140.348,0h-6.136l-11.676-32.287.894,20.433V0H-166.2V-43.367ZM-103.265,0H-112.2V-43.367h8.936Zm43.546,0h-8.936L-86.049-28.534V0h-8.936V-43.367h8.936l17.424,28.594V-43.367h8.906Zm17.305,0H-51.35V-43.367h8.936Zm30.768-11.378a4.585,4.585,0,0,0-1.787-3.887,23.44,23.44,0,0,0-6.434-2.859,45.607,45.607,0,0,1-7.357-2.964Q-34.61-25.079-34.61-31.84a10.472,10.472,0,0,1,1.981-6.27,12.92,12.92,0,0,1,5.689-4.3,21.413,21.413,0,0,1,8.325-1.549,19.49,19.49,0,0,1,8.28,1.683,13.185,13.185,0,0,1,5.644,4.751,12.431,12.431,0,0,1,2.01,6.97h-8.936a5.848,5.848,0,0,0-1.876-4.632,7.714,7.714,0,0,0-5.272-1.653,8.241,8.241,0,0,0-5.093,1.385,4.369,4.369,0,0,0-1.817,3.649,4.184,4.184,0,0,0,2.13,3.544,24.06,24.06,0,0,0,6.27,2.681Q-9.65-23.292-6.166-19.9a11.33,11.33,0,0,1,3.485,8.459A10.437,10.437,0,0,1-6.94-2.606Q-11.2.6-18.407.6a22.144,22.144,0,0,1-9.114-1.832,14.422,14.422,0,0,1-6.27-5.019,12.853,12.853,0,0,1-2.159-7.387h8.965q0,7.178,8.578,7.178a8.345,8.345,0,0,0,4.974-1.3A4.215,4.215,0,0,0-11.646-11.378ZM36.01-36.129H22.726V0H13.791V-36.129H.685v-7.238H36.01ZM57.158-15.875H50.039V0H41.1V-43.367H57.217q7.685,0,11.854,3.425t4.17,9.68a13.342,13.342,0,0,1-1.921,7.4A13.1,13.1,0,0,1,65.5-18.139L74.88-.417V0H65.289Zm-7.119-7.238h7.208a7.38,7.38,0,0,0,5.212-1.713,6.121,6.121,0,0,0,1.847-4.721,6.552,6.552,0,0,0-1.742-4.825q-1.742-1.757-5.346-1.757H50.039ZM104.516-8.936H88.849L85.871,0h-9.5L92.513-43.367h8.28L117.026,0h-9.5ZM91.262-16.173H102.1L96.653-32.406Zm58.885-19.956H136.863V0h-8.936V-36.129H114.822v-7.238h35.325ZM164.742,0h-8.936V-43.367h8.936Zm24.3-10.752,9.829-32.615h9.948L193.723,0H184.4L169.358-43.367h9.918ZM248.14-20.7a26.18,26.18,0,0,1-2.264,11.229A17.048,17.048,0,0,1,239.4-2.025,17.92,17.92,0,0,1,229.733.6,18.042,18.042,0,0,1,220.112-2a17.215,17.215,0,0,1-6.553-7.4,25.431,25.431,0,0,1-2.353-11.065v-2.145a26.042,26.042,0,0,1,2.308-11.274,17.187,17.187,0,0,1,6.523-7.476,17.943,17.943,0,0,1,9.635-2.606,17.943,17.943,0,0,1,9.635,2.606,17.187,17.187,0,0,1,6.523,7.476,25.968,25.968,0,0,1,2.308,11.244Zm-9.055-1.966q0-6.821-2.442-10.365a7.959,7.959,0,0,0-6.97-3.544,7.962,7.962,0,0,0-6.94,3.5q-2.442,3.5-2.472,10.261V-20.7q0,6.642,2.442,10.306a7.938,7.938,0,0,0,7.029,3.664,7.867,7.867,0,0,0,6.91-3.53q2.413-3.53,2.442-10.291Z" transform="translate(832 8687)" fill="#12263f"/>
    <g id="Grupo_166929" data-name="Grupo 166929" transform="translate(702.44 8294.428)">
      <g id="Grupo_166928" data-name="Grupo 166928" clip-path="url(#clip-path)">
        <path id="Trazado_211155" data-name="Trazado 211155" d="M15.3,289.146C3.516,285.373-.049,276.965,0,265.091c.29-68.877.18-137.756.059-206.635A14.54,14.54,0,0,1,4.744,47.164Q26.306,25.952,47.516,4.385A13.454,13.454,0,0,1,57.895,0c45.961.122,91.922.062,137.884.084C209.359.091,216.356,7,216.417,20.534c.047,10.424-.087,20.849-.172,31.273a6.788,6.788,0,0,1-.584,1.715H205.1c0-8.776,0-17.269,0-25.763,0-2.393.046-4.786.008-7.178-.109-6.861-2.041-8.883-8.89-8.9-20.161-.051-40.322-.022-60.483-.022-23.236,0-46.474.151-69.709-.112-5.041-.058-6.487,1.468-6.211,6.356.4,6.985.157,14.01.08,21.016C59.742,53,53.14,59.671,39.15,59.845c-7.346.092-14.7.248-22.037-.061-4.288-.18-5.481,1.278-5.471,5.507q.2,77.423.092,154.847c0,15.894-.035,31.789,0,47.685.016,7.6,1.842,9.495,9.334,9.5q87.393.042,174.787,0c7.415,0,9.216-1.924,9.258-9.566.036-6.617.007-13.235.007-20.155h11.709c-.573,10.08-.451,20.26-1.969,30.189-.978,6.394-7.463,8.816-12.911,11.354ZM48.169,21.99,22.953,48.044c6.007,0,12.987.433,19.848-.274,1.964-.2,4.9-3.571,5.123-5.72.674-6.582.245-13.277.245-20.06" transform="translate(0 0)" fill="#12263f"/>
        <path id="Trazado_211156" data-name="Trazado 211156" d="M285.7,168.261c-2.248,3.256-5.336,4.384-9.254,4.126a80.685,80.685,0,0,0-10.756.107,4.816,4.816,0,0,0-3.24,1.749c-.343.481.487,2.192,1.2,2.964,2.9,3.133,5.969,6.112,8.967,9.156,3.247,3.3,3.187,6.58-.069,9.838-7.854,7.857-15.647,15.774-23.586,23.543-3.78,3.7-6.242,3.588-10.153-.095-2.737-2.576-5.247-5.4-8.066-7.877-1.126-.989-2.812-1.34-4.242-1.981-.46,1.37-1.246,2.722-1.317,4.111-.2,3.922-.128,7.86-.131,11.791,0,4.649-2.384,6.956-6.952,6.975-11.106.046-22.212.011-33.319.054-4.933.02-7.168-2.6-7.282-7.295-.092-3.758.1-7.529-.143-11.275-.1-1.519-1.005-2.986-1.544-4.477a18.615,18.615,0,0,0-3.786,2.119c-2.774,2.533-5.4,5.234-8.017,7.931-3.378,3.479-6.763,3.628-10.221.174-7.86-7.849-15.776-15.643-23.535-23.591-3.567-3.653-3.438-6.466.071-10.217,2.1-2.246,4.491-4.235,6.454-6.588a42.012,42.012,0,0,0,3.454-5.7,50.9,50.9,0,0,0-6.635-1.379c-3.058-.242-6.147-.094-9.222-.068-4.6.04-7.035-2.137-7.028-6.818.017-11.281.06-22.561.07-33.843,0-4.411,2.214-6.663,6.575-6.748,4.441-.087,8.888.019,13.323-.169a3.709,3.709,0,0,0,2.844-1.51c.323-.768-.276-2.307-.964-3.051-2.9-3.137-6.039-6.044-8.977-9.144-3.5-3.689-3.553-6.551.028-10.2q11.482-11.718,23.188-23.216c3.926-3.857,6.6-3.79,10.56,0,2.963,2.834,5.762,5.842,8.761,8.637.774.72,2.513,1.569,2.96,1.232a4.806,4.806,0,0,0,1.662-3.258c.2-4.093.044-8.2.115-12.3.08-4.668,2.174-7.35,7.187-7.326,11.106.054,22.213-.068,33.319.022,5.142.042,6.908,1.968,7.038,7.277.092,3.758-.129,7.53.1,11.276.094,1.5,1.023,2.955,1.57,4.43,1.412-.731,3.046-1.213,4.192-2.242,2.794-2.507,5.361-5.267,8.021-7.924,3.225-3.22,6.558-3.456,9.851-.181q12,11.927,23.913,23.939c3.267,3.286,3.13,6.59-.132,9.835-3.029,3.013-6.1,5.99-9.005,9.118-.7.748-1.352,2.258-1.043,3.016a3.715,3.715,0,0,0,2.826,1.552,104.222,104.222,0,0,0,11.268.14c3.929-.2,7.029.91,9.1,4.378ZM243.06,88.824c-3.068,3.479-5.836,6.72-8.721,9.856-2.337,2.542-5.074,2.966-8.375,1.7-12.548-4.816-12.571-4.758-12.618-18.387,0-.683-.05-1.372.011-2.049.243-2.665-1-3.675-3.6-3.621-3.755.078-7.516-.1-11.273-.076-10.645.063-9.1-.989-9.169,9.382-.06,9.5.013,9.5-8.783,13.048a27.775,27.775,0,0,0-2.822,1.216c-3.926,2.123-7.235,1.267-10.039-2.027-2.632-3.093-5.226-6.216-7.575-9.013l-17.739,17.591c1.062,1.132,2.283,2.5,3.575,3.8,9.206,9.251,9.132,9.214,4.269,20.98-1.6,3.864-4.145,5.6-8.274,5.377-2.725-.148-5.477.11-8.2-.095-3.491-.262-5,.993-4.8,4.645a99.354,99.354,0,0,1,.063,13.318c-.385,4.853,1.2,7.193,6.235,6.32C144.4,159.2,150,162.455,152.64,171.834c1.294,4.591,1.346,7.927-2.331,10.931-3.016,2.465-6.128,4.813-10.407,8.159,4.609,3.946,7.662,6.191,10.255,8.882,2.7,2.8,4.954,6.031,8.146,9.994,4.094-4.531,6.838-7.549,9.559-10.588s5.743-3.664,9.64-1.989c11.622,4.992,11.665,4.891,11.789,17.808.006.683.067,1.372.01,2.05-.244,2.96,1.3,3.887,4.02,3.833,4.44-.088,8.9-.286,13.318.061,5.019.393,7.567-1.233,6.689-6.541-1.5-9.069,1.99-14.777,11.119-16.778a3.911,3.911,0,0,0,.928-.427c3.532-1.86,6.647-1.142,9.263,1.7,2.873,3.116,5.619,6.351,7.722,8.74L260.189,189.9c-2.606-2.415-5.773-5.261-8.833-8.215-2.633-2.541-3.126-5.493-1.544-8.878,5.661-12.114,2.485-12.161,17.671-12.018.342,0,.686-.039,1.024,0,3.64.378,5.371-.981,5.129-4.907-.252-4.086-.037-8.2-.042-12.3-.008-7.02-.079-7.628-6.921-6.888-8.983.973-14.469-2.026-16.294-11.047a3.757,3.757,0,0,0-.419-.933c-1.823-3.506-1.31-6.621,1.66-9.229,3.2-2.809,6.458-5.541,9.292-7.966L243.06,88.824" transform="translate(3.421 1.884)" fill="#12263f"/>
        <path id="Trazado_211157" data-name="Trazado 211157" d="M65.71,142.522H106.82a32.543,32.543,0,0,1,.613,3.449c.451,8.1.437,8.107-7.815,8.108H65.263c0,5.694-.181,10.788.154,15.846.067,1,2.036,2.5,3.277,2.673,3.2.435,6.484.121,9.718.34,9.421.636,16.275,7.359,16.861,16.782a100.611,100.611,0,0,1-.084,13.836c-.739,9.693-7.753,16.412-17.54,16.591q-18.194.333-36.4-.007c-10.082-.2-16.992-7.158-17.426-17.126-.178-4.095-.164-8.207-.031-12.306.345-10.635,7.089-17.383,17.836-17.836,3.873-.163,7.757-.026,12.062-.026,0-13.859.007-26.824,0-39.789-.006-9.221-.015-9.221-9.2-9.257-14.18-.056-20.8-6.625-20.759-20.646.01-3.589-.09-7.192.184-10.764.647-8.443,7.051-15.4,15.517-15.69,13.311-.453,26.658-.453,39.969-.016,8.59.281,15.219,7.382,15.816,16.049a101.607,101.607,0,0,1-.027,14.347c-.707,9.7-7.734,16.194-17.491,16.708-4,.211-7.992.668-11.988,1.014ZM59.3,111.8v-.051c3.072,0,6.143-.015,9.215,0,15.946.092,14.7-.055,14.776-15.529.028-5.9-1.988-7.959-8.026-8.036-8.19-.1-16.384.082-24.574,0-15.386-.157-15.3-.037-15.157,16.49,0,.171,0,.342.016.511.313,4.25,2.474,6.6,6.856,6.61,5.632.014,11.263,0,16.895,0m.438,72.8v.075c-3.07,0-6.146.115-9.21-.019-15.491-.681-15.39.906-14.913,16.5.146,4.755,2.5,7.157,7.4,7.11,8.358-.078,16.718.011,25.076-.007,15.365-.035,16.038-.828,15.291-16.325-.232-4.806-2.477-7.279-7.267-7.323-5.458-.05-10.917-.011-16.376-.011" transform="translate(0.691 2.226)" fill="#12263f"/>
        <path id="Trazado_211158" data-name="Trazado 211158" d="M176.245,52.642c0-3.461.081-6.663-.019-9.858-.171-5.514-2.276-7.6-7.849-7.77-3.04-.1-6.086-.017-9.6-.017V23.5c5.361.25,10.661-.083,15.713.884,6.277,1.2,10.464,5.538,12.321,11.7a28.432,28.432,0,0,1,1.014,7.541c.22,10.626.058,10.718-11.581,9.011" transform="translate(4.629 0.685)" fill="#12263f"/>
        <path id="Trazado_211159" data-name="Trazado 211159" d="M52.843,257.371C30.66,261,20.192,250.459,24.435,228.81H35.049c0,3.168-.052,6.179.01,9.188.133,6.31,2.363,8.506,8.765,8.64,2.876.061,5.755.01,9.018.01Z" transform="translate(0.685 6.67)" fill="#12263f"/>
        <path id="Trazado_211160" data-name="Trazado 211160" d="M146.031,23.96c.135,1.94.275,3.273.308,4.608.046,1.846.011,3.7.011,5.987H135.214V23.96Z" transform="translate(3.942 0.698)" fill="#12263f"/>
        <path id="Trazado_211161" data-name="Trazado 211161" d="M64.992,256.991V246.458h10.2c2.551,10.687,1.322,12.02-10.2,10.533" transform="translate(1.895 7.185)" fill="#12263f"/>
        <path id="Trazado_211162" data-name="Trazado 211162" d="M199.92,177.17c-17.03-.236-30.427-13.692-30.214-30.348a30.122,30.122,0,0,1,30.318-29.7c17.1.141,30.109,13.685,29.883,31.114-.2,15.662-14.182,29.15-29.987,28.933m-18.367-30.086a18.316,18.316,0,1,0,18.189-18.273,18.427,18.427,0,0,0-18.189,18.273" transform="translate(4.947 3.414)" fill="#12263f"/>
      </g>
    </g>
  </g>
</svg>
