<svg xmlns="http://www.w3.org/2000/svg" xmlns:xlink="http://www.w3.org/1999/xlink" width="1085.607" height="269.108" viewBox="0 0 1085.607 269.108">
  <defs>
    <linearGradient id="linear-gradient" x1="0.5" x2="0.5" y2="1" gradientUnits="objectBoundingBox">
      <stop offset="0" stop-color="#7e53c5"/>
      <stop offset="1" stop-color="#080383"/>
    </linearGradient>
  </defs>
  <g id="Grupo_166931" data-name="Grupo 166931" transform="translate(-241.5 -804.777)">
    <path id="Trazado_210979" data-name="Trazado 210979" d="M1110.089,325.732A75.821,75.821,0,0,0,984.748,274.68a33.5,33.5,0,0,1-35.653,5.1h0a34.134,34.134,0,0,1-19.973-30.635q-.047-2.11-.211-4.244c-2.864-37.3-33.37-67.375-70.7-69.75a75.947,75.947,0,0,0-80.8,75.71v.195a30.482,30.482,0,0,1-18.035,27.866l-4.03,1.8a29.7,29.7,0,0,1-32.13-4.792,76.114,76.114,0,0,0-19.162-12.787l-.221-.1c-.782-.361-1.572-.7-2.367-1.04-.3-.128-.6-.258-.9-.383-.622-.252-1.25-.489-1.878-.726-.489-.185-.978-.37-1.47-.545s-.98-.334-1.472-.5c-.646-.213-1.294-.422-1.946-.618-.379-.114-.762-.221-1.145-.329-.77-.219-1.542-.427-2.321-.62-.3-.077-.61-.147-.916-.219q-1.276-.3-2.568-.558c-.271-.056-.546-.106-.819-.157q-1.32-.248-2.653-.446c-.289-.044-.582-.085-.873-.126q-1.273-.174-2.556-.306-.554-.059-1.111-.108c-.35-.031-.7-.075-1.047-.1s-.721-.029-1.081-.051c-.64-.039-1.279-.07-1.922-.092-.6-.021-1.2-.038-1.8-.044-.3,0-.605-.021-.909-.021-.407,0-.81.021-1.215.028-.523.008-1.045.018-1.565.036-.772.028-1.539.074-2.3.124-.455.031-.911.057-1.362.1-.862.072-1.717.167-2.571.268-.352.042-.706.077-1.057.123-1.05.141-2.09.306-3.125.489-.151.026-.3.046-.453.074a75.215,75.215,0,0,0-10.793,2.815l-.039.013q-1.7.584-3.369,1.246l-.263.11q-1.555.621-3.076,1.312l-.342.159q-1.494.685-2.951,1.431l-.309.162q-1.484.77-2.929,1.6c-.072.043-.144.083-.216.124q-1.518.881-2.991,1.829l-.046.029a76.228,76.228,0,0,0-8.979,6.755c-.384.337-.787.648-1.184.963a33.538,33.538,0,0,1-34.2,3.937h0a34.134,34.134,0,0,1-19.973-30.635q-.047-2.11-.209-4.244a75.5,75.5,0,0,0-21.838-47.364l-.036-.036q-1.062-1.07-2.167-2.1c-.093-.087-.185-.177-.278-.263-.662-.61-1.338-1.205-2.022-1.793-.177-.15-.348-.306-.525-.455-.613-.517-1.24-1.021-1.868-1.518-.258-.206-.515-.414-.777-.615-.564-.435-1.138-.857-1.716-1.276-.337-.247-.674-.5-1.016-.738-.518-.365-1.047-.716-1.575-1.068-.412-.275-.823-.553-1.24-.819-.479-.306-.968-.6-1.454-.9s-.953-.582-1.436-.862c-.45-.258-.9-.507-1.359-.757-.532-.293-1.063-.587-1.6-.867-.429-.222-.862-.435-1.294-.649-.576-.286-1.151-.571-1.737-.842-.412-.193-.829-.375-1.246-.559-.612-.27-1.225-.54-1.845-.795-.409-.168-.823-.327-1.235-.489-.635-.247-1.268-.492-1.909-.723-.42-.152-.846-.293-1.269-.437-.641-.218-1.282-.433-1.93-.635-.438-.136-.882-.262-1.323-.389-.639-.185-1.279-.368-1.925-.536-.469-.123-.944-.234-1.415-.348-.625-.149-1.248-.3-1.876-.432-.509-.108-1.021-.2-1.533-.3-.6-.116-1.2-.229-1.807-.33-.553-.092-1.111-.17-1.667-.249s-1.138-.162-1.711-.231c-.6-.072-1.21-.129-1.817-.186-.36-.033-.715-.082-1.075-.11-.155-.013-.308-.013-.463-.025-.24-.016-.478-.047-.72-.062-.617-.039-1.227-.044-1.842-.069-.59-.025-1.184-.056-1.771-.065-.8-.015-1.585,0-2.375.01-.615.008-1.232.007-1.845.029-.733.028-1.459.083-2.187.133-.659.044-1.32.075-1.974.134-.626.059-1.243.146-1.865.218-.744.088-1.49.164-2.228.271-.3.044-.6.106-.895.155a74.92,74.92,0,0,0-10.226,2.37c-.124.038-.252.069-.376.108-1.019.319-2.022.672-3.023,1.032-.231.083-.466.157-.7.242-.963.358-1.91.746-2.854,1.142-.255.106-.515.206-.769.316-.934.4-1.852.833-2.766,1.272-.25.119-.5.234-.752.357-.909.45-1.8.922-2.692,1.407-.242.132-.486.26-.726.394-.888.5-1.761,1.016-2.627,1.546-.226.139-.453.275-.675.414q-1.308.822-2.578,1.7c-.2.139-.4.276-.605.417q-1.288.9-2.532,1.853c-.175.134-.35.267-.525.4q-1.268.986-2.494,2.023l-.427.365q-1.256,1.079-2.465,2.21c-.1.1-.209.2-.312.3q-1.249,1.182-2.445,2.421c-.06.062-.119.126-.178.188q-1.249,1.3-2.437,2.663l-.023.026A75.523,75.523,0,0,0,415.046,251.1a30.484,30.484,0,0,1-18.035,27.831l-4.03,1.8a29.7,29.7,0,0,1-32.13-4.792,75.71,75.71,0,0,0-101.093-1.053,32.536,32.536,0,0,1-34.747,5.2l-.561-.25a34.173,34.173,0,0,1-20.085-30.681q-.042-1.884-.177-3.788c-2.625-37.035-32.508-67.193-69.521-70.123a75.87,75.87,0,1,0,43.578,132.867A33.5,33.5,0,0,1,213.9,303a34.134,34.134,0,0,1,19.975,30.634,78.38,78.38,0,0,0,.584,7.972,75.873,75.873,0,0,0,151.125-9.686v-.195a30.483,30.483,0,0,1,18.037-27.867l4.03-1.8a29.7,29.7,0,0,1,32.13,4.792,76.1,76.1,0,0,0,19.151,12.78l.226.11c.785.363,1.58.707,2.378,1.044.294.126.587.253.885.375.625.255,1.259.5,1.894.734.484.183.97.366,1.459.54s.986.335,1.48.5c.643.213,1.286.42,1.935.615.386.116.772.224,1.161.334q1.146.326,2.306.617c.309.077.618.149.929.222q1.271.3,2.555.556.415.081.829.157,1.317.248,2.65.446c.289.044.579.085.87.126q1.271.174,2.556.306.557.059,1.115.108c.347.031.69.075,1.039.1s.72.031,1.079.052q.964.059,1.932.092c.6.021,1.194.036,1.789.044.306,0,.61.021.916.021.415,0,.824-.021,1.236-.028.5-.008,1.008-.016,1.51-.034.788-.029,1.573-.075,2.357-.128.433-.028.869-.052,1.3-.088.9-.077,1.793-.175,2.684-.281.309-.038.62-.065.929-.106a75.419,75.419,0,0,0,10.853-2.262c.057-.016.115-.036.17-.052q1.663-.481,3.292-1.035c.141-.047.28-.1.42-.149q1.511-.523,2.991-1.106c.16-.062.316-.128.474-.191q1.465-.589,2.9-1.236c.142-.064.285-.129.427-.195q1.477-.677,2.919-1.418l.286-.146q1.563-.81,3.085-1.688l.02-.01a76.263,76.263,0,0,0,11.555-8.188,33.736,33.736,0,0,1,55.916,25.251,78.845,78.845,0,0,0,.586,7.972c.082.649.227,1.279.325,1.925.114.738.237,1.472.373,2.2q.488,2.669,1.166,5.27c.046.177.09.355.139.533a76.208,76.208,0,0,0,43.929,50.313c.1.043.2.09.307.134q1.717.714,3.472,1.344,1.487.537,3,1.016c.823.257,1.647.5,2.481.728q2.061.569,4.166,1.026c.6.128,1.2.242,1.8.353,1.649.314,3.314.581,5,.782.131.015.257.046.389.061.389.044.774.06,1.163.1.476.046.947.108,1.425.146.255.02.509.021.764.039.788.054,1.572.09,2.355.121.662.026,1.323.051,1.982.06.738.01,1.47,0,2.2-.01.692-.011,1.384-.021,2.072-.051s1.364-.075,2.044-.123c.728-.051,1.454-.1,2.177-.172.622-.06,1.238-.139,1.856-.216.767-.093,1.536-.188,2.3-.306.556-.085,1.107-.188,1.66-.286.808-.144,1.614-.286,2.414-.455.484-.1.963-.222,1.444-.334.855-.2,1.708-.4,2.552-.623.4-.11.8-.232,1.2-.347.908-.26,1.814-.525,2.707-.818.309-.1.615-.216.924-.322.971-.332,1.938-.672,2.892-1.042.2-.077.391-.164.587-.242,1.053-.419,2.1-.852,3.129-1.317.057-.026.115-.056.172-.082a75.94,75.94,0,0,0,44.562-69.333,30.482,30.482,0,0,1,18.035-27.826l4.03-1.8a29.7,29.7,0,0,1,32.129,4.792,75.713,75.713,0,0,0,100.541,1.536A33.9,33.9,0,0,1,938.652,303h0a34.135,34.135,0,0,1,19.973,30.637q.047,2.12.213,4.264a75.869,75.869,0,1,0,151.249-12.173Z" transform="translate(188.846 644.772)" fill="url(#linear-gradient)"/>
    <g id="Grupo_166691" data-name="Grupo 166691" transform="translate(256.941 835.211)">
      <circle id="Elipse_6036" data-name="Elipse 6036" cx="56.063" cy="56.063" r="56.063" transform="translate(0 111.756) rotate(-85.348)" fill="#fff"/>
      <g id="Grupo_166690" data-name="Grupo 166690" transform="translate(25.314 28.004)">
        <path id="Trazado_210980" data-name="Trazado 210980" d="M123.149,207.822l-8.14,4.071-1.82-3.642,8.142-4.069Z" transform="translate(-54.936 -199.896)"/>
        <path id="Trazado_210981" data-name="Trazado 210981" d="M121.33,229.316l-8.142-4.069,1.822-3.642,8.14,4.071Z" transform="translate(-54.936 -188.823)"/>
        <path id="Trazado_210982" data-name="Trazado 210982" d="M114.989,214h8.276v4.071h-8.276Z" transform="translate(-53.792 -193.652)"/>
        <path id="Trazado_210983" data-name="Trazado 210983" d="M80.163,204.181l8.142,4.071-1.82,3.641-8.142-4.071Z" transform="translate(-77.082 -199.896)"/>
        <path id="Trazado_210984" data-name="Trazado 210984" d="M80.163,229.315l-1.82-3.641,8.14-4.071,1.82,3.642Z" transform="translate(-77.082 -188.823)"/>
        <path id="Trazado_210985" data-name="Trazado 210985" d="M77.572,214H85.85v4.071H77.572Z" transform="translate(-77.572 -193.652)"/>
        <path id="Trazado_210986" data-name="Trazado 210986" d="M95.078,241.549h12.211v4.071H95.078Z" transform="translate(-66.446 -176.147)"/>
        <path id="Trazado_210987" data-name="Trazado 210987" d="M129.9,223.95a22.389,22.389,0,1,0-32.565,19.913v6.546H93.264v4.071h4.071v8.413h20.353v-8.413h4.071v-4.071h-4.071v-6.546A22.4,22.4,0,0,0,129.9,223.95Zm-16.284,34.872H101.406v-4.342h12.211Zm-8.142-30.8a2.035,2.035,0,1,1,2.036,2.035A2.039,2.039,0,0,1,105.475,228.021Zm4.071,22.387V233.776a6.1,6.1,0,1,0-4.071,0v16.632h-4.069v-9.161l-1.218-.533a18.318,18.318,0,1,1,14.648,0l-1.218.533v9.161Z" transform="translate(-72.774 -201.561)"/>
      </g>
    </g>
    <path id="Trazado_211163" data-name="Trazado 211163" d="M0,21.716V0" transform="translate(498.562 861.625)" fill="none" stroke="#303030" stroke-linecap="round" stroke-width="2" stroke-dasharray="0 4"/>
    <path id="Trazado_211164" data-name="Trazado 211164" d="M0,21.716V0" transform="translate(860.955 861.625)" fill="none" stroke="#303030" stroke-linecap="round" stroke-width="2" stroke-dasharray="0 4"/>
    <path id="Trazado_211165" data-name="Trazado 211165" d="M0,21.716V0" transform="translate(1223.348 861.625)" fill="none" stroke="#303030" stroke-linecap="round" stroke-width="2" stroke-dasharray="0 4"/>
    <path id="Trazado_211166" data-name="Trazado 211166" d="M0,0V21.716" transform="translate(317.365 988.989)" fill="none" stroke="#303030" stroke-linecap="round" stroke-width="2" stroke-dasharray="0 4"/>
    <path id="Trazado_211167" data-name="Trazado 211167" d="M0,0V21.716" transform="translate(679.758 988.989)" fill="none" stroke="#303030" stroke-linecap="round" stroke-width="2" stroke-dasharray="0 4"/>
    <path id="Trazado_211168" data-name="Trazado 211168" d="M0,0V21.716" transform="translate(1042.151 988.989)" fill="none" stroke="#303030" stroke-linecap="round" stroke-width="2" stroke-dasharray="0 4"/>
    <g id="Grupo_166693" data-name="Grupo 166693" transform="translate(442.499 920.634)">
      <circle id="Elipse_6037" data-name="Elipse 6037" cx="56.063" cy="56.063" r="56.063" fill="#fff"/>
      <g id="Grupo_166692" data-name="Grupo 166692" transform="translate(21.038 19.897)">
        <path id="Trazado_210988" data-name="Trazado 210988" d="M213.8,264a10.257,10.257,0,1,0,10.257,10.257A10.268,10.268,0,0,0,213.8,264Zm0,16.411a6.155,6.155,0,1,1,6.155-6.155A6.161,6.161,0,0,1,213.8,280.416Z" transform="translate(-178.792 -239.19)"/>
        <path id="Trazado_210989" data-name="Trazado 210989" d="M210.944,274.3l-2.9-2.9,2.9-2.9,2.9,2.9Z" transform="translate(-175.934 -236.332)"/>
        <path id="Trazado_210990" data-name="Trazado 210990" d="M238.52,297.157a59.409,59.409,0,0,0-.576-12.312A64.277,64.277,0,0,0,225.406,255.8l-5.226-6.967-5.226,6.967a64.26,64.26,0,0,0-12.538,29.044,59.3,59.3,0,0,0-.576,12.312,20.053,20.053,0,0,0-8.33,16.269v5.5l4.261-3.122a18.326,18.326,0,0,1,7.064-2.789c.777,2.421,1.351,3.8,2.129,5.916,1.354-.906,4.606-4.921,11.164-5.708v5.69h4.1v-5.69c6.577.788,9.823,4.813,11.164,5.708.783-2.126,1.353-3.5,2.13-5.916a18.346,18.346,0,0,1,7.064,2.789l4.259,3.122v-5.5A20.06,20.06,0,0,0,238.52,297.157Zm-40.732,13.9a15.821,15.821,0,0,1,4.537-8.96,63.678,63.678,0,0,0,1.369,6.954A22.511,22.511,0,0,0,197.788,311.059Zm33.676,1.178a21.221,21.221,0,0,0-9.233-3.137V298.4h-4.1v10.7a21.221,21.221,0,0,0-9.233,3.137c-6.12-18.657-2.846-37.726,9.342-53.975l1.943-2.591,1.943,2.591C234.31,274.511,237.584,293.58,231.464,312.237Zm5.2-3.183a64.069,64.069,0,0,0,1.371-6.954,15.821,15.821,0,0,1,4.537,8.96A22.5,22.5,0,0,0,236.665,309.054Z" transform="translate(-185.17 -248.833)"/>
        <path id="Trazado_210991" data-name="Trazado 210991" d="M188.411,258.988h12.445v4.1H188.411Z" transform="translate(-188.411 -242.379)"/>
        <path id="Trazado_210992" data-name="Trazado 210992" d="M223.614,258.988h12.445v4.1H223.614Z" transform="translate(-166.038 -242.379)"/>
        <path id="Trazado_210993" data-name="Trazado 210993" d="M191.7,250.094l11.156,5.2-1.734,3.719-11.156-5.2Z" transform="translate(-187.425 -248.032)"/>
        <path id="Trazado_210994" data-name="Trazado 210994" d="M232.945,273.857l-11.154-5.2,1.734-3.718,11.154,5.2Z" transform="translate(-167.196 -238.598)"/>
        <path id="Trazado_210995" data-name="Trazado 210995" d="M189.962,270.137l11.154-5.2,1.734,3.719-11.154,5.2Z" transform="translate(-187.425 -238.599)"/>
        <path id="Trazado_210996" data-name="Trazado 210996" d="M232.947,250.094l1.734,3.718-11.156,5.2-1.734-3.718Z" transform="translate(-167.196 -248.032)"/>
      </g>
    </g>
    <g id="Grupo_166694" data-name="Grupo 166694" transform="translate(615.358 831.236)">
      <circle id="Elipse_6038" data-name="Elipse 6038" cx="56.063" cy="56.063" r="56.063" transform="translate(0 110.646) rotate(-80.682)" fill="#fff"/>
      <path id="Trazado_210997" data-name="Trazado 210997" d="M369.053,264.729H365V235.012l4.056,4.056v-23.15H345.9l7.273,7.273-7.008,7.007-15.7-11.673-26.587,18.9V199.56h-4.056v69.225h69.225Zm-40.7-29.754v29.754H316.188v-21.1Zm4.056.193,12.3,9.153v20.408h-12.3Zm16.359,9.637,12.169-12.169v32.093H348.772ZM330.416,223.54l16.143,12,12.353-12.353-3.216-3.217H365v9.3l-3.215-3.216L346.929,240.91l-16.576-12.332-26.468,18.817V242.4Zm-26.532,28.832,8.248-5.863v18.22h-8.248Z" transform="translate(-269.421 -170.853)"/>
    </g>
    <g id="Grupo_166696" data-name="Grupo 166696" transform="translate(977.736 831.236)">
      <circle id="Elipse_6039" data-name="Elipse 6039" cx="56.063" cy="56.063" r="56.063" transform="translate(0 110.646) rotate(-80.682)" fill="#fff"/>
      <g id="Grupo_166695" data-name="Grupo 166695" transform="translate(28.674 25.555)">
        <path id="Trazado_210998" data-name="Trazado 210998" d="M551.853,217.15a6.276,6.276,0,0,0-1.322-10.109l4.553-9.408H531.651l4.552,9.408a6.275,6.275,0,0,0-1.318,10.109c-11.308,8.655-14.553,22.36-14.553,36.6v11.179h37.7v4.189h33.786V227.232H560.6A33.1,33.1,0,0,0,551.853,217.15Zm-12.674-2.484a2.094,2.094,0,0,1,0-4.189h8.377a2.094,2.094,0,0,1,0,4.189Zm9.226-12.844-2.162,4.467h-5.751l-2.162-4.467ZM524.52,260.739v-6.992c0-17.059,4.99-28.48,15.25-34.893h7.2a28.829,28.829,0,0,1,11.061,12.512v29.373Zm63.106,4.187h-25.41V256.55h25.41Zm-25.41-12.564v-8.377h25.41v8.377Zm25.41-20.942V239.8h-25.41V231.42Z" transform="translate(-520.331 -197.633)"/>
        <path id="Trazado_210999" data-name="Trazado 210999" d="M536.857,224.573a2.1,2.1,0,0,1,2.094,2.094h4.189a6.292,6.292,0,0,0-4.189-5.922v-2.453h-4.189v2.453a6.283,6.283,0,0,0,2.1,12.206,2.094,2.094,0,1,1-2.1,2.094h-4.187a6.293,6.293,0,0,0,4.187,5.922v2.455h4.189v-2.455a6.282,6.282,0,0,0-2.094-12.2,2.094,2.094,0,1,1,0-4.189Z" transform="translate(-513.82 -184.504)"/>
      </g>
    </g>
    <g id="Grupo_166698" data-name="Grupo 166698" transform="translate(804.892 920.634)">
      <circle id="Elipse_6040" data-name="Elipse 6040" cx="56.063" cy="56.063" r="56.063" fill="#fff"/>
      <g id="Grupo_166697" data-name="Grupo 166697" transform="translate(21.432 16.662)">
        <path id="Trazado_211000" data-name="Trazado 211000" d="M467.8,265.445l3.57-3.569,3.217,3.217,3.217-3.217-9.651-9.651-3.217,3.215,3.217,3.219-3.871,3.871a33.757,33.757,0,0,0-13.111-5.744v-5.381h4.55v-4.55H432.973v4.55h4.55v5.381a33.757,33.757,0,0,0-13.111,5.744l-3.871-3.871,3.219-3.219-3.219-3.215-9.651,9.651,3.217,3.217,3.217-3.217,3.57,3.569a34.126,34.126,0,1,0,46.908,0Zm-25.729-14.04h4.55v4.779c-.754-.049-1.513-.077-2.275-.077s-1.521.028-2.275.077Zm2.275,68.554a29.651,29.651,0,1,1,29.576-29.726A29.684,29.684,0,0,1,444.348,319.959Z" transform="translate(-410.224 -246.855)"/>
        <path id="Trazado_211001" data-name="Trazado 211001" d="M436.015,276.667V258.076h-4.55v18.591a6.825,6.825,0,1,0,4.55,0Zm-2.275,8.708a2.274,2.274,0,1,1,2.275-2.273A2.277,2.277,0,0,1,433.74,285.375Z" transform="translate(-399.616 -239.723)"/>
        <path id="Trazado_211002" data-name="Trazado 211002" d="M429.7,285.895h4.55v4.55H429.7Z" transform="translate(-397.848 -222.043)"/>
        <path id="Trazado_211003" data-name="Trazado 211003" d="M415.788,271.986h4.55v4.548h-4.55Z" transform="translate(-406.688 -230.883)"/>
        <path id="Trazado_211004" data-name="Trazado 211004" d="M443.607,271.986h4.55v4.548h-4.55Z" transform="translate(-389.007 -230.883)"/>
        <path id="Trazado_211005" data-name="Trazado 211005" d="M422.5,287.681l-3.219-3.217,3.219-3.219,3.216,3.219Z" transform="translate(-404.465 -224.998)"/>
        <path id="Trazado_211006" data-name="Trazado 211006" d="M442.174,268.008l-3.217-3.217,3.217-3.217,3.217,3.217Z" transform="translate(-391.963 -237.5)"/>
        <path id="Trazado_211007" data-name="Trazado 211007" d="M442.174,287.68l-3.217-3.217,3.217-3.217,3.217,3.217Z" transform="translate(-391.963 -224.998)"/>
        <path id="Trazado_211008" data-name="Trazado 211008" d="M422.5,268.008l-3.219-3.217,3.219-3.217,3.217,3.217Z" transform="translate(-404.465 -237.5)"/>
      </g>
    </g>
    <g id="Grupo_166700" data-name="Grupo 166700" transform="translate(1167.27 920.634)">
      <circle id="Elipse_6041" data-name="Elipse 6041" cx="56.063" cy="56.063" r="56.063" fill="#fff"/>
      <g id="Grupo_166699" data-name="Grupo 166699" transform="translate(20.323 21.386)">
        <path id="Trazado_211009" data-name="Trazado 211009" d="M649.535,281.743l9.229-4.853,9.229,4.853-1.763-10.278,7.466-7.278-10.319-1.5-4.614-9.35-4.615,9.35-10.319,1.5,7.466,7.278Zm7.4-15.227,1.833-3.716,1.833,3.716,4.1.6L661.731,270l.7,4.084-3.667-1.928-3.669,1.928.7-4.084-2.967-2.892Z" transform="translate(-623.024 -247.459)"/>
        <path id="Trazado_211010" data-name="Trazado 211010" d="M641.58,258.259a10.471,10.471,0,0,0,0,20.942h2.97a23.2,23.2,0,0,0,16.017,15.891v9.238h-7.8l-4.189,12.7h-4.768v4.189h46.07v-4.189h-4.768l-4.189-12.7h-7.8v-9.247A23.129,23.129,0,0,0,689.012,279.2h3.1a10.471,10.471,0,1,0,0-20.942h-2.233v-4.328h4.328v-4.189H639.486v4.189h4.187v4.328Zm0,16.753a6.282,6.282,0,0,1,0-12.564h2.094v10.469c0,.707.034,1.4.1,2.1Zm39.126,42.021H652.991l2.807-8.515h22.1Zm-11.763-12.7h-4.189v-8.472q1.035.093,2.1.095c.707,0,1.4-.033,2.094-.095Zm23.174-41.882a6.282,6.282,0,1,1,0,12.564h-2.329c.062-.69.1-1.389.1-2.1V262.448Zm-6.421-8.516v18.985a18.917,18.917,0,0,1-37.833,0V253.932Z" transform="translate(-631.109 -249.743)"/>
      </g>
    </g>
    <path id="Trazado_211173" data-name="Trazado 211173" d="M10.9-4.061A4.708,4.708,0,0,1,9.4-.927,4.911,4.911,0,0,1,6.047.176,4.509,4.509,0,0,1,2.413-1.45,6.542,6.542,0,0,1,1.046-5.8v-1.23a7.291,7.291,0,0,1,.637-3.138,4.76,4.76,0,0,1,1.806-2.079A5.029,5.029,0,0,1,6.2-12.973a4.624,4.624,0,0,1,3.27,1.138A4.765,4.765,0,0,1,10.9-8.684H9.2a3.677,3.677,0,0,0-.954-2.222A2.885,2.885,0,0,0,6.2-11.593a3.019,3.019,0,0,0-2.536,1.2,5.492,5.492,0,0,0-.918,3.4v1.24a5.645,5.645,0,0,0,.87,3.316A2.812,2.812,0,0,0,6.047-1.2,3.247,3.247,0,0,0,8.2-1.841a3.536,3.536,0,0,0,1-2.219ZM23.045-5.985A7.916,7.916,0,0,1,22.412-2.7a4.793,4.793,0,0,1-1.793,2.14,4.933,4.933,0,0,1-2.707.738,4.891,4.891,0,0,1-2.681-.743,4.908,4.908,0,0,1-1.815-2.118,7.6,7.6,0,0,1-.664-3.186v-.923a7.822,7.822,0,0,1,.642-3.261,4.891,4.891,0,0,1,1.815-2.167,4.87,4.87,0,0,1,2.685-.751,4.961,4.961,0,0,1,2.711.743,4.784,4.784,0,0,1,1.806,2.153,7.955,7.955,0,0,1,.633,3.283Zm-1.679-.826a5.738,5.738,0,0,0-.914-3.494,3.015,3.015,0,0,0-2.558-1.217,2.982,2.982,0,0,0-2.518,1.217,5.62,5.62,0,0,0-.945,3.379v.94a5.746,5.746,0,0,0,.927,3.467,3,3,0,0,0,2.553,1.261,2.983,2.983,0,0,0,2.531-1.191,5.714,5.714,0,0,0,.923-3.415ZM35.411,0h-1.7L27.272-9.861V0h-1.7V-12.8h1.7l6.46,9.905V-12.8h1.679ZM47.25-11.417H43.137V0H41.458V-11.417h-4.1V-12.8h9.9Zm8.271,8.068H50.159L48.955,0h-1.74L52.1-12.8h1.477L58.474,0H56.742Zm-4.852-1.38H55.02l-2.18-5.985ZM60.2,0V-12.8H64.38a4.856,4.856,0,0,1,3.133.861,3.1,3.1,0,0,1,1.05,2.549,2.6,2.6,0,0,1-.51,1.586,3.3,3.3,0,0,1-1.389,1.068,2.968,2.968,0,0,1,1.639,1.1,3.166,3.166,0,0,1,.6,1.938A3.423,3.423,0,0,1,67.79-.984,4.616,4.616,0,0,1,64.635,0Zm1.688-5.985V-1.38H64.67a2.683,2.683,0,0,0,1.859-.611,2.145,2.145,0,0,0,.681-1.683q0-2.312-2.514-2.312Zm0-1.354h2.549A2.672,2.672,0,0,0,66.2-7.894,1.86,1.86,0,0,0,66.867-9.4a1.829,1.829,0,0,0-.615-1.537,3.021,3.021,0,0,0-1.872-.48h-2.5ZM73.1-1.38h6.064V0H71.4V-12.8h1.7ZM88.321-5.915H82.775V-1.38h6.442V0h-8.13V-12.8H89.13v1.38H82.775v4.122h5.546Z" transform="translate(276.715 1073.71)"/>
    <path id="Trazado_211174" data-name="Trazado 211174" d="M16.113-8.716a10.184,10.184,0,0,1-1.941,6.665A6.707,6.707,0,0,1,8.7.293,6.743,6.743,0,0,1,3.193-2.065a10.168,10.168,0,0,1-1.948-6.65v-3.9a10.184,10.184,0,0,1,1.941-6.665,6.724,6.724,0,0,1,5.486-2.344,6.726,6.726,0,0,1,5.493,2.358A10.193,10.193,0,0,1,16.113-12.6Zm-4.937-4.526a7.607,7.607,0,0,0-.6-3.435,2.008,2.008,0,0,0-1.9-1.135,1.96,1.96,0,0,0-1.853,1.055A7.166,7.166,0,0,0,6.2-13.564v5.449a7.664,7.664,0,0,0,.6,3.494A2.015,2.015,0,0,0,8.7-3.516a1.988,1.988,0,0,0,1.86-1.077,7.317,7.317,0,0,0,.615-3.376ZM29.619,0H24.668V-15.762L19.8-14.341v-3.75l9.36-3.237h.454Z" transform="translate(274.667 1054.413)" fill="#7f4fc7"/>
    <path id="Trazado_211171" data-name="Trazado 211171" d="M1.485,0V-12.8H5.1a5.815,5.815,0,0,1,2.953.738,4.993,4.993,0,0,1,1.982,2.1,6.837,6.837,0,0,1,.708,3.129v.817a6.861,6.861,0,0,1-.7,3.173,4.915,4.915,0,0,1-2,2.092A6.185,6.185,0,0,1,5.027,0ZM3.173-11.417V-1.38H4.948A3.863,3.863,0,0,0,7.985-2.594,5.016,5.016,0,0,0,9.07-6.051V-6.8A5.1,5.1,0,0,0,8.046-10.19a3.644,3.644,0,0,0-2.9-1.227ZM15.1,0H13.412V-12.8H15.1Zm7.778-5.177H19.872V0h-1.7V-12.8h4.236a5.014,5.014,0,0,1,3.327.984A3.542,3.542,0,0,1,26.9-8.947a3.445,3.445,0,0,1-.646,2.083,3.856,3.856,0,0,1-1.8,1.327L27.466-.105V0H25.655Zm-3.006-1.38h2.593a2.924,2.924,0,0,0,2-.652,2.2,2.2,0,0,0,.743-1.743,2.32,2.32,0,0,0-.708-1.823,3,3,0,0,0-2.043-.643H19.872ZM36.5-5.915H30.955V-1.38H37.4V0h-8.13V-12.8H37.31v1.38H30.955v4.122H36.5Zm12.41,1.854a4.708,4.708,0,0,1-1.5,3.133A4.911,4.911,0,0,1,44.06.176,4.509,4.509,0,0,1,40.425-1.45,6.542,6.542,0,0,1,39.059-5.8v-1.23a7.291,7.291,0,0,1,.637-3.138A4.76,4.76,0,0,1,41.5-12.248a5.029,5.029,0,0,1,2.707-.725,4.624,4.624,0,0,1,3.27,1.138,4.765,4.765,0,0,1,1.433,3.151h-1.7a3.677,3.677,0,0,0-.954-2.222,2.885,2.885,0,0,0-2.052-.688,3.019,3.019,0,0,0-2.536,1.2,5.492,5.492,0,0,0-.918,3.4v1.24a5.645,5.645,0,0,0,.87,3.316A2.812,2.812,0,0,0,44.06-1.2a3.247,3.247,0,0,0,2.158-.637,3.536,3.536,0,0,0,1-2.219Zm11.716,0a4.708,4.708,0,0,1-1.5,3.133,4.911,4.911,0,0,1-3.353,1.1A4.509,4.509,0,0,1,52.141-1.45,6.542,6.542,0,0,1,50.774-5.8v-1.23a7.291,7.291,0,0,1,.637-3.138,4.76,4.76,0,0,1,1.806-2.079,5.029,5.029,0,0,1,2.707-.725,4.624,4.624,0,0,1,3.27,1.138,4.765,4.765,0,0,1,1.433,3.151h-1.7a3.677,3.677,0,0,0-.954-2.222,2.885,2.885,0,0,0-2.052-.688,3.019,3.019,0,0,0-2.536,1.2,5.492,5.492,0,0,0-.918,3.4v1.24a5.645,5.645,0,0,0,.87,3.316A2.812,2.812,0,0,0,55.775-1.2a3.247,3.247,0,0,0,2.158-.637,3.536,3.536,0,0,0,1-2.219ZM64.74,0H63.053V-12.8H64.74ZM77.669-5.985A7.916,7.916,0,0,1,77.036-2.7a4.793,4.793,0,0,1-1.793,2.14,4.933,4.933,0,0,1-2.707.738,4.891,4.891,0,0,1-2.681-.743,4.908,4.908,0,0,1-1.815-2.118,7.6,7.6,0,0,1-.664-3.186v-.923a7.822,7.822,0,0,1,.642-3.261,4.891,4.891,0,0,1,1.815-2.167,4.87,4.87,0,0,1,2.685-.751,4.961,4.961,0,0,1,2.711.743,4.784,4.784,0,0,1,1.806,2.153,7.955,7.955,0,0,1,.633,3.283ZM75.99-6.812a5.738,5.738,0,0,0-.914-3.494,3.015,3.015,0,0,0-2.558-1.217A2.982,2.982,0,0,0,70-10.305a5.62,5.62,0,0,0-.945,3.379v.94a5.746,5.746,0,0,0,.927,3.467,3,3,0,0,0,2.553,1.261,2.983,2.983,0,0,0,2.531-1.191,5.714,5.714,0,0,0,.923-3.415Zm-2.646-9.431h1.969l-2.355,2.584-1.31,0ZM90.035,0h-1.7L81.9-9.861V0H80.2V-12.8h1.7l6.46,9.905V-12.8h1.679Z" transform="translate(637.715 1073.71)"/>
    <path id="Trazado_211172" data-name="Trazado 211172" d="M16.113-8.716a10.184,10.184,0,0,1-1.941,6.665A6.707,6.707,0,0,1,8.7.293,6.743,6.743,0,0,1,3.193-2.065a10.168,10.168,0,0,1-1.948-6.65v-3.9a10.184,10.184,0,0,1,1.941-6.665,6.724,6.724,0,0,1,5.486-2.344,6.726,6.726,0,0,1,5.493,2.358A10.193,10.193,0,0,1,16.113-12.6Zm-4.937-4.526a7.607,7.607,0,0,0-.6-3.435,2.008,2.008,0,0,0-1.9-1.135,1.96,1.96,0,0,0-1.853,1.055A7.166,7.166,0,0,0,6.2-13.564v5.449a7.664,7.664,0,0,0,.6,3.494A2.015,2.015,0,0,0,8.7-3.516a1.988,1.988,0,0,0,1.86-1.077,7.317,7.317,0,0,0,.615-3.376Zm12.012.513h2.329q2.769,0,2.769-2.71a2.343,2.343,0,0,0-.659-1.721,2.5,2.5,0,0,0-1.86-.667,2.676,2.676,0,0,0-1.707.571,1.743,1.743,0,0,0-.725,1.421H18.4a5.053,5.053,0,0,1,.938-3,6.191,6.191,0,0,1,2.6-2.058,8.89,8.89,0,0,1,3.655-.74,8.735,8.735,0,0,1,5.6,1.626,5.405,5.405,0,0,1,2.036,4.468,4.505,4.505,0,0,1-.842,2.6,6,6,0,0,1-2.454,1.985,5.734,5.734,0,0,1,2.666,1.868,4.919,4.919,0,0,1,.967,3.1,5.5,5.5,0,0,1-2.2,4.57A9.12,9.12,0,0,1,25.591.293a9.458,9.458,0,0,1-3.889-.8,6.093,6.093,0,0,1-2.717-2.212,5.751,5.751,0,0,1-.923-3.215h4.966a2.223,2.223,0,0,0,.791,1.7,2.793,2.793,0,0,0,1.948.718,2.925,2.925,0,0,0,2.08-.725,2.424,2.424,0,0,0,.776-1.853,2.833,2.833,0,0,0-.806-2.285,3.368,3.368,0,0,0-2.227-.674h-2.4Z" transform="translate(635.667 1054.413)" fill="#7f4fc7"/>
    <path id="Trazado_211169" data-name="Trazado 211169" d="M5.722-2.241,9.378-12.8h1.846L6.478,0H4.983L.246-12.8H2.083ZM20.171-5.915H14.625V-1.38h6.442V0h-8.13V-12.8h8.042v1.38H14.625v4.122h5.546ZM33,0h-1.7L24.864-9.861V0h-1.7V-12.8h1.7l6.46,9.905V-12.8H33ZM44.842-11.417H40.729V0H39.05V-11.417h-4.1V-12.8h9.9Zm8.271,8.068H47.751L46.547,0h-1.74l4.887-12.8H51.17L56.065,0H54.334Zm-4.852-1.38h4.351l-2.18-5.985Zm13.3-.976A7.935,7.935,0,0,1,58.4-7.238a2.93,2.93,0,0,1-.989-2.246,3.1,3.1,0,0,1,1.208-2.5,4.8,4.8,0,0,1,3.142-.989,5.243,5.243,0,0,1,2.351.51,3.866,3.866,0,0,1,1.6,1.406,3.6,3.6,0,0,1,.567,1.96h-1.7a2.34,2.34,0,0,0-.738-1.83,3,3,0,0,0-2.083-.666,3.074,3.074,0,0,0-1.947.55,1.836,1.836,0,0,0-.7,1.528,1.652,1.652,0,0,0,.664,1.325,6.509,6.509,0,0,0,2.259.991,10.481,10.481,0,0,1,2.5.99A3.788,3.788,0,0,1,65.87-4.948a3.219,3.219,0,0,1,.435,1.7A2.99,2.99,0,0,1,65.092-.76a5.171,5.171,0,0,1-3.243.936A6.015,6.015,0,0,1,59.388-.33a4.142,4.142,0,0,1-1.762-1.384,3.378,3.378,0,0,1-.62-2h1.7a2.2,2.2,0,0,0,.857,1.833,3.608,3.608,0,0,0,2.29.672A3.317,3.317,0,0,0,63.9-1.749a1.77,1.77,0,0,0,.712-1.485,1.738,1.738,0,0,0-.659-1.455A7.6,7.6,0,0,0,61.559-5.7Z" transform="translate(1001.902 1073.71)"/>
    <path id="Trazado_211170" data-name="Trazado 211170" d="M16.113-8.716a10.184,10.184,0,0,1-1.941,6.665A6.707,6.707,0,0,1,8.7.293,6.743,6.743,0,0,1,3.193-2.065a10.168,10.168,0,0,1-1.948-6.65v-3.9a10.184,10.184,0,0,1,1.941-6.665,6.724,6.724,0,0,1,5.486-2.344,6.726,6.726,0,0,1,5.493,2.358A10.193,10.193,0,0,1,16.113-12.6Zm-4.937-4.526a7.607,7.607,0,0,0-.6-3.435,2.008,2.008,0,0,0-1.9-1.135,1.96,1.96,0,0,0-1.853,1.055A7.166,7.166,0,0,0,6.2-13.564v5.449a7.664,7.664,0,0,0,.6,3.494A2.015,2.015,0,0,0,8.7-3.516a1.988,1.988,0,0,0,1.86-1.077,7.317,7.317,0,0,0,.615-3.376ZM31.714-8.335h2.168v3.809H31.714V0H26.777V-4.526H18.53l-.293-3.018,8.54-13.74v-.044h4.937Zm-8.774,0h3.838V-14.9l-.308.5Z" transform="translate(999.854 1054.413)" fill="#7f4fc7"/>
    <path id="Trazado_211175" data-name="Trazado 211175" d="M3.173-5.01V0H1.485V-12.8h4.72A4.742,4.742,0,0,1,9.5-11.725a3.635,3.635,0,0,1,1.191,2.839,3.587,3.587,0,0,1-1.165,2.87A4.954,4.954,0,0,1,6.188-5.01Zm0-1.38H6.205a3.032,3.032,0,0,0,2.074-.638A2.334,2.334,0,0,0,9-8.873,2.411,2.411,0,0,0,8.279-10.7,2.84,2.84,0,0,0,6.3-11.417H3.173ZM17.534-5.177H14.528V0h-1.7V-12.8h4.236a5.014,5.014,0,0,1,3.327.984A3.542,3.542,0,0,1,21.56-8.947a3.445,3.445,0,0,1-.646,2.083,3.856,3.856,0,0,1-1.8,1.327L22.122-.105V0H20.312Zm-3.006-1.38h2.593a2.924,2.924,0,0,0,2-.652,2.2,2.2,0,0,0,.743-1.743,2.32,2.32,0,0,0-.708-1.823,3,3,0,0,0-2.043-.643H14.528Zm19.239.571A7.916,7.916,0,0,1,33.135-2.7a4.793,4.793,0,0,1-1.793,2.14,4.933,4.933,0,0,1-2.707.738,4.891,4.891,0,0,1-2.681-.743,4.908,4.908,0,0,1-1.815-2.118,7.6,7.6,0,0,1-.664-3.186v-.923a7.822,7.822,0,0,1,.642-3.261,4.891,4.891,0,0,1,1.815-2.167,4.87,4.87,0,0,1,2.685-.751,4.961,4.961,0,0,1,2.711.743,4.784,4.784,0,0,1,1.806,2.153,7.955,7.955,0,0,1,.633,3.283Zm-1.679-.826a5.738,5.738,0,0,0-.914-3.494,3.015,3.015,0,0,0-2.558-1.217A2.982,2.982,0,0,0,26.1-10.305a5.62,5.62,0,0,0-.945,3.379v.94a5.746,5.746,0,0,0,.927,3.467,3,3,0,0,0,2.553,1.261,2.983,2.983,0,0,0,2.531-1.191,5.714,5.714,0,0,0,.923-3.415ZM36.3,0V-12.8h3.612a5.815,5.815,0,0,1,2.953.738,4.993,4.993,0,0,1,1.982,2.1,6.837,6.837,0,0,1,.708,3.129v.817a6.861,6.861,0,0,1-.7,3.173,4.915,4.915,0,0,1-2,2.092A6.185,6.185,0,0,1,39.841,0Zm1.688-11.417V-1.38h1.775A3.863,3.863,0,0,0,42.8-2.594a5.016,5.016,0,0,0,1.085-3.457V-6.8A5.1,5.1,0,0,0,42.86-10.19a3.644,3.644,0,0,0-2.9-1.227ZM57.111-12.8v8.7a4.082,4.082,0,0,1-1.138,2.962A4.586,4.586,0,0,1,52.91.158l-.448.018A4.79,4.79,0,0,1,49.113-.958a4.055,4.055,0,0,1-1.266-3.12V-12.8h1.67v8.666a2.927,2.927,0,0,0,.765,2.158,2.939,2.939,0,0,0,2.18.769,2.959,2.959,0,0,0,2.193-.765,2.921,2.921,0,0,0,.76-2.153V-12.8ZM69.188-4.061a4.708,4.708,0,0,1-1.5,3.133,4.911,4.911,0,0,1-3.353,1.1A4.509,4.509,0,0,1,60.7-1.45,6.542,6.542,0,0,1,59.335-5.8v-1.23a7.291,7.291,0,0,1,.637-3.138,4.76,4.76,0,0,1,1.806-2.079,5.029,5.029,0,0,1,2.707-.725,4.624,4.624,0,0,1,3.27,1.138,4.765,4.765,0,0,1,1.433,3.151h-1.7a3.677,3.677,0,0,0-.954-2.222,2.885,2.885,0,0,0-2.052-.688,3.019,3.019,0,0,0-2.536,1.2,5.492,5.492,0,0,0-.918,3.4v1.24a5.645,5.645,0,0,0,.87,3.316A2.812,2.812,0,0,0,64.336-1.2a3.247,3.247,0,0,0,2.158-.637,3.536,3.536,0,0,0,1-2.219Zm11.716,0A4.708,4.708,0,0,1,79.4-.927a4.911,4.911,0,0,1-3.353,1.1A4.509,4.509,0,0,1,72.417-1.45,6.542,6.542,0,0,1,71.051-5.8v-1.23a7.291,7.291,0,0,1,.637-3.138,4.76,4.76,0,0,1,1.806-2.079,5.029,5.029,0,0,1,2.707-.725,4.624,4.624,0,0,1,3.27,1.138A4.765,4.765,0,0,1,80.9-8.684h-1.7a3.677,3.677,0,0,0-.954-2.222,2.885,2.885,0,0,0-2.052-.688,3.019,3.019,0,0,0-2.536,1.2,5.492,5.492,0,0,0-.918,3.4v1.24a5.645,5.645,0,0,0,.87,3.316A2.812,2.812,0,0,0,76.052-1.2a3.247,3.247,0,0,0,2.158-.637,3.536,3.536,0,0,0,1-2.219ZM85.017,0H83.329V-12.8h1.688ZM97.945-5.985A7.916,7.916,0,0,1,97.313-2.7,4.793,4.793,0,0,1,95.52-.562a4.933,4.933,0,0,1-2.707.738,4.891,4.891,0,0,1-2.681-.743,4.908,4.908,0,0,1-1.815-2.118,7.6,7.6,0,0,1-.664-3.186v-.923a7.822,7.822,0,0,1,.642-3.261,4.891,4.891,0,0,1,1.815-2.167,4.87,4.87,0,0,1,2.685-.751,4.961,4.961,0,0,1,2.711.743,4.784,4.784,0,0,1,1.806,2.153,7.955,7.955,0,0,1,.633,3.283Zm-1.679-.826a5.738,5.738,0,0,0-.914-3.494,3.015,3.015,0,0,0-2.558-1.217,2.982,2.982,0,0,0-2.518,1.217,5.62,5.62,0,0,0-.945,3.379v.94a5.746,5.746,0,0,0,.927,3.467,3,3,0,0,0,2.553,1.261,2.983,2.983,0,0,0,2.531-1.191,5.714,5.714,0,0,0,.923-3.415Zm-2.646-9.431H95.59l-2.355,2.584-1.31,0ZM110.312,0h-1.7l-6.442-9.861V0h-1.7V-12.8h1.7l6.46,9.905V-12.8h1.679Z" transform="translate(461.715 845.71)"/>
    <path id="Trazado_211176" data-name="Trazado 211176" d="M16.113-8.716a10.184,10.184,0,0,1-1.941,6.665A6.707,6.707,0,0,1,8.7.293,6.743,6.743,0,0,1,3.193-2.065a10.168,10.168,0,0,1-1.948-6.65v-3.9a10.184,10.184,0,0,1,1.941-6.665,6.724,6.724,0,0,1,5.486-2.344,6.726,6.726,0,0,1,5.493,2.358A10.193,10.193,0,0,1,16.113-12.6Zm-4.937-4.526a7.607,7.607,0,0,0-.6-3.435,2.008,2.008,0,0,0-1.9-1.135,1.96,1.96,0,0,0-1.853,1.055A7.166,7.166,0,0,0,6.2-13.564v5.449a7.664,7.664,0,0,0,.6,3.494A2.015,2.015,0,0,0,8.7-3.516a1.988,1.988,0,0,0,1.86-1.077,7.317,7.317,0,0,0,.615-3.376ZM33.56,0H18.677V-3.223l6.855-7.207q2.534-2.886,2.534-4.585a3.189,3.189,0,0,0-.6-2.095,2.144,2.144,0,0,0-1.743-.718,2.171,2.171,0,0,0-1.831.959,3.943,3.943,0,0,0-.7,2.4H18.237a7,7,0,0,1,.981-3.625,6.882,6.882,0,0,1,2.725-2.6,8.094,8.094,0,0,1,3.9-.937,7.962,7.962,0,0,1,5.325,1.6,5.7,5.7,0,0,1,1.868,4.585A6.658,6.658,0,0,1,32.563-13a10.76,10.76,0,0,1-1.458,2.5A36.715,36.715,0,0,1,27.92-6.987L25.166-3.809H33.56Z" transform="translate(459.667 826.413)" fill="#7f4fc7"/>
    <path id="Trazado_211177" data-name="Trazado 211177" d="M8.552-3.349H3.19L1.986,0H.246L5.133-12.8H6.609L11.5,0H9.773ZM3.7-4.729H8.051l-2.18-5.985ZM13.228,0V-12.8H16.84a5.815,5.815,0,0,1,2.953.738,4.993,4.993,0,0,1,1.982,2.1,6.837,6.837,0,0,1,.708,3.129v.817a6.861,6.861,0,0,1-.7,3.173,4.915,4.915,0,0,1-2,2.092A6.185,6.185,0,0,1,16.77,0Zm1.688-11.417V-1.38H16.69a3.863,3.863,0,0,0,3.037-1.214,5.016,5.016,0,0,0,1.085-3.457V-6.8a5.1,5.1,0,0,0-1.024-3.391,3.644,3.644,0,0,0-2.9-1.227Zm12.3-1.38L31.395-2.355,35.578-12.8h2.188V0H36.079V-4.983l.158-5.379L32.036,0H30.744L26.552-10.336l.167,5.353V0H25.031V-12.8ZM42.557,0H40.869V-12.8h1.688Zm12.92,0h-1.7L47.338-9.861V0h-1.7V-12.8h1.7L53.8-2.892V-12.8h1.679Zm4.808,0H58.6V-12.8h1.688ZM67.14-5.7a7.935,7.935,0,0,1-3.16-1.534,2.93,2.93,0,0,1-.989-2.246,3.1,3.1,0,0,1,1.208-2.5,4.8,4.8,0,0,1,3.142-.989,5.243,5.243,0,0,1,2.351.51,3.866,3.866,0,0,1,1.6,1.406,3.6,3.6,0,0,1,.567,1.96h-1.7a2.34,2.34,0,0,0-.738-1.83,3,3,0,0,0-2.083-.666,3.074,3.074,0,0,0-1.947.55,1.836,1.836,0,0,0-.7,1.528A1.652,1.652,0,0,0,65.36-8.19a6.509,6.509,0,0,0,2.259.991,10.481,10.481,0,0,1,2.5.99,3.788,3.788,0,0,1,1.336,1.261,3.219,3.219,0,0,1,.435,1.7A2.99,2.99,0,0,1,70.673-.76,5.171,5.171,0,0,1,67.43.176,6.015,6.015,0,0,1,64.969-.33a4.142,4.142,0,0,1-1.762-1.384,3.378,3.378,0,0,1-.62-2h1.7a2.2,2.2,0,0,0,.857,1.833,3.608,3.608,0,0,0,2.29.672,3.317,3.317,0,0,0,2.048-.545,1.77,1.77,0,0,0,.712-1.485,1.738,1.738,0,0,0-.659-1.455A7.6,7.6,0,0,0,67.14-5.7Zm15.75-5.713H78.776V0H77.1V-11.417h-4.1V-12.8h9.9Zm6.592,6.24H86.476V0h-1.7V-12.8h4.236a5.014,5.014,0,0,1,3.327.984,3.542,3.542,0,0,1,1.165,2.865,3.445,3.445,0,0,1-.646,2.083,3.856,3.856,0,0,1-1.8,1.327L94.069-.105V0H92.259Zm-3.006-1.38h2.593a2.924,2.924,0,0,0,2-.652,2.2,2.2,0,0,0,.743-1.743,2.32,2.32,0,0,0-.708-1.823,3,3,0,0,0-2.043-.643H86.476Zm16.462,3.208H97.576L96.372,0h-1.74l4.887-12.8H101l4.9,12.8h-1.731Zm-4.852-1.38h4.351l-2.18-5.985Zm18.94.668a4.708,4.708,0,0,1-1.5,3.133,4.911,4.911,0,0,1-3.353,1.1,4.509,4.509,0,0,1-3.634-1.626A6.542,6.542,0,0,1,107.174-5.8v-1.23a7.291,7.291,0,0,1,.637-3.138,4.76,4.76,0,0,1,1.806-2.079,5.029,5.029,0,0,1,2.707-.725,4.624,4.624,0,0,1,3.27,1.138,4.765,4.765,0,0,1,1.433,3.151h-1.7a3.677,3.677,0,0,0-.954-2.222,2.885,2.885,0,0,0-2.052-.688,3.019,3.019,0,0,0-2.536,1.2,5.492,5.492,0,0,0-.918,3.4v1.24a5.645,5.645,0,0,0,.87,3.316A2.812,2.812,0,0,0,112.175-1.2a3.247,3.247,0,0,0,2.158-.637,3.536,3.536,0,0,0,1-2.219ZM121.14,0h-1.687V-12.8h1.688Zm12.929-5.985a7.916,7.916,0,0,1-.633,3.283,4.793,4.793,0,0,1-1.793,2.14,4.933,4.933,0,0,1-2.707.738,4.891,4.891,0,0,1-2.681-.743,4.908,4.908,0,0,1-1.815-2.118,7.6,7.6,0,0,1-.664-3.186v-.923a7.822,7.822,0,0,1,.642-3.261,4.891,4.891,0,0,1,1.815-2.167,4.87,4.87,0,0,1,2.685-.751,4.961,4.961,0,0,1,2.711.743,4.784,4.784,0,0,1,1.806,2.153,7.955,7.955,0,0,1,.633,3.283Zm-1.679-.826a5.738,5.738,0,0,0-.914-3.494,3.015,3.015,0,0,0-2.558-1.217,2.982,2.982,0,0,0-2.518,1.217,5.62,5.62,0,0,0-.945,3.379v.94a5.746,5.746,0,0,0,.927,3.467,3,3,0,0,0,2.553,1.261,2.983,2.983,0,0,0,2.531-1.191,5.714,5.714,0,0,0,.923-3.415Zm-2.646-9.431h1.969l-2.355,2.584-1.31,0ZM146.435,0h-1.7L138.3-9.861V0h-1.7V-12.8h1.7l6.46,9.905V-12.8h1.679Z" transform="translate(819.715 845.71)"/>
    <path id="Trazado_211178" data-name="Trazado 211178" d="M16.113-8.716a10.184,10.184,0,0,1-1.941,6.665A6.707,6.707,0,0,1,8.7.293,6.743,6.743,0,0,1,3.193-2.065a10.168,10.168,0,0,1-1.948-6.65v-3.9a10.184,10.184,0,0,1,1.941-6.665,6.724,6.724,0,0,1,5.486-2.344,6.726,6.726,0,0,1,5.493,2.358A10.193,10.193,0,0,1,16.113-12.6Zm-4.937-4.526a7.607,7.607,0,0,0-.6-3.435,2.008,2.008,0,0,0-1.9-1.135,1.96,1.96,0,0,0-1.853,1.055A7.166,7.166,0,0,0,6.2-13.564v5.449a7.664,7.664,0,0,0,.6,3.494A2.015,2.015,0,0,0,8.7-3.516a1.988,1.988,0,0,0,1.86-1.077,7.317,7.317,0,0,0,.615-3.376ZM31.714-8.335h2.168v3.809H31.714V0H26.777V-4.526H18.53l-.293-3.018,8.54-13.74v-.044h4.937Zm-8.774,0h3.838V-14.9l-.308.5Z" transform="translate(817.667 826.413)" fill="#7f4fc7"/>
    <path id="Trazado_211179" data-name="Trazado 211179" d="M10.934-1.679A3.9,3.9,0,0,1,9.119-.286,7.331,7.331,0,0,1,6.407.176,5.258,5.258,0,0,1,3.63-.558,4.889,4.889,0,0,1,1.753-2.646a7.21,7.21,0,0,1-.681-3.138V-6.9a6.73,6.73,0,0,1,1.349-4.482,4.7,4.7,0,0,1,3.792-1.591,4.856,4.856,0,0,1,3.226,1.024,4.461,4.461,0,0,1,1.494,2.9H9.246a2.79,2.79,0,0,0-3.023-2.549A2.987,2.987,0,0,0,3.652-10.4a5.82,5.82,0,0,0-.883,3.453V-5.9a5.454,5.454,0,0,0,.984,3.426A3.191,3.191,0,0,0,6.416-1.2a5.882,5.882,0,0,0,1.661-.21,2.569,2.569,0,0,0,1.178-.71V-4.992H6.293v-1.38h4.641ZM20.979-5.915H15.434V-1.38h6.442V0h-8.13V-12.8h8.042v1.38H15.434v4.122h5.546Zm6.768.211a7.935,7.935,0,0,1-3.16-1.534A2.93,2.93,0,0,1,23.6-9.483a3.1,3.1,0,0,1,1.208-2.5,4.8,4.8,0,0,1,3.142-.989,5.243,5.243,0,0,1,2.351.51,3.866,3.866,0,0,1,1.6,1.406,3.6,3.6,0,0,1,.567,1.96h-1.7a2.34,2.34,0,0,0-.738-1.83,3,3,0,0,0-2.083-.666,3.074,3.074,0,0,0-1.947.55,1.836,1.836,0,0,0-.7,1.528,1.652,1.652,0,0,0,.664,1.325,6.509,6.509,0,0,0,2.259.991,10.481,10.481,0,0,1,2.5.99,3.788,3.788,0,0,1,1.336,1.261,3.219,3.219,0,0,1,.435,1.7A2.99,2.99,0,0,1,31.28-.76a5.171,5.171,0,0,1-3.243.936A6.015,6.015,0,0,1,25.576-.33a4.142,4.142,0,0,1-1.762-1.384,3.378,3.378,0,0,1-.62-2h1.7a2.2,2.2,0,0,0,.857,1.833,3.608,3.608,0,0,0,2.29.672,3.317,3.317,0,0,0,2.048-.545A1.77,1.77,0,0,0,30.8-3.234a1.738,1.738,0,0,0-.659-1.455A7.6,7.6,0,0,0,27.747-5.7ZM43.5-11.417H39.384V0H37.705V-11.417H33.6V-12.8h9.9ZM47.206,0H45.519V-12.8h1.688Zm-.053-16.33h1.969l-2.355,2.584-1.31,0ZM60.126,0h-1.7L51.987-9.861V0h-1.7V-12.8h1.7l6.46,9.905V-12.8h1.679ZM77.414,0h-1.7V-5.915H69.267V0H67.579V-12.8h1.688v5.5h6.451v-5.5h1.7ZM89.42-12.8v8.7a4.082,4.082,0,0,1-1.138,2.962A4.586,4.586,0,0,1,85.219.158l-.448.018A4.79,4.79,0,0,1,81.422-.958a4.055,4.055,0,0,1-1.266-3.12V-12.8h1.67v8.666a2.927,2.927,0,0,0,.765,2.158,2.939,2.939,0,0,0,2.18.769,2.959,2.959,0,0,0,2.193-.765,2.921,2.921,0,0,0,.76-2.153V-12.8Zm4.843,0L98.446-2.355,102.63-12.8h2.188V0h-1.687V-4.983l.158-5.379L99.088,0H97.8L93.6-10.336l.167,5.353V0H92.083V-12.8Zm20.6,9.448H109.5L108.3,0h-1.74l4.887-12.8h1.477l4.9,12.8h-1.731Zm-4.852-1.38h4.351l-2.18-5.985ZM129.375,0h-1.7l-6.442-9.861V0h-1.7V-12.8h1.7l6.46,9.905V-12.8h1.679Zm10.063-3.349h-5.361L132.873,0h-1.74l4.887-12.8H137.5l4.9,12.8H140.66Zm-4.852-1.38h4.351l-2.18-5.985Z" transform="translate(1184.715 845.71)"/>
    <path id="Trazado_211180" data-name="Trazado 211180" d="M16.113-8.716a10.184,10.184,0,0,1-1.941,6.665A6.707,6.707,0,0,1,8.7.293,6.743,6.743,0,0,1,3.193-2.065a10.168,10.168,0,0,1-1.948-6.65v-3.9a10.184,10.184,0,0,1,1.941-6.665,6.724,6.724,0,0,1,5.486-2.344,6.726,6.726,0,0,1,5.493,2.358A10.193,10.193,0,0,1,16.113-12.6Zm-4.937-4.526a7.607,7.607,0,0,0-.6-3.435,2.008,2.008,0,0,0-1.9-1.135,1.96,1.96,0,0,0-1.853,1.055A7.166,7.166,0,0,0,6.2-13.564v5.449a7.664,7.664,0,0,0,.6,3.494A2.015,2.015,0,0,0,8.7-3.516a1.988,1.988,0,0,0,1.86-1.077,7.317,7.317,0,0,0,.615-3.376Zm7.793,2.824,1.3-10.91H32.739v3.838H24.287L23.8-13.253a5.822,5.822,0,0,1,1.384-.544,6.316,6.316,0,0,1,1.677-.235,6.257,6.257,0,0,1,4.885,1.882A7.582,7.582,0,0,1,33.457-6.87a7.569,7.569,0,0,1-.916,3.713A6.293,6.293,0,0,1,29.971-.6,8.116,8.116,0,0,1,26.06.293a8.733,8.733,0,0,1-3.765-.827A6.754,6.754,0,0,1,19.541-2.8a5.513,5.513,0,0,1-.981-3.257h4.951A2.8,2.8,0,0,0,24.258-4.2a2.371,2.371,0,0,0,1.772.687q2.49,0,2.49-3.684,0-3.406-3.047-3.406A3.04,3.04,0,0,0,22.9-9.494Z" transform="translate(1182.667 826.413)" fill="#7f4fc7"/>
  </g>
</svg>
