<svg id="Grupo_155361" data-name="Grupo 155361" xmlns="http://www.w3.org/2000/svg" xmlns:xlink="http://www.w3.org/1999/xlink" width="103.431" height="103.431" viewBox="0 0 103.431 103.431">
  <defs>
    <linearGradient id="linear-gradient" x1="0.5" x2="0.5" y2="1" gradientUnits="objectBoundingBox">
      <stop offset="0" stop-color="#7e53c5"/>
      <stop offset="1" stop-color="#080383"/>
    </linearGradient>
    <clipPath id="clip-path">
      <rect id="Rectángulo_47347" data-name="Rectángulo 47347" width="58.286" height="58.259" fill="#fff"/>
    </clipPath>
  </defs>
  <circle id="Elipse_5716" data-name="Elipse 5716" cx="51.715" cy="51.715" r="51.715" transform="translate(0)" fill="url(#linear-gradient)"/>
  <g id="Grupo_156273" data-name="Grupo 156273" transform="translate(22.963 21.164)">
    <g id="Grupo_156273-2" data-name="Grupo 156273" clip-path="url(#clip-path)">
      <path id="Trazado_198355" data-name="Trazado 198355" d="M114.038,9.822v0c2.178,0,4.356.006,6.535,0a1.821,1.821,0,1,0,.024-3.633c-4.375-.011-8.75-.015-13.125.012a2.416,2.416,0,0,0-1.212.388,1.727,1.727,0,0,0-.636,1.97,1.782,1.782,0,0,0,1.709,1.257c2.235.014,4.47.005,6.7.005m.017,7.283v0c2.178,0,4.356.007,6.535,0a1.818,1.818,0,1,0,.048-3.63q-6.591-.022-13.182.011a2.378,2.378,0,0,0-1.207.4,1.724,1.724,0,0,0-.618,1.975,1.783,1.783,0,0,0,1.72,1.243c2.235.014,4.47,0,6.7,0m-.006,7.282v0c2.178,0,4.356.007,6.534,0a1.821,1.821,0,1,0,0-3.633c-4.376-.011-8.751-.014-13.126.013a2.386,2.386,0,0,0-1.209.395,1.725,1.725,0,0,0-.625,1.973,1.782,1.782,0,0,0,1.716,1.248c2.235.014,4.47,0,6.7,0" transform="translate(-64.263 -3.763)" fill="#fff"/>
      <path id="Trazado_198356" data-name="Trazado 198356" d="M0,3.53c.064-.173.136-.344.191-.52a4.2,4.2,0,0,1,3.993-3q14.025-.018,28.051,0A4.184,4.184,0,0,1,36.41,4.184q.037,6.74,0,13.481a4.184,4.184,0,0,1-4.174,4.174q-14.025.027-28.05,0a4.2,4.2,0,0,1-3.994-3c-.055-.176-.127-.347-.191-.52V3.53" transform="translate(0 0)" fill="#fff"/>
      <path id="Trazado_198357" data-name="Trazado 198357" d="M109.106,122.505a12.1,12.1,0,0,1-1.871-.892,3.746,3.746,0,0,1-1.666-3.141c-.029-2.974-.045-5.948,0-8.922a4.094,4.094,0,0,1,4.009-4.006q4.461-.072,8.924,0a4.119,4.119,0,0,1,4.013,4.013q.071,4.46,0,8.922a4.192,4.192,0,0,1-3.192,3.9c-.145.038-.287.086-.431.129Z" transform="translate(-64.265 -64.246)" fill="#fff"/>
      <path id="Trazado_198358" data-name="Trazado 198358" d="M0,66.519a2.227,2.227,0,0,1,2.347-1.381q26.829.032,53.657.015c1.418,0,2.264.679,2.264,1.819s-.844,1.822-2.261,1.822q-26.829,0-53.657.015A2.239,2.239,0,0,1,0,67.429Z" transform="translate(0 -39.663)" fill="#fff"/>
      <path id="Trazado_198359" data-name="Trazado 198359" d="M0,85.139a2.227,2.227,0,0,1,2.347-1.381q26.829.032,53.657.015c1.418,0,2.264.679,2.264,1.819s-.844,1.822-2.261,1.822q-26.829,0-53.657.015A2.239,2.239,0,0,1,0,86.049Z" transform="translate(0 -51.001)" fill="#fff"/>
      <path id="Trazado_198360" data-name="Trazado 198360" d="M0,103.758a2.225,2.225,0,0,1,2.347-1.381q15.9.039,31.806.016a5.347,5.347,0,0,1,.682.016,1.819,1.819,0,0,1-.053,3.612,6.06,6.06,0,0,1-.625.011q-15.9,0-31.806.016A2.238,2.238,0,0,1,0,104.668Z" transform="translate(0 -62.338)" fill="#fff"/>
      <path id="Trazado_198361" data-name="Trazado 198361" d="M0,122.378A2.225,2.225,0,0,1,2.347,121q15.9.039,31.806.016a5.347,5.347,0,0,1,.682.016,1.819,1.819,0,0,1-.053,3.612,6.06,6.06,0,0,1-.625.011q-15.9,0-31.806.016A2.238,2.238,0,0,1,0,123.288Z" transform="translate(0 -73.676)" fill="#fff"/>
      <path id="Trazado_198362" data-name="Trazado 198362" d="M0,141a2.224,2.224,0,0,1,2.345-1.381q15.926.039,31.852.019a3.585,3.585,0,0,1,.9.083,1.8,1.8,0,0,1,.4,3.314c-.141.088-.292.161-.438.241H1.366A2.493,2.493,0,0,1,0,141.908Z" transform="translate(0 -85.014)" fill="#fff"/>
      <path id="Trazado_198363" data-name="Trazado 198363" d="M0,145.476a2.492,2.492,0,0,0,1.366,1.365H0Z" transform="translate(0 -88.582)" fill="#fff"/>
      <path id="Trazado_198364" data-name="Trazado 198364" d="M114.037,9.822c-2.235,0-4.47.01-6.7-.005a1.781,1.781,0,0,1-1.709-1.257,1.726,1.726,0,0,1,.636-1.97,2.409,2.409,0,0,1,1.211-.388c4.375-.027,8.751-.024,13.126-.012a1.821,1.821,0,1,1-.025,3.633c-2.178.009-4.356,0-6.534,0Z" transform="translate(-64.263 -3.763)" fill="#fff"/>
      <path id="Trazado_198365" data-name="Trazado 198365" d="M114.055,28.442c-2.235,0-4.47.009-6.7,0a1.782,1.782,0,0,1-1.72-1.243,1.724,1.724,0,0,1,.618-1.975,2.38,2.38,0,0,1,1.207-.4q6.591-.041,13.182-.011a1.818,1.818,0,1,1-.048,3.631c-2.178.01-4.356,0-6.534,0Z" transform="translate(-64.263 -15.101)" fill="#fff"/>
      <path id="Trazado_198366" data-name="Trazado 198366" d="M114.049,47.062c-2.235,0-4.47.009-6.7,0a1.782,1.782,0,0,1-1.716-1.248,1.725,1.725,0,0,1,.625-1.973,2.386,2.386,0,0,1,1.209-.395c4.375-.028,8.75-.024,13.126-.013a1.821,1.821,0,1,1,0,3.633c-2.178.009-4.356,0-6.534,0Z" transform="translate(-64.263 -26.439)" fill="#fff"/>
    </g>
  </g>
</svg>
