<svg xmlns="http://www.w3.org/2000/svg" width="118.209" height="118.209" viewBox="0 0 118.209 118.209">
  <g id="Icon" transform="translate(0.308 -0.238)">
    <circle id="Base" cx="59.104" cy="59.104" r="59.104" transform="translate(-0.308 0.238)" fill="#fff"/>
    <g id="_8TSBIf.tif" data-name="8TSBIf.tif" transform="translate(511.043 -556.031)">
      <g id="Grupo_166638" data-name="Grupo 166638" transform="translate(-483.246 583.493)">
        <path id="Trazado_210919" data-name="Trazado 210919" d="M-416.025,626.527c-4.883,4.476-9.705,9.021-14.672,13.4-3.306,2.916-7.681,2.58-11.673,3.278-4.211.736-8.459,1.318-12.714,1.726a13.524,13.524,0,0,1-5.332-.527c-4.214-1.369-8.33-3.039-12.475-4.585a6.065,6.065,0,0,1-8.318,3.071c-2.117-1.064-2.631-3.385-1.044-6.076.411.711,1,1.253.974,1.765-.157,3.126,2.012,2.674,3.922,2.681,2.468.01,2.149-1.795,2.153-3.34.017-6.469-.054-12.939.04-19.407.033-2.269-.81-3.08-3.075-3.077-2.31,0-3.077.912-3.014,3.145.115,4.105.084,8.218-.023,12.324-.017.657-.739,1.3-1.135,1.944a5.956,5.956,0,0,1-.786-1.937c-.071-4.282-.051-8.566-.033-12.85.013-2.908,1.086-4.261,3.555-4.573,3.912-.495,5.64.431,6.5,3.475a3.206,3.206,0,0,0,.315.556h4.037v-7.774c-.943.855-1.6,1.492-2.3,2.081-1.957,1.647-4.016,1.727-5.336.134-1.527-1.845-1.038-3.563.559-5.091,1.959-1.874,4.05-3.623,5.871-5.62a6.2,6.2,0,0,0,1.452-3.333,52.892,52.892,0,0,0,.054-6.55c-.03-1.522.733-2.469,2.163-2.339,2.385.217,5.408-1.434,6.848,2.166l8.827-7.7h1.575c4.9,4.458,9.82,8.895,14.669,13.407.514.478.608,1.407.9,2.127a6.093,6.093,0,0,1-2.186-.746c-4.014-3.638-8.02-7.291-11.88-11.091-1.691-1.664-2.858-1.617-4.554.013-7.119,6.842-14.353,13.566-21.539,20.339a4.732,4.732,0,0,0-1.2,1.356,1.827,1.827,0,0,0,.023,1.585,1.743,1.743,0,0,0,1.594.3,6.866,6.866,0,0,0,1.824-1.435c6.5-6.1,13.032-12.166,19.441-18.36,1.624-1.569,2.649-1.583,4.283-.008,6.419,6.183,12.969,12.23,19.474,18.324a5.331,5.331,0,0,0,1.588,1.32,2.1,2.1,0,0,0,1.842-.242,1.829,1.829,0,0,0-.122-1.786c-1.353-1.478-2.9-2.773-4.312-4.2a18.089,18.089,0,0,1-1.543-2.06l.492-.63a6.309,6.309,0,0,1,1.892.77c1.706,1.5,3.36,3.061,4.944,4.685,1.409,1.445,1.64,3.148.233,4.688-1.472,1.61-3.223,1.536-4.91.236-.839-.647-1.614-1.376-2.676-2.29v16.617c.352.028.569.117.683.044q3.189-2.055,6.355-4.144c3.522-2.311,5.06-2.1,7.773,1.063Zm-24.509,3.4c-.6-2.521-1.749-3.765-3.812-3.982-7.383-.775-14.683-1.661-21.429-5.27-2-1.068-4.672-.869-7.394-1.309,0,6.038-.047,11.521.068,17,.013.593.858,1.44,1.507,1.7,4.038,1.638,8.1,3.219,12.221,4.644a8.932,8.932,0,0,0,3.84.3c4.419-.518,8.842-1.063,13.22-1.843,3.717-.663,7.757-.327,10.868-3.165,3.938-3.593,7.908-7.151,11.873-10.715,1.083-.974,2.195-2.029,1.106-3.542-1.186-1.648-2.577-.88-3.887,0-3.624,2.436-7.2,4.946-10.915,7.237a7.394,7.394,0,0,1-4.083,1.179c-7.491-.522-14.969-1.243-22.445-1.971-.627-.061-1.2-.669-1.8-1.022a16.792,16.792,0,0,1,2.123-.908,4,4,0,0,1,1.291.143C-452.45,628.9-446.72,629.39-440.534,629.922Zm2.113.1c4.2.424,5.427-.641,5.417-4.558-.014-5.328-.007-10.657-.076-15.984a3.726,3.726,0,0,0-.62-2.409c-5.324-5.123-10.742-10.148-16.182-15.246-3.753,3.538-7.01,7.311-10.945,10.144-5.106,3.677-6.645,8.307-5.766,14.169a8.016,8.016,0,0,0,.043,1.042c.114.384.277.923.573,1.057,3.1,1.4,6.236,2.739,9.721,4.25,0-3.743,0-6.878,0-10.013,0-1.79.739-2.773,2.676-2.722,2.446.064,4.9.073,7.341,0,2.044-.063,2.837.906,2.817,2.851-.034,3.144-.054,6.291.039,9.433.023.769.306,2,.8,2.207C-439.9,625.333-438.925,627.536-438.421,630.026Zm-15.691-7.272,8.495.86v-11.64h-8.495Zm-12.265-25.475c1.691-1.906,5.375-2.5,4.29-6.121h-4.29Z" transform="translate(483.246 -583.493)" fill="#12263f"/>
      </g>
    </g>
  </g>
</svg>
