<svg id="Grupo_156364" data-name="Grupo 156364" xmlns="http://www.w3.org/2000/svg" width="91.08" height="74.112" viewBox="0 0 91.08 74.112">
  <g id="Grupo_155861" data-name="Grupo 155861" transform="translate(0 43.197)">
    <rect id="Rectángulo_46503" data-name="Rectángulo 46503" width="15.669" height="29.645" transform="translate(0.635 0.635)" fill="#afafaf"/>
    <path id="Trazado_196270" data-name="Trazado 196270" d="M87.212,120.365H71.543a.635.635,0,0,1-.636-.634V90.084a.635.635,0,0,1,.636-.634h15.67a.635.635,0,0,1,.634.634V119.73A.635.635,0,0,1,87.212,120.365Zm-15.035-1.27h14.4V90.72h-14.4Z" transform="translate(-70.907 -89.45)"/>
  </g>
  <g id="Grupo_155862" data-name="Grupo 155862" transform="translate(24.802 8.272)">
    <rect id="Rectángulo_46504" data-name="Rectángulo 46504" width="15.669" height="64.57" transform="translate(0.635 0.635)" fill="#fff"/>
    <path id="Trazado_196271" data-name="Trazado 196271" d="M107.54,126.665H91.871a.635.635,0,0,1-.636-.634V61.459a.635.635,0,0,1,.636-.634h15.67a.635.635,0,0,1,.634.634V126.03A.635.635,0,0,1,107.54,126.665Zm-15.035-1.27h14.4V62.1h-14.4Z" transform="translate(-91.235 -60.825)"/>
  </g>
  <g id="Grupo_155863" data-name="Grupo 155863" transform="translate(74.14)">
    <rect id="Rectángulo_46505" data-name="Rectángulo 46505" width="15.669" height="72.842" transform="translate(0.635 0.635)" fill="#fff"/>
    <path id="Trazado_196272" data-name="Trazado 196272" d="M147.977,128.157H132.309a.635.635,0,0,1-.636-.634V54.679a.635.635,0,0,1,.636-.634h15.668a.635.635,0,0,1,.636.634v72.843A.635.635,0,0,1,147.977,128.157Zm-15.034-1.27h14.4V55.315h-14.4Z" transform="translate(-131.673 -54.045)"/>
  </g>
  <g id="Grupo_155878" data-name="Grupo 155878" transform="translate(49.154 33.456)">
    <g id="Grupo_155864" data-name="Grupo 155864">
      <rect id="Rectángulo_46506" data-name="Rectángulo 46506" width="15.669" height="39.385" transform="translate(0.635 0.635)" fill="#fff"/>
      <path id="Trazado_196273" data-name="Trazado 196273" d="M127.5,122.122h-15.67a.635.635,0,0,1-.634-.634V82.1a.635.635,0,0,1,.634-.636H127.5a.635.635,0,0,1,.636.636v39.386A.635.635,0,0,1,127.5,122.122Zm-15.034-1.27h14.4V82.736h-14.4Z" transform="translate(-111.194 -81.466)"/>
    </g>
    <g id="Grupo_155865" data-name="Grupo 155865" transform="translate(2.257 36.737)">
      <path id="Trazado_196274" data-name="Trazado 196274" d="M115.576,113.588a.215.215,0,0,1-.12-.037l-2.321-1.587a.213.213,0,0,1-.055-.3.211.211,0,0,1,.294-.055L115.7,113.2a.212.212,0,0,1,.055.294A.208.208,0,0,1,115.576,113.588Z" transform="translate(-113.044 -111.576)"/>
    </g>
    <g id="Grupo_155866" data-name="Grupo 155866" transform="translate(1.917 33.681)">
      <path id="Trazado_196275" data-name="Trazado 196275" d="M120.1,114.172a.214.214,0,0,1-.11-.031c-2.415-1.478-4.817-3.054-7.139-4.685a.212.212,0,1,1,.243-.347c2.316,1.626,4.711,3.2,7.117,4.669a.211.211,0,0,1,.07.292A.208.208,0,0,1,120.1,114.172Z" transform="translate(-112.766 -109.071)"/>
    </g>
    <g id="Grupo_155867" data-name="Grupo 155867" transform="translate(2.24 30.398)">
      <path id="Trazado_196276" data-name="Trazado 196276" d="M123.455,114.38a.211.211,0,0,1-.121-.038c-3.476-2.4-6.915-4.955-10.224-7.584a.212.212,0,0,1,.264-.332c3.3,2.624,6.734,5.17,10.2,7.568a.212.212,0,0,1-.121.386Z" transform="translate(-113.03 -106.381)"/>
    </g>
    <g id="Grupo_155868" data-name="Grupo 155868" transform="translate(1.986 27.032)">
      <path id="Trazado_196277" data-name="Trazado 196277" d="M125.687,113.418a.21.21,0,0,1-.126-.041L112.907,104a.212.212,0,0,1,.253-.34l12.654,9.374a.211.211,0,0,1-.127.381Z" transform="translate(-112.822 -103.622)"/>
    </g>
    <g id="Grupo_155869" data-name="Grupo 155869" transform="translate(2.247 23.539)">
      <path id="Trazado_196278" data-name="Trazado 196278" d="M125.493,110.7a.212.212,0,0,1-.123-.04c-4.175-3.017-8.3-6.221-12.258-9.525a.212.212,0,1,1,.272-.325c3.951,3.3,8.067,6.5,12.234,9.507a.212.212,0,0,1-.124.383Z" transform="translate(-113.036 -100.759)"/>
    </g>
    <g id="Grupo_155870" data-name="Grupo 155870" transform="translate(2.224 19.896)">
      <path id="Trazado_196279" data-name="Trazado 196279" d="M125.5,107.83a.2.2,0,0,1-.128-.044c-4.11-3.154-8.242-6.4-12.278-9.637a.211.211,0,1,1,.265-.329c4.034,3.238,8.162,6.479,12.27,9.631a.211.211,0,0,1-.129.379Z" transform="translate(-113.017 -97.773)"/>
    </g>
    <g id="Grupo_155871" data-name="Grupo 155871" transform="translate(2.302 15.758)">
      <path id="Trazado_196280" data-name="Trazado 196280" d="M125.081,104.273a.207.207,0,0,1-.129-.044c-3.99-3.051-7.957-6.24-11.8-9.474a.212.212,0,0,1,.273-.323c3.832,3.23,7.8,6.414,11.78,9.462a.211.211,0,0,1-.128.379Z" transform="translate(-113.081 -94.382)"/>
    </g>
    <g id="Grupo_155872" data-name="Grupo 155872" transform="translate(2.285 11.814)">
      <path id="Trazado_196281" data-name="Trazado 196281" d="M125.274,101.222a.212.212,0,0,1-.129-.044c-4.053-3.115-8.092-6.363-12-9.655a.212.212,0,1,1,.273-.325c3.906,3.288,7.938,6.534,11.986,9.644a.211.211,0,0,1,.039.3A.208.208,0,0,1,125.274,101.222Z" transform="translate(-113.067 -91.149)"/>
    </g>
    <g id="Grupo_155873" data-name="Grupo 155873" transform="translate(2.257 8.005)">
      <path id="Trazado_196282" data-name="Trazado 196282" d="M125.211,98.121a.216.216,0,0,1-.131-.044c-4.031-3.136-8.056-6.392-11.961-9.677a.212.212,0,1,1,.272-.325c3.9,3.282,7.921,6.534,11.948,9.667a.211.211,0,0,1,.038.3A.214.214,0,0,1,125.211,98.121Z" transform="translate(-113.044 -88.027)"/>
    </g>
    <g id="Grupo_155874" data-name="Grupo 155874" transform="translate(2.208 4.162)">
      <path id="Trazado_196283" data-name="Trazado 196283" d="M125.281,95.184a.209.209,0,0,1-.128-.044c-4.111-3.155-8.173-6.484-12.076-9.892a.212.212,0,0,1,.279-.32c3.9,3.4,7.951,6.726,12.054,9.877a.212.212,0,0,1-.129.379Z" transform="translate(-113.004 -84.877)"/>
    </g>
    <g id="Grupo_155875" data-name="Grupo 155875" transform="translate(4.031 2.235)">
      <path id="Trazado_196284" data-name="Trazado 196284" d="M125.074,92.151a.212.212,0,0,1-.133-.048l-10.365-8.431a.211.211,0,0,1-.03-.3.214.214,0,0,1,.3-.031l10.365,8.431a.212.212,0,0,1-.134.376Z" transform="translate(-114.498 -83.298)"/>
    </g>
    <g id="Grupo_155876" data-name="Grupo 155876" transform="translate(8.944 2.54)">
      <path id="Trazado_196285" data-name="Trazado 196285" d="M124.268,88.7a.207.207,0,0,1-.124-.04,47.7,47.7,0,0,1-5.556-4.75.211.211,0,1,1,.3-.3,47.422,47.422,0,0,0,5.507,4.707.211.211,0,0,1-.126.382Z" transform="translate(-118.525 -83.548)"/>
    </g>
    <g id="Grupo_155877" data-name="Grupo 155877" transform="translate(13.05 2.317)">
      <path id="Trazado_196286" data-name="Trazado 196286" d="M123.5,85.063a.212.212,0,0,1-.143-.055l-1.4-1.275a.213.213,0,0,1-.013-.3.211.211,0,0,1,.3-.013l1.4,1.275a.211.211,0,0,1-.143.367Z" transform="translate(-121.89 -83.365)"/>
    </g>
  </g>
</svg>
