<svg xmlns="http://www.w3.org/2000/svg" width="123.63" height="93.263" viewBox="0 0 123.63 93.263">
  <g id="Grupo_166626" data-name="Grupo 166626" transform="translate(0 -35.514)">
    <g id="Grupo_156259" data-name="Grupo 156259" transform="translate(0 35.514)">
      <g id="Grupo_156218" data-name="Grupo 156218">
        <g id="Grupo_156217" data-name="Grupo 156217">
          <g id="Grupo_156211" data-name="Grupo 156211" transform="translate(0 4.435)">
            <rect id="Rectángulo_46519" data-name="Rectángulo 46519" width="123.043" height="88.24" transform="translate(0.294 0.294)" fill="#fff"/>
            <path id="Trazado_196568" data-name="Trazado 196568" d="M240.526,191.012H117.484a.294.294,0,0,1-.294-.294v-88.24a.294.294,0,0,1,.294-.294H240.526a.294.294,0,0,1,.294.294v88.24A.294.294,0,0,1,240.526,191.012Zm-122.749-.588H240.232V102.772H117.778Z" transform="translate(-117.19 -102.184)"/>
          </g>
          <g id="Grupo_156212" data-name="Grupo 156212">
            <rect id="Rectángulo_46520" data-name="Rectángulo 46520" width="123.043" height="7.634" transform="translate(0.294 0.294)" fill="#12263f"/>
            <path id="Trazado_196569" data-name="Trazado 196569" d="M240.526,102.551H117.484a.294.294,0,0,1-.294-.294V94.623a.294.294,0,0,1,.294-.294H240.526a.294.294,0,0,1,.294.294v7.634A.294.294,0,0,1,240.526,102.551Zm-122.749-.588H240.232V94.917H117.778Z" transform="translate(-117.19 -94.329)"/>
          </g>
          <g id="Grupo_156213" data-name="Grupo 156213" transform="translate(96.132 2.19)">
            <path id="Trazado_196570" data-name="Trazado 196570" d="M287.975,100.355a1.628,1.628,0,1,1,1.628,1.628A1.628,1.628,0,0,1,287.975,100.355Z" transform="translate(-287.681 -98.433)" fill="#fff"/>
            <path id="Trazado_196571" data-name="Trazado 196571" d="M289.377,102.051a1.922,1.922,0,1,1,1.921-1.922A1.925,1.925,0,0,1,289.377,102.051Zm0-3.256a1.334,1.334,0,1,0,1.334,1.334A1.336,1.336,0,0,0,289.377,98.795Z" transform="translate(-287.455 -98.207)"/>
          </g>
          <g id="Grupo_156214" data-name="Grupo 156214" transform="translate(105.787 2.19)">
            <path id="Trazado_196572" data-name="Trazado 196572" d="M305.075,100.355a1.628,1.628,0,1,1,1.628,1.628A1.628,1.628,0,0,1,305.075,100.355Z" transform="translate(-304.781 -98.433)" fill="#fff"/>
            <path id="Trazado_196573" data-name="Trazado 196573" d="M306.477,102.051a1.922,1.922,0,1,1,1.921-1.922A1.925,1.925,0,0,1,306.477,102.051Zm0-3.256a1.334,1.334,0,1,0,1.334,1.334A1.336,1.336,0,0,0,306.477,98.795Z" transform="translate(-304.555 -98.207)"/>
          </g>
          <g id="Grupo_156215" data-name="Grupo 156215" transform="translate(115.217 2.19)">
            <path id="Trazado_196574" data-name="Trazado 196574" d="M321.778,100.355a1.628,1.628,0,1,1,1.628,1.628A1.628,1.628,0,0,1,321.778,100.355Z" transform="translate(-321.484 -98.433)" fill="#fff"/>
            <path id="Trazado_196575" data-name="Trazado 196575" d="M323.179,102.051a1.922,1.922,0,1,1,1.922-1.922A1.925,1.925,0,0,1,323.179,102.051Zm0-3.256a1.334,1.334,0,1,0,1.334,1.334A1.335,1.335,0,0,0,323.179,98.795Z" transform="translate(-321.257 -98.207)"/>
          </g>
          <g id="Grupo_156216" data-name="Grupo 156216" transform="translate(0.145 7.714)" opacity="0.129">
            <path id="Trazado_196576" data-name="Trazado 196576" d="M240.209,108.553a.958.958,0,0,0-.493-.124c-.306-.036-.617,0-.924-.037-1.26-.06-2.52-.093-3.781-.12-3.787-.13-7.561.308-11.347.241-1.926.021-3.852.082-5.778,0-1.491-.012-2.975-.168-4.465-.2-4.31.029-8.613-.316-12.923-.216q-5.609.074-11.218-.061c-2.986-.03-5.971,0-8.957-.022-2.489-.1-4.969.159-7.457.155-5.448.077-10.9.088-16.348-.075-1.987-.031-3.978-.1-5.964.028-1.666.1-3.335.034-5,.057-1.847-.006-3.693-.024-5.54-.029-2.175-.094-4.353-.144-6.53-.066-1.775,0-3.546.138-5.32.19-1.633,0-3.266.029-4.9.023a35.465,35.465,0,0,0-3.634-.063c-.636.055-1.377-.164-1.877.326a1.1,1.1,0,0,0,.772,1.864c1.434.047,2.87-.012,4.3.124,2.1.067,4.21.08,6.311-.023,2.577-.167,5.159-.26,7.743-.255,2,.04,3.99.112,5.987.1,2.189.043,4.38.044,6.569.027,1.422-.046,2.842-.144,4.266-.1,3.967.075,7.932.226,11.9.152,4.008-.011,8.017.057,12.02-.165,3.576.02,7.151.01,10.727.046,5.3.117,10.608,0,15.913-.018,3.22.077,6.439.163,9.661.148,2.412.106,4.827.247,7.243.183,1.924-.068,3.85-.044,5.774-.118,1.161-.042,2.314-.208,3.477-.231,3.016-.123,6.034-.045,9.05-.011a1.1,1.1,0,0,0,.933-.265A.943.943,0,0,0,240.209,108.553Z" transform="translate(-117.448 -107.992)"/>
          </g>
        </g>
      </g>
      <g id="Grupo_156249" data-name="Grupo 156249" transform="translate(18.142 35.806)">
        <g id="Grupo_156219" data-name="Grupo 156219" transform="translate(2.085)">
          <path id="Trazado_196577" data-name="Trazado 196577" d="M153.309,198.381a.294.294,0,0,1-.226-.482L163.3,185.6a.294.294,0,0,1,.4-.047l6.59,4.914,14.573-23.752a.293.293,0,0,1,.423-.084l7.4,5.378L200.76,157.9a.293.293,0,0,1,.471-.053l10.609,11.521,3.108-2.494a.294.294,0,0,1,.423.06l10.915,15.409,15.528-17.268a.294.294,0,1,1,.437.393L226.478,183a.287.287,0,0,1-.236.1.293.293,0,0,1-.222-.124l-10.947-15.454-3.079,2.47a.293.293,0,0,1-.4-.03l-10.523-11.428-8.042,14.045a.294.294,0,0,1-.428.092l-7.4-5.385-14.575,23.756a.293.293,0,0,1-.426.082l-6.625-4.94-10.036,12.089A.294.294,0,0,1,153.309,198.381Z" transform="translate(-153.015 -157.747)"/>
        </g>
        <g id="Grupo_156220" data-name="Grupo 156220" transform="translate(12.323 30.001)">
          <path id="Trazado_196578" data-name="Trazado 196578" d="M171.5,227.933a.294.294,0,0,1-.294-.293l-.008-2.352a.294.294,0,0,1,.292-.3h0a.294.294,0,0,1,.294.293l.008,2.352a.294.294,0,0,1-.292.3Zm-.017-4.7a.294.294,0,0,1-.294-.293l-.008-2.352a.294.294,0,0,1,.293-.3h0a.294.294,0,0,1,.294.293l.008,2.352a.294.294,0,0,1-.292.3Zm-.018-4.7a.294.294,0,0,1-.294-.292l-.008-2.352a.294.294,0,0,1,.293-.3h0a.294.294,0,0,1,.294.292l.009,2.352a.294.294,0,0,1-.293.295Zm-.018-4.7a.294.294,0,0,1-.294-.292l-.008-2.352a.294.294,0,0,1,.293-.295h0a.294.294,0,0,1,.294.292l.008,2.352a.294.294,0,0,1-.293.295Z" transform="translate(-171.148 -210.883)"/>
        </g>
        <g id="Grupo_156221" data-name="Grupo 156221" transform="translate(33.858 10.791)">
          <path id="Trazado_196579" data-name="Trazado 196579" d="M209.65,212.723a.294.294,0,0,1-.294-.293l0-2.352a.3.3,0,0,1,.294-.295h0a.3.3,0,0,1,.294.294l0,2.352a.293.293,0,0,1-.293.294Zm-.009-4.7a.293.293,0,0,1-.294-.294l0-2.352a.294.294,0,0,1,.294-.295h0a.294.294,0,0,1,.294.294l0,2.352a.294.294,0,0,1-.294.295Zm-.008-4.7a.3.3,0,0,1-.294-.294l0-2.352a.294.294,0,0,1,.293-.295h0a.294.294,0,0,1,.294.293l0,2.352a.3.3,0,0,1-.294.295Zm-.009-4.7a.294.294,0,0,1-.294-.294l0-2.352a.294.294,0,0,1,.294-.295h0a.294.294,0,0,1,.294.294l0,2.352a.294.294,0,0,1-.294.295Zm-.008-4.7a.294.294,0,0,1-.294-.293l0-2.352a.294.294,0,0,1,.293-.294h0a.293.293,0,0,1,.294.294l0,2.352a.293.293,0,0,1-.294.294Zm-.008-4.7a.294.294,0,0,1-.294-.294l0-2.352a.3.3,0,0,1,.294-.295h0a.3.3,0,0,1,.294.294l0,2.352a.294.294,0,0,1-.293.295Zm-.009-4.7a.293.293,0,0,1-.294-.293l0-2.352a.293.293,0,0,1,.294-.294h0a.293.293,0,0,1,.294.293l0,2.352a.293.293,0,0,1-.294.294Zm-.008-4.7a.3.3,0,0,1-.294-.294l0-2.352a.3.3,0,0,1,.294-.295h0a.3.3,0,0,1,.294.294l0,2.352a.3.3,0,0,1-.294.295Z" transform="translate(-209.29 -176.859)"/>
        </g>
        <g id="Grupo_156222" data-name="Grupo 156222" transform="translate(50.138 1.384)">
          <path id="Trazado_196580" data-name="Trazado 196580" d="M238.486,205.469a.293.293,0,0,1-.294-.293l0-2.352a.294.294,0,0,1,.294-.294h0a.3.3,0,0,1,.294.294l0,2.352a.293.293,0,0,1-.294.294Zm-.007-4.7a.294.294,0,0,1-.294-.294l0-2.352a.294.294,0,0,1,.293-.295h0a.294.294,0,0,1,.294.294l0,2.352a.293.293,0,0,1-.293.294Zm-.007-4.7a.3.3,0,0,1-.294-.294l0-2.352a.294.294,0,0,1,.294-.294h0a.293.293,0,0,1,.294.294l0,2.352a.3.3,0,0,1-.294.295Zm-.007-4.7a.294.294,0,0,1-.294-.294l0-2.352a.3.3,0,0,1,.294-.295h0a.3.3,0,0,1,.294.294l0,2.352a.294.294,0,0,1-.294.294Zm-.007-4.7a.294.294,0,0,1-.294-.294l0-2.352a.293.293,0,0,1,.294-.294h0a.293.293,0,0,1,.294.294l0,2.352a.293.293,0,0,1-.293.294Zm-.007-4.7a.294.294,0,0,1-.294-.294l0-2.352a.3.3,0,0,1,.294-.295h0a.3.3,0,0,1,.294.294l0,2.352a.294.294,0,0,1-.294.294Zm-.007-4.7a.294.294,0,0,1-.294-.294l0-2.352a.293.293,0,0,1,.293-.294h0a.294.294,0,0,1,.294.294l0,2.352a.293.293,0,0,1-.294.294Zm-.007-4.7a.3.3,0,0,1-.294-.294l0-2.352a.294.294,0,0,1,.294-.295h0a.294.294,0,0,1,.294.294l0,2.352a.3.3,0,0,1-.294.295Zm-.007-4.7a.293.293,0,0,1-.294-.294l0-2.352a.294.294,0,0,1,.294-.294h0a.294.294,0,0,1,.294.294l0,2.352a.294.294,0,0,1-.294.294Zm-.007-4.7a.294.294,0,0,1-.294-.294l0-2.352a.294.294,0,0,1,.294-.295h0a.294.294,0,0,1,.294.294l0,2.352a.294.294,0,0,1-.293.295Z" transform="translate(-238.125 -160.198)"/>
        </g>
        <g id="Grupo_156223" data-name="Grupo 156223" transform="translate(63.932 10.791)">
          <path id="Trazado_196581" data-name="Trazado 196581" d="M262.916,212.723a.293.293,0,0,1-.294-.293l0-2.352a.294.294,0,0,1,.293-.295h0a.294.294,0,0,1,.294.294l0,2.352a.294.294,0,0,1-.294.294Zm-.008-4.7a.294.294,0,0,1-.294-.294l0-2.352a.3.3,0,0,1,.294-.295h0a.3.3,0,0,1,.294.294l0,2.352a.294.294,0,0,1-.293.295Zm-.009-4.7a.294.294,0,0,1-.294-.294l0-2.352a.294.294,0,0,1,.293-.295h0a.293.293,0,0,1,.294.293l0,2.352a.3.3,0,0,1-.294.295Zm-.008-4.7a.294.294,0,0,1-.294-.294l0-2.352a.3.3,0,0,1,.294-.295h0a.3.3,0,0,1,.294.294l0,2.352a.294.294,0,0,1-.293.295Zm-.009-4.7a.293.293,0,0,1-.294-.293l0-2.352a.294.294,0,0,1,.293-.294h0a.294.294,0,0,1,.294.294l0,2.352a.294.294,0,0,1-.294.294Zm-.008-4.7a.294.294,0,0,1-.294-.294l0-2.352a.294.294,0,0,1,.294-.295h0a.3.3,0,0,1,.294.294l0,2.352a.294.294,0,0,1-.293.295Zm-.009-4.7a.293.293,0,0,1-.294-.293l0-2.352a.293.293,0,0,1,.293-.294h0a.294.294,0,0,1,.294.293l0,2.352a.294.294,0,0,1-.294.294Zm-.008-4.7a.294.294,0,0,1-.294-.294l0-2.352a.294.294,0,0,1,.294-.295h0a.3.3,0,0,1,.294.294l0,2.352a.294.294,0,0,1-.293.295Z" transform="translate(-262.556 -176.859)"/>
        </g>
        <g id="Grupo_156224" data-name="Grupo 156224" transform="translate(90.775 7.145)">
          <path id="Trazado_196582" data-name="Trazado 196582" d="M310.461,210.308a.294.294,0,0,1-.294-.294l0-2.352a.294.294,0,0,1,.294-.295h0a.294.294,0,0,1,.294.294l0,2.352a.294.294,0,0,1-.294.295Zm-.008-4.7a.3.3,0,0,1-.294-.294l0-2.352a.294.294,0,0,1,.294-.295h0a.294.294,0,0,1,.294.294l0,2.352a.293.293,0,0,1-.293.295Zm-.008-4.7a.294.294,0,0,1-.294-.293l0-2.352a.294.294,0,0,1,.294-.295h0a.293.293,0,0,1,.294.294l0,2.352a.293.293,0,0,1-.294.294Zm-.008-4.7a.294.294,0,0,1-.294-.294l0-2.352a.294.294,0,0,1,.293-.295h0a.3.3,0,0,1,.294.294l0,2.352a.294.294,0,0,1-.294.295Zm-.008-4.7a.294.294,0,0,1-.294-.293l0-2.352a.294.294,0,0,1,.294-.295h0a.293.293,0,0,1,.294.294l0,2.352a.293.293,0,0,1-.293.294Zm-.008-4.7a.294.294,0,0,1-.294-.294l0-2.352a.294.294,0,0,1,.294-.295h0a.3.3,0,0,1,.294.294l0,2.352a.294.294,0,0,1-.294.295Zm-.008-4.7a.294.294,0,0,1-.294-.293l0-2.352a.293.293,0,0,1,.293-.294h0a.294.294,0,0,1,.294.293l0,2.352a.294.294,0,0,1-.294.294Zm-.008-4.7a.3.3,0,0,1-.294-.294l0-2.352a.294.294,0,0,1,.294-.295h0a.294.294,0,0,1,.294.294l0,2.352a.294.294,0,0,1-.294.295Zm-.008-4.7a.293.293,0,0,1-.294-.293l0-1.69a.293.293,0,0,1,.293-.294h0a.294.294,0,0,1,.294.293l0,1.69a.294.294,0,0,1-.294.294Z" transform="translate(-310.099 -170.403)"/>
        </g>
        <g id="Grupo_156225" data-name="Grupo 156225" transform="translate(0 46.462)">
          <path id="Trazado_196583" data-name="Trazado 196583" d="M243.863,240.627H149.617a.294.294,0,0,1,0-.588h94.247a.294.294,0,0,1,0,.588Z" transform="translate(-149.323 -240.039)"/>
        </g>
        <g id="Grupo_156226" data-name="Grupo 156226" transform="translate(51.622 44.257)">
          <path id="Trazado_196584" data-name="Trazado 196584" d="M242.421,237.7a.1.1,0,0,1-.064-.025l-1.57-1.375a.1.1,0,0,1,.129-.147l1.57,1.375a.1.1,0,0,1,.009.138A.1.1,0,0,1,242.421,237.7Z" transform="translate(-240.753 -236.133)"/>
        </g>
        <g id="Grupo_156227" data-name="Grupo 156227" transform="translate(51.356 42.337)">
          <path id="Trazado_196585" data-name="Trazado 196585" d="M244.685,236.255a.1.1,0,0,1-.056-.018,52.936,52.936,0,0,1-4.314-3.333.1.1,0,0,1,.128-.148,52.768,52.768,0,0,0,4.3,3.32.1.1,0,0,1-.056.178Z" transform="translate(-240.282 -232.732)"/>
        </g>
        <g id="Grupo_156228" data-name="Grupo 156228" transform="translate(51.428 40.592)">
          <path id="Trazado_196586" data-name="Trazado 196586" d="M246.689,234.876a.1.1,0,0,1-.06-.021c-2.07-1.647-4.151-3.342-6.184-5.04a.1.1,0,1,1,.125-.15c2.032,1.7,4.111,3.391,6.181,5.036a.1.1,0,0,1-.062.175Z" transform="translate(-240.409 -229.641)"/>
        </g>
        <g id="Grupo_156229" data-name="Grupo 156229" transform="translate(51.406 38.797)">
          <path id="Trazado_196587" data-name="Trazado 196587" d="M248.632,233.534a.1.1,0,0,1-.061-.021c-2.777-2.2-5.525-4.517-8.167-6.878a.1.1,0,0,1-.008-.138.1.1,0,0,1,.138-.008c2.639,2.358,5.384,4.67,8.159,6.871a.1.1,0,0,1-.061.175Z" transform="translate(-240.371 -226.463)"/>
        </g>
        <g id="Grupo_156230" data-name="Grupo 156230" transform="translate(51.538 37.154)">
          <path id="Trazado_196588" data-name="Trazado 196588" d="M250.494,232.271a.1.1,0,0,1-.067-.027c-3.157-2.93-6.45-5.8-9.787-8.518a.1.1,0,0,1-.014-.138.1.1,0,0,1,.138-.014c3.34,2.725,6.636,5.593,9.8,8.526a.1.1,0,0,1-.067.17Z" transform="translate(-240.604 -223.553)"/>
        </g>
        <g id="Grupo_156231" data-name="Grupo 156231" transform="translate(51.445 34.776)">
          <path id="Trazado_196589" data-name="Trazado 196589" d="M252.571,230.255a.1.1,0,0,1-.065-.025l-12.035-10.718a.1.1,0,0,1,.13-.146l12.035,10.718a.1.1,0,0,1,.008.138A.1.1,0,0,1,252.571,230.255Z" transform="translate(-240.439 -219.341)"/>
        </g>
        <g id="Grupo_156232" data-name="Grupo 156232" transform="translate(51.361 32.613)">
          <path id="Trazado_196590" data-name="Trazado 196590" d="M252.063,226.05a.1.1,0,0,1-.062-.022c-4.012-3.276-7.942-6.758-11.679-10.349a.1.1,0,1,1,.136-.141c3.734,3.587,7.66,7.065,11.668,10.338a.1.1,0,0,1-.062.174Z" transform="translate(-240.292 -215.51)"/>
        </g>
        <g id="Grupo_156233" data-name="Grupo 156233" transform="translate(51.396 30.555)">
          <path id="Trazado_196591" data-name="Trazado 196591" d="M251.885,222.307a.1.1,0,0,1-.065-.025l-11.434-10.247a.1.1,0,1,1,.13-.146l11.435,10.247a.1.1,0,0,1,.007.138A.1.1,0,0,1,251.885,222.307Z" transform="translate(-240.353 -211.865)"/>
        </g>
        <g id="Grupo_156234" data-name="Grupo 156234" transform="translate(51.472 28.433)">
          <path id="Trazado_196592" data-name="Trazado 196592" d="M251.868,218.333a.1.1,0,0,1-.058-.019,51.088,51.088,0,0,1-4-3.345c-2.415-2.166-4.912-4.406-7.3-6.693a.1.1,0,0,1,.136-.142c2.383,2.285,4.879,4.524,7.293,6.689a50.913,50.913,0,0,0,3.979,3.332.1.1,0,0,1-.058.177Z" transform="translate(-240.487 -208.107)"/>
        </g>
        <g id="Grupo_156235" data-name="Grupo 156235" transform="translate(51.457 26.629)">
          <path id="Trazado_196593" data-name="Trazado 196593" d="M251.864,215.037a.1.1,0,0,1-.061-.021c-3.917-3.109-7.723-6.452-11.312-9.936a.1.1,0,0,1,.137-.141c3.584,3.48,7.385,6.818,11.3,9.923a.1.1,0,0,1-.061.175Z" transform="translate(-240.462 -204.911)"/>
        </g>
        <g id="Grupo_156236" data-name="Grupo 156236" transform="translate(51.408 24.481)">
          <path id="Trazado_196594" data-name="Trazado 196594" d="M251.817,211.5a.1.1,0,0,1-.064-.024c-3.83-3.315-7.648-6.748-11.346-10.2a.1.1,0,0,1,.134-.143c3.7,3.454,7.513,6.885,11.341,10.2a.1.1,0,0,1-.064.172Z" transform="translate(-240.375 -201.107)"/>
        </g>
        <g id="Grupo_156237" data-name="Grupo 156237" transform="translate(51.391 22.882)">
          <path id="Trazado_196595" data-name="Trazado 196595" d="M251.759,208.259a.1.1,0,0,1-.062-.023c-3.842-3.15-7.652-6.444-11.321-9.791a.1.1,0,1,1,.132-.145c3.667,3.345,7.474,6.638,11.313,9.785a.1.1,0,0,1,.014.138A.1.1,0,0,1,251.759,208.259Z" transform="translate(-240.344 -198.275)"/>
        </g>
        <g id="Grupo_156238" data-name="Grupo 156238" transform="translate(51.405 21.127)">
          <path id="Trazado_196596" data-name="Trazado 196596" d="M251.779,204.937a.1.1,0,0,1-.063-.023L240.4,195.34a.1.1,0,0,1,.126-.15l11.312,9.575a.1.1,0,0,1,.012.138A.1.1,0,0,1,251.779,204.937Z" transform="translate(-240.37 -195.167)"/>
        </g>
        <g id="Grupo_156239" data-name="Grupo 156239" transform="translate(51.304 19.219)">
          <path id="Trazado_196597" data-name="Trazado 196597" d="M251.836,201.647a.1.1,0,0,1-.063-.023l-11.548-9.664a.1.1,0,0,1,.125-.151l11.548,9.664a.1.1,0,0,1-.063.173Z" transform="translate(-240.19 -191.787)"/>
        </g>
        <g id="Grupo_156240" data-name="Grupo 156240" transform="translate(51.287 17.025)">
          <path id="Trazado_196598" data-name="Trazado 196598" d="M251.747,197.734a.1.1,0,0,1-.062-.022c-3.871-3.133-7.737-6.376-11.492-9.638a.1.1,0,1,1,.129-.147c3.752,3.261,7.617,6.5,11.486,9.633a.1.1,0,0,1,.015.138A.1.1,0,0,1,251.747,197.734Z" transform="translate(-240.159 -187.902)"/>
        </g>
        <g id="Grupo_156241" data-name="Grupo 156241" transform="translate(51.233 15.244)">
          <path id="Trazado_196599" data-name="Trazado 196599" d="M251.8,194.6a.1.1,0,0,1-.06-.02c-3.966-3.077-7.882-6.326-11.638-9.658a.1.1,0,0,1,.13-.146c3.752,3.328,7.665,6.574,11.628,9.649a.1.1,0,0,1,.017.138A.1.1,0,0,1,251.8,194.6Z" transform="translate(-240.065 -184.746)"/>
        </g>
        <g id="Grupo_156242" data-name="Grupo 156242" transform="translate(51.31 13.538)">
          <path id="Trazado_196600" data-name="Trazado 196600" d="M251.824,191.362a.1.1,0,0,1-.057-.019,112.488,112.488,0,0,1-11.535-9.448.1.1,0,0,1,.134-.143,112.243,112.243,0,0,0,11.516,9.432.1.1,0,0,1,.023.137A.1.1,0,0,1,251.824,191.362Z" transform="translate(-240.201 -181.725)"/>
        </g>
        <g id="Grupo_156243" data-name="Grupo 156243" transform="translate(51.323 11.73)">
          <path id="Trazado_196601" data-name="Trazado 196601" d="M251.694,188.131a.1.1,0,0,1-.058-.019,116.573,116.573,0,0,1-11.382-9.42.1.1,0,1,1,.134-.143,116.327,116.327,0,0,0,11.363,9.4.1.1,0,0,1-.058.177Z" transform="translate(-240.223 -178.522)"/>
        </g>
        <g id="Grupo_156244" data-name="Grupo 156244" transform="translate(51.327 9.89)">
          <path id="Trazado_196602" data-name="Trazado 196602" d="M251.788,184.795a.1.1,0,0,1-.06-.02c-3.889-2.991-7.746-6.133-11.463-9.339a.1.1,0,0,1,.128-.148c3.715,3.2,7.568,6.342,11.455,9.332a.1.1,0,0,1-.06.176Z" transform="translate(-240.232 -175.264)"/>
        </g>
        <g id="Grupo_156245" data-name="Grupo 156245" transform="translate(51.165 8.028)">
          <path id="Trazado_196603" data-name="Trazado 196603" d="M251.529,181.1a.1.1,0,0,1-.06-.02c-1.8-1.388-3.578-2.78-5.465-4.253q-2.908-2.271-6.023-4.686a.1.1,0,0,1,.12-.155q3.119,2.411,6.023,4.687c1.886,1.473,3.669,2.864,5.464,4.251a.1.1,0,0,1-.06.176Z" transform="translate(-239.944 -171.966)"/>
        </g>
        <g id="Grupo_156246" data-name="Grupo 156246" transform="translate(51.137 6.32)">
          <path id="Trazado_196604" data-name="Trazado 196604" d="M251.4,177.942a.1.1,0,0,1-.061-.021c-3.109-2.464-7.215-5.692-11.41-8.8a.1.1,0,1,1,.117-.157c4.2,3.112,8.305,6.341,11.415,8.806a.1.1,0,0,1-.061.175Z" transform="translate(-239.894 -168.942)"/>
        </g>
        <g id="Grupo_156247" data-name="Grupo 156247" transform="translate(51.739 4.862)">
          <path id="Trazado_196605" data-name="Trazado 196605" d="M246.835,171.07a.1.1,0,0,1-.06-.02c-2.174-1.667-4.064-3.144-5.778-4.517a.1.1,0,1,1,.123-.153c1.712,1.373,3.6,2.85,5.774,4.515a.1.1,0,0,1-.059.176Z" transform="translate(-240.961 -166.358)"/>
        </g>
        <g id="Grupo_156248" data-name="Grupo 156248" transform="translate(61.641 12.503)">
          <path id="Trazado_196606" data-name="Trazado 196606" d="M259.661,180.875a.1.1,0,0,1-.058-.019q-.534-.392-1.066-.788a.1.1,0,1,1,.117-.157q.53.4,1.064.787a.1.1,0,0,1,.021.137A.1.1,0,0,1,259.661,180.875Z" transform="translate(-258.498 -179.892)"/>
        </g>
      </g>
      <g id="Grupo_156258" data-name="Grupo 156258" transform="translate(15.407 18.979)">
        <g id="Grupo_156250" data-name="Grupo 156250" transform="translate(0.133)">
          <rect id="Rectángulo_46521" data-name="Rectángulo 46521" width="46.029" height="31.659" transform="translate(0.294 0.294)" fill="#fff"/>
          <path id="Trazado_196607" data-name="Trazado 196607" d="M191.037,160.191H145.008a.294.294,0,0,1-.294-.294V128.238a.294.294,0,0,1,.294-.294h46.029a.294.294,0,0,1,.294.294V159.9A.294.294,0,0,1,191.037,160.191ZM145.3,159.6h45.441V128.532H145.3Z" transform="translate(-144.714 -127.944)"/>
        </g>
        <g id="Grupo_156251" data-name="Grupo 156251" transform="translate(10.258 9.63)">
          <path id="Trazado_196608" data-name="Trazado 196608" d="M188.72,145.588H162.94a.294.294,0,0,1,0-.588h25.78a.294.294,0,1,1,0,.588Z" transform="translate(-162.646 -145)"/>
        </g>
        <g id="Grupo_156252" data-name="Grupo 156252" transform="translate(10.825 23.03)">
          <path id="Trazado_196609" data-name="Trazado 196609" d="M189.724,169.322h-25.78a.294.294,0,0,1,0-.588h25.78a.294.294,0,1,1,0,.588Z" transform="translate(-163.65 -168.734)"/>
        </g>
        <g id="Grupo_156253" data-name="Grupo 156253" transform="translate(5.879 16.254)">
          <path id="Trazado_196610" data-name="Trazado 196610" d="M174.587,157.32h-19.4a.294.294,0,1,1,0-.588h19.4a.294.294,0,0,1,0,.588Z" transform="translate(-154.891 -156.732)"/>
        </g>
        <g id="Grupo_156254" data-name="Grupo 156254" transform="translate(30.445 7.85)">
          <path id="Trazado_196611" data-name="Trazado 196611" d="M198.921,144a1.628,1.628,0,1,1,1.628,1.628A1.628,1.628,0,0,1,198.921,144Z" transform="translate(-198.627 -142.073)" fill="#acd4f7"/>
          <path id="Trazado_196612" data-name="Trazado 196612" d="M200.322,145.69a1.922,1.922,0,1,1,1.922-1.921A1.923,1.923,0,0,1,200.322,145.69Zm0-3.255a1.334,1.334,0,1,0,1.334,1.334A1.336,1.336,0,0,0,200.322,142.435Z" transform="translate(-198.401 -141.847)"/>
        </g>
        <g id="Grupo_156255" data-name="Grupo 156255" transform="translate(13.83 15.084)">
          <ellipse id="Elipse_6034" data-name="Elipse 6034" cx="1.628" cy="1.628" rx="1.628" ry="1.628" transform="translate(0.294 0.294)" fill="#fff"/>
          <path id="Trazado_196613" data-name="Trazado 196613" d="M170.894,158.5a1.922,1.922,0,1,1,1.922-1.922A1.924,1.924,0,0,1,170.894,158.5Zm0-3.256a1.334,1.334,0,1,0,1.334,1.334A1.335,1.335,0,0,0,170.894,155.248Z" transform="translate(-168.973 -154.66)"/>
        </g>
        <g id="Grupo_156256" data-name="Grupo 156256" transform="translate(30.445 21.402)">
          <path id="Trazado_196614" data-name="Trazado 196614" d="M198.921,168a1.628,1.628,0,1,1,1.628,1.628A1.628,1.628,0,0,1,198.921,168Z" transform="translate(-198.627 -166.077)" fill="#acd4f7"/>
          <path id="Trazado_196615" data-name="Trazado 196615" d="M200.322,169.694a1.922,1.922,0,1,1,1.922-1.922A1.924,1.924,0,0,1,200.322,169.694Zm0-3.256a1.334,1.334,0,1,0,1.334,1.334A1.335,1.335,0,0,0,200.322,166.439Z" transform="translate(-198.401 -165.851)"/>
        </g>
        <g id="Grupo_156257" data-name="Grupo 156257" transform="translate(0 31.681)" opacity="0.129">
          <path id="Trazado_196616" data-name="Trazado 196616" d="M190.539,184.566c-.125-.007-.252,0-.378-.01-.921-.023-1.843-.029-2.764-.073-2.127-.111-4.258-.054-6.385-.15-2.477.006-4.953.087-7.43.125-1.388.049-2.774-.035-4.162-.033-1.947.008-3.893.076-5.84.053a153.472,153.472,0,0,0-15.408-.307,12.294,12.294,0,0,0-3.09.013,1,1,0,0,0,.385,1.912,17.177,17.177,0,0,1,2.444.1c2.169.007,4.34,0,6.508-.034,3-.036,6.009.2,9.005.4,2.007.038,4.015-.036,6.022-.033,1.475.008,2.949.092,4.425.053,2.2.008,4.393-.075,6.59-.108,1.961.021,3.922-.018,5.884-.022,1.122,0,2.244,0,3.366-.05a5.481,5.481,0,0,0,.951-.081.848.848,0,0,0,.707-.535A.879.879,0,0,0,190.539,184.566Z" transform="translate(-144.478 -184.056)"/>
        </g>
      </g>
    </g>
  </g>
</svg>
