<svg id="Grupo_166621" data-name="Grupo 166621" xmlns="http://www.w3.org/2000/svg" width="111.412" height="83.967" viewBox="0 0 111.412 83.967">
  <g id="Grupo_156205" data-name="Grupo 156205">
    <g id="Grupo_156176" data-name="Grupo 156176" transform="translate(0 15.344)">
      <path id="Trazado_196533" data-name="Trazado 196533" d="M840.078,204.439c0-23.932.28-44.771,0-67.239-33.53,0-67.231.975-101.013.619-.324,22.9,0,44.436,0,66.7Q789.711,204.519,840.078,204.439Z" transform="translate(-738.27 -136.548)" fill="#fff"/>
      <path id="Trazado_196534" data-name="Trazado 196534" d="M739.2,205.3a.652.652,0,0,1-.652-.652c0-7.422-.036-14.887-.071-22.106-.071-14.422-.144-29.334.071-44.6a.651.651,0,0,1,.652-.642h.006c19.512.205,39.3-.038,58.44-.273,13.965-.171,28.4-.348,42.567-.348a.652.652,0,0,1,.652.643c.184,14.822.126,28.845.064,43.691-.031,7.575-.064,15.408-.064,23.556a.652.652,0,0,1-.652.652c-16.776,0-33.858.02-50.378.04C773.246,205.282,756.1,205.3,739.2,205.3Zm.642-66.693c-.2,15.03-.133,29.717-.062,43.929.034,7.01.07,14.249.071,21.46,16.693,0,33.613-.02,49.981-.039,16.308-.02,33.162-.04,49.73-.04,0-7.917.033-15.537.064-22.912.061-14.625.118-28.451-.056-43.026-13.949.006-28.158.18-41.907.349C778.725,138.562,759.152,138.8,739.838,138.608Z" transform="translate(-738.401 -136.679)"/>
    </g>
    <g id="Grupo_156177" data-name="Grupo 156177" transform="translate(0.143 8.577)">
      <path id="Trazado_196535" data-name="Trazado 196535" d="M739.249,132.236c-.111,2.792-.085,5.442-.213,8.641,33.81.073,67.309.029,101.013-.079,0-2.888-.085-6.66-.085-9.007Z" transform="translate(-738.384 -131.14)" fill="#12263f"/>
      <path id="Trazado_196536" data-name="Trazado 196536" d="M773.344,141.7c-11.737,0-23.1-.013-34.178-.036a.652.652,0,0,1-.651-.677c.066-1.645.091-3.147.115-4.6.022-1.381.044-2.685.1-4.043a.652.652,0,0,1,.648-.626l100.714-.444h0a.651.651,0,0,1,.651.652c0,1.11.02,2.54.04,4.044.022,1.69.046,3.44.046,4.961a.652.652,0,0,1-.649.652C816.391,141.658,794.274,141.7,773.344,141.7Zm-33.5-1.338c30.463.065,63.086.038,99.685-.078-.006-1.353-.026-2.845-.045-4.3-.018-1.229-.033-2.409-.039-3.406l-99.436.438c-.038,1.125-.056,2.23-.075,3.39C739.913,137.664,739.891,138.96,739.843,140.358Z" transform="translate(-738.515 -131.271)"/>
    </g>
    <g id="Grupo_156178" data-name="Grupo 156178" transform="translate(70.963 13.181)">
      <path id="Trazado_196537" data-name="Trazado 196537" d="M795.765,136.336a.652.652,0,0,1-.011-1.3l4.651-.083h.011a.652.652,0,0,1,.011,1.3l-4.65.083Z" transform="translate(-795.114 -134.95)"/>
    </g>
    <g id="Grupo_156179" data-name="Grupo 156179" transform="translate(81.249 13.263)">
      <path id="Trazado_196538" data-name="Trazado 196538" d="M803.987,136.4a.651.651,0,0,1-.011-1.3l4.65-.083h.012a.652.652,0,0,1,.011,1.3L804,136.4Z" transform="translate(-803.335 -135.016)"/>
    </g>
    <g id="Grupo_156180" data-name="Grupo 156180" transform="translate(91.206 13.097)">
      <path id="Trazado_196539" data-name="Trazado 196539" d="M811.943,136.268a.651.651,0,0,1-.011-1.3l4.651-.083h.011a.652.652,0,0,1,.011,1.3l-4.65.081Z" transform="translate(-811.292 -134.883)"/>
    </g>
    <g id="Grupo_156181" data-name="Grupo 156181" transform="translate(12.376 31.838)">
      <path id="Trazado_196540" data-name="Trazado 196540" d="M748.943,151.548a.651.651,0,0,1-.023-1.3l11.294-.384a.659.659,0,0,1,.673.628.651.651,0,0,1-.629.673l-11.293.384Z" transform="translate(-748.292 -149.861)"/>
    </g>
    <g id="Grupo_156182" data-name="Grupo 156182" transform="translate(12.998 44.974)">
      <path id="Trazado_196541" data-name="Trazado 196541" d="M749.44,162.047a.652.652,0,0,1-.016-1.3l15.119-.384h.016a.651.651,0,0,1,.016,1.3l-15.118.385Z" transform="translate(-748.789 -160.359)"/>
    </g>
    <g id="Grupo_156183" data-name="Grupo 156183" transform="translate(12.816 58.111)">
      <path id="Trazado_196542" data-name="Trazado 196542" d="M749.295,172.546a.652.652,0,0,1-.009-1.3l30.6-.384h.009a.651.651,0,0,1,.007,1.3l-30.6.385Z" transform="translate(-748.643 -170.858)"/>
    </g>
    <g id="Grupo_156184" data-name="Grupo 156184" transform="translate(12.999 69.861)">
      <path id="Trazado_196543" data-name="Trazado 196543" d="M749.441,181.936a.651.651,0,0,1-.005-1.3l53.674-.384h0a.651.651,0,0,1,0,1.3l-53.674.384Z" transform="translate(-748.789 -180.249)"/>
    </g>
    <g id="Grupo_156200" data-name="Grupo 156200" transform="translate(34.687)">
      <g id="Grupo_156185" data-name="Grupo 156185" transform="translate(46.118 43.011)">
        <path id="Trazado_196544" data-name="Trazado 196544" d="M803.5,165.789l13.646,13.425A89.773,89.773,0,0,0,824.575,186c1.411,1.106,2.983,2.151,4.7,2.152a3.558,3.558,0,0,0,3.53-3.39c-.01-1.514-1.056-2.731-2.036-3.764Q819.907,169.537,808.1,159.3C806.656,161.412,805.214,163.523,803.5,165.789Z" transform="translate(-802.849 -158.662)" fill="#fff"/>
        <path id="Trazado_196545" data-name="Trazado 196545" d="M829.408,188.928h0c-1.914,0-3.584-1.1-5.1-2.29a90.415,90.415,0,0,1-7.484-6.832l-13.646-13.425a.65.65,0,0,1-.063-.857c1.7-2.243,3.152-4.374,4.56-6.435a.686.686,0,0,1,.463-.293.668.668,0,0,1,.521.14c7.847,6.8,15.491,14.114,22.719,21.738,1.065,1.124,2.2,2.467,2.214,4.209a3.849,3.849,0,0,1-1.16,2.748A4.367,4.367,0,0,1,829.408,188.928Zm-24.914-23.074,13.24,13.024a89.734,89.734,0,0,0,7.374,6.734c1.334,1.045,2.779,2.012,4.3,2.013h0a3.044,3.044,0,0,0,2.1-.912,2.561,2.561,0,0,0,.781-1.821c-.009-1.266-.922-2.335-1.857-3.321-7.03-7.415-14.453-14.535-22.075-21.17C807.146,162.167,805.9,163.968,804.494,165.853Z" transform="translate(-802.979 -158.79)"/>
      </g>
      <g id="Grupo_156187" data-name="Grupo 156187">
        <g id="Grupo_156186" data-name="Grupo 156186">
          <path id="Trazado_196546" data-name="Trazado 196546" d="M795.011,124.937A28.367,28.367,0,1,0,823.378,153.3,28.368,28.368,0,0,0,795.011,124.937Zm0,49.913A21.545,21.545,0,1,1,816.555,153.3,21.545,21.545,0,0,1,795.011,174.85Zm0,0A21.545,21.545,0,1,1,816.555,153.3,21.545,21.545,0,0,1,795.011,174.85Z" transform="translate(-765.991 -124.285)" fill="#fff"/>
          <path id="Trazado_196547" data-name="Trazado 196547" d="M795.141,182.454a29.019,29.019,0,1,1,29.019-29.019A29.052,29.052,0,0,1,795.141,182.454Zm0-56.736a27.716,27.716,0,1,0,27.715,27.717A27.748,27.748,0,0,0,795.141,125.719Zm0,49.914a22.2,22.2,0,1,1,22.2-22.2A22.222,22.222,0,0,1,795.141,175.632Zm-20.895-22.2a20.894,20.894,0,1,0,20.895-20.893A20.917,20.917,0,0,0,774.246,153.435Z" transform="translate(-766.122 -124.416)"/>
        </g>
      </g>
      <g id="Grupo_156188" data-name="Grupo 156188" transform="translate(15.074 25.848)">
        <path id="Trazado_196548" data-name="Trazado 196548" d="M778.689,147.821a2.226,2.226,0,1,1,2.226,2.226A2.226,2.226,0,0,1,778.689,147.821Z" transform="translate(-778.038 -144.943)" fill="#fff"/>
        <path id="Trazado_196549" data-name="Trazado 196549" d="M781.046,150.829a2.877,2.877,0,1,1,2.878-2.877A2.879,2.879,0,0,1,781.046,150.829Zm0-4.452a1.575,1.575,0,1,0,1.575,1.575A1.577,1.577,0,0,0,781.046,146.377Z" transform="translate(-778.169 -145.074)"/>
      </g>
      <g id="Grupo_156189" data-name="Grupo 156189" transform="translate(25.852 25.848)">
        <circle id="Elipse_6032" data-name="Elipse 6032" cx="2.226" cy="2.226" r="2.226" transform="translate(0.651 0.652)" fill="#fff"/>
        <path id="Trazado_196550" data-name="Trazado 196550" d="M789.66,150.829a2.877,2.877,0,1,1,2.878-2.877A2.879,2.879,0,0,1,789.66,150.829Zm0-4.452a1.575,1.575,0,1,0,1.575,1.575A1.577,1.577,0,0,0,789.66,146.377Z" transform="translate(-786.783 -145.074)"/>
      </g>
      <g id="Grupo_156190" data-name="Grupo 156190" transform="translate(36.63 25.848)">
        <circle id="Elipse_6033" data-name="Elipse 6033" cx="2.226" cy="2.226" r="2.226" transform="translate(0.652 0.652)" fill="#fff"/>
        <path id="Trazado_196551" data-name="Trazado 196551" d="M798.275,150.829a2.877,2.877,0,1,1,2.877-2.877A2.881,2.881,0,0,1,798.275,150.829Zm0-4.452a1.575,1.575,0,1,0,1.574,1.575A1.577,1.577,0,0,0,798.275,146.377Z" transform="translate(-795.397 -145.074)"/>
      </g>
      <g id="Grupo_156191" data-name="Grupo 156191" transform="translate(50.21 48.77)">
        <path id="Trazado_196552" data-name="Trazado 196552" d="M806.467,165.574a.205.205,0,0,1-.06-.009.219.219,0,0,1-.149-.269l.5-1.746a.217.217,0,0,1,.417.119l-.5,1.747A.218.218,0,0,1,806.467,165.574Z" transform="translate(-806.249 -163.393)"/>
      </g>
      <g id="Grupo_156192" data-name="Grupo 156192" transform="translate(52.596 47.457)">
        <path id="Trazado_196553" data-name="Trazado 196553" d="M808.375,168.9h-.029a.219.219,0,0,1-.188-.244c.268-2.041.589-4.1.957-6.129a.218.218,0,1,1,.428.079c-.368,2.018-.688,4.073-.954,6.106A.218.218,0,0,1,808.375,168.9Z" transform="translate(-808.157 -162.343)"/>
      </g>
      <g id="Grupo_156193" data-name="Grupo 156193" transform="translate(55.696 50.089)">
        <path id="Trazado_196554" data-name="Trazado 196554" d="M810.851,171.336a.217.217,0,0,1-.216-.218c0-1.02.156-2.732.3-4.241.085-.925.158-1.722.183-2.223a.217.217,0,1,1,.433.021c-.025.51-.1,1.313-.184,2.241-.138,1.5-.293,3.2-.293,4.2A.218.218,0,0,1,810.851,171.336Z" transform="translate(-810.634 -164.447)"/>
      </g>
      <g id="Grupo_156194" data-name="Grupo 156194" transform="translate(58.704 52.224)">
        <path id="Trazado_196555" data-name="Trazado 196555" d="M813.42,173.833a.218.218,0,0,1-.218-.213l-.164-7.245a.218.218,0,1,1,.435-.01l.163,7.245a.219.219,0,0,1-.212.223Z" transform="translate(-813.038 -166.153)"/>
      </g>
      <g id="Grupo_156195" data-name="Grupo 156195" transform="translate(61.603 55.087)">
        <path id="Trazado_196556" data-name="Trazado 196556" d="M815.857,176.462a.218.218,0,0,1-.218-.209l-.284-7.586a.219.219,0,0,1,.209-.225.227.227,0,0,1,.225.209l.285,7.588a.218.218,0,0,1-.21.224Z" transform="translate(-815.355 -168.441)"/>
      </g>
      <g id="Grupo_156196" data-name="Grupo 156196" transform="translate(64.576 58.287)">
        <path id="Trazado_196557" data-name="Trazado 196557" d="M818.332,178.52a.217.217,0,0,1-.216-.205l-.384-7.087a.219.219,0,0,1,.205-.229.211.211,0,0,1,.229.205l.384,7.087a.217.217,0,0,1-.205.229Z" transform="translate(-817.731 -170.999)"/>
      </g>
      <g id="Grupo_156197" data-name="Grupo 156197" transform="translate(67.471 60.97)">
        <path id="Trazado_196558" data-name="Trazado 196558" d="M820.793,180.479a.217.217,0,0,1-.217-.2l-.532-6.9a.217.217,0,0,1,.432-.034l.533,6.9a.216.216,0,0,1-.2.233Z" transform="translate(-820.044 -173.143)"/>
      </g>
      <g id="Grupo_156198" data-name="Grupo 156198" transform="translate(70.261 64.063)">
        <path id="Trazado_196559" data-name="Trazado 196559" d="M823.112,182.1a.217.217,0,0,1-.215-.2l-.622-6.052a.216.216,0,0,1,.194-.238.225.225,0,0,1,.238.194l.622,6.052a.216.216,0,0,1-.194.238Z" transform="translate(-822.274 -175.615)"/>
      </g>
      <g id="Grupo_156199" data-name="Grupo 156199" transform="translate(73.265 67.089)">
        <path id="Trazado_196560" data-name="Trazado 196560" d="M825.329,181.172a.218.218,0,0,1-.214-.183l-.437-2.7a.216.216,0,0,1,.179-.249.213.213,0,0,1,.249.179l.438,2.7a.217.217,0,0,1-.18.249A.168.168,0,0,1,825.329,181.172Z" transform="translate(-824.676 -178.033)"/>
      </g>
    </g>
    <g id="Grupo_156201" data-name="Grupo 156201" transform="translate(0.936 17.897)" opacity="0.129">
      <path id="Trazado_196561" data-name="Trazado 196561" d="M774.558,139.112c-.732-.432-1.605-.114-2.4-.133-3.334-.04-6.672-.313-10.012-.25-3.785.045-7.565.387-11.351.241-2.161-.09-4.324-.016-6.485-.068-.831-.02-1.662-.024-2.493-.019a4.066,4.066,0,0,0-1.625.15,1.712,1.712,0,0,0,.661,3.283c5.481.025,10.955.444,16.435.324,5.459-.235,10.935.018,16.383-.378l.041-.005a1.875,1.875,0,0,0,1.192-.494A1.706,1.706,0,0,0,774.558,139.112Z" transform="translate(-739.149 -138.72)"/>
    </g>
    <g id="Grupo_156202" data-name="Grupo 156202" transform="translate(89.92 17.678)" opacity="0.129">
      <path id="Trazado_196562" data-name="Trazado 196562" d="M821.767,138.758a1.684,1.684,0,0,0-1.351-.129c.034-.015.047-.021.015-.01-.354.058-.709.108-1.06.184l-.089.01c-2.148.008-4.305-.2-6.463-.128-.719-.005-1.54-.1-2.077.482a1.669,1.669,0,0,0,1.17,2.827c1.852-.133,3.7-.146,5.557-.116,1.519-.118,1.2-.135,2.3-.194.342,0,.682-.04,1.024-.059.011,0,.011,0,0,0a1.549,1.549,0,0,0,1.122-.339A1.531,1.531,0,0,0,821.767,138.758Z" transform="translate(-810.265 -138.545)"/>
    </g>
    <g id="Grupo_156203" data-name="Grupo 156203" transform="translate(42.192 26.514)" opacity="0.129">
      <path id="Trazado_196563" data-name="Trazado 196563" d="M800.223,168.284c.715-.241,1.435-.478,2.147-.738,1.531-.865,3.029-1.788,4.461-2.78a26.229,26.229,0,0,0,3.617-3.282,19.634,19.634,0,0,0,1.307-1.48,1.436,1.436,0,0,0-1.263.109,28.7,28.7,0,0,1-5.967,3.607,16.857,16.857,0,0,1-5.778,1.645c-3.894.563-11.062-.706-15.088-2.97a21.643,21.643,0,0,1-3.485-2.173q-.952-.77-1.822-1.632c-.246-.2-.938-1.011-1.2-1.313a42.7,42.7,0,0,1-3.9-8.048,25.072,25.072,0,0,1-.748-2.42,7.439,7.439,0,0,0-.348-1.2,24.117,24.117,0,0,0,.323,5.521,36.417,36.417,0,0,0,1.588,5.628c.191.329.385.656.576.976a32.428,32.428,0,0,0,5.211,6.739,25.683,25.683,0,0,0,4.561,2.285,33.382,33.382,0,0,0,9.755,2.285,20.724,20.724,0,0,0,3.665.018Q799.033,168.684,800.223,168.284Z" transform="translate(-772.12 -145.606)"/>
    </g>
    <g id="Grupo_156204" data-name="Grupo 156204" transform="translate(80.511 45.035)" opacity="0.129">
      <path id="Trazado_196564" data-name="Trazado 196564" d="M824.782,185.149a1.532,1.532,0,0,0-.591-.574l-.014-.014.017.008a.238.238,0,0,0-.03-.019c-.149-.144-.524-.483-.658-.626-2.182-2.2-4.652-4.075-6.951-6.144-1.673-1.554-3.079-3.37-4.825-4.85-1.817-1.562-3.3-3.463-5.075-5.059a1.707,1.707,0,0,0,.372-.165,12.552,12.552,0,0,0,2.949-2.679c.32-.375.673-.722.985-1.1a2.115,2.115,0,0,0,.848-1.43,1.811,1.811,0,0,0-1.315-2.013,1.951,1.951,0,0,0-2.315,1.328,25.165,25.165,0,0,1-2.754,2.689l-.2.135a1.793,1.793,0,0,0-.818,1.065,1.655,1.655,0,0,0-.068.479,1.134,1.134,0,0,0-.229-.024,1.39,1.39,0,0,0-.975,2.354,38.751,38.751,0,0,1,5.234,5.136c1.884,1.921,3.669,3.94,5.563,5.851,1.508,1.448,3.188,2.7,4.756,4.075,1.154.976,2.227,2.04,3.333,3.068a1.281,1.281,0,0,0,.457.531A1.561,1.561,0,0,0,824.782,185.149Z" transform="translate(-802.745 -160.408)"/>
    </g>
  </g>
</svg>
