<svg id="Grupo_166623" data-name="Grupo 166623" xmlns="http://www.w3.org/2000/svg" width="77.672" height="60.691" viewBox="0 0 77.672 60.691">
  <g id="Grupo_155649" data-name="Grupo 155649" transform="translate(3.784 0)">
    <g id="Grupo_155635" data-name="Grupo 155635" transform="translate(38.283 35.693)">
      <path id="Trazado_196062" data-name="Trazado 196062" d="M194.269,215.411,205.6,226.556a74.67,74.67,0,0,0,6.167,5.63,6.7,6.7,0,0,0,3.9,1.786,2.952,2.952,0,0,0,2.931-2.813,4.854,4.854,0,0,0-1.69-3.125q-9.017-9.512-18.822-18.009C196.888,211.778,195.692,213.53,194.269,215.411Z" transform="translate(-193.743 -209.499)" fill="#fff"/>
      <path id="Trazado_196063" data-name="Trazado 196063" d="M215.7,234.529h0a7.117,7.117,0,0,1-4.226-1.9,75.335,75.335,0,0,1-6.212-5.67l-11.328-11.144a.526.526,0,0,1-.05-.693c1.417-1.874,2.628-3.648,3.8-5.364a.525.525,0,0,1,.779-.1c6.515,5.645,12.859,11.716,18.859,18.044a5.3,5.3,0,0,1,1.834,3.483,3.181,3.181,0,0,1-.959,2.271A3.608,3.608,0,0,1,215.7,234.529ZM195,215.391l11,10.82a74.685,74.685,0,0,0,6.122,5.592,6.257,6.257,0,0,0,3.579,1.674h0a2.538,2.538,0,0,0,1.749-.762,2.144,2.144,0,0,0,.653-1.522,4.39,4.39,0,0,0-1.545-2.767c-5.839-6.158-12.007-12.073-18.339-17.585C197.219,212.3,196.18,213.81,195,215.391Z" transform="translate(-193.775 -209.531)"/>
    </g>
    <g id="Grupo_155637" data-name="Grupo 155637">
      <g id="Grupo_155636" data-name="Grupo 155636">
        <path id="Trazado_196064" data-name="Trazado 196064" d="M181.842,176.484a23.548,23.548,0,1,0,23.549,23.549A23.548,23.548,0,0,0,181.842,176.484Zm0,41.433a17.885,17.885,0,1,1,17.885-17.884A17.884,17.884,0,0,1,181.842,217.917Zm0,0a17.885,17.885,0,1,1,17.885-17.884A17.884,17.884,0,0,1,181.842,217.917Z" transform="translate(-157.768 -175.958)" fill="#fff"/>
        <path id="Trazado_196065" data-name="Trazado 196065" d="M181.874,224.138a24.074,24.074,0,1,1,24.075-24.074A24.1,24.1,0,0,1,181.874,224.138Zm0-47.1A23.022,23.022,0,1,0,204.9,200.065,23.048,23.048,0,0,0,181.874,177.042Zm0,41.433a18.411,18.411,0,1,1,18.411-18.411A18.432,18.432,0,0,1,181.874,218.476Zm-17.359-18.411a17.359,17.359,0,1,0,17.359-17.36A17.378,17.378,0,0,0,164.515,200.065Z" transform="translate(-157.8 -175.99)"/>
      </g>
    </g>
    <g id="Grupo_155638" data-name="Grupo 155638" transform="translate(41.67 40.475)">
      <path id="Trazado_196066" data-name="Trazado 196066" d="M197.133,215.825a.185.185,0,0,1-.048-.006.176.176,0,0,1-.12-.217l.414-1.449a.175.175,0,0,1,.337.1L197.3,215.7A.176.176,0,0,1,197.133,215.825Z" transform="translate(-196.958 -214.024)"/>
    </g>
    <g id="Grupo_155639" data-name="Grupo 155639" transform="translate(43.652 39.385)">
      <path id="Trazado_196067" data-name="Trazado 196067" d="M198.995,218.429h-.022a.176.176,0,0,1-.151-.2c.22-1.693.487-3.4.794-5.087a.175.175,0,1,1,.345.063c-.3,1.677-.571,3.382-.792,5.07A.174.174,0,0,1,198.995,218.429Z" transform="translate(-198.82 -213.001)"/>
    </g>
    <g id="Grupo_155640" data-name="Grupo 155640" transform="translate(46.224 41.569)">
      <path id="Trazado_196068" data-name="Trazado 196068" d="M201.412,220.762a.175.175,0,0,1-.175-.176c0-.848.13-2.27.245-3.526.07-.765.131-1.425.152-1.841a.168.168,0,0,1,.183-.166.176.176,0,0,1,.167.184c-.021.422-.082,1.086-.153,1.855-.114,1.248-.244,2.661-.244,3.494A.176.176,0,0,1,201.412,220.762Z" transform="translate(-201.237 -215.052)"/>
    </g>
    <g id="Grupo_155641" data-name="Grupo 155641" transform="translate(48.722 43.341)">
      <path id="Trazado_196069" data-name="Trazado 196069" d="M203.895,223.083a.176.176,0,0,1-.176-.171l-.135-6.014a.177.177,0,0,1,.171-.18.166.166,0,0,1,.179.171l.136,6.015a.175.175,0,0,1-.171.179Z" transform="translate(-203.584 -216.718)"/>
    </g>
    <g id="Grupo_155642" data-name="Grupo 155642" transform="translate(51.128 45.718)">
      <path id="Trazado_196070" data-name="Trazado 196070" d="M206.256,225.6a.175.175,0,0,1-.175-.168l-.236-6.3a.177.177,0,0,1,.169-.182.179.179,0,0,1,.181.169l.236,6.3a.176.176,0,0,1-.168.182Z" transform="translate(-205.845 -218.951)"/>
    </g>
    <g id="Grupo_155643" data-name="Grupo 155643" transform="translate(53.595 48.374)">
      <path id="Trazado_196071" data-name="Trazado 196071" d="M208.658,227.682a.174.174,0,0,1-.175-.165l-.319-5.884a.175.175,0,1,1,.35-.019l.319,5.884a.175.175,0,0,1-.166.184Z" transform="translate(-208.164 -221.447)"/>
    </g>
    <g id="Grupo_155644" data-name="Grupo 155644" transform="translate(55.998 50.603)">
      <path id="Trazado_196072" data-name="Trazado 196072" d="M211.038,229.621a.176.176,0,0,1-.175-.162l-.442-5.728a.174.174,0,0,1,.162-.187.171.171,0,0,1,.188.161l.442,5.728a.175.175,0,0,1-.162.187Z" transform="translate(-210.421 -223.542)"/>
    </g>
    <g id="Grupo_155645" data-name="Grupo 155645" transform="translate(58.314 53.17)">
      <path id="Trazado_196073" data-name="Trazado 196073" d="M213.29,231.328a.175.175,0,0,1-.175-.158l-.516-5.024a.175.175,0,0,1,.349-.035l.516,5.023a.176.176,0,0,1-.156.193Z" transform="translate(-212.598 -225.954)"/>
    </g>
    <g id="Grupo_155646" data-name="Grupo 155646" transform="translate(60.809 55.681)">
      <path id="Trazado_196074" data-name="Trazado 196074" d="M215.48,230.91a.176.176,0,0,1-.173-.148l-.363-2.244a.176.176,0,0,1,.347-.056l.362,2.245a.175.175,0,0,1-.145.2Z" transform="translate(-214.942 -228.314)"/>
    </g>
    <g id="Grupo_155647" data-name="Grupo 155647" transform="translate(6.117 21.507)" opacity="0.129">
      <path id="Trazado_196075" data-name="Trazado 196075" d="M198.164,204.464a14.3,14.3,0,0,0-1.366,1.9,24.441,24.441,0,0,1-1.985,2.179c-.591.527-1.157.992-1.735,1.431a.907.907,0,0,0-.3.12,19.051,19.051,0,0,1-8.879,3.593,14.332,14.332,0,0,1-6.586-.082,12.671,12.671,0,0,1-4.927-2.359,25.943,25.943,0,0,1-4.1-3.888h0a15.66,15.66,0,0,1-2.182-4.379c-.293-.787-.513-1.6-.744-2.4a6.709,6.709,0,0,1-.445-2.441c-.215-.6-.413-1.209-.591-1.822a1.153,1.153,0,0,0-.557-.1,28.576,28.576,0,0,0,.038,7.3,14.41,14.41,0,0,0,3.188,6.622,21,21,0,0,0,3.424,2.972,19.348,19.348,0,0,0,5.261,2.862,19.567,19.567,0,0,0,3.21.558l.018,0a12.184,12.184,0,0,0,3.551.086,15.428,15.428,0,0,0,2.714-.588,23.477,23.477,0,0,0,5.4-1.921,13.984,13.984,0,0,0,1.25-.832,26.663,26.663,0,0,0,5.334-4.36c.286-.592.563-1.188.823-1.79.326-.9.651-1.8.971-2.7A.893.893,0,0,0,198.164,204.464Z" transform="translate(-163.548 -196.2)"/>
    </g>
    <g id="Grupo_155648" data-name="Grupo 155648" transform="translate(39.195 37.396)" opacity="0.129">
      <path id="Trazado_196076" data-name="Trazado 196076" d="M200.01,211.191c-.9-.258-1.5.366-1.938,1.049l-.061.071a21.33,21.33,0,0,1-2.293,2l-.017.013a2.083,2.083,0,0,0-.719.583,1.582,1.582,0,0,0,2.046,2.331,8.362,8.362,0,0,0,2.615-2.3,10.4,10.4,0,0,0,1.245-1.593A1.481,1.481,0,0,0,200.01,211.191Z" transform="translate(-194.632 -211.131)"/>
    </g>
  </g>
  <g id="Grupo_155650" data-name="Grupo 155650" transform="translate(27.827 17.117)">
    <circle id="Elipse_6003" data-name="Elipse 6003" cx="5.065" cy="5.065" r="5.065" transform="translate(0.526 0.526)" fill="#7f4fc7"/>
    <path id="Trazado_196077" data-name="Trazado 196077" d="M185.984,203.257a5.591,5.591,0,1,1,5.591-5.591A5.6,5.6,0,0,1,185.984,203.257Zm0-10.131a4.539,4.539,0,1,0,4.539,4.54A4.544,4.544,0,0,0,185.984,193.126Z" transform="translate(-180.393 -192.075)"/>
  </g>
  <g id="Grupo_155651" data-name="Grupo 155651" transform="translate(4.371 41.795)">
    <path id="Trazado_196078" data-name="Trazado 196078" d="M158.878,225.468a.526.526,0,0,1-.394-.875c2.627-2.961,5.208-6.032,7.672-9.131a.526.526,0,0,1,.824.654c-2.475,3.114-5.069,6.2-7.709,9.174A.522.522,0,0,1,158.878,225.468Z" transform="translate(-158.351 -215.265)"/>
  </g>
  <g id="Grupo_155652" data-name="Grupo 155652" transform="translate(50.742 17.117)">
    <path id="Trazado_196079" data-name="Trazado 196079" d="M214.183,211.257a.535.535,0,0,1-.265-.071l-11.731-6.834a.526.526,0,1,1,.53-.909L213.972,210l9.208-17.642a.526.526,0,0,1,.932.487l-9.464,18.13a.524.524,0,0,1-.466.282Z" transform="translate(-201.926 -192.075)"/>
  </g>
  <g id="Grupo_155653" data-name="Grupo 155653" transform="translate(0 49.278)">
    <path id="Trazado_196080" data-name="Trazado 196080" d="M154.738,226.035a3.244,3.244,0,1,1,3.244,3.244A3.243,3.243,0,0,1,154.738,226.035Z" transform="translate(-154.212 -222.265)" fill="#fff"/>
    <path id="Trazado_196081" data-name="Trazado 196081" d="M158.013,229.836a3.769,3.769,0,1,1,3.769-3.769A3.774,3.774,0,0,1,158.013,229.836Zm0-6.487a2.717,2.717,0,1,0,2.717,2.718A2.721,2.721,0,0,0,158.013,223.348Z" transform="translate(-154.244 -222.297)"/>
  </g>
  <g id="Grupo_155654" data-name="Grupo 155654" transform="translate(70.134 10.63)">
    <path id="Trazado_196082" data-name="Trazado 196082" d="M220.643,189.717a3.244,3.244,0,1,1,3.244,3.244A3.243,3.243,0,0,1,220.643,189.717Z" transform="translate(-220.117 -185.947)" fill="#fff"/>
    <path id="Trazado_196083" data-name="Trazado 196083" d="M223.918,193.518a3.769,3.769,0,1,1,3.769-3.769A3.774,3.774,0,0,1,223.918,193.518Zm0-6.486a2.717,2.717,0,1,0,2.717,2.717A2.72,2.72,0,0,0,223.918,187.031Z" transform="translate(-220.149 -185.979)"/>
  </g>
  <g id="Grupo_155655" data-name="Grupo 155655" transform="translate(59.229 32.004)">
    <path id="Trazado_196084" data-name="Trazado 196084" d="M210.4,209.8a3.244,3.244,0,1,1,3.244,3.244A3.244,3.244,0,0,1,210.4,209.8Z" transform="translate(-209.87 -206.032)" fill="#fff"/>
    <path id="Trazado_196085" data-name="Trazado 196085" d="M213.671,213.6a3.769,3.769,0,1,1,3.769-3.769A3.774,3.774,0,0,1,213.671,213.6Zm0-6.487a2.717,2.717,0,1,0,2.718,2.718A2.72,2.72,0,0,0,213.671,207.115Z" transform="translate(-209.902 -206.064)"/>
  </g>
  <g id="Grupo_155656" data-name="Grupo 155656" transform="translate(19.277 26.11)">
    <path id="Trazado_196086" data-name="Trazado 196086" d="M172.885,214.228a.526.526,0,0,1-.413-.851l9.968-12.651a.526.526,0,0,1,.827.651L173.3,214.028A.522.522,0,0,1,172.885,214.228Z" transform="translate(-172.359 -200.526)"/>
  </g>
  <g id="Grupo_155657" data-name="Grupo 155657" transform="translate(37.195 24.941)">
    <path id="Trazado_196087" data-name="Trazado 196087" d="M196.554,204.678a.526.526,0,0,1-.275-.078l-6.832-4.2a.526.526,0,0,1,.55-.9l6.832,4.2a.527.527,0,0,1-.276.975Z" transform="translate(-189.197 -199.427)"/>
  </g>
</svg>
