<svg xmlns="http://www.w3.org/2000/svg" xmlns:xlink="http://www.w3.org/1999/xlink" width="80.792" height="41.787" viewBox="0 0 80.792 41.787">
  <defs>
    <filter id="Trazado_133254" x="0" y="0" width="80.792" height="41.787" filterUnits="userSpaceOnUse">
      <feOffset dy="3" input="SourceAlpha"/>
      <feGaussianBlur stdDeviation="3" result="blur"/>
      <feFlood flood-opacity="0.161"/>
      <feComposite operator="in" in2="blur"/>
      <feComposite in="SourceGraphic"/>
    </filter>
  </defs>
  <g id="Grupo_61559" data-name="Grupo 61559" transform="translate(9 6)">
    <g id="Grupo_61550" data-name="Grupo 61550">
      <g id="Grupo_61549" data-name="Grupo 61549">
        <g id="Grupo_61548" data-name="Grupo 61548">
          <g transform="matrix(1, 0, 0, 1, -9, -6)" filter="url(#Trazado_133254)">
            <path id="Trazado_133254-2" data-name="Trazado 133254" d="M40.784,46.789h59.9L90.925,53.83V67.683a2.893,2.893,0,0,1-2.892,2.893H40.784a2.893,2.893,0,0,1-2.893-2.893v-18A2.893,2.893,0,0,1,40.784,46.789Z" transform="translate(-28.89 -40.79)" fill="#fff"/>
          </g>
        </g>
      </g>
    </g>
    <g id="Grupo_61554" data-name="Grupo 61554" transform="translate(5.391 9.686)">
      <g id="Grupo_61553" data-name="Grupo 61553">
        <g id="Grupo_61552" data-name="Grupo 61552">
          <g id="Grupo_61551" data-name="Grupo 61551">
            <path id="Trazado_133255" data-name="Trazado 133255" d="M81.546,71.7c0,.058,9.034.1,20.176.1s20.178-.047,20.178-.1-9.032-.1-20.178-.1S81.546,71.638,81.546,71.7Z" transform="translate(-81.546 -71.592)" fill="#3a277b"/>
          </g>
        </g>
      </g>
    </g>
    <g id="Grupo_61558" data-name="Grupo 61558" transform="translate(5.391 15.004)">
      <g id="Grupo_61557" data-name="Grupo 61557">
        <g id="Grupo_61556" data-name="Grupo 61556">
          <g id="Grupo_61555" data-name="Grupo 61555">
            <path id="Trazado_133256" data-name="Trazado 133256" d="M81.546,85.316c0,.058,9.034.1,20.176.1s20.178-.047,20.178-.1-9.032-.1-20.178-.1S81.546,85.258,81.546,85.316Z" transform="translate(-81.546 -85.211)" fill="#3a277b"/>
          </g>
        </g>
      </g>
    </g>
  </g>
</svg>
