<svg id="Icon_ionic-md-paper" data-name="Icon ionic-md-paper" xmlns="http://www.w3.org/2000/svg" width="72.5" height="62.143" viewBox="0 0 72.5 62.143">
  <path id="Trazado_152360" data-name="Trazado 152360" d="M72.161,4.5H28.143a2.667,2.667,0,0,0-2.589,2.67v5.1H9.047a6.817,6.817,0,0,0-6.8,6.8v33.58a14.028,14.028,0,0,0,13.917,14H61.431A13.351,13.351,0,0,0,74.75,53.373V7.089A2.6,2.6,0,0,0,72.161,4.5ZM25.554,17.446V48.518h-6.8V20.554a7.9,7.9,0,0,0-.534-3.107ZM22.8,58.778a9.557,9.557,0,0,1-6.554,2.686,8.84,8.84,0,0,1-8.82-8.82V20.554a3.075,3.075,0,1,1,6.15,0V51.107A2.6,2.6,0,0,0,16.167,53.7h9.305A8.514,8.514,0,0,1,22.8,58.778Zm46.769-5.405a8.178,8.178,0,0,1-8.14,8.092H27.382a13.528,13.528,0,0,0,3.35-8.82V9.84H69.571Z" transform="translate(-2.25 -4.5)" fill="#fff"/>
  <path id="Trazado_152361" data-name="Trazado 152361" d="M17.438,9.563H43.33v9.063H17.438Z" transform="translate(17.518 2.089)" fill="#fff"/>
  <path id="Trazado_152362" data-name="Trazado 152362" d="M17.438,15.75H43.33v5.179H17.438Z" transform="translate(17.518 10.143)" fill="#fff"/>
  <path id="Trazado_152363" data-name="Trazado 152363" d="M17.438,20.25H43.33v5.179H17.438Z" transform="translate(17.518 16)" fill="#fff"/>
  <path id="Trazado_152364" data-name="Trazado 152364" d="M44.063,24.75H18.17s0,5.179-1.295,5.179H40.939C44.063,29.929,44.063,26.53,44.063,24.75Z" transform="translate(16.786 21.857)" fill="#fff"/>
</svg>
