<svg id="Grupo_166622" data-name="Grupo 166622" xmlns="http://www.w3.org/2000/svg" width="125.183" height="66.912" viewBox="0 0 125.183 66.912">
  <g id="Grupo_156170" data-name="Grupo 156170">
    <g id="Grupo_156148" data-name="Grupo 156148">
      <path id="Trazado_196507" data-name="Trazado 196507" d="M153.31,364.652c0-23.335.272-43.656,0-65.564-32.695,0-65.557.95-98.5.6-.315,22.328,0,43.329,0,65.038Q104.2,364.73,153.31,364.652Z" transform="translate(-54.037 -298.452)" fill="#fff"/>
      <path id="Trazado_196508" data-name="Trazado 196508" d="M54.927,365.479a.636.636,0,0,1-.636-.634c0-7.238-.035-14.517-.07-21.555-.068-14.063-.14-28.6.07-43.491a.637.637,0,0,1,.643-.627c19.024.2,38.322-.035,56.983-.265,13.617-.167,27.7-.339,41.506-.339a.636.636,0,0,1,.636.627c.181,14.454.123,28.13.063,42.609-.031,7.384-.063,15.02-.063,22.963a.635.635,0,0,1-.634.636c-16.358,0-33.016.02-49.124.039C88.13,365.46,71.41,365.479,54.927,365.479Zm.627-65.031c-.2,14.656-.129,28.977-.062,42.835.034,6.834.068,13.894.071,20.926,16.276,0,32.774-.02,48.736-.039,15.9-.018,32.336-.038,48.49-.038,0-7.718.033-15.146.062-22.335.06-14.263.116-27.746-.055-41.96-13.6.006-27.456.176-40.863.34C93.471,300.4,74.386,300.636,55.554,300.448Z" transform="translate(-54.152 -298.567)"/>
    </g>
    <g id="Grupo_156149" data-name="Grupo 156149">
      <path id="Trazado_196509" data-name="Trazado 196509" d="M153.31,364.652c0-23.335.272-43.656,0-65.564-32.695,0-65.557.95-98.5.6-.315,22.328,0,43.329,0,65.038Q104.2,364.73,153.31,364.652Z" transform="translate(-54.037 -298.452)" fill="#fff"/>
      <path id="Trazado_196510" data-name="Trazado 196510" d="M54.927,365.479a.636.636,0,0,1-.636-.634c0-7.238-.035-14.517-.07-21.555-.068-14.063-.14-28.6.07-43.491a.637.637,0,0,1,.643-.627c19.024.2,38.322-.035,56.983-.265,13.617-.167,27.7-.339,41.506-.339a.636.636,0,0,1,.636.627c.181,14.454.123,28.13.063,42.609-.031,7.384-.063,15.02-.063,22.963a.635.635,0,0,1-.634.636c-16.358,0-33.016.02-49.124.039C88.13,365.46,71.41,365.479,54.927,365.479Zm.627-65.031c-.2,14.656-.129,28.977-.062,42.835.034,6.834.068,13.894.071,20.926,16.276,0,32.774-.02,48.736-.039,15.9-.018,32.336-.038,48.49-.038,0-7.718.033-15.146.062-22.335.06-14.263.116-27.746-.055-41.96-13.6.006-27.456.176-40.863.34C93.471,300.4,74.386,300.636,55.554,300.448Z" transform="translate(-54.152 -298.567)"/>
    </g>
    <g id="Grupo_156150" data-name="Grupo 156150" transform="translate(49.378 25.178)">
      <path id="Trazado_196511" data-name="Trazado 196511" d="M95.259,320.485a.636.636,0,1,1,0-1.271l13.847-.011h0a.635.635,0,1,1,0,1.27l-13.847.012Z" transform="translate(-94.623 -319.203)"/>
    </g>
    <g id="Grupo_156151" data-name="Grupo 156151" transform="translate(49.378 37.608)">
      <path id="Trazado_196512" data-name="Trazado 196512" d="M95.259,330.673a.635.635,0,1,1,0-1.27l14.641-.012h0a.635.635,0,0,1,0,1.27l-14.641.012Z" transform="translate(-94.623 -329.391)"/>
    </g>
    <g id="Grupo_156152" data-name="Grupo 156152" transform="translate(13.512 49.819)">
      <path id="Trazado_196513" data-name="Trazado 196513" d="M65.863,340.682a.636.636,0,1,1,0-1.271l45.265-.012a.636.636,0,0,1,0,1.271Z" transform="translate(-65.227 -339.399)"/>
    </g>
    <g id="Grupo_156153" data-name="Grupo 156153" transform="translate(67.608 4.028)">
      <circle id="Elipse_6030" data-name="Elipse 6030" cx="20.356" cy="20.356" r="20.356" transform="translate(0 28.788) rotate(-45)" fill="#fff"/>
      <path id="Trazado_196514" data-name="Trazado 196514" d="M136.946,350.241a20.992,20.992,0,1,1,20.992-20.992A21.015,21.015,0,0,1,136.946,350.241Zm0-40.712a19.721,19.721,0,1,0,19.722,19.72A19.743,19.743,0,0,0,136.946,309.529Z" transform="translate(-108.158 -300.462)"/>
    </g>
    <g id="Grupo_156154" data-name="Grupo 156154" transform="translate(85.07 20.699)">
      <path id="Trazado_196515" data-name="Trazado 196515" d="M124.4,324.375l3.308-3.308,5.09,7.109,7.285-12.122,4.062,3.076-10.888,16.984Z" transform="translate(-123.762 -315.417)" fill="#2194e5"/>
      <path id="Trazado_196516" data-name="Trazado 196516" d="M133.368,336.863a.637.637,0,0,1-.506-.253l-8.857-11.738a.634.634,0,0,1,.057-.832l3.308-3.308a.635.635,0,0,1,.966.079l4.527,6.322,6.787-11.294a.635.635,0,0,1,.928-.178l4.062,3.076a.637.637,0,0,1,.151.849L133.9,336.57a.635.635,0,0,1-.511.292Zm-8.016-12.316,7.974,10.57L143.4,319.395l-3.029-2.294-6.922,11.515a.635.635,0,0,1-1.06.043l-4.653-6.5Z" transform="translate(-123.876 -315.532)"/>
    </g>
    <g id="Grupo_156165" data-name="Grupo 156165" transform="translate(14.148 12.66)">
      <g id="Grupo_156155" data-name="Grupo 156155">
        <path id="Trazado_196517" data-name="Trazado 196517" d="M91.225,337.5c0-9.98.068-18.671,0-28.04-8.272,0-16.587.406-24.92.259-.081,9.548,0,18.531,0,27.814C74.634,337.537,82.937,337.5,91.225,337.5Z" transform="translate(-65.634 -308.828)" fill="#fff"/>
        <path id="Trazado_196518" data-name="Trazado 196518" d="M66.419,338.287a.635.635,0,0,1-.636-.636c0-3.1-.009-6.158-.018-9.218-.017-6.015-.034-12.234.018-18.6a.635.635,0,0,1,.647-.631c4.8.087,9.679-.016,14.4-.113,3.448-.071,7.013-.145,10.513-.145a.635.635,0,0,1,.634.631c.046,6.183.032,12.034.017,18.227-.009,3.175-.017,6.421-.017,9.818a.636.636,0,0,1-.634.636q-6.208,0-12.428.016Q72.673,338.283,66.419,338.287Zm.63-27.8c-.046,6.137-.029,12.139-.012,17.948.009,2.853.016,5.705.017,8.586q5.937,0,11.856-.016t11.795-.017c0-3.167.009-6.208.016-9.186.015-5.978.029-11.637-.011-17.583-3.284.009-6.623.078-9.857.145C76.333,310.452,71.667,310.549,67.049,310.483Z" transform="translate(-65.748 -308.943)"/>
      </g>
      <g id="Grupo_156156" data-name="Grupo 156156" transform="translate(2.887 23.964)">
        <path id="Trazado_196519" data-name="Trazado 196519" d="M70.452,330.872a.212.212,0,0,1-.126-.042,17.1,17.1,0,0,1-2.152-1.888.212.212,0,1,1,.305-.294,16.539,16.539,0,0,0,2.1,1.84.213.213,0,0,1-.127.383Z" transform="translate(-68.114 -328.584)"/>
      </g>
      <g id="Grupo_156157" data-name="Grupo 156157" transform="translate(2.499 19.81)">
        <path id="Trazado_196520" data-name="Trazado 196520" d="M75.545,332.342a.214.214,0,0,1-.145-.057c-2.451-2.284-4.985-4.548-7.529-6.734a.212.212,0,1,1,.276-.321c2.549,2.188,5.087,4.457,7.543,6.745a.212.212,0,0,1-.144.367Z" transform="translate(-67.796 -325.179)"/>
      </g>
      <g id="Grupo_156158" data-name="Grupo 156158" transform="translate(2.811 16.143)">
        <path id="Trazado_196521" data-name="Trazado 196521" d="M80.541,332.984a.212.212,0,0,1-.137-.05L68.128,322.546a.21.21,0,0,1-.026-.3.214.214,0,0,1,.3-.026l12.277,10.388a.211.211,0,0,1,.024.3A.209.209,0,0,1,80.541,332.984Z" transform="translate(-68.052 -322.174)"/>
      </g>
      <g id="Grupo_156159" data-name="Grupo 156159" transform="translate(2.988 12.057)">
        <path id="Trazado_196522" data-name="Trazado 196522" d="M85.181,333.491a.214.214,0,0,1-.142-.054C79.6,328.569,73.964,323.78,68.276,319.2a.212.212,0,1,1,.266-.329c5.693,4.583,11.338,9.378,16.779,14.249a.212.212,0,0,1-.14.37Z" transform="translate(-68.197 -318.825)"/>
      </g>
      <g id="Grupo_156160" data-name="Grupo 156160" transform="translate(2.906 7.639)">
        <path id="Trazado_196523" data-name="Trazado 196523" d="M88.824,332.772a.215.215,0,0,1-.133-.046c-6.913-5.549-13.807-11.32-20.489-17.151a.212.212,0,0,1,.278-.32c6.679,5.828,13.567,11.594,20.476,17.14a.212.212,0,0,1-.132.377Z" transform="translate(-68.13 -315.204)"/>
      </g>
      <g id="Grupo_156161" data-name="Grupo 156161" transform="translate(2.951 3.574)">
        <path id="Trazado_196524" data-name="Trazado 196524" d="M88.666,328.874a.213.213,0,0,1-.134-.048L68.245,312.248a.212.212,0,1,1,.267-.328L88.8,328.5a.212.212,0,0,1-.134.376Z" transform="translate(-68.167 -311.872)"/>
      </g>
      <g id="Grupo_156162" data-name="Grupo 156162" transform="translate(8.266 2.928)">
        <path id="Trazado_196525" data-name="Trazado 196525" d="M87.741,324.242a.213.213,0,0,1-.139-.051c-4.9-4.225-9.949-8.421-15-12.47a.212.212,0,0,1,.266-.331c5.055,4.053,10.106,8.251,15.012,12.48a.212.212,0,0,1-.138.372Z" transform="translate(-72.523 -311.343)"/>
      </g>
      <g id="Grupo_156163" data-name="Grupo 156163" transform="translate(14.453 3.321)">
        <path id="Trazado_196526" data-name="Trazado 196526" d="M86.577,318.889a.2.2,0,0,1-.124-.04c-2.989-2.16-5.944-4.451-8.782-6.809a.211.211,0,1,1,.27-.326c2.831,2.352,5.778,4.638,8.76,6.792a.21.21,0,0,1,.048.3A.208.208,0,0,1,86.577,318.889Z" transform="translate(-77.594 -311.665)"/>
      </g>
      <g id="Grupo_156164" data-name="Grupo 156164" transform="translate(20.116 3.397)">
        <path id="Trazado_196527" data-name="Trazado 196527" d="M85.722,314.708a.212.212,0,0,1-.138-.051c-1.042-.889-2.14-1.746-3.26-2.545a.212.212,0,1,1,.245-.345c1.131.806,2.238,1.671,3.291,2.569a.212.212,0,0,1-.138.372Z" transform="translate(-82.235 -311.727)"/>
      </g>
    </g>
    <g id="Grupo_156166" data-name="Grupo 156166" transform="translate(14.617 38.491)" opacity="0.129">
      <path id="Trazado_196528" data-name="Trazado 196528" d="M90.633,330.8a2.9,2.9,0,0,0-1.468-.194q-1.717-.035-3.431-.106-8.627-.176-17.254-.384c-.664.017-1.431-.1-1.93.433a1.463,1.463,0,0,0,1.026,2.477c5.714.028,11.424.312,17.139.343,1.314.05,2.628.113,3.943.137a5.5,5.5,0,0,0,1.8-.155A1.436,1.436,0,0,0,90.633,330.8Z" transform="translate(-66.132 -330.114)"/>
    </g>
    <g id="Grupo_156169" data-name="Grupo 156169" transform="translate(78.443 38.347)">
      <g id="Grupo_156167" data-name="Grupo 156167" opacity="0.129">
        <path id="Trazado_196529" data-name="Trazado 196529" d="M155.522,330.04c-.8-.229-1.181.5-1.546,1.061-.566.783-1.1,1.593-1.685,2.36l-.038.049a11.342,11.342,0,0,1-.985,1.151,14.109,14.109,0,0,0-1.661,1.6c-.309.343-.637.665-.977.976l-.1.057a1.849,1.849,0,0,0-.185.12c.009-.006-.023.015-.132.089-1.042.687-2.081,1.387-3.175,1.992a23.417,23.417,0,0,1-5.629,1.618,16.989,16.989,0,0,1-6.527-.633,23.65,23.65,0,0,1-4.291-1.443c-.182-.079-.3-.126-.322-.134a27.507,27.507,0,0,1-3.687-1.808c-1.231-.659-1.635-1.376-3.143-2.565-.031-.024-.062-.048-.093-.073l-.017-.013.013.011c-.492-.41-.95-.939-1.614-.95a1.3,1.3,0,0,0-.914,2.2c1.474,1.166,2.53,2.779,4.152,3.771a46.535,46.535,0,0,0,6.181,3.4,26.517,26.517,0,0,0,7.131,1.534,17.34,17.34,0,0,0,5.178-.7,20.06,20.06,0,0,0,6.075-2.59,10.37,10.37,0,0,0,2.616-2.08,26.379,26.379,0,0,0,2.108-2.352,31.247,31.247,0,0,0,3.219-4.168,4.151,4.151,0,0,0,.776-1.368A1.007,1.007,0,0,0,155.522,330.04Z" transform="translate(-118.445 -329.997)"/>
      </g>
      <g id="Grupo_156168" data-name="Grupo 156168" transform="translate(2.9 4.459)" opacity="0.129">
        <path id="Trazado_196530" data-name="Trazado 196530" d="M120.918,333.727c.052.042.1.083.156.12l-.253-.2,0,0Z" transform="translate(-120.822 -333.651)"/>
      </g>
    </g>
  </g>
</svg>
