<svg xmlns="http://www.w3.org/2000/svg" width="112" height="112" viewBox="0 0 112 112">
  <g id="Grupo_166932" data-name="Grupo 166932" transform="translate(6389 9406.179)">
    <circle id="Elipse_5466" data-name="Elipse 5466" cx="56" cy="56" r="56" transform="translate(-6389 -9406.179)" fill="#12263f"/>
    <g id="XsGU4J.tif" transform="translate(-6128.802 -8443.699)">
      <g id="Grupo_166644" data-name="Grupo 166644" transform="translate(-241.858 -943.856)">
        <path id="Trazado_210937" data-name="Trazado 210937" d="M-202.159-943.856a31.324,31.324,0,0,1,3.983,1.079,15.244,15.244,0,0,1,9.83,12.492,15.894,15.894,0,0,1-2.4,10.791c-1.09,1.823-2.257,3.6-3.394,5.405l4.064,1.691-1.453,2.848c-.112.22-.308.439-.315.663a8.008,8.008,0,0,0,.139,1.239,5.612,5.612,0,0,0,.956-.376c.61-.375,1.169-.834,1.783-1.2a3.334,3.334,0,0,1,5.017,1.53c.375.824.641,1.7,1.037,2.768,1.017-1.068,1.952-2,2.832-2.988.924-1.034,1.764-2.144,2.7-3.166a8.179,8.179,0,0,1,1.693-1.43,11.546,11.546,0,0,0,4.944-6.02c.329-.9.77-1.761,1.214-2.76,1.372,2.427,3.342,4.431,3.661,7.233a7.874,7.874,0,0,1-.277,3.057,41.356,41.356,0,0,1-1.945,5.2,9.276,9.276,0,0,1-1.838,2.737,10.861,10.861,0,0,0-3.392,7.967,16.226,16.226,0,0,1-2.381,8.687c-.286.463-.51.965-.808,1.419a6.139,6.139,0,0,0-.46,6.221,8.693,8.693,0,0,1-.662,8.629c-.467.752-.861,1.548-1.335,2.407-.207-.267-.367-.47-.523-.675-1.932-2.541-3.851-5.093-5.8-7.619a3.373,3.373,0,0,0-3.761-1.247c-2.978.715-5.97,1.371-8.961,2.035-.916.2-1.839.4-2.77.506-.771.092-1.07.49-1.238,1.211-.415,1.779-.91,3.539-1.378,5.305a3.75,3.75,0,0,1-.189.449c-2.052-1.218-4.164-2.317-5.65-4.2a18.688,18.688,0,0,0-6.819-5.13c-4.5-2.172-9.019-4.293-13.444-6.6a30.151,30.151,0,0,1-8.783-6.515,13.4,13.4,0,0,1-3.43-7.652,2.69,2.69,0,0,0-.144-.482v-3.123c.078-.656.132-1.316.239-1.967.513-3.1,1.026-6.194,1.569-9.286.5-2.869,1.045-5.732,1.588-8.7l22.321,3.361a1.564,1.564,0,0,0-.055-.294c-.318-.559-.641-1.116-.961-1.673a15.446,15.446,0,0,1-2.087-10.339,15.207,15.207,0,0,1,9.9-12.429,32.207,32.207,0,0,1,3.916-1.053Zm5.876,33.986c-.5-.329-.7-.026-.91.316q-3.062,4.915-6.138,9.822c-.139.223-.286.441-.476.734-.192-.3-.335-.521-.476-.744-2.673-4.224-5.336-8.455-8.039-12.661a2.252,2.252,0,0,0-1.043-.663,4.5,4.5,0,0,0-1.02-.168q-6.562-1-13.125-2c-2.415-.368-4.83-.729-7.209-1.087-.061.069-.088.086-.092.106-.845,5.019-1.794,10.023-2.49,15.063a9.162,9.162,0,0,0,2.131,7.637,22.769,22.769,0,0,0,3.625,3.269,83.392,83.392,0,0,0,13.624,7.355c4.236,1.969,8.645,3.668,11.653,7.553.09-.112.159-.162.179-.227a5.13,5.13,0,0,1,4.269-3.553q5.791-1.263,11.586-2.511a7.679,7.679,0,0,1,6.706,1.162c.579.449,1.117.949,1.757,1.5-.044-.276-.065-.442-.1-.605a7.935,7.935,0,0,1,.092-4.33,23.711,23.711,0,0,1,1.895-4.161,14.541,14.541,0,0,0,2.118-7.459A14.67,14.67,0,0,1-173-906.286c1.056-1,1.143-2.426,1.718-3.735-2.073.992-3.353,2.627-4.725,4.194a35.126,35.126,0,0,1-4.213,4.265c-2.555,2.065-5.436,1.275-6.848-1.694-.219-.461-.386-.948-.578-1.427-2.844,1.823-4.631,2.074-6.512.79C-196.279-905.341-196.779-907.429-196.283-909.87Zm-7.548,2.35c.628-.978,1.155-1.807,1.691-2.63,2.432-3.733,4.894-7.446,7.291-11.2a12.387,12.387,0,0,0,2.1-8.168,11.153,11.153,0,0,0-15.633-8.865,11.03,11.03,0,0,0-5.074,15.667C-210.493-917.578-207.12-912.676-203.831-907.519Z" transform="translate(241.858 943.856)" fill="#fff"/>
        <path id="Trazado_210938" data-name="Trazado 210938" d="M-24.514-883.934a6.716,6.716,0,0,1,6.656,6.679,6.739,6.739,0,0,1-6.724,6.693,6.713,6.713,0,0,1-6.646-6.762A6.7,6.7,0,0,1-24.514-883.934Zm.064,4.463a2.277,2.277,0,0,0-2.32,2.137,2.277,2.277,0,0,0,2.156,2.3,2.276,2.276,0,0,0,2.282-2.1A2.269,2.269,0,0,0-24.45-879.472Z" transform="translate(62.605 892.861)" fill="#fff"/>
      </g>
    </g>
  </g>
</svg>
