<svg xmlns="http://www.w3.org/2000/svg" xmlns:xlink="http://www.w3.org/1999/xlink" width="378.675" height="300.115" viewBox="0 0 378.675 300.115">
  <defs>
    <linearGradient id="linear-gradient" x1="0.5" x2="0.5" y2="1" gradientUnits="objectBoundingBox">
      <stop offset="0" stop-color="#116eb9"/>
      <stop offset="1" stop-color="#1894f6"/>
    </linearGradient>
    <filter id="Rectángulo_45445" x="272.533" y="0" width="101.198" height="300.115" filterUnits="userSpaceOnUse">
      <feOffset dy="3" input="SourceAlpha"/>
      <feGaussianBlur stdDeviation="3" result="blur"/>
      <feFlood flood-opacity="0.161"/>
      <feComposite operator="in" in2="blur"/>
      <feComposite in="SourceGraphic"/>
    </filter>
  </defs>
  <g id="Grupo_166939" data-name="Grupo 166939" transform="translate(-931.325 -1667.555)">
    <g id="Grupo_166816" data-name="Grupo 166816" transform="translate(18 -3567.388)">
      <g transform="matrix(1, 0, 0, 1, 913.33, 5234.94)" filter="url(#Rectángulo_45445)">
        <rect id="Rectángulo_45445-2" data-name="Rectángulo 45445" width="83.198" height="282.115" rx="18" transform="translate(281.53 6)" fill="url(#linear-gradient)"/>
      </g>
      <g id="Grupo_152850" data-name="Grupo 152850" transform="translate(927.27 5497.985)">
        <path id="Trazado_84118" data-name="Trazado 84118" d="M1092.089,1977.878H735.259a3.961,3.961,0,0,0-3.95,3.95h0a3.962,3.962,0,0,0,3.95,3.95h356.83a3.962,3.962,0,0,0,3.95-3.95h0A3.961,3.961,0,0,0,1092.089,1977.878Z" transform="translate(-731.309 -1977.878)" fill="#12263f"/>
      </g>
      <ellipse id="Elipse_5712" data-name="Elipse 5712" cx="122.215" cy="124.594" rx="122.215" ry="124.594" transform="translate(1030.766 5240.942)" fill="#f8fbfd"/>
      <ellipse id="Elipse_5713" data-name="Elipse 5713" cx="111.263" cy="111.263" rx="111.263" ry="111.263" transform="translate(920.104 5273.201)" fill="#f8fbfd"/>
      <g id="Grupo_85644" data-name="Grupo 85644" transform="translate(567.266 2249.922)">
        <g id="freepik--background-complete--inject-3" transform="translate(370.961 3022.421)">
          <path id="Trazado_105054" data-name="Trazado 105054" d="M395.751,3362.9v24.88H391.6v2.7h4.152v16.659h77.666V3391.98h-5.772v-3.3H473.4v-4.942h2.554v-2.252h-3.037V3362.9Z" transform="translate(-391.489 -3175.904)" fill="#f5f5f5"/>
          <path id="Trazado_105055" data-name="Trazado 105055" d="M503.02,3362.971v43.889h20.623v-15.153h-5.756v-3.026l5.756.1v-4.955l2.6.006-.049-2.56-3.037-.071V3362.9Z" transform="translate(-441.715 -3175.905)" fill="#ebebeb"/>
          <path id="Trazado_105056" data-name="Trazado 105056" d="M454.17,3412.243c0,.155-14.055.275-31.383.275s-31.388-.12-31.388-.275,14.049-.275,31.388-.275S454.17,3412.089,454.17,3412.243Z" transform="translate(-391.399 -3198.023)" fill="#e0e0e0"/>
          <path id="Trazado_105057" data-name="Trazado 105057" d="M454.17,3407.643c0,.154-14.055.274-31.383.274s-31.388-.12-31.388-.274,14.049-.275,31.388-.275S454.17,3407.49,454.17,3407.643Z" transform="translate(-391.399 -3195.95)" fill="#e0e0e0"/>
          <path id="Trazado_105058" data-name="Trazado 105058" d="M461.54,3395.254c0,.153-14.055.28-31.383.28s-31.388-.126-31.388-.28,14.049-.275,31.388-.275S461.54,3395.1,461.54,3395.254Z" transform="translate(-394.721 -3190.365)" fill="#e0e0e0"/>
          <path id="Trazado_105059" data-name="Trazado 105059" d="M462.22,3429.009c0,.149-14.055.274-31.388.274s-31.383-.125-31.383-.274,14.049-.28,31.383-.28S462.22,3428.855,462.22,3429.009Z" transform="translate(-395.028 -3205.579)" fill="#e0e0e0"/>
          <path id="Trazado_105060" data-name="Trazado 105060" d="M683.981,3044.5a23.06,23.06,0,0,1,5.619-2.444l1.159-5.564,9.4-.164,1.351,5.492a22.909,22.909,0,0,1,5.7,2.241l4.74-3.086,6.761,6.53-2.916,4.855a22.923,22.923,0,0,1,2.444,5.625l5.564,1.153.165,9.4-5.52,1.357a22.967,22.967,0,0,1-2.24,5.7l3.109,4.75-6.542,6.761-4.855-2.944a23.078,23.078,0,0,1-5.624,2.438l-1.153,5.564-9.4.165-1.357-5.52a22.926,22.926,0,0,1-5.7-2.242l-4.751,3.115-6.761-6.53,2.944-4.855a23,23,0,0,1-2.439-5.619l-5.564-1.158-.165-9.4,5.52-1.351a22.91,22.91,0,0,1,2.23-5.7l-3.114-4.751,6.53-6.761,4.855,2.944Zm5.009,12.517a10.094,10.094,0,1,0,.021-.022Z" transform="translate(-516.062 -3028.695)" fill="#ebebeb"/>
          <path id="Trazado_105061" data-name="Trazado 105061" d="M784.456,3027.2a13.6,13.6,0,0,1,3.3-1.427l.676-3.246,5.492-.094.763,3.224a13.7,13.7,0,0,1,3.328,1.307l2.746-1.812,3.987,3.8-1.714,2.834a13.494,13.494,0,0,1,1.423,3.295l3.245.676.093,5.492-3.218.791a13.3,13.3,0,0,1-1.307,3.3l1.818,2.746-3.812,3.943-2.834-1.719a13.3,13.3,0,0,1-3.3,1.428l-.676,3.24-5.492.1-.785-3.218a13.58,13.58,0,0,1-3.328-1.307l-2.746,1.813-3.949-3.806,1.719-2.834a13.308,13.308,0,0,1-1.422-3.3l-3.246-.675-.1-5.492,3.2-.715a13.377,13.377,0,0,1,1.313-3.295l-1.818-2.746,3.805-3.943,2.834,1.719Zm2.922,7.3a5.882,5.882,0,1,0,8.321-.143,5.882,5.882,0,0,0-8.321.143Z" transform="translate(-564.372 -3022.428)" fill="#ebebeb"/>
          <path id="Trazado_105062" data-name="Trazado 105062" d="M931.3,3179.138a17.966,17.966,0,0,1,4.366-1.9l.9-4.317,7.3-.132,1.055,4.289a17.846,17.846,0,0,1,4.427,1.741l3.685-2.417,5.256,5.07-2.29,3.768a18.043,18.043,0,0,1,1.9,4.393l4.317.9.137,7.25-4.284,1.049a17.629,17.629,0,0,1-1.758,4.444l2.417,3.69-5.069,5.25-3.773-2.285a17.7,17.7,0,0,1-4.361,1.9l-.9,4.322-7.3.126-1.049-4.284a18.034,18.034,0,0,1-4.427-1.741l-3.691,2.416L922.9,3207.6l2.285-3.773a17.722,17.722,0,0,1-1.9-4.367l-4.334-.889-.126-7.3,4.284-1.054a18.241,18.241,0,0,1,1.741-4.427l-2.417-3.685,5.069-5.257,3.773,2.291Zm3.888,9.721a7.832,7.832,0,1,0,11.078-.192,7.832,7.832,0,0,0-11.078.192Z" transform="translate(-629.152 -3090.207)" fill="#ebebeb"/>
        </g>
        <g id="freepik--Table--inject-3" transform="translate(346.059 3253.941)">
          <path id="Trazado_105063" data-name="Trazado 105063" d="M704.152,3444.111c0,.077-80.187.144-179.047.144s-179.047-.066-179.047-.144,80.186-.142,179.047-.142S704.152,3444.029,704.152,3444.111Z" transform="translate(-346.059 -3443.969)" fill="#5e6178"/>
        </g>
        <g id="freepik--Artboard--inject-3" transform="translate(376.915 3017.66)">
          <rect id="Rectángulo_8020" data-name="Rectángulo 8020" width="196.303" height="153.607" fill="#fff"/>
          <rect id="Rectángulo_8021" data-name="Rectángulo 8021" width="197.039" height="12.775" transform="translate(0.038)" fill="#5e6178"/>
          <rect id="Rectángulo_8022" data-name="Rectángulo 8022" width="10.962" height="140.832" transform="translate(0.038 12.775)" fill="#344154"/>
          <rect id="Rectángulo_8023" data-name="Rectángulo 8023" width="197.039" height="8.464" transform="translate(0.038 12.775)" fill="#344154"/>
          <path id="Trazado_105064" data-name="Trazado 105064" d="M409.406,3025.7a.266.266,0,0,1-.192-.077.274.274,0,0,1,0-.388h0l6.256-6.36a.269.269,0,0,1,.381,0l0,0a.275.275,0,0,1,0,.388l0,0-6.25,6.354A.277.277,0,0,1,409.406,3025.7Z" transform="translate(-405.347 -3016.028)" fill="#fff"/>
          <path id="Trazado_105065" data-name="Trazado 105065" d="M415.674,3025.7a.257.257,0,0,1-.192-.082l-6.36-6.262a.276.276,0,0,1,.384-.395l6.36,6.255a.275.275,0,0,1,0,.388l0,0A.258.258,0,0,1,415.674,3025.7Z" transform="translate(-405.304 -3016.07)" fill="#fff"/>
          <path id="Trazado_105066" data-name="Trazado 105066" d="M600.59,3052.311c0,.077-43.262.143-96.619.143s-96.63-.066-96.63-.143,43.257-.143,96.63-.143S600.59,3052.24,600.59,3052.311Z" transform="translate(-404.539 -3031.073)" fill="#5e6178"/>
          <path id="Trazado_105067" data-name="Trazado 105067" d="M422.153,3178.627c-.077,0-.143-31.07-.143-69.39s.066-69.388.143-69.388.143,31.058.143,69.388S422.23,3178.627,422.153,3178.627Z" transform="translate(-411.152 -3025.52)" fill="#5e6178"/>
          <path id="Trazado_105068" data-name="Trazado 105068" d="M442.637,3046.615a40.159,40.159,0,0,1,0-6.766,40.142,40.142,0,0,1,0,6.766Z" transform="translate(-420.377 -3025.52)" fill="#5e6178"/>
          <path id="Trazado_105069" data-name="Trazado 105069" d="M463.119,3046.615a40.15,40.15,0,0,1,0-6.766,40.185,40.185,0,0,1,0,6.766Z" transform="translate(-429.611 -3025.52)" fill="#5e6178"/>
          <path id="Trazado_105070" data-name="Trazado 105070" d="M483.607,3046.615a40.142,40.142,0,0,1,0-6.766,40.15,40.15,0,0,1,0,6.766Z" transform="translate(-438.846 -3025.52)" fill="#5e6178"/>
          <path id="Trazado_105071" data-name="Trazado 105071" d="M504.089,3046.615a40.159,40.159,0,0,1,0-6.766,40.159,40.159,0,0,1,0,6.766Z" transform="translate(-448.079 -3025.52)" fill="#5e6178"/>
          <path id="Trazado_105072" data-name="Trazado 105072" d="M524.577,3046.615a40.125,40.125,0,0,1,0-6.766,40.176,40.176,0,0,1,0,6.766Z" transform="translate(-457.314 -3025.52)" fill="#5e6178"/>
          <path id="Trazado_105073" data-name="Trazado 105073" d="M545.059,3046.615a40.159,40.159,0,0,1,0-6.766,40.125,40.125,0,0,1,0,6.766Z" transform="translate(-466.548 -3025.52)" fill="#5e6178"/>
          <path id="Trazado_105074" data-name="Trazado 105074" d="M565.547,3046.615a40.142,40.142,0,0,1,0-6.766,40.125,40.125,0,0,1,0,6.766Z" transform="translate(-475.782 -3025.52)" fill="#5e6178"/>
          <path id="Trazado_105075" data-name="Trazado 105075" d="M586.029,3046.615a40.159,40.159,0,0,1,0-6.766,40.125,40.125,0,0,1,0,6.766Z" transform="translate(-485.016 -3025.52)" fill="#5e6178"/>
          <path id="Trazado_105076" data-name="Trazado 105076" d="M606.517,3046.615a40.142,40.142,0,0,1,0-6.766,40.142,40.142,0,0,1,0,6.766Z" transform="translate(-494.251 -3025.52)" fill="#5e6178"/>
          <path id="Trazado_105077" data-name="Trazado 105077" d="M627,3046.615a40.159,40.159,0,0,1,0-6.766,40.176,40.176,0,0,1,0,6.766Z" transform="translate(-503.484 -3025.52)" fill="#5e6178"/>
          <path id="Trazado_105078" data-name="Trazado 105078" d="M647.487,3046.615a40.176,40.176,0,0,1,0-6.766,40.125,40.125,0,0,1,0,6.766Z" transform="translate(-512.719 -3025.52)" fill="#5e6178"/>
          <path id="Trazado_105079" data-name="Trazado 105079" d="M667.969,3046.615a40.108,40.108,0,0,1,0-6.766,40.176,40.176,0,0,1,0,6.766Z" transform="translate(-521.953 -3025.52)" fill="#5e6178"/>
          <path id="Trazado_105080" data-name="Trazado 105080" d="M688.453,3046.615a38.6,38.6,0,0,1,0-6.766,40.21,40.21,0,0,1,0,6.766Z" transform="translate(-531.183 -3025.52)" fill="#5e6178"/>
          <path id="Trazado_105081" data-name="Trazado 105081" d="M708.939,3046.615a40.21,40.21,0,0,1,0-6.766,40.091,40.091,0,0,1,0,6.766Z" transform="translate(-540.421 -3025.52)" fill="#5e6178"/>
          <path id="Trazado_105082" data-name="Trazado 105082" d="M729.419,3046.615a40.142,40.142,0,0,1,0-6.766,38.66,38.66,0,0,1,0,6.766Z" transform="translate(-549.653 -3025.52)" fill="#5e6178"/>
          <path id="Trazado_105083" data-name="Trazado 105083" d="M749.909,3046.615a40.176,40.176,0,0,1,0-6.766,40.108,40.108,0,0,1,0,6.766Z" transform="translate(-558.889 -3025.52)" fill="#5e6178"/>
          <path id="Trazado_105084" data-name="Trazado 105084" d="M415.54,3069.727a59.12,59.12,0,0,1-8.2,0,59.12,59.12,0,0,1,8.2,0Z" transform="translate(-404.539 -3038.917)" fill="#5e6178"/>
          <path id="Trazado_105085" data-name="Trazado 105085" d="M415.54,3088.607a58.918,58.918,0,0,1-8.2,0,59.12,59.12,0,0,1,8.2,0Z" transform="translate(-404.539 -3047.427)" fill="#5e6178"/>
          <path id="Trazado_105086" data-name="Trazado 105086" d="M415.54,3107.488a59.12,59.12,0,0,1-8.2,0,58.718,58.718,0,0,1,8.2,0Z" transform="translate(-404.539 -3055.938)" fill="#5e6178"/>
          <path id="Trazado_105087" data-name="Trazado 105087" d="M415.54,3126.366a58.818,58.818,0,0,1-8.2,0,59.221,59.221,0,0,1,8.2,0Z" transform="translate(-404.539 -3064.447)" fill="#5e6178"/>
          <path id="Trazado_105088" data-name="Trazado 105088" d="M415.54,3145.237a58.618,58.618,0,0,1-8.2,0,58.918,58.918,0,0,1,8.2,0Z" transform="translate(-404.539 -3072.954)" fill="#5e6178"/>
          <path id="Trazado_105089" data-name="Trazado 105089" d="M415.54,3164.167a59.12,59.12,0,0,1-8.2,0,59.019,59.019,0,0,1,8.2,0Z" transform="translate(-404.539 -3081.488)" fill="#5e6178"/>
          <path id="Trazado_105090" data-name="Trazado 105090" d="M415.54,3183a58.618,58.618,0,0,1-8.2,0,59.019,59.019,0,0,1,8.2,0Z" transform="translate(-404.539 -3089.975)" fill="#5e6178"/>
          <path id="Trazado_105091" data-name="Trazado 105091" d="M415.54,3201.876a59.019,59.019,0,0,1-8.2,0,58.718,58.718,0,0,1,8.2,0Z" transform="translate(-404.539 -3098.485)" fill="#5e6178"/>
          <path id="Trazado_105092" data-name="Trazado 105092" d="M415.54,3220.748a59.323,59.323,0,0,1-8.2,0,58.718,58.718,0,0,1,8.2,0Z" transform="translate(-404.539 -3106.992)" fill="#5e6178"/>
          <path id="Trazado_105093" data-name="Trazado 105093" d="M415.54,3239.627a58.618,58.618,0,0,1-8.2,0,59.12,59.12,0,0,1,8.2,0Z" transform="translate(-404.539 -3115.503)" fill="#5e6178"/>
          <path id="Trazado_105094" data-name="Trazado 105094" d="M415.54,3258.506a59.019,59.019,0,0,1-8.2,0,58.618,58.618,0,0,1,8.2,0Z" transform="translate(-404.539 -3124.013)" fill="#5e6178"/>
          <path id="Trazado_105095" data-name="Trazado 105095" d="M415.54,3277.394a56.975,56.975,0,0,1-8.2,0,73.148,73.148,0,0,1,8.2,0Z" transform="translate(-404.539 -3132.536)" fill="#5e6178"/>
          <path id="Trazado_105096" data-name="Trazado 105096" d="M608.043,3273.311c0,.077-37.44.143-83.614.143s-83.619-.066-83.619-.143,37.43-.143,83.619-.143S608.043,3273.239,608.043,3273.311Z" transform="translate(-419.626 -3130.694)" fill="#5e6178"/>
          <g id="Grupo_56867" data-name="Grupo 56867" transform="translate(10.837 21.949)">
            <g id="Grupo_56712" data-name="Grupo 56712">
              <g id="Grupo_56708" data-name="Grupo 56708" transform="translate(0.174 0.173)">
                <g id="Grupo_56707" data-name="Grupo 56707">
                  <rect id="Rectángulo_8024" data-name="Rectángulo 8024" width="178.042" height="116.781" fill="#fafafa"/>
                </g>
              </g>
              <g id="Grupo_56711" data-name="Grupo 56711">
                <g id="Grupo_56710" data-name="Grupo 56710">
                  <g id="Grupo_56709" data-name="Grupo 56709">
                    <path id="Trazado_105097" data-name="Trazado 105097" d="M600.187,3170.678c0-1.126-.054-45.556-.138-116.781l.138.137-178.028.035h-.014l.173-.173c0,41.531-.01,81.052-.014,116.779l-.159-.159,178.042.16-178.042.158h-.159v-.16c0-35.727-.009-75.249-.014-116.779v-.174h.188l178.028.035h.138v.139C600.241,3125.123,600.188,3169.555,600.187,3170.678Z" transform="translate(-421.971 -3053.724)" fill="#344154"/>
                  </g>
                </g>
              </g>
            </g>
            <g id="Grupo_56737" data-name="Grupo 56737" transform="translate(13.398 44.946)">
              <g id="Grupo_56724" data-name="Grupo 56724" transform="translate(41.085 19.717)">
                <g id="Grupo_56714" data-name="Grupo 56714">
                  <g id="Grupo_56713" data-name="Grupo 56713">
                    <path id="Trazado_105098" data-name="Trazado 105098" d="M521.274,3171.458l17.512.241a17.435,17.435,0,0,1-17.512,16.939h-.1Z" transform="translate(-521.171 -3171.458)" fill="#5e6178"/>
                  </g>
                </g>
                <g id="Grupo_56717" data-name="Grupo 56717" transform="translate(6.171 10.372)">
                  <g id="Grupo_56716" data-name="Grupo 56716">
                    <g id="Grupo_56715" data-name="Grupo 56715">
                      <path id="Trazado_105099" data-name="Trazado 105099" d="M555.295,3203.682a1.684,1.684,0,0,1-.375.031l-1.07.028-3.913.045h-.049l-.032-.04-5.777-7.279-4.657-5.938.09.043c-2.109-.019-3.874-.035-5.154-.048l-1.441-.031a3,3,0,0,1-.51-.035,2.736,2.736,0,0,1,.51-.037l1.441-.031,5.154-.049h.055l.035.044c1.361,1.719,2.968,3.745,4.687,5.915l5.729,7.316-.081-.04,3.913.046,1.07.028A1.913,1.913,0,0,1,555.295,3203.682Z" transform="translate(-532.407 -3190.343)" fill="#344154"/>
                    </g>
                  </g>
                </g>
                <g id="Grupo_56720" data-name="Grupo 56720" transform="translate(24.009 25.596)">
                  <g id="Grupo_56719" data-name="Grupo 56719">
                    <g id="Grupo_56718" data-name="Grupo 56718">
                      <path id="Trazado_105100" data-name="Trazado 105100" d="M576.217,3218.2c0,.074-2.537.134-5.665.134s-5.666-.06-5.666-.134,2.536-.134,5.666-.134S576.217,3218.122,576.217,3218.2Z" transform="translate(-564.885 -3218.063)" fill="#344154"/>
                    </g>
                  </g>
                </g>
                <g id="Grupo_56723" data-name="Grupo 56723" transform="translate(24.009 27.694)">
                  <g id="Grupo_56722" data-name="Grupo 56722">
                    <g id="Grupo_56721" data-name="Grupo 56721">
                      <path id="Trazado_105101" data-name="Trazado 105101" d="M576.217,3222.017c0,.074-2.537.134-5.665.134s-5.666-.06-5.666-.134,2.536-.134,5.666-.134S576.217,3221.944,576.217,3222.017Z" transform="translate(-564.885 -3221.883)" fill="#344154"/>
                    </g>
                  </g>
                </g>
              </g>
              <g id="Grupo_56736" data-name="Grupo 56736">
                <g id="Grupo_56726" data-name="Grupo 56726" transform="translate(20.904 0.044)">
                  <g id="Grupo_56725" data-name="Grupo 56725">
                    <path id="Trazado_105102" data-name="Trazado 105102" d="M501.941,3152.82,501.695,3170a17.185,17.185,0,1,1,17.76-17.178Z" transform="translate(-484.427 -3135.64)" fill="url(#linear-gradient)"/>
                  </g>
                </g>
                <g id="Grupo_56729" data-name="Grupo 56729" transform="translate(15.767 0.89)">
                  <g id="Grupo_56728" data-name="Grupo 56728">
                    <g id="Grupo_56727" data-name="Grupo 56727">
                      <path id="Trazado_105103" data-name="Trazado 105103" d="M490.887,3147.9a1.132,1.132,0,0,1-.3.071l-.871.139-3.146.442-.052.007-.039-.038-4.2-4.083c-2.016-1.978-3.83-3.777-5.133-5.09l-1.534-1.564a4.7,4.7,0,0,1-.537-.6,4.546,4.546,0,0,1,.61.525l1.594,1.5c1.338,1.278,3.173,3.057,5.189,5.035l4.162,4.117-.091-.031c1.279-.14,2.351-.259,3.158-.348l.879-.079A1.113,1.113,0,0,1,490.887,3147.9Z" transform="translate(-475.074 -3137.179)" fill="#344154"/>
                    </g>
                  </g>
                </g>
                <g id="Grupo_56732" data-name="Grupo 56732">
                  <g id="Grupo_56731" data-name="Grupo 56731">
                    <g id="Grupo_56730" data-name="Grupo 56730">
                      <path id="Trazado_105104" data-name="Trazado 105104" d="M457.7,3135.693c0,.074-2.537.135-5.666.135s-5.666-.06-5.666-.135,2.536-.133,5.666-.133S457.7,3135.619,457.7,3135.693Z" transform="translate(-446.366 -3135.56)" fill="#344154"/>
                    </g>
                  </g>
                </g>
                <g id="Grupo_56735" data-name="Grupo 56735" transform="translate(0 2.098)">
                  <g id="Grupo_56734" data-name="Grupo 56734">
                    <g id="Grupo_56733" data-name="Grupo 56733">
                      <path id="Trazado_105105" data-name="Trazado 105105" d="M457.7,3139.513c0,.074-2.537.134-5.666.134s-5.666-.06-5.666-.134,2.536-.134,5.666-.134S457.7,3139.439,457.7,3139.513Z" transform="translate(-446.366 -3139.379)" fill="#344154"/>
                    </g>
                  </g>
                </g>
              </g>
            </g>
            <g id="Grupo_56765" data-name="Grupo 56765" transform="translate(99.879 17.556)">
              <g id="Grupo_56749" data-name="Grupo 56749">
                <g id="Grupo_56746" data-name="Grupo 56746">
                  <g id="Grupo_56739" data-name="Grupo 56739">
                    <g id="Grupo_56738" data-name="Grupo 56738">
                      <path id="Trazado_105106" data-name="Trazado 105106" d="M617.03,3096.364l-.07-10.675a13.623,13.623,0,0,0-8.807,3.434,12.626,12.626,0,0,0-4.244,11.057,15.114,15.114,0,0,0,.249,1.551c0,.013,0,.025.007.037h0l12.863-2.895Z" transform="translate(-603.827 -3085.688)" fill="#ffde96"/>
                    </g>
                  </g>
                  <g id="Grupo_56743" data-name="Grupo 56743" transform="translate(14.568 0.041)">
                    <g id="Grupo_56742" data-name="Grupo 56742">
                      <path id="Trazado_105108" data-name="Trazado 105108" d="M642.244,3093.111a12.663,12.663,0,0,0-10.381-7.269q-.2-.02-.408-.035c-.087-.006-.172-.015-.259-.02q-.382-.021-.775-.022h-.037l-.032,0v0h0l.07,10.675.017,2.509,12.866,2.807.016,0h0a12.719,12.719,0,0,0,.286-2.768A13.848,13.848,0,0,0,642.244,3093.111Z" transform="translate(-630.351 -3085.763)" fill="#acfcff"/>
                    </g>
                  </g>
                </g>
                <g id="Grupo_56748" data-name="Grupo 56748" transform="translate(1.03 14.516)">
                  <g id="Grupo_56747" data-name="Grupo 56747">
                    <path id="Trazado_105110" data-name="Trazado 105110" d="M618.565,3112.119l-12.863,2.895a13.185,13.185,0,0,0,25.746-.087l-12.867-2.807" transform="translate(-605.702 -3112.119)" fill="#12263f"/>
                  </g>
                </g>
              </g>
              <g id="Grupo_56752" data-name="Grupo 56752" transform="translate(34.256 12.421)">
                <g id="Grupo_56751" data-name="Grupo 56751">
                  <g id="Grupo_56750" data-name="Grupo 56750">
                    <path id="Trazado_105111" data-name="Trazado 105111" d="M695.905,3108.478c0,.1-6.65.174-14.852.174s-14.854-.078-14.854-.174,6.65-.173,14.854-.173S695.905,3108.382,695.905,3108.478Z" transform="translate(-666.199 -3108.305)" fill="#344154"/>
                  </g>
                </g>
              </g>
              <g id="Grupo_56755" data-name="Grupo 56755" transform="translate(34.256 9.035)">
                <g id="Grupo_56754" data-name="Grupo 56754">
                  <g id="Grupo_56753" data-name="Grupo 56753">
                    <path id="Trazado_105112" data-name="Trazado 105112" d="M695.905,3102.313c0,.1-6.65.174-14.852.174s-14.854-.079-14.854-.174,6.65-.173,14.854-.173S695.905,3102.217,695.905,3102.313Z" transform="translate(-666.199 -3102.14)" fill="#344154"/>
                  </g>
                </g>
              </g>
              <g id="Grupo_56758" data-name="Grupo 56758" transform="translate(34.256 5.649)">
                <g id="Grupo_56757" data-name="Grupo 56757">
                  <g id="Grupo_56756" data-name="Grupo 56756">
                    <path id="Trazado_105113" data-name="Trazado 105113" d="M695.905,3096.148c0,.1-6.65.173-14.852.173s-14.854-.077-14.854-.173,6.65-.174,14.854-.174S695.905,3096.052,695.905,3096.148Z" transform="translate(-666.199 -3095.974)" fill="#344154"/>
                  </g>
                </g>
              </g>
              <g id="Grupo_56761" data-name="Grupo 56761" transform="translate(34.256 15.572)">
                <g id="Grupo_56760" data-name="Grupo 56760">
                  <g id="Grupo_56759" data-name="Grupo 56759">
                    <path id="Trazado_105114" data-name="Trazado 105114" d="M695.905,3114.214c0,.1-6.65.172-14.852.172s-14.854-.077-14.854-.172,6.65-.173,14.854-.173S695.905,3114.118,695.905,3114.214Z" transform="translate(-666.199 -3114.041)" fill="#344154"/>
                  </g>
                </g>
              </g>
              <g id="Grupo_56764" data-name="Grupo 56764" transform="translate(34.361 19)">
                <g id="Grupo_56763" data-name="Grupo 56763">
                  <g id="Grupo_56762" data-name="Grupo 56762">
                    <path id="Trazado_105115" data-name="Trazado 105115" d="M686.793,3120.457c0,.1-4.568.174-10.2.174s-10.2-.078-10.2-.174,4.567-.173,10.2-.173S686.793,3120.361,686.793,3120.457Z" transform="translate(-666.39 -3120.284)" fill="#344154"/>
                  </g>
                </g>
              </g>
            </g>
            <g id="Grupo_56858" data-name="Grupo 56858" transform="translate(101.534 61.24)">
              <g id="Grupo_56768" data-name="Grupo 56768" transform="translate(1.449)">
                <g id="Grupo_56767" data-name="Grupo 56767">
                  <g id="Grupo_56766" data-name="Grupo 56766">
                    <rect id="Rectángulo_8025" data-name="Rectángulo 8025" width="3.06" height="34.172" fill="#b8c448"/>
                  </g>
                </g>
              </g>
              <g id="Grupo_56771" data-name="Grupo 56771" transform="translate(7.356 11.606)">
                <g id="Grupo_56770" data-name="Grupo 56770">
                  <g id="Grupo_56769" data-name="Grupo 56769">
                    <rect id="Rectángulo_8026" data-name="Rectángulo 8026" width="3.06" height="22.566" fill="#5e6178"/>
                  </g>
                </g>
              </g>
              <g id="Grupo_56774" data-name="Grupo 56774" transform="translate(13.263 4.247)">
                <g id="Grupo_56773" data-name="Grupo 56773">
                  <g id="Grupo_56772" data-name="Grupo 56772">
                    <rect id="Rectángulo_8027" data-name="Rectángulo 8027" width="3.06" height="30.098" fill="#b8c448"/>
                  </g>
                </g>
              </g>
              <g id="Grupo_56777" data-name="Grupo 56777" transform="translate(19.17 1.32)">
                <g id="Grupo_56776" data-name="Grupo 56776">
                  <g id="Grupo_56775" data-name="Grupo 56775">
                    <rect id="Rectángulo_8028" data-name="Rectángulo 8028" width="3.06" height="32.852" fill="#5e6178"/>
                  </g>
                </g>
              </g>
              <g id="Grupo_56780" data-name="Grupo 56780" transform="translate(25.078 12.301)">
                <g id="Grupo_56779" data-name="Grupo 56779">
                  <g id="Grupo_56778" data-name="Grupo 56778">
                    <rect id="Rectángulo_8029" data-name="Rectángulo 8029" width="3.06" height="21.871" fill="#b8c448"/>
                  </g>
                </g>
              </g>
              <g id="Grupo_56783" data-name="Grupo 56783" transform="translate(30.985 16.59)">
                <g id="Grupo_56782" data-name="Grupo 56782">
                  <g id="Grupo_56781" data-name="Grupo 56781">
                    <rect id="Rectángulo_8030" data-name="Rectángulo 8030" width="3.06" height="17.582" fill="#5e6178"/>
                  </g>
                </g>
              </g>
              <g id="Grupo_56786" data-name="Grupo 56786" transform="translate(36.892 3.507)">
                <g id="Grupo_56785" data-name="Grupo 56785">
                  <g id="Grupo_56784" data-name="Grupo 56784">
                    <rect id="Rectángulo_8031" data-name="Rectángulo 8031" width="3.06" height="30.664" fill="#b8c448"/>
                  </g>
                </g>
              </g>
              <g id="Grupo_56789" data-name="Grupo 56789" transform="translate(42.799 9.036)">
                <g id="Grupo_56788" data-name="Grupo 56788">
                  <g id="Grupo_56787" data-name="Grupo 56787">
                    <rect id="Rectángulo_8032" data-name="Rectángulo 8032" width="3.06" height="25.136" fill="#5e6178"/>
                  </g>
                </g>
              </g>
              <g id="Grupo_56792" data-name="Grupo 56792" transform="translate(48.706 4.618)">
                <g id="Grupo_56791" data-name="Grupo 56791">
                  <g id="Grupo_56790" data-name="Grupo 56790">
                    <rect id="Rectángulo_8033" data-name="Rectángulo 8033" width="3.06" height="29.554" fill="#b8c448"/>
                  </g>
                </g>
              </g>
              <g id="Grupo_56795" data-name="Grupo 56795" transform="translate(54.614 14.037)">
                <g id="Grupo_56794" data-name="Grupo 56794">
                  <g id="Grupo_56793" data-name="Grupo 56793">
                    <rect id="Rectángulo_8034" data-name="Rectángulo 8034" width="3.06" height="20.134" fill="#5e6178"/>
                  </g>
                </g>
              </g>
              <g id="Grupo_56798" data-name="Grupo 56798" transform="translate(60.521 10.206)">
                <g id="Grupo_56797" data-name="Grupo 56797">
                  <g id="Grupo_56796" data-name="Grupo 56796">
                    <rect id="Rectángulo_8035" data-name="Rectángulo 8035" width="3.06" height="23.966" fill="#b8c448"/>
                  </g>
                </g>
              </g>
              <g id="Grupo_56802" data-name="Grupo 56802" transform="translate(0 36.426)">
                <g id="Grupo_56801" data-name="Grupo 56801">
                  <g id="Grupo_56800" data-name="Grupo 56800">
                    <g id="Grupo_56799" data-name="Grupo 56799">
                      <path id="Trazado_105116" data-name="Trazado 105116" d="M671.669,3231.674c0,.07-14.514.126-32.414.126s-32.416-.056-32.416-.126,14.511-.125,32.416-.125S671.669,3231.605,671.669,3231.674Z" transform="translate(-606.839 -3231.549)" fill="#344154"/>
                    </g>
                  </g>
                </g>
              </g>
              <g id="Grupo_56806" data-name="Grupo 56806" transform="translate(1.272 39.116)">
                <g id="Grupo_56805" data-name="Grupo 56805">
                  <g id="Grupo_56804" data-name="Grupo 56804">
                    <g id="Grupo_56803" data-name="Grupo 56803">
                      <path id="Trazado_105117" data-name="Trazado 105117" d="M613.7,3236.573a20.73,20.73,0,0,1-4.542,0,20.531,20.531,0,0,1,4.542,0Z" transform="translate(-609.155 -3236.447)" fill="#344154"/>
                    </g>
                  </g>
                </g>
              </g>
              <g id="Grupo_56810" data-name="Grupo 56810" transform="translate(7.918 39.253)">
                <g id="Grupo_56809" data-name="Grupo 56809">
                  <g id="Grupo_56808" data-name="Grupo 56808">
                    <g id="Grupo_56807" data-name="Grupo 56807">
                      <path id="Trazado_105118" data-name="Trazado 105118" d="M626.683,3236.822a29.123,29.123,0,1,1-2.714-.127A14.769,14.769,0,0,1,626.683,3236.822Z" transform="translate(-621.256 -3236.695)" fill="#344154"/>
                    </g>
                  </g>
                </g>
              </g>
              <g id="Grupo_56814" data-name="Grupo 56814" transform="translate(14.342 39.253)">
                <g id="Grupo_56813" data-name="Grupo 56813">
                  <g id="Grupo_56812" data-name="Grupo 56812">
                    <g id="Grupo_56811" data-name="Grupo 56811">
                      <path id="Trazado_105119" data-name="Trazado 105119" d="M638.381,3236.822a29.124,29.124,0,1,1-2.714-.127A14.766,14.766,0,0,1,638.381,3236.822Z" transform="translate(-632.953 -3236.695)" fill="#344154"/>
                    </g>
                  </g>
                </g>
              </g>
              <g id="Grupo_56818" data-name="Grupo 56818" transform="translate(20.767 39.253)">
                <g id="Grupo_56817" data-name="Grupo 56817">
                  <g id="Grupo_56816" data-name="Grupo 56816">
                    <g id="Grupo_56815" data-name="Grupo 56815">
                      <path id="Trazado_105120" data-name="Trazado 105120" d="M650.077,3236.822a29.122,29.122,0,1,1-2.714-.127A14.763,14.763,0,0,1,650.077,3236.822Z" transform="translate(-644.65 -3236.695)" fill="#344154"/>
                    </g>
                  </g>
                </g>
              </g>
              <g id="Grupo_56822" data-name="Grupo 56822" transform="translate(27.191 39.253)">
                <g id="Grupo_56821" data-name="Grupo 56821">
                  <g id="Grupo_56820" data-name="Grupo 56820">
                    <g id="Grupo_56819" data-name="Grupo 56819">
                      <path id="Trazado_105121" data-name="Trazado 105121" d="M661.775,3236.822a29.123,29.123,0,1,1-2.713-.127A14.762,14.762,0,0,1,661.775,3236.822Z" transform="translate(-656.347 -3236.695)" fill="#344154"/>
                    </g>
                  </g>
                </g>
              </g>
              <g id="Grupo_56826" data-name="Grupo 56826" transform="translate(33.615 39.253)">
                <g id="Grupo_56825" data-name="Grupo 56825">
                  <g id="Grupo_56824" data-name="Grupo 56824">
                    <g id="Grupo_56823" data-name="Grupo 56823">
                      <path id="Trazado_105122" data-name="Trazado 105122" d="M673.472,3236.822a29.124,29.124,0,1,1-2.713-.127A14.762,14.762,0,0,1,673.472,3236.822Z" transform="translate(-668.044 -3236.695)" fill="#344154"/>
                    </g>
                  </g>
                </g>
              </g>
              <g id="Grupo_56830" data-name="Grupo 56830" transform="translate(40.04 39.253)">
                <g id="Grupo_56829" data-name="Grupo 56829">
                  <g id="Grupo_56828" data-name="Grupo 56828">
                    <g id="Grupo_56827" data-name="Grupo 56827">
                      <path id="Trazado_105123" data-name="Trazado 105123" d="M685.17,3236.822a29.126,29.126,0,1,1-2.714-.127A14.772,14.772,0,0,1,685.17,3236.822Z" transform="translate(-679.742 -3236.695)" fill="#344154"/>
                    </g>
                  </g>
                </g>
              </g>
              <g id="Grupo_56834" data-name="Grupo 56834" transform="translate(46.464 39.253)">
                <g id="Grupo_56833" data-name="Grupo 56833">
                  <g id="Grupo_56832" data-name="Grupo 56832">
                    <g id="Grupo_56831" data-name="Grupo 56831">
                      <path id="Trazado_105124" data-name="Trazado 105124" d="M696.866,3236.822a29.123,29.123,0,1,1-2.714-.127A14.765,14.765,0,0,1,696.866,3236.822Z" transform="translate(-691.439 -3236.695)" fill="#344154"/>
                    </g>
                  </g>
                </g>
              </g>
              <g id="Grupo_56838" data-name="Grupo 56838" transform="translate(52.889 39.253)">
                <g id="Grupo_56837" data-name="Grupo 56837">
                  <g id="Grupo_56836" data-name="Grupo 56836">
                    <g id="Grupo_56835" data-name="Grupo 56835">
                      <path id="Trazado_105125" data-name="Trazado 105125" d="M708.563,3236.822a29.122,29.122,0,1,1-2.713-.127A14.762,14.762,0,0,1,708.563,3236.822Z" transform="translate(-703.136 -3236.695)" fill="#344154"/>
                    </g>
                  </g>
                </g>
              </g>
              <g id="Grupo_56842" data-name="Grupo 56842" transform="translate(59.313 39.253)">
                <g id="Grupo_56841" data-name="Grupo 56841">
                  <g id="Grupo_56840" data-name="Grupo 56840">
                    <g id="Grupo_56839" data-name="Grupo 56839">
                      <path id="Trazado_105126" data-name="Trazado 105126" d="M720.261,3236.822a29.125,29.125,0,1,1-2.713-.127A14.765,14.765,0,0,1,720.261,3236.822Z" transform="translate(-714.833 -3236.695)" fill="#344154"/>
                    </g>
                  </g>
                </g>
              </g>
            </g>
            <g id="Grupo_56860" data-name="Grupo 56860" transform="translate(15.915 19.178)">
              <g id="Grupo_56859" data-name="Grupo 56859">
                <path id="Trazado_105127" data-name="Trazado 105127" d="M456.838,3091.587a2.945,2.945,0,1,1-2.945-2.946A2.945,2.945,0,0,1,456.838,3091.587Z" transform="translate(-450.948 -3088.641)" fill="#ff8578"/>
              </g>
            </g>
            <g id="Grupo_56863" data-name="Grupo 56863" transform="translate(48.581 19.627)">
              <g id="Grupo_56862" data-name="Grupo 56862">
                <g id="Grupo_56861" data-name="Grupo 56861">
                  <path id="Trazado_105128" data-name="Trazado 105128" d="M517.461,3089.631c0,.1-9.93.174-22.178.174s-22.18-.078-22.18-.174,9.928-.173,22.18-.173S517.461,3089.537,517.461,3089.631Z" transform="translate(-473.103 -3089.458)" fill="#12263f"/>
                </g>
              </g>
            </g>
            <g id="Grupo_56866" data-name="Grupo 56866" transform="translate(48.905 23.188)">
              <g id="Grupo_56865" data-name="Grupo 56865">
                <g id="Grupo_56864" data-name="Grupo 56864">
                  <path id="Trazado_105129" data-name="Trazado 105129" d="M491.177,3096.117a2.7,2.7,0,0,1-.687.067c-.443.021-1.083.04-1.874.055-1.582.032-3.767.051-6.181.051s-4.6-.019-6.182-.051c-.791-.015-1.431-.034-1.874-.055a2.7,2.7,0,0,1-.687-.067,2.643,2.643,0,0,1,.687-.067c.442-.022,1.082-.039,1.874-.056,1.582-.031,3.767-.051,6.182-.051s4.6.02,6.181.051c.791.016,1.431.034,1.874.056A2.648,2.648,0,0,1,491.177,3096.117Z" transform="translate(-473.693 -3095.944)" fill="#12263f"/>
                </g>
              </g>
            </g>
          </g>
          <path id="Trazado_105130" data-name="Trazado 105130" d="M631.1,3225.849l5.712,12.956,1.994-5.7,4.888-1.791Z" transform="translate(-505.405 -3109.364)" fill="#a4a3ff"/>
          <rect id="Rectángulo_8041" data-name="Rectángulo 8041" width="7.178" height="7.178" transform="translate(136.603 126.36)" fill="#fff"/>
          <path id="Trazado_105131" data-name="Trazado 105131" d="M658.056,3250.844s0-.2-.027-.549,0-.868-.033-1.471c0-1.291-.039-3.06-.061-5.164l.121.121h-7.173c-.033,0,.269-.269.143-.142h0v7.167l-.121-.127,5.163.061,1.472.033a3.79,3.79,0,0,1,.549.033,4.183,4.183,0,0,1-.489,0l-1.445.032-5.24.061h-.126v-7.288h0l.143-.142h7.3v.126c0,2.136-.049,3.933-.066,5.239,0,.594,0,1.1-.033,1.445A2.548,2.548,0,0,1,658.056,3250.844Z" transform="translate(-514.281 -3117.307)" fill="#5e6178"/>
          <path id="Trazado_105132" data-name="Trazado 105132" d="M657.373,3250.883a29.919,29.919,0,0,1,0-5.844A30.024,30.024,0,0,1,657.373,3250.883Z" transform="translate(-517.183 -3118.015)" fill="#5e6178"/>
          <path id="Trazado_105133" data-name="Trazado 105133" d="M658.014,3250.241a29.884,29.884,0,0,1-5.844,0A30.075,30.075,0,0,1,658.014,3250.241Z" transform="translate(-514.903 -3120.295)" fill="#5e6178"/>
          <rect id="Rectángulo_8042" data-name="Rectángulo 8042" width="7.887" height="132.368" transform="translate(189.191 21.238)" fill="#344154"/>
          <path id="Trazado_105134" data-name="Trazado 105134" d="M750.653,3080.769h0a3.944,3.944,0,0,1,3.943,3.944v19.228a3.943,3.943,0,0,1-3.943,3.944h0a3.943,3.943,0,0,1-3.943-3.944v-19.228A3.944,3.944,0,0,1,750.653,3080.769Z" transform="translate(-557.519 -3043.965)" fill="#5e6178"/>
          <path id="Trazado_105135" data-name="Trazado 105135" d="M482.365,3109.944v-2.021c0-1.319,0-3.23-.033-5.657,0-4.861-.038-11.787-.06-20.085l.121.121H454.634c-.039,0,.269-.27.137-.138h0v27.752l-.126-.126,20.09.066,5.651.033h.049l-5.624.033-20.167.06h-.121v-27.808h0c-.126.121.176-.18.148-.148h27.884v.148c-.027,8.332-.049,15.286-.066,20.163,0,2.417,0,4.317-.033,5.629v1.846A.52.52,0,0,1,482.365,3109.944Z" transform="translate(-425.795 -3044.531)" fill="#5e6178"/>
          <path id="Trazado_105136" data-name="Trazado 105136" d="M460.389,3088H461.9l4.333-.034,15.57-.061h.121v21.541c.027-.033-.275.27-.148.142H460.29v-.126c0-6.432.049-11.792.066-15.565,0-1.856,0-3.295.033-4.339v-1.515a.88.88,0,0,1,0,.109v1.456c0,1.027,0,2.5.033,4.393,0,3.758.039,9.09.06,15.489l-.121-.127h21.414l-.137.143v-21.42l.126.126-15.488-.066-4.394-.033h-1.461A.422.422,0,0,1,460.389,3088Z" transform="translate(-428.408 -3047.183)" fill="#5e6178"/>
          <path id="Trazado_105137" data-name="Trazado 105137" d="M454.63,3082.3a18.491,18.491,0,0,1,3.24,3.174,8.558,8.558,0,0,1-1.725-1.483A9.3,9.3,0,0,1,454.63,3082.3Z" transform="translate(-425.856 -3044.655)" fill="#5e6178"/>
          <path id="Trazado_105138" data-name="Trazado 105138" d="M502.639,3082.479a8.431,8.431,0,0,1-1.368,1.7,8.751,8.751,0,0,1-1.582,1.51,8.285,8.285,0,0,1,1.367-1.7A8.425,8.425,0,0,1,502.639,3082.479Z" transform="translate(-446.168 -3044.736)" fill="#5e6178"/>
          <path id="Trazado_105139" data-name="Trazado 105139" d="M502.6,3130.407a13.862,13.862,0,0,1-1.346-1.56,13.386,13.386,0,0,1-1.346-1.549,7.9,7.9,0,0,1,2.669,3.131Z" transform="translate(-446.267 -3064.94)" fill="#5e6178"/>
          <path id="Trazado_105140" data-name="Trazado 105140" d="M457.557,3127.019a8.755,8.755,0,0,1-1.439,1.68,8.581,8.581,0,0,1-1.648,1.483,16.98,16.98,0,0,1,3.087-3.163Z" transform="translate(-425.784 -3064.814)" fill="#5e6178"/>
          <path id="Trazado_105141" data-name="Trazado 105141" d="M468.881,3095.787a1.206,1.206,0,0,1,.214,0h.654l2.5-.033,9.029-.066h.121v12.522l-.148.143H468.76v-.125c.027-3.719.049-6.822.06-9.03,0-1.054.027-1.9.033-2.5v-.862a1.48,1.48,0,0,1,0,.241v.676c0,.61,0,1.461.027,2.532,0,2.2.038,5.261.066,8.947l-.126-.122h12.4c.132-.126-.17.176-.137.143v-12.4l.126.12-8.947-.06-2.538-.033h-.676Z" transform="translate(-432.226 -3050.691)" fill="#5e6178"/>
          <path id="Trazado_105142" data-name="Trazado 105142" d="M599.832,3293.531c0,.077-43.982.143-98.223.143s-98.228-.066-98.228-.143,43.971-.143,98.228-.143S599.832,3293.449,599.832,3293.531Z" transform="translate(-402.754 -3139.809)" fill="#5e6178"/>
        </g>
        <g id="freepik--Character--inject-3" transform="translate(464.776 3068.572)">
          <path id="Trazado_105143" data-name="Trazado 105143" d="M683.5,3396.214h-6.684s-15.087-5.448-18.19-4.943c-2.79.472-13.022,7.267-15.027,8.612a1.26,1.26,0,0,0-.483.621h0a2.2,2.2,0,0,0,1.219,2.785l.214.087-.093.3a3.636,3.636,0,0,0-.154,1.224,1.477,1.477,0,0,0,2.746.637l-.385.68a1.679,1.679,0,0,0-.214.917l.033.626a1.687,1.687,0,0,0,1.153,1.5h0a1.647,1.647,0,0,0,1.758-.462c1.3-1.427,4.256-3.509,6.151-3.844,1.686-.28,4.339-1.1,6.041-1.1a2.11,2.11,0,0,1,1.95,1.34h0c-1.126.084-6.931,2.747-9.7,4.186a2.981,2.981,0,0,0-1.615,2.235c-.1.868.341,1.78,2.06,1.373,3.685-.857,8.282-2.461,8.282-2.461s3.422-.977,5.635.583c3.12,2.2,4.547,3.01,7.228,2.12a22.947,22.947,0,0,0,4.652-2.159l5.273-.549S690.324,3398.137,683.5,3396.214Z" transform="translate(-598.623 -3234.83)" fill="#ffbe9d"/>
          <path id="Trazado_105144" data-name="Trazado 105144" d="M694.072,3413.263a1.985,1.985,0,0,1-.357.258,2.386,2.386,0,0,1-.462.275,4.209,4.209,0,0,1-.665.3,7.276,7.276,0,0,1-4.6.154,7.141,7.141,0,0,1-2.823-1.532l-.33-.3-.3-.335a6.219,6.219,0,0,1-.549-.741c-.335-.55-.582-1.1-.95-1.62a2.319,2.319,0,0,0-1.5-1.043,7.551,7.551,0,0,0-2.021,0,11.943,11.943,0,0,1-4.355-.429,12.566,12.566,0,0,1-3.746-1.79,12.753,12.753,0,0,1-1.527-1.269.955.955,0,0,1-.253-1.01.967.967,0,0,1,.8-.643h0l9.8-.411,2.812-.094h.747a1.016,1.016,0,0,1,.258,0l-.258.033-.741.054-2.807.17-9.8.511h0a.693.693,0,0,0-.384,1.2,12.729,12.729,0,0,0,1.494,1.23,12.328,12.328,0,0,0,3.664,1.747,11.8,11.8,0,0,0,4.256.423,7.439,7.439,0,0,1,2.1,0,2.477,2.477,0,0,1,.967.412,3.086,3.086,0,0,1,.7.742c.379.548.626,1.136.945,1.647a6.3,6.3,0,0,0,.549.714l.286.33.313.285a6.94,6.94,0,0,0,2.746,1.521,7.288,7.288,0,0,0,4.5-.066A11.024,11.024,0,0,0,694.072,3413.263Z" transform="translate(-610.614 -3240.143)" fill="#eb996e"/>
          <path id="Trazado_105145" data-name="Trazado 105145" d="M822.833,3110.264a5.971,5.971,0,0,0-6.426-2.537,8.179,8.179,0,0,0-10.018.989,7.273,7.273,0,0,0-10.436,6.8,6.069,6.069,0,0,0-4.492,10.627,5.833,5.833,0,0,0,3.35,11.117l27.461-20.1A5.975,5.975,0,0,0,822.833,3110.264Z" transform="translate(-663.923 -3106.458)" fill="#344154"/>
          <path id="Trazado_105146" data-name="Trazado 105146" d="M799.107,3143.809a24.77,24.77,0,0,1,22.8-24.666l1.28-.1c13.847-.3,21.832,11.3,21.744,25.149l1.648,46.063-1.434,5.921L826.5,3211.555l-9.364-8.294-2.681-13.554s-13.418-1.006-14.637-14.242C799.239,3169.072,799.079,3155.814,799.107,3143.809Z" transform="translate(-668.998 -3112.128)" fill="#ffbe9d"/>
          <path id="Trazado_105147" data-name="Trazado 105147" d="M826.869,3242.383a32.226,32.226,0,0,0,16.954-6.465s-3.3,9.859-16.636,9.721Z" transform="translate(-681.514 -3164.816)" fill="#eb996e"/>
          <path id="Trazado_105148" data-name="Trazado 105148" d="M807.889,3184.389a1.9,1.9,0,0,0,1.972,1.763,1.813,1.813,0,0,0,1.819-1.806c0-.019,0-.037,0-.056a1.9,1.9,0,0,0-1.977-1.762,1.813,1.813,0,0,0-1.813,1.811C807.888,3184.356,807.889,3184.373,807.889,3184.389Z" transform="translate(-672.958 -3140.748)" fill="#5e6178"/>
          <path id="Trazado_105149" data-name="Trazado 105149" d="M805.03,3174.9c.253.225,1.6-.95,3.636-1.1s3.614.746,3.811.477c.1-.121-.176-.549-.862-.966a5.208,5.208,0,0,0-3.076-.687,5.019,5.019,0,0,0-2.872,1.187C805.085,3174.33,804.909,3174.791,805.03,3174.9Z" transform="translate(-671.653 -3136.274)" fill="#5e6178"/>
          <path id="Trazado_105150" data-name="Trazado 105150" d="M839.779,3183.439a1.9,1.9,0,0,0,1.977,1.763,1.811,1.811,0,0,0,1.819-1.806c0-.017,0-.033,0-.051a1.906,1.906,0,0,0-1.977-1.769,1.819,1.819,0,0,0-1.819,1.817C839.778,3183.409,839.779,3183.424,839.779,3183.439Z" transform="translate(-687.333 -3140.32)" fill="#5e6178"/>
          <path id="Trazado_105151" data-name="Trazado 105151" d="M840.46,3171.545c.253.231,1.6-.944,3.641-1.1s3.608.742,3.812.478c.1-.121-.176-.549-.868-.972a5.2,5.2,0,0,0-3.07-.681,4.938,4.938,0,0,0-2.872,1.186C840.515,3170.979,840.339,3171.474,840.46,3171.545Z" transform="translate(-687.624 -3134.764)" fill="#5e6178"/>
          <path id="Trazado_105152" data-name="Trazado 105152" d="M826.111,3187.894a13.492,13.492,0,0,0-3.35-.334c-.549,0-1.027-.077-1.142-.423a2.662,2.662,0,0,1,.225-1.57c.384-1.3.791-2.653,1.219-4.082,1.686-5.805,2.862-10.561,2.625-10.626s-1.79,4.585-3.471,10.391l-1.159,4.13a3.009,3.009,0,0,0-.1,2.059,1.291,1.291,0,0,0,.912.692,3.485,3.485,0,0,0,.9.055A12.7,12.7,0,0,0,826.111,3187.894Z" transform="translate(-678.779 -3135.488)" fill="#5e6178"/>
          <path id="Trazado_105153" data-name="Trazado 105153" d="M836.618,3203.568c-.335,0-.159,2.2-1.928,3.938s-4.141,1.648-4.13,1.972c0,.143.549.39,1.554.335a5.489,5.489,0,0,0,3.46-1.521,4.823,4.823,0,0,0,1.472-3.3C837.056,3204.073,836.765,3203.546,836.618,3203.568Z" transform="translate(-683.177 -3150.232)" fill="#5e6178"/>
          <path id="Trazado_105154" data-name="Trazado 105154" d="M839.576,3160.965c.286.506,2-.11,4.13-.242s3.943.165,4.125-.379c.071-.258-.318-.708-1.1-1.1a6.36,6.36,0,0,0-3.229-.549,6.115,6.115,0,0,0-3.059,1.049C839.746,3160.212,839.45,3160.718,839.576,3160.965Z" transform="translate(-687.229 -3129.994)" fill="#5e6178"/>
          <path id="Trazado_105155" data-name="Trazado 105155" d="M805.025,3164.811c.357.468,1.763,0,3.455-.032s3.125.324,3.455-.166c.149-.23-.077-.7-.7-1.136a5.009,5.009,0,0,0-5.569.153C805.085,3164.13,804.887,3164.585,805.025,3164.811Z" transform="translate(-671.648 -3131.813)" fill="#5e6178"/>
          <path id="Trazado_105156" data-name="Trazado 105156" d="M800.454,3136.342s2.834-8.573,6.678-10.831c4.657-2.746,7.167,2.422,11.677.764s8.958-4.279,13.961-1.1c5.492,3.493,3.3,6.425,4.064,12.28,3.191,23.732,8.085,30.125,8.425,18.8.038-1.241,3.372-2.493,3.466-7.727.116-6.794-.274-14.993-2.164-19.656-1.587-3.927-4.108-6.531-8.474-9.271-6.893-4.328-15.834-3.718-21.853-2.626S799.087,3126,800.454,3136.342Z" transform="translate(-669.555 -3110.842)" fill="#344154"/>
          <path id="Trazado_105157" data-name="Trazado 105157" d="M880.536,3185.531a3.6,3.6,0,0,1,3.429-3.768c.06,0,.12,0,.18,0,2.488.038,5.349,1.219,5.591,6.338.434,9.084-8.788,7.645-8.788,7.387S880.684,3189.332,880.536,3185.531Z" transform="translate(-705.704 -3140.402)" fill="#ffbe9d"/>
          <path id="Trazado_105158" data-name="Trazado 105158" d="M884.563,3194.363c.038-.028.165.1.439.214a1.547,1.547,0,0,0,1.181-.032c.945-.4,1.68-1.962,1.648-3.6a5.2,5.2,0,0,0-.549-2.241,1.822,1.822,0,0,0-1.247-1.159.8.8,0,0,0-.911.478c-.11.258-.044.438-.093.455s-.2-.143-.148-.55a1.055,1.055,0,0,1,.329-.587,1.2,1.2,0,0,1,.868-.269,2.2,2.2,0,0,1,1.719,1.33,5.377,5.377,0,0,1,.67,2.5c0,1.829-.829,3.586-2.12,4.031a1.711,1.711,0,0,1-1.46-.17C884.59,3194.583,884.529,3194.385,884.563,3194.363Z" transform="translate(-707.517 -3142.796)" fill="#eb996e"/>
          <path id="Trazado_105159" data-name="Trazado 105159" d="M847.14,3136.057a8.559,8.559,0,0,1-3.7,2.075,2.965,2.965,0,0,1-3.444-1.818c-.159-.619-.06-1.367-.516-1.817-.549-.549-1.439-.291-2.2-.149a5.805,5.805,0,0,1-6.333-3.668c-.588,1.059-2.158,1.141-3.229.549a13.624,13.624,0,0,1-2.675-2.444,3.747,3.747,0,0,0-3.235-1.308,9.068,9.068,0,0,1-1.933.593c-1.2,0-1.889-1.356-2.164-2.526s-.549-2.532-1.582-3.092-2.164-.082-3.246.17-2.521.1-2.883-.944a2.143,2.143,0,0,1,.275-1.675,5.883,5.883,0,0,1,6.744-2.774,7.975,7.975,0,0,1,14.488-2.708,8.1,8.1,0,0,1,13.132,1.911,5.865,5.865,0,0,1,7.272,7.986,5.566,5.566,0,0,1,3.411,4.174c.181,1.867-1.494,3.888-3.345,3.537a3.251,3.251,0,0,1-5.344,3.68" transform="translate(-673.884 -3108.458)" fill="#344154"/>
          <path id="Trazado_105160" data-name="Trazado 105160" d="M876.873,3149.468a2.171,2.171,0,0,1-.423,1.785,2.947,2.947,0,0,1-1.73,1.231,3.135,3.135,0,0,1-2.642-.55l.379-.087a9.264,9.264,0,0,1-1.648,2.4,5.186,5.186,0,0,1-1.565,1.158,3.5,3.5,0,0,1-1.812.313,3.553,3.553,0,0,1-2.746-1.292,5.14,5.14,0,0,1-.884-1.823,1.841,1.841,0,0,1-.132-.725,2.558,2.558,0,0,1,.324.653,5.987,5.987,0,0,0,.972,1.647,3.724,3.724,0,0,0,5.454-.307,9.137,9.137,0,0,0,1.555-2.252l.137-.281.242.192a2.794,2.794,0,0,0,2.241.522,2.673,2.673,0,0,0,1.571-1A4.391,4.391,0,0,0,876.873,3149.468Z" transform="translate(-698.103 -3125.846)" fill="#344154"/>
          <path id="Trazado_105161" data-name="Trazado 105161" d="M834.229,3112.174c0,.033-.231.082-.621.286a3.134,3.134,0,0,0-1.313,1.307l-.093.181-.137-.154a11.271,11.271,0,0,0-4.663-3.2,8.845,8.845,0,0,0-3.63-.5,7.417,7.417,0,0,0-3.746,1.4,7.55,7.55,0,0,0-2.114,2.35,6.152,6.152,0,0,0-.774,2.806v.292l-.28-.055a5.116,5.116,0,0,0-3.729.758,4.977,4.977,0,0,0-1.884,2.373,6.786,6.786,0,0,0-.352,2.745,1.851,1.851,0,0,1-.17-.736,5.093,5.093,0,0,1,.248-2.092,5.185,5.185,0,0,1,1.928-2.61,5.489,5.489,0,0,1,4.048-.894l-.286.236a6.547,6.547,0,0,1,.813-3.059,7.937,7.937,0,0,1,2.251-2.521,7.826,7.826,0,0,1,4.015-1.483,9.192,9.192,0,0,1,3.845.55,11.031,11.031,0,0,1,4.723,3.449h-.231a3.1,3.1,0,0,1,1.5-1.313A1.45,1.45,0,0,1,834.229,3112.174Z" transform="translate(-674.226 -3107.869)" fill="#344154"/>
          <path id="Trazado_105162" data-name="Trazado 105162" d="M839.894,3303.875c-.5,0-1.543-42.538-1.543-42.538L809.3,3250.969l-22.288,20.074-11.374-17.9-10.012,4.6c-1.263.582-6.8,2.8-7.909,3.641-3.174,2.422-9.8,8.238-11.677,15.291-2.856,10.792-7.338,46.683-7.338,46.683l-27.285,9.629.593,17.575,26.7,4.179c6.442-.23,14.241-2.954,16.751-7.425v9.38H837.5S840.388,3303.875,839.894,3303.875Z" transform="translate(-629.472 -3171.6)" fill="#12263f"/>
          <path id="Trazado_105163" data-name="Trazado 105163" d="M792.464,3317.839a1.037,1.037,0,0,1,0,.176v2.509c-.033,1.725-.1,4.219-.242,7.305s-.329,6.755-.478,10.83-.2,8.557-.231,13.264c-.044,9.419,0,17.949,0,24.122v9.809a.621.621,0,0,1,0,.181.8.8,0,0,1,0-.176v-.521c0-.473-.027-1.138-.044-1.982,0-1.747-.049-4.24-.088-7.311-.055-6.173-.11-14.7-.066-24.122.028-4.707.088-9.194.253-13.275s.379-7.75.549-10.831.269-5.575.335-7.3c.033-.846.055-1.516.077-1.988a2.748,2.748,0,0,1,.028-.516A.763.763,0,0,1,792.464,3317.839Z" transform="translate(-665.48 -3201.744)" fill="#5e6178"/>
          <g id="Grupo_56868" data-name="Grupo 56868" transform="translate(122.82 120.132)" opacity="0.3">
            <path id="Trazado_105164" data-name="Trazado 105164" d="M790,3325.189c-4.652,17.542-5.888,36.551-1.214,54.087C788.876,3359.751,788.766,3341.468,790,3325.189Z" transform="translate(-785.838 -3325.189)"/>
          </g>
          <g id="Grupo_56869" data-name="Grupo 56869" transform="translate(195.302 120.56)" opacity="0.3">
            <path id="Trazado_105165" data-name="Trazado 105165" d="M917.809,3327.364q2.555,16.426,5.08,32.838a2.2,2.2,0,0,0,.357,1.065c.549.692,1.615.51,2.461.269,2.054-.6,5.289-.818,6.4-2.653l.269-4.674c-.3-1.417-1.648-2.779-2.312-4.075q-5.981-12.082-11.951-24.166" transform="translate(-917.809 -3325.969)"/>
          </g>
          <path id="Trazado_105166" data-name="Trazado 105166" d="M931.23,3269.7s9.486,5.338,13,12.852c4.289,9.167,23.271,42.191,23.974,50.43s.418,17.658-13.637,20.464a157.947,157.947,0,0,1-28.73,2.62l-5.728-17.07,16.109-8.321-4.015-3.526a9.4,9.4,0,0,1-2.142-2.746l-12.121-23.342" transform="translate(-722.566 -3180.043)" fill="#12263f"/>
          <path id="Trazado_105167" data-name="Trazado 105167" d="M917.939,3301.093s.11.181.3.549l.857,1.615,3.257,6.211,5.119,9.8,1.549,2.965.807,1.549a14.3,14.3,0,0,0,.884,1.56,9.485,9.485,0,0,0,1.181,1.4c.445.428.939.835,1.417,1.264l2.977,2.609.121.1-.143.072-16.1,8.337.06-.149,5.745,17.065-.126-.094c4.657,0,9.523-.215,14.516-.654,2.5-.214,5.025-.494,7.574-.856s5.124-.764,7.689-1.369l1.263-.307c.417-.115.824-.275,1.23-.412s.824-.263,1.219-.434l1.164-.55c.2-.092.39-.175.582-.273l.549-.336c.362-.225.73-.439,1.1-.675a14.474,14.474,0,0,0,1.9-1.648,11.725,11.725,0,0,0,2.609-4.235,18.224,18.224,0,0,0,1-4.827,38.043,38.043,0,0,0,0-4.878,20.987,20.987,0,0,0-.247-2.383,21.553,21.553,0,0,0-.61-2.29c-.478-1.51-1.049-2.966-1.648-4.394s-1.219-2.829-1.84-4.207c-2.532-5.493-5.152-10.628-7.629-15.417s-4.839-9.21-6.975-13.258l-3.032-5.8c-.472-.916-.928-1.812-1.357-2.685-.209-.439-.417-.868-.626-1.3s-.423-.823-.632-1.224a24.726,24.726,0,0,0-2.944-4.1,37.435,37.435,0,0,0-3.021-2.993,45.54,45.54,0,0,0-4.668-3.592c-.549-.38-.994-.654-1.285-.835l-.439-.28s.159.083.456.253.736.444,1.3.813a43.226,43.226,0,0,1,4.707,3.559,36.631,36.631,0,0,1,3.054,2.987,24.774,24.774,0,0,1,2.977,4.114c.214.4.439.813.648,1.236s.412.852.626,1.285c.434.873.89,1.763,1.362,2.68q1.45,2.748,3.048,5.778c2.153,4.049,4.52,8.47,7.014,13.254s5.113,9.885,7.651,15.411c.632,1.378,1.258,2.779,1.851,4.212s1.17,2.9,1.648,4.395a20.4,20.4,0,0,1,.621,2.329,20.927,20.927,0,0,1,.253,2.416,38.419,38.419,0,0,1,0,4.942,18.5,18.5,0,0,1-1.01,4.9,11.915,11.915,0,0,1-2.675,4.328,14.005,14.005,0,0,1-1.939,1.714c-.357.236-.731.456-1.1.687l-.549.341-.593.28-1.181.549c-.4.176-.824.291-1.236.44s-.824.3-1.241.417l-1.28.308c-2.57.609-5.146,1.01-7.689,1.373s-5.086.642-7.585.862c-5,.434-9.886.654-14.549.643h-.1l-.027-.094c-2.016-6-3.938-11.753-5.723-17.075l-.033-.1.093-.05,16.12-8.31v.177l-2.971-2.615c-.478-.427-.967-.829-1.422-1.273a9.774,9.774,0,0,1-1.2-1.434,15.313,15.313,0,0,1-.9-1.581c-.269-.55-.549-1.044-.8-1.554q-.791-1.533-1.538-2.966c-1.972-3.844-3.68-7.139-5.075-9.832l-3.2-6.233c-.363-.715-.643-1.258-.829-1.648A3.3,3.3,0,0,0,917.939,3301.093Z" transform="translate(-722.566 -3180.065)" fill="#5e6178"/>
          <path id="Trazado_105168" data-name="Trazado 105168" d="M924.932,3268.646a9.358,9.358,0,0,1-.878.55,23.35,23.35,0,0,0-2.307,1.647,21.611,21.611,0,0,0-7.992,16.284,23.818,23.818,0,0,0,.1,2.84c.061.67.11,1.037.088,1.044a1.129,1.129,0,0,1-.071-.264c-.028-.175-.088-.434-.126-.769a18.45,18.45,0,0,1-.187-2.856,20.991,20.991,0,0,1,8.063-16.427,19.824,19.824,0,0,1,2.373-1.6c.291-.176.549-.285.686-.362A.506.506,0,0,1,924.932,3268.646Z" transform="translate(-720.591 -3179.568)" fill="#5e6178"/>
          <path id="Trazado_105169" data-name="Trazado 105169" d="M968.333,3368.148a3.135,3.135,0,0,1-.7.2l-1.928.483a54.536,54.536,0,0,0-6.234,2.01,46.482,46.482,0,0,0-5.9,2.834c-.731.417-1.313.764-1.714,1.016a3.665,3.665,0,0,1-.637.357,3.843,3.843,0,0,1,.576-.45c.385-.28.95-.654,1.648-1.1a39.139,39.139,0,0,1,5.926-2.921,44.429,44.429,0,0,1,6.288-1.944c.818-.186,1.489-.318,1.955-.4A4.051,4.051,0,0,1,968.333,3368.148Z" transform="translate(-737.568 -3224.421)" fill="#5e6178"/>
          <g id="Grupo_56870" data-name="Grupo 56870" transform="translate(157.614 80.346)" opacity="0.3">
            <path id="Trazado_105170" data-name="Trazado 105170" d="M870.592,3252.77a5.2,5.2,0,0,0-2.312,1.147,112.014,112.014,0,0,0-18.168,16.746l-.923,1.708c2.049-1.351,4.394-2.746,6.788-2.268,2.054.434,3.542,2.153,4.877,3.773a171.219,171.219,0,0,0,13.434-19.557C873.2,3253.478,871.954,3252.594,870.592,3252.77Z" transform="translate(-849.189 -3252.748)"/>
          </g>
          <path id="Trazado_105171" data-name="Trazado 105171" d="M849.03,3266.937l8.194-10.364,12.325-14.714L876.1,3248l-11.479,17.772-8.151-4.9Z" transform="translate(-691.503 -3167.493)" fill="#fff"/>
          <g id="Grupo_56871" data-name="Grupo 56871" transform="translate(142.642 84.207)" opacity="0.3">
            <path id="Trazado_105172" data-name="Trazado 105172" d="M822.028,3261.613c1.1,5.833,3.8,10.7,4.888,16.532,1.3-1.7.989-2.428,2.29-4.131a4.7,4.7,0,0,1,1.906-1.7c1.4-.549,2.944.27,4.218,1.049a47.646,47.646,0,0,0-6.552-6l-.1.473q-3.295-4.091-6.75-8.057" transform="translate(-821.929 -3259.779)"/>
          </g>
          <path id="Trazado_105173" data-name="Trazado 105173" d="M835.975,3271.307l-11.512-19.618h0l-4.114,3.79,3.894,17.553,5.525-7.112Z" transform="translate(-678.575 -3171.925)" fill="#fff"/>
          <path id="Trazado_105174" data-name="Trazado 105174" d="M835.383,3265.96l-.209-.324-.582-.967-2.2-3.73-8.128-13.757h.154l-4.141,3.635.033-.109c1.186,5.316,2.515,11.275,3.954,17.711l-.236-.054,5.492-7.14.088-.115.11.094,6.212,5.388-.121-.033.67-.126-.071.033c1.994-1.774,4.2-3.525,6.349-5.394l.549-.483.077-.065.088.049c2.862,1.527,5.432,3.421,8.15,4.9l-.187.049,11.484-17.768v.164q-3.411-3.22-6.536-6.15h.17l-14.471,17.575-4.048,4.883-1.044,1.356c-.247.286-.379.429-.379.429s.116-.154.352-.451l1.038-1.3L842,3259.32l14.4-17.657.082-.095.093.083,6.546,6.14.083.073-.06.086-11.462,17.784-.072.109-.115-.066c-2.746-1.493-5.311-3.389-8.151-4.9h.165l-.549.483c-2.158,1.878-4.394,3.625-6.349,5.394h-.071l-.665.126h-.066l-.055-.043-6.206-5.389h.2l-5.531,7.1-.17.226-.061-.28-3.927-17.741v-.066l.05-.044,4.158-3.62.093-.082.061.11,8.052,13.8,2.169,3.756.549.984C835.328,3265.84,835.383,3265.96,835.383,3265.96Z" transform="translate(-678.444 -3167.362)" fill="#5e6178"/>
          <path id="Trazado_105175" data-name="Trazado 105175" d="M791.571,3278.3c.077,0,0,3.571-.115,7.975a78.43,78.43,0,0,1-.434,7.953c-.1,0-.027-3.569.115-7.974S791.483,3278.3,791.571,3278.3Z" transform="translate(-665.334 -3183.919)" fill="#5e6178"/>
          <path id="Trazado_105176" data-name="Trazado 105176" d="M877.448,3398.763a5.8,5.8,0,0,0-2,.731c-1.472.994-1.8,2.982-2,4.75-.06.55-.077,1.215.379,1.538a1.567,1.567,0,0,0,1.351,0,41.915,41.915,0,0,0,8.639-3.845c1.455-.851,2.955-1.922,3.449-3.532l.093-.691A41.294,41.294,0,0,0,877.448,3398.763Z" transform="translate(-702.494 -3237.747)" fill="#ffbe9d"/>
          <path id="Trazado_105177" data-name="Trazado 105177" d="M900.91,3376.905l3.262,2.736.906-1.054-3.273-2.757Z" transform="translate(-714.89 -3227.884)" fill="#344154"/>
          <path id="Trazado_105178" data-name="Trazado 105178" d="M897.416,3387.8c-.055.055-.45-.224-.89-.631s-.741-.78-.692-.834.45.225.89.625S897.466,3387.739,897.416,3387.8Z" transform="translate(-712.6 -3232.616)" fill="#344154"/>
          <path id="Trazado_105179" data-name="Trazado 105179" d="M897.094,3397.7l-5.047,1.763s-4.63-1.165-6.591-1.614a5.049,5.049,0,0,0-3.905.686c-2.372,1.538-6.453,4.185-7.914,5.157s-5.19,4.059-5.19,4.059-2.708,3.1-1.824,4.883,3.334,1.527,3.334,1.527a3.7,3.7,0,0,0,2.933,2.746s-.615.966,1.7,1.582,7.689,0,7.689,0,9.886.406,10.825-.073,5.1-4.712,5.1-4.712l3.526-2.108Z" transform="translate(-699.354 -3237.742)" fill="#ffbe9d"/>
          <path id="Trazado_105180" data-name="Trazado 105180" d="M878.473,3403.938a12,12,0,0,1-1.5,1.1c-.949.654-2.279,1.527-3.7,2.554a36.429,36.429,0,0,0-3.466,2.839c-.835.78-1.319,1.307-1.352,1.274s.088-.153.292-.406.516-.6.917-1.016a27.793,27.793,0,0,1,3.443-2.922c1.423-1.033,2.746-1.885,3.751-2.493A12.058,12.058,0,0,1,878.473,3403.938Z" transform="translate(-700.257 -3240.556)" fill="#eb996e"/>
          <path id="Trazado_105181" data-name="Trazado 105181" d="M885.07,3412.3a2.521,2.521,0,0,1-.5.308l-1.384.791c-1.186.643-2.818,1.537-4.531,2.663a33.594,33.594,0,0,0-4.158,3.2c-.994.906-1.565,1.516-1.6,1.489a2.172,2.172,0,0,1,.357-.467c.242-.292.621-.691,1.1-1.17a27.8,27.8,0,0,1,4.136-3.3,44.711,44.711,0,0,1,4.6-2.6c.6-.3,1.1-.55,1.45-.682A2.011,2.011,0,0,1,885.07,3412.3Z" transform="translate(-702.263 -3244.323)" fill="#eb996e"/>
          <path id="Trazado_105182" data-name="Trazado 105182" d="M892.611,3418.918a2.535,2.535,0,0,1-.456.445c-.307.264-.774.637-1.362,1.061-1.181.867-2.905,1.911-4.817,3.043a25.872,25.872,0,0,1-5.228,2.273c-.7.226-1.263.39-1.648.5a3.045,3.045,0,0,1-.621.137,2.717,2.717,0,0,1,.582-.247c.445-.154.983-.352,1.648-.582a29.825,29.825,0,0,0,5.146-2.329c1.917-1.131,3.647-2.142,4.85-2.961.6-.4,1.1-.746,1.406-.982A2.981,2.981,0,0,1,892.611,3418.918Z" transform="translate(-704.779 -3247.308)" fill="#eb996e"/>
          <path id="Trazado_105183" data-name="Trazado 105183" d="M902.443,3426.946a4.243,4.243,0,0,1-.846.868,18.059,18.059,0,0,1-2.334,1.752,18.674,18.674,0,0,1-2.576,1.368,4.2,4.2,0,0,1-1.148.4c-.033-.083,1.648-.791,3.57-2S902.382,3426.88,902.443,3426.946Z" transform="translate(-712.469 -3250.925)" fill="#eb996e"/>
          <path id="Trazado_105184" data-name="Trazado 105184" d="M897.765,3440H823.279a4.8,4.8,0,0,1,4.794-4.8h64.9a4.8,4.8,0,0,1,4.795,4.8Z" transform="translate(-679.896 -3254.65)" fill="#5e6178"/>
          <path id="Trazado_105185" data-name="Trazado 105185" d="M690.053,3387.75l-34.447-.164-11.677-55.3a4.942,4.942,0,0,0-4.817-3.922H567.126a4.943,4.943,0,0,0-4.806,5.969l11.858,54.374a3.964,3.964,0,0,0,3.877,3.12H695.04C695.04,3389.047,692.843,3387.75,690.053,3387.75Z" transform="translate(-562.213 -3206.49)" fill="#5e6178"/>
          <path id="Trazado_105186" data-name="Trazado 105186" d="M716.453,3391.842c-.077,0-3.323-14.175-7.25-31.7s-7.052-31.751-6.975-31.772,3.323,14.176,7.255,31.706S716.53,3391.826,716.453,3391.842Z" transform="translate(-625.328 -3206.49)" fill="#5e6178"/>
          <path id="Trazado_105187" data-name="Trazado 105187" d="M643.663,3382.842c1.708,2.3,1.439,5.388-.6,6.9a4.917,4.917,0,0,1-6.777-1.417c-1.708-2.3-1.439-5.388.6-6.9A4.918,4.918,0,0,1,643.663,3382.842Z" transform="translate(-595.097 -3230.036)" fill="#fff"/>
          <rect id="Rectángulo_8043" data-name="Rectángulo 8043" width="4.987" height="2.285" rx="1.142" transform="translate(106.866 182.002)" fill="#5e6178"/>
          <path id="Trazado_105188" data-name="Trazado 105188" d="M811.822,3439.509a1.954,1.954,0,0,1,.149.16,1.454,1.454,0,0,1,.247.582,2.354,2.354,0,0,1-.906,2.2,3.248,3.248,0,0,1-1.648.622,9.023,9.023,0,0,1-2.093-.055,11.883,11.883,0,0,0-2.373-.138,3.7,3.7,0,0,0-1.236.286,1.83,1.83,0,0,0-.978.818,1.167,1.167,0,0,0,.269,1.231,2.906,2.906,0,0,0,1.186.822,12.086,12.086,0,0,1,1.455.627A1.973,1.973,0,0,1,806.9,3448a2.7,2.7,0,0,1-1.818,2.8,10.563,10.563,0,0,1-3.636.456,60.457,60.457,0,0,1-7.8-.5c-2.691-.319-5.492-.715-8.326-.972a43.629,43.629,0,0,0-8.348,0c-2.691.247-5.289.62-7.788.664a13.181,13.181,0,0,1-3.647-.324,5.12,5.12,0,0,1-2.911-1.845,3.654,3.654,0,0,1-.675-3.12,2.231,2.231,0,0,1,2.334-1.648,1.269,1.269,0,0,1,1.066.911,1.6,1.6,0,0,1-.264,1.318,1.639,1.639,0,0,1-1.065.692,2.084,2.084,0,0,1-1.181-.159,2.8,2.8,0,0,1-1.444-1.51,5.229,5.229,0,0,1-.362-1.724c-.044-1.06.055-1.878.055-2.428v-.631a1.079,1.079,0,0,1,0-.214,1.581,1.581,0,0,1,.028.214c0,.143.027.351.033.631,0,.549-.055,1.373,0,2.417a5.065,5.065,0,0,0,.379,1.68,2.644,2.644,0,0,0,1.379,1.417,1.927,1.927,0,0,0,1.1.144,1.444,1.444,0,0,0,.945-.632,1.427,1.427,0,0,0,.236-1.159,1.1,1.1,0,0,0-.912-.763,2.021,2.021,0,0,0-2.1,1.505,3.453,3.453,0,0,0,.659,2.921,4.852,4.852,0,0,0,2.785,1.736,12.786,12.786,0,0,0,3.575.307c2.482-.049,5.069-.429,7.772-.681a43.827,43.827,0,0,1,8.4,0c2.867.258,5.646.658,8.331.978a61.152,61.152,0,0,0,7.772.521,10.253,10.253,0,0,0,3.542-.429,2.742,2.742,0,0,0,1.3-1,2.128,2.128,0,0,0,.379-1.511,1.714,1.714,0,0,0-.884-1.186,10.608,10.608,0,0,0-1.428-.62,3.173,3.173,0,0,1-1.263-.89,1.742,1.742,0,0,1-.358-.686,1.178,1.178,0,0,1,.071-.763,1.971,1.971,0,0,1,1.1-.913,4.152,4.152,0,0,1,1.3-.3,12.424,12.424,0,0,1,2.4.164,8.912,8.912,0,0,0,2.065.078,3.125,3.125,0,0,0,1.593-.55,2.306,2.306,0,0,0,.922-2.076A1.578,1.578,0,0,0,811.822,3439.509Z" transform="translate(-651.83 -3256.59)" fill="#5e6178"/>
          <path id="Trazado_105189" data-name="Trazado 105189" d="M897.357,3439.436c0,.076-16.345.142-36.5.142s-36.507-.066-36.507-.142,16.317-.138,36.507-.138S897.357,3439.354,897.357,3439.436Z" transform="translate(-680.378 -3256.494)" fill="#344154"/>
        </g>
        <g id="freepik--speech-bubble--inject-3" transform="translate(650.607 3032.58)">
          <path id="Trazado_105190" data-name="Trazado 105190" d="M904.367,3096.316l9.573-1.466a29.324,29.324,0,1,0-7.6-7.256h0Z" transform="translate(-900.647 -3040.974)" fill="#e7f65a"/>
          <path id="Trazado_105191" data-name="Trazado 105191" d="M904.287,3096.266l.115-.548.362-1.648c.325-1.483.807-3.675,1.428-6.519a.06.06,0,0,1,.07-.049h0l-.088.082a29.668,29.668,0,0,1-3.213-5.6,29.924,29.924,0,0,1-2.39-12.286,33.114,33.114,0,0,1,.549-4.866,29.294,29.294,0,0,1,37.16-22.677,30.39,30.39,0,0,1,6.5,2.746l1.5.978.758.494c.247.169.472.368.708.55l1.422,1.153c.467.385.879.831,1.324,1.247a27.405,27.405,0,0,1,2.411,2.642l.291.335.258.363.505.73c.335.489.7.956,1,1.461s.577,1.022.868,1.532c.143.253.291.506.428.764l.352.8.708,1.588c.22.55.373,1.1.549,1.648a29.372,29.372,0,0,1-18.775,37.054q-1.136.371-2.3.65l-1.219.274-.6.132-.61.071c-.807.094-1.6.2-2.378.281a40.138,40.138,0,0,1-4.547-.045,29.192,29.192,0,0,1-13.615-4.745h.044l-7.14,1.05-1.823.269-.61.083.632-.111,1.834-.29,7.1-1.1h.038a29.478,29.478,0,0,0,5.783,2.939,29.035,29.035,0,0,0,7.782,1.735,38.261,38.261,0,0,0,4.515.034c.774-.083,1.565-.187,2.367-.285l.6-.072.593-.138,1.214-.274a29.109,29.109,0,0,0,21.527-35.088q-.28-1.171-.656-2.314c-.187-.549-.346-1.1-.549-1.648l-.7-1.577-.351-.79c-.132-.253-.28-.5-.423-.759q-.428-.745-.857-1.515c-.3-.5-.659-.961-.989-1.445l-.505-.719-.253-.362-.291-.335a27.529,27.529,0,0,0-2.433-2.621c-.439-.411-.851-.851-1.313-1.235l-1.4-1.1c-.237-.18-.462-.379-.7-.549l-.752-.489-1.488-.966a30.314,30.314,0,0,0-6.426-2.748,28.849,28.849,0,0,0-25.006,4.093,29.237,29.237,0,0,0-8.03,8.486,28.923,28.923,0,0,0-3.844,9.885,32.583,32.583,0,0,0-.55,4.834,28.963,28.963,0,0,0,.242,4.525,29.309,29.309,0,0,0,5.333,13.243.065.065,0,0,1,0,.087.06.06,0,0,1-.071,0h0l.093-.033c-.648,2.823-1.148,4.992-1.488,6.469-.17.73-.3,1.291-.39,1.676A2.327,2.327,0,0,1,904.287,3096.266Z" transform="translate(-900.567 -3040.924)" fill="#5e6178"/>
          <g id="Grupo_56872" data-name="Grupo 56872" transform="translate(13.506 7.826)">
            <path id="Trazado_105192" data-name="Trazado 105192" d="M925.157,3062.836a7.327,7.327,0,0,1,2.215-5.537,8.027,8.027,0,0,1,5.8-2.126,8.16,8.16,0,0,1,5.855,2.1,7.468,7.468,0,0,1,2.215,5.69v1.833a7.233,7.233,0,0,1-2.215,5.524,9.143,9.143,0,0,1-11.647-.012,7.41,7.41,0,0,1-2.228-5.664Zm4.888,1.96a3.43,3.43,0,0,0,.878,2.457,3.023,3.023,0,0,0,2.3.93,2.885,2.885,0,0,0,2.266-.942,3.648,3.648,0,0,0,.84-2.521v-1.884a3.574,3.574,0,0,0-.84-2.47,3.273,3.273,0,0,0-4.582-.012,3.642,3.642,0,0,0-.866,2.584Zm4.633,25.2-3.59-1.934,18.1-28.972,3.589,1.935Zm8.2-6.313a7.233,7.233,0,0,1,2.24-5.536,8.141,8.141,0,0,1,5.8-2.1,8.231,8.231,0,0,1,5.842,2.075,7.428,7.428,0,0,1,2.228,5.715v1.833a7.292,7.292,0,0,1-2.189,5.512,8.07,8.07,0,0,1-5.83,2.1,8.165,8.165,0,0,1-5.88-2.113,7.383,7.383,0,0,1-2.215-5.6Zm4.888,1.986a3.4,3.4,0,0,0,.917,2.394,2.989,2.989,0,0,0,2.291.992q3.106,0,3.106-3.437v-1.935a3.465,3.465,0,0,0-.866-2.457,3.289,3.289,0,0,0-4.582,0,3.572,3.572,0,0,0-.865,2.533Z" transform="translate(-925.157 -3055.173)" fill="#12263f"/>
          </g>
        </g>
        <g id="Grupo_80530" data-name="Grupo 80530" transform="translate(354.282 3140.453)">
          <g id="Grupo_76764" data-name="Grupo 76764" transform="translate(14.457 0) rotate(20)">
            <g id="Grupo_74769" data-name="Grupo 74769" transform="translate(0 0)">
              <g id="Grupo_74760" data-name="Grupo 74760" transform="translate(0 0)">
                <g id="Grupo_74747" data-name="Grupo 74747">
                  <g id="Grupo_74746" data-name="Grupo 74746">
                    <g id="Grupo_74745" data-name="Grupo 74745">
                      <g id="Grupo_74744" data-name="Grupo 74744">
                        <g id="Grupo_74728" data-name="Grupo 74728" transform="translate(0 0)">
                          <g id="Grupo_74727" data-name="Grupo 74727" transform="translate(0)">
                            <g id="Grupo_74726" data-name="Grupo 74726">
                              <g id="Grupo_74725" data-name="Grupo 74725">
                                <path id="Trazado_110751" data-name="Trazado 110751" d="M42.005,17.812A21.132,21.132,0,1,1,17.814.266,21.133,21.133,0,0,1,42.005,17.812Z" fill="#d8dbf7"/>
                              </g>
                            </g>
                          </g>
                        </g>
                        <g id="Grupo_74731" data-name="Grupo 74731" transform="translate(0 0.266)" opacity="0.1">
                          <g id="Grupo_74730" data-name="Grupo 74730" transform="translate(0 0)">
                            <g id="Grupo_74729" data-name="Grupo 74729">
                              <path id="Trazado_110752" data-name="Trazado 110752" d="M17.814,0A21.129,21.129,0,0,0,.266,24.191s14.769-1.679,17.357-8.145S17.814,0,17.814,0Z" fill="#d8dbf7"/>
                            </g>
                          </g>
                        </g>
                        <g id="Grupo_74734" data-name="Grupo 74734" transform="translate(4.685 4.789)">
                          <g id="Grupo_74733" data-name="Grupo 74733" transform="translate(0 0)">
                            <g id="Grupo_74732" data-name="Grupo 74732">
                              <path id="Trazado_110753" data-name="Trazado 110753" d="M31.932,13.542A16.065,16.065,0,1,1,13.542.2,16.064,16.064,0,0,1,31.932,13.542Z" fill="#636363"/>
                            </g>
                          </g>
                        </g>
                        <g id="Grupo_74740" data-name="Grupo 74740" transform="translate(5.667 5.561)">
                          <g id="Grupo_74739" data-name="Grupo 74739" transform="translate(0 0)">
                            <g id="Grupo_74738" data-name="Grupo 74738">
                              <path id="Trazado_110755" data-name="Trazado 110755" d="M31.5,13.36A15.85,15.85,0,1,1,13.361.2,15.848,15.848,0,0,1,31.5,13.36Z" fill="#8e8e8e"/>
                            </g>
                          </g>
                        </g>
                      </g>
                    </g>
                  </g>
                </g>
                <g id="Grupo_74759" data-name="Grupo 74759" transform="translate(14.602 11.16)">
                  <g id="Grupo_74751" data-name="Grupo 74751" transform="translate(0.76 0)">
                    <g id="Grupo_74750" data-name="Grupo 74750" transform="translate(0 0)">
                      <g id="Grupo_74749" data-name="Grupo 74749" transform="translate(0)">
                        <g id="Grupo_74748" data-name="Grupo 74748">
                          <path id="Trazado_110757" data-name="Trazado 110757" d="M6.564,8.8l-.639-4,.021,0A8.328,8.328,0,0,1,8.163,5a6.728,6.728,0,0,1,1.1.47l.035-.131L9.683,3.8l.088-.355-.833-.636-.318.209a7.628,7.628,0,0,0-3.034-.376L5.234.443,4.46,0l.088.552L3.609.7l.357,2.244C.918,3.736-.271,5.735.051,7.759c.439,2.757,2.915,3.1,5.2,3.28l.632,3.968a7.686,7.686,0,0,1-4.208-.877L1.1,16.278a8.8,8.8,0,0,0,5.124.872l.265,1.663-.772.138.858.4L8.2,19.094l-.353-2.223c3.065-.813,4.274-2.8,3.951-4.82C11.364,9.295,8.851,8.983,6.564,8.8ZM4.871,8.64c-1.2-.154-2.127-.456-2.279-1.408-.139-.872.343-1.681,1.716-2.124ZM5.926,4.789ZM7.5,14.71,6.946,11.2c1.244.148,2.19.466,2.344,1.437C9.426,13.488,8.919,14.26,7.5,14.71Z" fill="#a4a3ff"/>
                        </g>
                      </g>
                    </g>
                  </g>
                  <g id="Grupo_74755" data-name="Grupo 74755" transform="translate(0.76 0)" opacity="0.3">
                    <g id="Grupo_74754" data-name="Grupo 74754" transform="translate(0 0)">
                      <g id="Grupo_74753" data-name="Grupo 74753" transform="translate(0)">
                        <g id="Grupo_74752" data-name="Grupo 74752">
                          <path id="Trazado_110758" data-name="Trazado 110758" d="M6.564,8.8l-.639-4,.021,0A8.328,8.328,0,0,1,8.163,5a6.728,6.728,0,0,1,1.1.47l.035-.131L9.683,3.8l.088-.355-.833-.636-.318.209a7.628,7.628,0,0,0-3.034-.376L5.234.443,4.46,0l.088.552L3.609.7l.357,2.244C.918,3.736-.271,5.735.051,7.759c.439,2.757,2.915,3.1,5.2,3.28l.632,3.968a7.686,7.686,0,0,1-4.208-.877L1.1,16.278a8.8,8.8,0,0,0,5.124.872l.265,1.663-.772.138.858.4L8.2,19.094l-.353-2.223c3.065-.813,4.274-2.8,3.951-4.82C11.364,9.295,8.851,8.983,6.564,8.8ZM4.871,8.64c-1.2-.154-2.127-.456-2.279-1.408-.139-.872.343-1.681,1.716-2.124ZM5.926,4.789ZM7.5,14.71,6.946,11.2c1.244.148,2.19.466,2.344,1.437C9.426,13.488,8.919,14.26,7.5,14.71Z" fill="#a4a3ff"/>
                        </g>
                      </g>
                    </g>
                  </g>
                  <g id="Grupo_74758" data-name="Grupo 74758" transform="translate(0 0.004)">
                    <g id="Grupo_74757" data-name="Grupo 74757" transform="translate(0 0)">
                      <g id="Grupo_74756" data-name="Grupo 74756">
                        <path id="Trazado_110759" data-name="Trazado 110759" d="M7.85,16.432,8.2,18.653l-1.626.261-.351-2.2A8.806,8.806,0,0,1,1.1,15.837l.572-2.145a7.716,7.716,0,0,0,4.21.874L5.253,10.6c-2.289-.185-4.762-.523-5.2-3.282C-.271,5.292.916,3.293,3.964,2.5L3.606.261,5.234,0l.351,2.2a8.6,8.6,0,0,1,4.22.571L9.311,4.906a8.333,8.333,0,0,0-3.385-.56l.638,4.009c2.289.185,4.8.5,5.238,3.256C12.125,13.634,10.914,15.617,7.85,16.432ZM4.871,8.2,4.309,4.666c-1.373.441-1.855,1.25-1.716,2.124C2.745,7.743,3.666,8.043,4.871,8.2Zm4.42,4c-.154-.971-1.1-1.289-2.344-1.437L7.5,14.268C8.919,13.819,9.428,13.047,9.291,12.193Z" fill="#fff"/>
                      </g>
                    </g>
                  </g>
                </g>
              </g>
              <g id="Grupo_74764" data-name="Grupo 74764" transform="translate(15.036 16.053)">
                <g id="Grupo_74763" data-name="Grupo 74763" transform="translate(0 0)">
                  <g id="Grupo_74762" data-name="Grupo 74762">
                    <g id="Grupo_74761" data-name="Grupo 74761">
                      <path id="Trazado_110760" data-name="Trazado 110760" d="M1.237,3.872A1.35,1.35,0,0,1,.7,3.486,2.54,2.54,0,0,1,.017,2.058,2.526,2.526,0,0,1,.337.5,1.333,1.333,0,0,1,.762,0C.783.019.611.2.436.555A2.657,2.657,0,0,0,.173,2.037,2.687,2.687,0,0,0,.785,3.412C1.042,3.712,1.253,3.849,1.237,3.872Z" fill="#fff"/>
                    </g>
                  </g>
                </g>
              </g>
              <g id="Grupo_74768" data-name="Grupo 74768" transform="translate(18.616 11.979)">
                <g id="Grupo_74767" data-name="Grupo 74767" transform="translate(0 0)">
                  <g id="Grupo_74766" data-name="Grupo 74766">
                    <g id="Grupo_74765" data-name="Grupo 74765">
                      <path id="Trazado_110761" data-name="Trazado 110761" d="M.233,1.306A1.462,1.462,0,0,1,.053.665,1.457,1.457,0,0,1,.026,0a1.462,1.462,0,0,1,.183.64A1.441,1.441,0,0,1,.233,1.306Z" fill="#fff"/>
                    </g>
                  </g>
                </g>
              </g>
            </g>
          </g>
          <g id="Grupo_76765" data-name="Grupo 76765" transform="translate(51.5 50.189) rotate(180)">
            <path id="Trazado_9870" data-name="Trazado 9870" d="M11.3,23.1a.994.994,0,0,1-.994-.993V9.754a.994.994,0,0,1,.994-.993H13.7L8.417,2.531l-5.28,6.23H5.531a.994.994,0,0,1,.993.993V22.107a.993.993,0,1,1-1.986,0V10.747H.993A.993.993,0,0,1,.235,9.112L7.659.352A.991.991,0,0,1,8.417,0h0a.991.991,0,0,1,.758.352L16.6,9.112a.994.994,0,0,1-.759,1.635H12.294v11.36A.994.994,0,0,1,11.3,23.1Z" transform="translate(0 0)" fill="#344154"/>
          </g>
        </g>
        <g id="Grupo_80531" data-name="Grupo 80531" transform="translate(542.4 2999.364)">
          <g id="Grupo_76764-2" data-name="Grupo 76764" transform="translate(14.457 0) rotate(20)">
            <g id="Grupo_74769-2" data-name="Grupo 74769" transform="translate(0 0)">
              <g id="Grupo_74760-2" data-name="Grupo 74760" transform="translate(0 0)">
                <g id="Grupo_74747-2" data-name="Grupo 74747">
                  <g id="Grupo_74746-2" data-name="Grupo 74746">
                    <g id="Grupo_74745-2" data-name="Grupo 74745">
                      <g id="Grupo_74744-2" data-name="Grupo 74744">
                        <g id="Grupo_74728-2" data-name="Grupo 74728" transform="translate(0 0)">
                          <g id="Grupo_74727-2" data-name="Grupo 74727" transform="translate(0)">
                            <g id="Grupo_74726-2" data-name="Grupo 74726">
                              <g id="Grupo_74725-2" data-name="Grupo 74725">
                                <path id="Trazado_110751-2" data-name="Trazado 110751" d="M42.005,17.812A21.132,21.132,0,1,1,17.814.266,21.133,21.133,0,0,1,42.005,17.812Z" fill="#dee4f0"/>
                              </g>
                            </g>
                          </g>
                        </g>
                        <g id="Grupo_74731-2" data-name="Grupo 74731" transform="translate(0 0.266)" opacity="0.1">
                          <g id="Grupo_74730-2" data-name="Grupo 74730" transform="translate(0 0)">
                            <g id="Grupo_74729-2" data-name="Grupo 74729">
                              <path id="Trazado_110752-2" data-name="Trazado 110752" d="M17.814,0A21.129,21.129,0,0,0,.266,24.191s14.769-1.679,17.357-8.145S17.814,0,17.814,0Z" fill="#fff"/>
                            </g>
                          </g>
                        </g>
                        <g id="Grupo_74734-2" data-name="Grupo 74734" transform="translate(4.685 4.789)">
                          <g id="Grupo_74733-2" data-name="Grupo 74733" transform="translate(0 0)">
                            <g id="Grupo_74732-2" data-name="Grupo 74732">
                              <path id="Trazado_110753-2" data-name="Trazado 110753" d="M31.932,13.542A16.065,16.065,0,1,1,13.542.2,16.064,16.064,0,0,1,31.932,13.542Z" fill="#636363"/>
                            </g>
                          </g>
                        </g>
                        <g id="Grupo_74740-2" data-name="Grupo 74740" transform="translate(5.667 5.561)">
                          <g id="Grupo_74739-2" data-name="Grupo 74739" transform="translate(0 0)">
                            <g id="Grupo_74738-2" data-name="Grupo 74738">
                              <path id="Trazado_110755-2" data-name="Trazado 110755" d="M31.5,13.36A15.85,15.85,0,1,1,13.361.2,15.848,15.848,0,0,1,31.5,13.36Z" fill="#8e8e8e"/>
                            </g>
                          </g>
                        </g>
                      </g>
                    </g>
                  </g>
                </g>
                <g id="Grupo_74759-2" data-name="Grupo 74759" transform="translate(14.602 11.16)">
                  <g id="Grupo_74751-2" data-name="Grupo 74751" transform="translate(0.76 0)">
                    <g id="Grupo_74750-2" data-name="Grupo 74750" transform="translate(0 0)">
                      <g id="Grupo_74749-2" data-name="Grupo 74749" transform="translate(0)">
                        <g id="Grupo_74748-2" data-name="Grupo 74748">
                          <path id="Trazado_110757-2" data-name="Trazado 110757" d="M6.564,8.8l-.639-4,.021,0A8.328,8.328,0,0,1,8.163,5a6.728,6.728,0,0,1,1.1.47l.035-.131L9.683,3.8l.088-.355-.833-.636-.318.209a7.628,7.628,0,0,0-3.034-.376L5.234.443,4.46,0l.088.552L3.609.7l.357,2.244C.918,3.736-.271,5.735.051,7.759c.439,2.757,2.915,3.1,5.2,3.28l.632,3.968a7.686,7.686,0,0,1-4.208-.877L1.1,16.278a8.8,8.8,0,0,0,5.124.872l.265,1.663-.772.138.858.4L8.2,19.094l-.353-2.223c3.065-.813,4.274-2.8,3.951-4.82C11.364,9.295,8.851,8.983,6.564,8.8ZM4.871,8.64c-1.2-.154-2.127-.456-2.279-1.408-.139-.872.343-1.681,1.716-2.124ZM5.926,4.789ZM7.5,14.71,6.946,11.2c1.244.148,2.19.466,2.344,1.437C9.426,13.488,8.919,14.26,7.5,14.71Z" fill="#d9a171"/>
                        </g>
                      </g>
                    </g>
                  </g>
                  <g id="Grupo_74755-2" data-name="Grupo 74755" transform="translate(0.76 0)" opacity="0.3">
                    <g id="Grupo_74754-2" data-name="Grupo 74754" transform="translate(0 0)">
                      <g id="Grupo_74753-2" data-name="Grupo 74753" transform="translate(0)">
                        <g id="Grupo_74752-2" data-name="Grupo 74752">
                          <path id="Trazado_110758-2" data-name="Trazado 110758" d="M6.564,8.8l-.639-4,.021,0A8.328,8.328,0,0,1,8.163,5a6.728,6.728,0,0,1,1.1.47l.035-.131L9.683,3.8l.088-.355-.833-.636-.318.209a7.628,7.628,0,0,0-3.034-.376L5.234.443,4.46,0l.088.552L3.609.7l.357,2.244C.918,3.736-.271,5.735.051,7.759c.439,2.757,2.915,3.1,5.2,3.28l.632,3.968a7.686,7.686,0,0,1-4.208-.877L1.1,16.278a8.8,8.8,0,0,0,5.124.872l.265,1.663-.772.138.858.4L8.2,19.094l-.353-2.223c3.065-.813,4.274-2.8,3.951-4.82C11.364,9.295,8.851,8.983,6.564,8.8ZM4.871,8.64c-1.2-.154-2.127-.456-2.279-1.408-.139-.872.343-1.681,1.716-2.124ZM5.926,4.789ZM7.5,14.71,6.946,11.2c1.244.148,2.19.466,2.344,1.437C9.426,13.488,8.919,14.26,7.5,14.71Z" fill="#d9a171"/>
                        </g>
                      </g>
                    </g>
                  </g>
                  <g id="Grupo_74758-2" data-name="Grupo 74758" transform="translate(0 0.004)">
                    <g id="Grupo_74757-2" data-name="Grupo 74757" transform="translate(0 0)">
                      <g id="Grupo_74756-2" data-name="Grupo 74756">
                        <path id="Trazado_110759-2" data-name="Trazado 110759" d="M7.85,16.432,8.2,18.653l-1.626.261-.351-2.2A8.806,8.806,0,0,1,1.1,15.837l.572-2.145a7.716,7.716,0,0,0,4.21.874L5.253,10.6c-2.289-.185-4.762-.523-5.2-3.282C-.271,5.292.916,3.293,3.964,2.5L3.606.261,5.234,0l.351,2.2a8.6,8.6,0,0,1,4.22.571L9.311,4.906a8.333,8.333,0,0,0-3.385-.56l.638,4.009c2.289.185,4.8.5,5.238,3.256C12.125,13.634,10.914,15.617,7.85,16.432ZM4.871,8.2,4.309,4.666c-1.373.441-1.855,1.25-1.716,2.124C2.745,7.743,3.666,8.043,4.871,8.2Zm4.42,4c-.154-.971-1.1-1.289-2.344-1.437L7.5,14.268C8.919,13.819,9.428,13.047,9.291,12.193Z" fill="#a4a3ff"/>
                      </g>
                    </g>
                  </g>
                </g>
              </g>
              <g id="Grupo_74764-2" data-name="Grupo 74764" transform="translate(15.036 16.053)">
                <g id="Grupo_74763-2" data-name="Grupo 74763" transform="translate(0 0)">
                  <g id="Grupo_74762-2" data-name="Grupo 74762">
                    <g id="Grupo_74761-2" data-name="Grupo 74761">
                      <path id="Trazado_110760-2" data-name="Trazado 110760" d="M1.237,3.872A1.35,1.35,0,0,1,.7,3.486,2.54,2.54,0,0,1,.017,2.058,2.526,2.526,0,0,1,.337.5,1.333,1.333,0,0,1,.762,0C.783.019.611.2.436.555A2.657,2.657,0,0,0,.173,2.037,2.687,2.687,0,0,0,.785,3.412C1.042,3.712,1.253,3.849,1.237,3.872Z" fill="#fff"/>
                    </g>
                  </g>
                </g>
              </g>
              <g id="Grupo_74768-2" data-name="Grupo 74768" transform="translate(18.616 11.979)">
                <g id="Grupo_74767-2" data-name="Grupo 74767" transform="translate(0 0)">
                  <g id="Grupo_74766-2" data-name="Grupo 74766">
                    <g id="Grupo_74765-2" data-name="Grupo 74765">
                      <path id="Trazado_110761-2" data-name="Trazado 110761" d="M.233,1.306A1.462,1.462,0,0,1,.053.665,1.457,1.457,0,0,1,.026,0a1.462,1.462,0,0,1,.183.64A1.441,1.441,0,0,1,.233,1.306Z" fill="#fff"/>
                    </g>
                  </g>
                </g>
              </g>
            </g>
          </g>
          <g id="Grupo_76765-2" data-name="Grupo 76765" transform="translate(34.669 27.088)">
            <path id="Trazado_9870-2" data-name="Trazado 9870" d="M387.594,2559.929a.994.994,0,0,1-.994-.994v-12.353a.994.994,0,0,1,.994-.993h2.394l-5.278-6.23-5.28,6.23h2.394a.994.994,0,0,1,.993.993v12.353a.993.993,0,1,1-1.986,0v-11.359h-3.544a.993.993,0,0,1-.758-1.635l7.424-8.76a.992.992,0,0,1,.758-.352h0a.992.992,0,0,1,.758.352l7.422,8.76a.993.993,0,0,1-.759,1.635h-3.543v11.359A.994.994,0,0,1,387.594,2559.929Z" transform="translate(-376.293 -2536.828)" fill="#344154"/>
          </g>
        </g>
      </g>
    </g>
  </g>
</svg>
