<svg xmlns="http://www.w3.org/2000/svg" width="118.209" height="118.209" viewBox="0 0 118.209 118.209">
  <g id="Icon" transform="translate(0.308 -0.238)">
    <circle id="Base" cx="59.104" cy="59.104" r="59.104" transform="translate(-0.308 0.238)" fill="#fff"/>
    <g id="blGqJN" transform="translate(58.625 -60.482)">
      <g id="Grupo_166636" data-name="Grupo 166636" transform="translate(-36 84.97)">
        <path id="Trazado_210905" data-name="Trazado 210905" d="M22.412,91.491h4.08c.524,0,1.048,0,1.572,0,.958.008,1.389.431,1.392,1.4.006,2.458,0,4.916,0,7.374q0,9.787,0,19.575v.694h1.573c1.392,0,2.784,0,4.175,0a2.734,2.734,0,0,1,2.938,2.942q0,7.374,0,14.749,0,5.661,0,11.323a2.728,2.728,0,0,1-2.8,2.871c-.217.007-.434,0-.651,0q-26.651,0-53.3.008a2.486,2.486,0,0,1-1.6-.519c-3.3-2.5-6.61-4.977-9.917-7.462q-2.636-1.981-5.273-3.96a1.228,1.228,0,0,1-.568-1.195c.041-.409-.035-.827-.035-1.242q0-16.24,0-32.48a2.646,2.646,0,0,1,2.635-2.842c1.515-.076,3.035-.035,4.553-.039,1.681,0,3.362-.023,5.042.012.538.011.651-.169.649-.674-.017-5.187-.011-10.375-.01-15.562,0-1.125.365-1.493,1.487-1.493H20.923c1.108,0,1.487.385,1.488,1.508C22.414,88.121,22.412,89.763,22.412,91.491ZM-18,150.144H34.89c.938,0,.977-.041.977-.974q0-5.47,0-10.941,0-7.211,0-14.422c0-.983-.019-1-1-1q-9.84,0-19.68-.013a2.617,2.617,0,0,1-1.224-.319c-3.034-1.708-6.048-3.452-9.077-5.171a1.773,1.773,0,0,0-.811-.217c-1.265-.023-2.53-.008-3.795-.01q-5.908-.01-11.816-.023-2.845,0-5.689,0c-.671,0-.817.16-.811.779.014,1.534.029,3.068.03,4.6q0,13.5,0,27Zm4.219-35.339h.666c5.837,0,11.675-.008,17.512.016a2.943,2.943,0,0,1,1.373.37c2.671,1.507,5.323,3.05,7.973,4.594a5.14,5.14,0,0,0,2.8.768c3.324-.068,6.65-.025,9.975-.025h.665v-4.253q0-10.9,0-21.8c0-.717,0-.718-.688-.718H-13.782Zm-6.487,34.182v-.858q0-4.5,0-9,0-8.13-.014-16.26a.924.924,0,0,0-.245-.656c-1.65-1.278-3.319-2.532-4.99-3.782q-3.208-2.4-6.426-4.789c-.557-.414-1.116-.824-1.747-1.29-.017.228-.034.348-.034.468q0,12.819.011,25.637a.911.911,0,0,0,.286.633c1.084.865,2.189,1.7,3.3,2.537q3.662,2.745,7.334,5.475Zm.071-29.423c0-.862,0-1.635,0-2.408a2.06,2.06,0,0,1,.714-1.524,3.151,3.151,0,0,1,2.228-.826c.373-.006.745,0,1.172,0v-.717q0-10.545,0-21.09c0-1.125.377-1.508,1.48-1.508H20.142v-4.2H-20.826c-.01.118-.022.19-.022.262q-.02,15.586-.045,31.172C-20.894,119.167-20.691,119.379-20.2,119.565Zm-2.932-2.094v-2.542c0-3.141-.009-6.283.009-9.424,0-.436-.13-.558-.552-.546-.974.027-1.95.008-2.925.008-2.112,0-4.225,0-6.337,0-.678,0-.791.121-.792.78,0,1.065.017,2.131-.009,3.2a.924.924,0,0,0,.437.848q3.669,2.732,7.315,5.494C-25.068,115.979-24.162,116.681-23.13,117.47Z" transform="translate(36 -84.97)" fill="#12263f"/>
        <path id="Trazado_210906" data-name="Trazado 210906" d="M175.189,525.612c1.319,0,2.637,0,3.956,0a4.593,4.593,0,0,1,4.766,4.786q0,3.655,0,7.309c0,.822-.418,1.3-1.119,1.306-.725.008-1.147-.477-1.152-1.327,0-.072,0-.145,0-.217q0-3.519,0-7.039a2.328,2.328,0,0,0-2.515-2.546q-3.983-.024-7.966,0a2.3,2.3,0,0,0-2.47,2.482c-.02,2.4-.007,4.8-.008,7.207,0,.458.019.978-.451,1.193a1.875,1.875,0,0,1-1.161.126c-.477-.123-.647-.579-.646-1.077,0-2.059,0-4.118,0-6.177,0-.614-.011-1.229.028-1.841a4.508,4.508,0,0,1,4.247-4.161c1.5-.054,3-.01,4.5-.01Z" transform="translate(-144.464 -477.822)" fill="#12263f"/>
        <path id="Trazado_210907" data-name="Trazado 210907" d="M200.374,423.018a4.93,4.93,0,0,1,2.776-4.981,5.062,5.062,0,0,1,7.348,4.421,6.341,6.341,0,0,1-.8,3.8,5.127,5.127,0,0,1-5.7,2.088,4.974,4.974,0,0,1-3.62-4.84C200.372,423.343,200.374,423.181,200.374,423.018Zm2.272-.039c0,.181,0,.361,0,.542a2.784,2.784,0,0,0,5.53.436,8.663,8.663,0,0,0,.035-1.458,2.764,2.764,0,0,0-3.424-2.649C203.348,420.2,202.639,421.234,202.646,422.979Z" transform="translate(-174.733 -381.416)" fill="#12263f"/>
        <path id="Trazado_210908" data-name="Trazado 210908" d="M280.137,578.183q0,1.406,0,2.811a1.146,1.146,0,1,1-2.274-.006q0-2.783.025-5.567a1.17,1.17,0,0,1,1.154-1.288,1.131,1.131,0,0,1,1.062,1.292c0,.108,0,.216,0,.325q0,1.217,0,2.433Z" transform="translate(-243.825 -521.083)" fill="#12263f"/>
        <path id="Trazado_210909" data-name="Trazado 210909" d="M197.471,578.191c0,.992,0,1.984,0,2.976a1.012,1.012,0,0,1-.745,1.017,1.036,1.036,0,0,1-1.255-.376,1.423,1.423,0,0,1-.237-.751q-.029-2.868,0-5.736a1.13,1.13,0,1,1,2.251,0c.014.956,0,1.912,0,2.868Z" transform="translate(-170.142 -521.046)" fill="#12263f"/>
        <path id="Trazado_210910" data-name="Trazado 210910" d="M383.964,196.026c-.121.645-.237,1.485-.446,2.3a1.125,1.125,0,0,1-1.448.868,1.168,1.168,0,0,1-.712-1.533,5.747,5.747,0,0,0-4.316-7.428,5.76,5.76,0,1,0,2.767,9.841,1.242,1.242,0,0,1,1.327-.378,1.143,1.143,0,0,1,.305,1.98,7.844,7.844,0,0,1-4.616,2.19,8.05,8.05,0,1,1,6.919-9.6C383.849,194.775,383.876,195.3,383.964,196.026Z" transform="translate(-324.02 -176.671)" fill="#12263f"/>
        <path id="Trazado_210911" data-name="Trazado 210911" d="M399.9,220.79c-.922,0-1.751,0-2.58,0a1.144,1.144,0,1,1-.017-2.272c.844-.008,1.688,0,2.6,0,0-.884,0-1.709,0-2.535s.407-1.292,1.12-1.292,1.132.476,1.143,1.29,0,1.651,0,2.537c.9,0,1.746-.006,2.59,0a1.162,1.162,0,0,1,1.223.925,1.109,1.109,0,0,1-1.117,1.342c-.865.018-1.73,0-2.7,0,0,.345,0,.659,0,.974,0,.6.026,1.194-.014,1.787a1.126,1.126,0,1,1-2.251-.1C399.9,222.588,399.9,221.726,399.9,220.79Z" transform="translate(-349.181 -200.62)" fill="#12263f"/>
      </g>
    </g>
  </g>
</svg>
