<svg xmlns="http://www.w3.org/2000/svg" width="118.209" height="118.209" viewBox="0 0 118.209 118.209">
  <g id="Icon" transform="translate(0.308 -0.238)">
    <circle id="Base" cx="59.104" cy="59.104" r="59.104" transform="translate(-0.308 0.238)" fill="#fff"/>
    <g id="yi6H7r" transform="translate(-64.329 -167.536)">
      <g id="Grupo_166637" data-name="Grupo 166637" transform="translate(88.794 192.998)">
        <path id="Trazado_210912" data-name="Trazado 210912" d="M150.967,219.488h3.154l-3.233,34.558H92.029l-3.235-34.565h3.143v-7.12h9.18V211.1c0-2.257-.014-4.515.016-6.772a1.437,1.437,0,0,1,.36-.911q4.949-5,9.95-9.947a1.63,1.63,0,0,1,1.025-.451q14.41-.036,28.82-.019c.124,0,.248.013.464.025v14.2c.349.02.612.047.874.048,1.43,0,2.86-.022,4.288.022a1.157,1.157,0,0,1,.827.439c1.04,1.655,2.039,3.336,3.024,5.025a1.792,1.792,0,0,1,.194.853c.018,1.655.008,3.311.008,4.966ZM134.7,221.546v.963c0,4.916.02,9.833-.008,14.749a5.948,5.948,0,0,1-3.592,5.7c-3,1.441-6.026,2.847-9.031,4.287a1.228,1.228,0,0,1-1.19.014c-2.958-1.422-5.929-2.818-8.9-4.214a6.117,6.117,0,0,1-3.762-5.981q0-7.3,0-14.6v-.9H91.037l2.477,26.4h15.679v2.064H93.777c0,.315-.016.561,0,.8.031.37.086.739.134,1.125h55.118l.151-1.961h-15.47v-2.066h15.693c.828-8.838,1.649-17.588,2.474-26.386Zm5.052-26.414H113.289v10.076c-3.166,0-6.251.019-9.334-.015-.659-.008-.851.162-.847.834.031,4.214.015,8.429.017,12.644,0,.243.025.486.039.751h5.081V211.4h26.47v8.028h5.031ZM110.32,213.4c-.015.275-.036.473-.036.67q0,11.623,0,23.247a3.923,3.923,0,0,0,2.368,3.785q4.128,1.992,8.293,3.907a1.388,1.388,0,0,0,1.032,0c2.731-1.256,5.44-2.557,8.16-3.837a4.017,4.017,0,0,0,2.5-3.928q-.012-11.51-.005-23.021c0-.264-.028-.527-.044-.82Zm38.614,6.045c0-1.911.006-3.737-.009-5.564a1.2,1.2,0,0,0-.2-.556c-.714-1.209-1.432-2.415-2.168-3.609-.106-.172-.313-.4-.478-.4-1.4-.032-2.794-.018-4.219-.018v10.148Zm-54.883-5.032v5h7.008v-5Zm17.175-17.576-6.316,6.311h6.316Z" transform="translate(-88.794 -192.998)" fill="#12263f"/>
        <path id="Trazado_210913" data-name="Trazado 210913" d="M272.192,263v-1.917h19.274V263Z" transform="translate(-244.586 -250.839)" fill="#12263f"/>
        <path id="Trazado_210914" data-name="Trazado 210914" d="M286.363,288.277v1.887h-14.2v-1.887Z" transform="translate(-244.559 -273.935)" fill="#12263f"/>
        <path id="Trazado_210915" data-name="Trazado 210915" d="M272.179,235.947v-1.912h9.079v1.912Z" transform="translate(-244.575 -227.858)" fill="#12263f"/>
        <path id="Trazado_210916" data-name="Trazado 210916" d="M346.722,235.97v-1.919h8.058v1.919Z" transform="translate(-307.897 -227.871)" fill="#12263f"/>
        <path id="Trazado_210917" data-name="Trazado 210917" d="M245.226,347.962h4.014c0-.666,0-1.257,0-1.847a4.074,4.074,0,0,1,4.245-4.27c.6,0,1.2-.006,1.806,0a4.069,4.069,0,0,1,4.142,4.071c.015.645,0,1.292,0,2.013h4.015v16.258H245.226Zm16.189,2.075H247.293v12.1h14.122Zm-4.041-2.136c-.116-1.364.534-2.955-1.026-3.7a4.4,4.4,0,0,0-4.188.1c-1.38.832-.731,2.321-.853,3.6Z" transform="translate(-221.679 -319.436)" fill="#12263f"/>
        <path id="Trazado_210918" data-name="Trazado 210918" d="M289.379,417.554H287.4a.757.757,0,0,1-.077-.236,2.64,2.64,0,0,0-1.111-2.7c-1.378-1.01-1.193-3.192.1-4.372a3.047,3.047,0,0,1,4.358.3,2.927,2.927,0,0,1-.438,4.311,1.71,1.71,0,0,0-.857,1.835C289.4,416.958,289.379,417.229,289.379,417.554Zm-1.027-6.048a1.056,1.056,0,0,0-1.025,1,1.033,1.033,0,0,0,1.011,1.008,1.018,1.018,0,0,0,1.021-1A1.041,1.041,0,0,0,288.352,411.507Z" transform="translate(-255.685 -376.881)" fill="#12263f"/>
      </g>
    </g>
  </g>
</svg>
